<?xml version="1.0" encoding="utf-8"?>
<!-- Generator: Adobe Illustrator 20.1.0, SVG Export Plug-In . SVG Version: 6.00 Build 0)  -->
<svg version="1.1" id="Слой_1" xmlns="http://www.w3.org/2000/svg" xmlns:xlink="http://www.w3.org/1999/xlink" x="0px" y="0px"
	 viewBox="0 0 226 72.3" style="enable-background:new 0 0 226 72.3;" xml:space="preserve">
<style type="text/css">
	.st0{fill:#785448;}
	.st1{fill:#FFFCFC;}
</style>
<title>chocolate</title>
<path class="st0" d="M101,51.9c17.1-2,34.3-2.6,51.4-1.7l-1.6-11.8c-13.6,4.2-27.4,7.8-41.4,10.6c-7.1,1.5-4.6,11.1,1.6,11.8
	l13.2,1.4l5.6,0.6l3.8,0.4c1.7,0.5,1.9,0.2,0.5-0.8l5.2-9c-8.4,1-16.8,1.5-25.2,1.4c-7.5-0.1-15.1-0.3-21.7-4s-12.8,6.6-6.1,10.4
	c15.3,8.6,36.3,6.2,53,4.2c4.1-0.5,8-4.9,5.2-9c-3.3-4.9-8.2-4.8-13.7-5.4L111,48.9l1.6,11.8c14-2.9,27.8-6.4,41.4-10.6
	c6.6-2,5.2-11.4-1.6-11.8C135.3,37.4,118,38,101,40C93.4,40.9,93.3,52.9,101,51.9L101,51.9z"/>
<path class="st0" d="M4.9,67.5c64.9-0.7,129.9-0.3,194.8,1.2c3.2,0.1,3.2-4.9,0-5c-64.9-1.5-129.8-1.9-194.8-1.2
	C1.7,62.5,1.7,67.5,4.9,67.5z"/>
<path class="st0" d="M200.1,69h18.2c3.2,0,3.2-5,0-5h-18.2C196.9,64,196.9,69,200.1,69z"/>
<path class="st0" d="M8,63.7c-1.7-5-1.4-10.1-1.2-15.3C7,42.7,7,37,6.6,31.3C6.3,26.6,5.7,22,5.1,17.4c-0.4-3.1-1-7.4,1.4-10
	s6.2-1.8,9.1-1.1c9.2,2.1,17.5,4.1,27.1,3.7c9.8-0.4,19.5-2.1,29.2-3.4c10.3-1.4,20.4-2.2,30.8-1.3s20.4,2.2,30.7,2.6
	c21,0.8,42.1,0.5,63.2,0.5c5.9,0,12.3,0,17.6,3.2c5.9,3.5,7,8.9,6.6,15.4c-0.7,12.1-2.8,24-6.2,35.6c-0.9,3.1,3.9,4.4,4.8,1.3
	c3.3-11.4,5.4-23.2,6.3-35.1c0.6-9.2-1-17.2-9.6-21.9c-9.2-5-21-3.4-31.1-3.4c-12.8,0-25.5-0.1-38.3-0.2c-12-0.2-23.9-0.7-35.8-2
	C99.1-0.3,87.3-0.3,75.6,1.1c-11.6,1.5-23.1,3.8-34.7,4c-5.6,0.2-11.3-0.4-16.8-1.6c-4.9-1.2-9.8-3.3-14.9-2.7
	c-12.5,1.7-9,16.3-8.1,24.8c0.7,6.9,0.9,13.9,0.8,20.9C1.7,52.8,1.2,59,3.2,65.1C4.2,68.1,9,66.8,8,63.7L8,63.7z"/>
<path class="st0" d="M217,66.8c2.9-0.9,4.2-3.2,4.5-6.1c0.4-4,0.1-8.2,0-12.3c0-3.2-5-3.2-5,0c0,1.8,1.1,13-0.9,13.6
	C212.6,62.9,213.9,67.7,217,66.8L217,66.8z"/>
<path class="st0" d="M219.8,65.9c1.6-10,2.3-20.1,2.2-30.2c-0.1-3.2-5.1-3.2-5,0c0.2,9.7-0.5,19.3-2,28.9
	C214.4,67.8,219.3,69.1,219.8,65.9L219.8,65.9z"/>
<path class="st0" d="M1.1,64.1c1,3.7,4.1,5.3,7.8,4.9c3.4-0.4,6.6-1.5,10-1.7c3-0.1,6,0,9,0.4c6.3,0.7,12.6,1.9,19,2.1
	c6.2,0.2,12.1-1.2,18.2-2.2c13-2.2,25,3.2,38,3.8c12.5,0.5,24.9-1.6,36.5-6.3c3-1.2,1.7-6-1.3-4.8c-10.4,4.2-21.4,6.3-32.6,6.2
	c-5.7-0.1-11.5-0.8-17.1-2.1c-5.3-1.2-10.4-2.8-15.8-2.7c-5.2,0.1-10.4,1.4-15.5,2.2c-5.8,1-11.8,1-17.6,0.3
	c-5.4-0.6-10.8-1.6-16.2-1.9c-2.1-0.1-17.1,2.1-17.5,0.4C5.1,59.6,0.3,60.9,1.1,64.1L1.1,64.1z"/>
<path class="st0" d="M134.2,66.2c7.4-0.5,13.8,1,20.8,3c6.5,1.9,13.2,2.9,20,3c13.8,0.3,27.6-2.5,41-5.3c3.1-0.6,1.8-5.5-1.3-4.8
	c-13.7,2.8-27.5,5.7-41.6,5.1c-13.4-0.6-25.5-6.9-39-5.9C130.9,61.5,130.9,66.5,134.2,66.2L134.2,66.2z"/>
<path class="st0" d="M6.1,60.8c-0.8-0.5,0-6.2,0-7.4v-8.8L6.2,27c0-3.2-5-3.2-5,0L1.1,50.5c0,4.4-1.8,11.7,2.5,14.6
	C6.2,67,8.7,62.7,6.1,60.8L6.1,60.8z"/>
<path class="st0" d="M30.5,30.4c2.9,6.3,11.5,8.8,17.9,8c7-0.9,7.7-8.8,1-11c-6.2-2-12.5,1.7-15.1,7.4c-2.9,6.2-0.2,13,7.5,12.3
	c5.4-0.5,14-4.4,15.3-10.4c1.7-7.8-8.6-9.9-14.2-9.1c-6,0.8-12.6,5.4-12.8,12c-0.2,7.4,7.5,9.9,13.6,9s15.4-7.3,11.7-14.7
	c-1.5-3-5-4.3-8.1-3.1c-3.5,1.5-4.1,5.7-7.3,7.5l6,3.4c-0.2-1.4-0.1-2.9,0.2-4.3c1.3-5-6.4-7.1-7.7-2.1c-0.6,2.1-0.7,4.3-0.5,6.4
	c0.3,3,3.2,5,6,3.4c2.1-1.1,4-2.8,5.3-4.8c0.9-1.4,1.9-1.9-0.1-2.4s-2,0.7-3.6,1.6c-1,0.6-6.6,2.3-7.5,0.4c-0.7-1.5,2.3-3.5,3.2-4
	c1.3-0.6,2.6-0.8,4-0.8c0.6,0,3.5,0.9,4,0.7c0.3-1.5,0.1-1.8-0.5-1c-0.4,0.4-0.8,0.9-1.2,1.3c-0.9,0.7-1.9,1.4-3,1.9
	c-1.1,0.5-2.2,0.9-3.4,1c-0.4,1.1-0.4,1,0-0.3l0.5-1c0.8-1.6,3.8-4.5,5.8-2.5l-1.2-2.8c-0.1-2.1,1.9-1.8-1.1-2
	c-1.1-0.1-2.2-0.3-3.3-0.7c-1.9-0.7-3.6-1.6-4.5-3.5C35.3,21.6,28.4,25.7,30.5,30.4L30.5,30.4z"/>
<path class="st0" d="M58.3,45.1c-4.6,0.1-9.3,0.2-13.9,0.1c-1.2,0-12.2-0.6-12.2-0.2l-1.2,2.8c-1,1-0.1,0.2,1,0.1
	c1.4-0.1,2.8-0.3,4.2-0.5c2.5-0.3,5-0.5,7.5-0.8c3.3-0.5,8.4-1,9.7-4.7c2.9-8.1-8.9-10.6-14.3-10.8c-5.2-0.1-5.2,7.9,0,8
	c2.5,0.1,6-0.1,7.2,2.6l-0.4-3.1l-0.2,1.1l1.9-2.4c-4,2.3-30,0.5-22.1,11.4c2.8,3.9,8.2,4,12.5,4.2c6.8,0.4,13.6,0.2,20.4,0.1
	C63.5,53,63.5,45,58.3,45.1L58.3,45.1z"/>
<path class="st0" d="M21.6,27.7c-0.2,3.8-0.2,7.6,0,11.4c0,2.2,1.8,4,4,4c1.8,0,3.4-1.2,3.9-3c1.9-5.2,2.8-10.7,2.5-16.2
	c-0.2-3.6-5.7-5.9-7.5-2c-3.4,7.7-4.4,19.9,0.9,27c1.8,2.5,6.5,2.7,7.3-1c1.3-6.3,0.3-12.2-1.2-18.4L25.6,34c3,1.7,7.4,3.3,10.6,1.2
	c2.9-1.9,3.2-6.1,1.5-9c-1.5-2.6-4.9-4.2-7.6-2.5c-3.6,2.1-3.8,8.3-3.4,11.9c0.5,5.1,8.6,5.1,8,0c-0.2-2.2-0.4-4.5,0.9-6.4l-3.4,2
	L31,29.2l2.8-1.2c-1.5,0.2-2.9-0.2-4.2-1c-1.9-1.1-4.4-0.5-5.5,1.4c-0.5,0.9-0.7,2.1-0.4,3.1c1.1,4.7,2.2,9.4,1.2,14.2l7.3-1
	c-3.4-4.7-3.2-13.8-0.9-18.9l-7.5-2c0.3,4.8-0.5,9.6-2.2,14.1l7.8,1.1c-0.2-3.8-0.2-7.6,0-11.3C29.9,22.5,21.9,22.6,21.6,27.7z"/>
<path class="st0" d="M17.1,37.5L7.1,55.6c-2,3.6,0.4,9.6,5.2,9l31.3-4c6.2-0.8,8.8-10.1,1.6-11.8c-3.6-0.8-7.1-1.8-10.6-3
	c-3.2-1.2-5.9-3.4-9.1-4.5c-2.6-0.9-5.4-1-8.1-0.2c-2,0.6-5.8,3.5-7.8,3.1l4.2,7.4c2.3-6.2,3.3-12.8,3-19.5
	c-0.1-3.2-0.4-6.5-0.8-9.7c-0.3-2.4-1.9-7.3-1-9.7l-2.8,3.6c1.3-0.8,7.5,2.3,9.1,2.7c3.1,0.8,6.3,1.5,9.5,1.9
	c6.7,0.9,13.5,1,20.3,0.2L49.4,9.3c-4.7,1.8-9.5,3.2-14.5,4.1c-5.3,0.9-10.5,0.6-15.8,0.9c-12.3,0.6-6.9,14.4-3.4,20.9
	c1.7,2.9,5.4,3.8,8.2,2.1c0.4-0.3,0.8-0.6,1.2-0.9l6.7-7.4l-9.4-7.3c-2.6,4.1-5.8,7.8-9.4,11l8.5,8.5C35.1,27.8,54,20.9,72.3,28.4
	V16.8c-7.9,1.4-17.1,1.8-24.7,4.6c-5.8,2.3-9.6,7.9-9.8,14.1C38,50.2,67,43.1,75.1,41.8l-4.6-11l-28.2,17c-6.2,3.7-1.8,12,4.6,11
	l16.8-2.7l-4.6-11C51,50.9,41.3,52,31.6,52.9c-7.6,0.7-7.8,12.3,0,12l30.2-1.2c7.7-0.3,7.7-12.3,0-12l-30.2,1.2v12
	c11.7-1.1,23.7-2.4,33.5-9.4c5.7-4.1,2.2-12-4.6-11l-16.8,2.7l4.6,11l28.2-17c6.1-3.7,1.8-12.1-4.6-11c-4.4,0.8-8.9,1.5-13.4,1.9
	c-2.5,0.2-5,0.2-7.5,0.1c-1.1,0-2.1-0.1-3.2-0.3c1.1,3.9,1.9,4.9,2.4,2.9c0.2-0.6,0.5-1.3,0.9-1.8c1-0.5,2-0.7,3.1-0.9
	c2.2-0.5,4.6-0.8,6.8-1.2l14.6-2.5c6.5-1.1,4.8-9.6,0-11.6c-22.1-9-46.2-0.2-62.4,16c-5.5,5.5,2.8,13.7,8.5,8.5
	c4.3-4,8.1-8.5,11.2-13.4c3.7-5.7-4.8-12.3-9.4-7.3L16.8,28l9.4,1.2c-0.8-1.4-1.5-2.9-2.1-4.4l-0.5-1.5c-0.5-1.8-0.6-2.1-0.3-0.8
	l-2.8,3.6c-1.4,0.7,1.3,0.3,2,0.3c1.5,0,3,0,4.4-0.1c2.9-0.1,5.8-0.4,8.6-0.9c5.8-0.9,11.6-2.4,17.1-4.5c5.8-2.2,5.7-12.7-1.6-11.8
	C43.5,10.2,35.6,9.9,28,8.4C21.7,7,12.9,2,6.6,5.8S3.7,19.3,4.3,25.1c0.8,8,0.9,15.7-2.1,23.3c-1.1,2.9,1.2,6.8,4.2,7.4
	c2.9,0.6,6,0.4,8.8-0.8c2.2-0.9,4.5-2.8,6.8-2.1c2.9,0.9,5.7,3.1,8.6,4.2c3.7,1.3,7.6,2.4,11.4,3.2l1.6-11.8l-31.3,4l5.2,9
	l10.1-18.1C31.3,36.8,21,30.7,17.1,37.5L17.1,37.5z"/>
<path class="st0" d="M65.9,63.8c16.7,0,33.4-1.7,49.8-5.2c6.5-1.4,5.2-12.6-1.6-11.8c-17.5,2.3-35.2-0.4-51.3-7.6l-1.4,11
	c13.4-4.3,27.1-7.8,40.9-10.5c5.6-1.1,5.2-8.2,1.4-11C100,26,95.2,26.5,91,26.4c-4.5-0.1-8.9-0.1-13.4-0.1s-8.9,0.1-13.4,0.2
	c-1.8,0-8.6,1.1-9.3-0.4l-5.2,9c4.1-0.6,8.2-0.9,12.4-0.8c2.4,0.1,4.8,0.3,7.2,0.8c1,0.2,4.4,1.8,5.1,1.4c1.8-3.5,1.8-4.5,0-3.2
	c-0.7,0.4-1.4,0.9-2.1,1.5c-1,0.9-1.7,2.1-2.2,3.3c-1,3.1,0.1,6.1,2.2,8.4c11.3,12.6,28.6,4.7,42.2,2.5c7.6-1.2,4.4-12.8-3.2-11.6
	S96,42.3,88.3,41.5c-1.4-0.1-2.8-0.5-4.1-1c-0.8-0.4-1.6-0.9-2.4-1.5l-1.4,4.7c0.6,0.4,3.5-2.4,3.8-2.8c1-1.1,1.7-2.5,2-3.9
	C89.5,20.4,59,21.8,49.8,23.1c-4.7,0.6-7.2,4.6-5.2,9c3.7,8.1,14.3,6.5,21.6,6.4c5.1-0.1,10.2-0.2,15.3-0.1c2.9,0,5.7,0,8.6,0.1
	c2,0,5.9-0.6,7.6,0.6l1.4-11c-13.8,2.7-27.5,6.2-40.9,10.5c-4.5,1.4-6.4,8.7-1.4,11c17.9,8.4,37.8,11.6,57.4,9.3l-1.6-11.8
	c-15.3,3.2-31,4.8-46.6,4.8C58.1,51.7,58.1,63.7,65.9,63.8L65.9,63.8z"/>
<path class="st0" d="M109.8,35.5c-11.8-0.8-27.2,2.6-37.1-5.8l-4.3,10.2c14.4-1.3,29.4-1.7,43.1-6.9c5.2-2,6.2-10,0-11.6
	c-16.8-4.1-34-6.1-51.3-5.9c-7.7,0.1-7.7,12.1,0,12c16.2-0.2,32.4,1.6,48.1,5.5V21.4c-12.7,4.8-26.5,5.2-39.9,6.5
	c-4.7,0.4-8.5,6.5-4.2,10.2c13.1,11.3,29.6,8.3,45.5,9.4C117.5,48,117.5,36,109.8,35.5L109.8,35.5z"/>
<path class="st0" d="M46.6,19.3c26.2-2.1,53.3-7.9,79,0.5L127.2,8c-18.3,2.3-36.4-2.9-54.8-2.4c-5.5,0.2-8.7,8.5-3,11.2
	c27.9,13,58.6,13.4,88.6,17.2l-1.6-11.8c-21.3,4.5-42.8,8.1-64.5,10.9l1.6,11.8c15.7-3.7,31.5-6.6,47.5-8.6c7.5-1,7.9-11.5,0-12
	c-11.6-0.8-23.2-1.3-34.8-1.5c-7.7-0.1-7.7,11.9,0,12c11.6,0.2,23.2,0.7,34.8,1.5v-12c-17,2.1-34,5.1-50.7,9
	c-6.4,1.5-5.2,12.7,1.6,11.8c22.7-2.9,45.3-6.6,67.7-11.3c7.2-1.5,4.6-11-1.6-11.8c-27.7-3.4-56.8-3.5-82.5-15.5l-3,11.2
	c18.3-0.5,36.4,4.7,54.8,2.4c6.5-0.8,8.4-9.5,1.6-11.8C102-0.7,74,5.1,46.6,7.2C39,7.8,38.9,19.8,46.6,19.3L46.6,19.3z"/>
<path class="st0" d="M138,60.7c17.6,0.6,35.3,0.9,52.9,0.9c6.5,0,8.5-10.8,1.6-11.8c-13.2-1.8-26.3,2-39.5-0.4
	c-5.1-0.9-10.8-3.5-14.4,1.9c-2.9,4.4-0.8,10.3,2.9,13.4c4.3,3.6,10.3,3.4,15.5,3.4c6.9,0,13.7-0.3,20.6-0.6
	c12.6-0.6,24.8-1.7,36.4-7l-7.3-9.4l-4,4.3c-2.5,2.7-2.4,7.6,1.2,9.4c8.8,4.5,15.3-3.7,14.6-12.2c-0.3-1.9-0.4-3.8-0.3-5.7
	c0.3-2.1,1.5-3,2.6-4.7c3-4.3,2-8.9,1.6-13.8c-0.5-5.9,2.4-12,0.7-17.8c-2.3-8-11.8-7.1-18.1-6c-7.6,1.3-4.4,12.8,3.2,11.6
	c0.6-0.1,4.9-0.3,4.9-0.3c0.2-0.4-1-2.1-1.6-1.5c-0.2,0.9-0.2,1.8-0.2,2.7c-0.4,3.5-1.3,6.8-1,10.3c0.2,2.3,1.4,5.8,0.6,8
	s-3.1,3.8-3.8,6.3c-0.7,2.3-1,4.7-0.9,7.2c0,1,0.1,1.9,0.2,2.9c0.1,0.8,0.2,1.6,0.2,2.4c-0.2,1.7,0.9,1.8,3.3,0.2l1.2,9.4l4-4.3
	c4.8-5.2-1.2-12.2-7.3-9.4c-9.2,4.2-19.5,4.8-29.5,5.3c-5.2,0.2-10.4,0.5-15.6,0.6c-3,0.1-5.9,0.1-8.9,0.1c-1,0-2-0.1-3-0.1
	c-0.4,0-0.8-0.1-1.2-0.2c-1.2-0.5-1.6,0.2-1.3,2.3l-4.2,1.8c2.3-0.2,6.4,1.3,9.1,1.7c3.9,0.6,7.9,0.8,11.9,0.7
	c7.9-0.2,16-2,23.9-0.9l1.6-11.8c-17.6-0.1-35.3-0.4-52.9-0.9C130.3,48.4,130.3,60.4,138,60.7L138,60.7z"/>
<path class="st0" d="M198,24.7c0.7,7.7,1.6,15.8-2.9,22.5c-3.7,5.5,3.3,10.4,8.2,8.2c5.8-2.6,8.7-8.5,9.4-14.6
	c0.9-7.3-2.5-14.1-2.8-21.3l-9,5.2c2.9,1.2-4.5,7.1-5.5,8c-4.1,3.8-8.2,7.5-12.3,11.2c-3.4,3-1.6,8.9,2.6,10
	c4.3,1.2,8.8,1.2,13.1,0.1c6.5-1.6,5.2-12.2-1.6-11.8l-49.7,2.8l3,11.2c2.7-1.8,7-1.7,10.1-2.2l12.8-2.1c4.8-0.8,5.3-7,2.6-10
	c-3.6-4.1-9-5.5-14.1-7.2c-6.2-2.1-12.5-4.3-18.7-6.4l-1.6,11.8c18,1.3,35.8,2.2,53.7-0.4c7.1-1.1,4.6-11.2-1.6-11.8
	c-7.1-0.6-30.9-0.7-28.2,11.8c1.3,5.7,8.3,6.7,13,7.6c6.3,1.2,11.1,0.8,15.7-4c7.2-7.5,13.3-21.8,0-26.7C183,12.5,168,15.4,157,19
	c-5.3,1.7-5.5,7.9-1.4,11c9.6,7.2,21.6,4.6,31.9,0.7c6.1-2.3,5.5-11.7-1.6-11.8c-6.4-0.1-12.7,1.3-18.6,3.9c-4.9,2.2-3.1,9.7,1.4,11
	c9.2,2.6,19.6,3.5,28-1.8c5.7-3.6,13.7-13.4,8.6-20.3l-0.9,7.3l2.4-2.5c3.4-3.5,1.1-10.7-4.2-10.2c-8,0.6-16,1.4-24,1.6
	C170,8,161.8,6.3,153.3,5.4c-3.9-0.4-7.6-0.2-11.5-0.2c-3.6,0-7.1-1.2-10.7-1c-7.4,0.3-12,6.2-11,13.3c0.3,1.9,2.4,3.8,4.2,4.2
	c13.5,3.1,27.3,5.1,41.2,6l-3-11.2l-14,8.1c-6.7,3.9-0.6,14.2,6.1,10.4l14-8.1c5.4-3.1,2.7-10.8-3-11.2c-12.8-0.8-25.5-2.7-38-5.6
	l4.2,4.2c0.3,2.4,0.7,1.8,2.7,2.1c1.3,0.2,2.7,0.5,4,0.6c2.8,0.3,5.6,0,8.4,0c6.2,0,12.2,1.2,18.3,2c12.4,1.6,24.9,0.1,37.4-0.8
	L198.3,8l-2.4,2.5c-1.7,1.7-2.5,5.2-0.9,7.3c-0.9-1.2,0.4-1.2-0.7,0c-0.6,0.6-0.9,1.5-1.5,2.2c-1.4,1.4-3.2,2.5-5.1,3.1
	c-5.1,1.7-10.6,0.5-15.6-0.9l1.4,11c3.9-1.7,8.2-2.4,12.5-2.3l-1.6-11.8c-7.4,2.8-15.6,5.8-22.6,0.5l-1.4,11c9.1-3,19-4.5,28.6-3.1
	c2.3,0.4,1.7,0.2,0.6,2.2c-0.9,1.9-2.2,3.6-3.6,5.1c-1.7,1.7-2.5,1.2-4.9,0.8c-1.9-0.4-4.6-0.6-6.2-1.8l2.8,3.6
	c-2,3.4-2,4.7-0.1,3.9c0.8-0.2,1.7-0.5,2.5-0.6c1.4-0.3,2.9-0.6,4.4-0.7c3.1-0.3,6.3-0.3,9.5,0l-1.6-11.8c-16.7,2.5-33.7,1.2-50.5,0
	c-7.1-0.5-7.7,9.7-1.6,11.8c5.1,1.7,10.1,3.4,15.1,5.2c3.9,1.3,9.5,2.2,12.3,5.4l2.6-10l-14.8,2.4c-3.8,0.6-7.7,0.9-11,3.1
	c-4.6,3.1-3.3,11.5,3,11.2l49.7-2.8l-1.6-11.8c-2.2,0.6-4.6,0.5-6.8-0.1l2.6,10c3.9-3.5,7.8-7,11.6-10.6c3.1-2.8,6.4-5.6,8.5-9.3
	c3.5-6.1,2.4-15.2-4.7-18.2c-3.9-1.7-9.2,0.2-9,5.2c0.2,5.4,1.9,10.4,2.8,15.6c0.6,3.8,0.4,8.1-3.4,9.9l8.2,8.2
	c5.7-8.5,5.5-18.8,4.6-28.6C209.3,17,197.3,16.9,198,24.7L198,24.7z"/>
<path class="st1" d="M133.1,28c-2.6-1.7-6,0.6-6.4,3.4c-0.6,4.2,4.7,3.9,7.1,2.4c1.1-0.7,0.1-2.4-1-1.7s-4.7,1.8-4-0.7
	c0.4-1.3,2.1-2.5,3.4-1.7C133.2,30.4,134.2,28.7,133.1,28L133.1,28z"/>
<path class="st1" d="M128.4,26.3c0.2-0.8,1-1.3,1.9-1.1c0,0,0.1,0,0.1,0c1,0.4,1.7,1.2,1.8,2.3c0.4,1.8-0.4,3.7,0.1,5.5
	c0.6,2.1,3.7,3.3,4.9,1c0.6-1.1-1.1-2.1-1.7-1c-0.4,0.3-0.7,0.3-0.9-0.2c-0.4-0.3-0.6-0.8-0.4-1.3c0-0.4,0-0.8,0.1-1.2
	c0.1-0.9,0.1-1.8,0-2.8c-0.1-1.5-0.9-2.8-2-3.7c-2-1.4-5.2-0.6-5.7,1.9C126.2,27,128.1,27.6,128.4,26.3L128.4,26.3z"/>
<path class="st1" d="M147.5,30.1c2.4,0.3,7-0.5,6.6-3.9c-0.3-2.4-4.1-3.2-5.8-1.9c-2.3,1.7-2.8,6-1.2,8.3c1.2,1.8,3.5,2.3,5.3,1.2
	c0.4-0.3,0.8-0.6,1.1-1.1c0.7-1.1-1-2.1-1.7-1c-1,1.4-2.8,0.6-3.3-0.7c-0.5-1.4-0.3-3.1,0.5-4.3c0.5-0.9,1.6-1.2,2.5-0.7
	c0.9,0.5,0.4,1.3-0.3,1.7c-0.9,0.5-2,0.7-3.1,0.5C146.8,28,146.2,29.9,147.5,30.1L147.5,30.1z"/>
<path class="st1" d="M119.7,21.2c0,2,0,4.1-0.1,6.1c-0.1,1.5-0.5,3.4-0.1,4.9s2.3,2.6,3.5,1.1c0.8-1-0.6-2.4-1.4-1.4
	c0,0-0.1-1.7-0.1-2c0.1-1,0.1-2,0.1-3c0.1-1.9,0.1-3.8,0-5.7c0-0.6-0.4-1-1-1S119.7,20.7,119.7,21.2L119.7,21.2z"/>
<path class="st1" d="M140,20.8v8.4c0,1.5-0.3,3.5,0.6,4.8c1.8,2.6,3.7-0.1,4.8-1.8c0.7-1.1-1-2.1-1.7-1s-1,1.7-1.6,0.1
	c-0.4-0.9,0-2.7,0-3.7v-6.9c0-0.6-0.4-1-1-1S140,20.2,140,20.8z"/>
<path class="st1" d="M137.6,26.3c1.9,0.1,3.9-0.2,5.7-0.9c1.2-0.4,0.7-2.3-0.5-1.9c-1.7,0.6-3.4,0.8-5.2,0.8c-0.6,0-1,0.4-1,1
	S137.1,26.3,137.6,26.3L137.6,26.3z"/>
<path class="st1" d="M107,42.3c-4.7,0.4-5.2,10.1-0.2,10.1c4.6,0,6.3-11.1,0.7-10.2c-1.3,0.2-0.7,2.1,0.5,1.9s0.9,2.6,0.8,3.2
	c-0.2,0.9-1.1,3.6-2.6,3c-1.7-0.7-1.3-5.8,0.7-5.9C108.3,44.3,108.3,42.3,107,42.3L107,42.3z"/>
<path class="st1" d="M113.7,48.3c0,1.2,0,2.5,0,3.8l2-0.3c-0.1-1,0.1-2.1,0.8-2.9c0.4-0.5,1-1.2,1.7-0.6c0.5,0.4,0.4,1.8,0.4,2.4h2
	c0-0.5,0.1-1.1,0.3-1.5c0.4-0.5,1.1-1.2,1.5-0.1c0.1,0.8,0.1,1.6,0,2.4c0.2,1.3,2.2,1.3,2,0c-0.2-1.9,0.5-4.8-2.3-5
	c-2.4-0.2-3.4,2.2-3.5,4.2c0,1.3,1.9,1.3,2,0c0.1-2.3-1.1-5.7-4.1-4.4c-2.1,1-3.2,3.9-2.8,6.1c0.2,1.1,2,0.8,2-0.3s0-2.5,0-3.8
	c0-0.6-0.4-1-1-1S113.8,47.8,113.7,48.3L113.7,48.3z"/>
<path class="st1" d="M125.8,43.4l-0.2,4.4c-0.2,1.1-0.2,2.2,0,3.4c0.2,0.6,0.7,1,1.3,1.1c0.8,0.1,1-0.6,1.7-0.8
	c1.2-0.5,0.7-2.4-0.5-1.9c-0.3,0.2-0.7,0.4-1,0.6c0.5,0.3,0.7,0.2,0.5-0.5l0.1-1.3l0.2-5C127.9,42.1,125.9,42.2,125.8,43.4
	L125.8,43.4z"/>
<path class="st1" d="M100.3,42c-3.3-0.4-5.2,3.5-5.3,6.3c0,2.6,2.3,5.5,5.1,4.3c2.4-1,2.7-5.1,0.3-6.3c-2.2-1.1-4.7,1-5.3,3.1
	c-0.1,0.5,0.2,1.1,0.7,1.2c0.5,0.1,1.1-0.2,1.2-0.7c0.3-0.8,0.9-1.5,1.7-1.8c2.1-0.7,1.5,4.6-1,2.3c-1.9-1.7-0.1-6.7,2.5-6.4
	C101.6,44.1,101.6,42.1,100.3,42L100.3,42z"/>
<path class="st1" d="M88.2,23.3c-2.2,1.7-3.1,4.7-2.1,7.3c0.8,2.1,3.1,4.3,5.6,3.6s3.3-4.9,3.2-7c0-2.4-1.9-4.3-4.3-4.3
	c-0.2,0-0.4,0-0.6,0c-1.3,0.2-0.7,2.1,0.5,1.9c4-0.7,2.4,8.9-0.8,7.2c-3-1.5-2.2-5.6,0-7.3C90.7,24,89.2,22.5,88.2,23.3L88.2,23.3z"
	/>
<path class="st1" d="M75.6,15.9c-0.1,5.8,0,11.7,0.1,17.5h2c-0.1-1.8-0.7-5.7,1.8-6.3c3.3-0.8,2.6,5.1,2.4,6.5c-0.1,1.3,1.9,1.3,2,0
	c0.3-3,0.4-8.6-4-8.6s-4.3,5.4-4.1,8.3c0.1,1.3,2,1.3,2,0c-0.1-5.8-0.2-11.7-0.2-17.5c0-0.6-0.4-1-1-1S75.6,15.3,75.6,15.9z"/>
<path class="st1" d="M70.8,25.6c-1.1-1.6-3.3-1.4-4.7-0.2c-1.4,1.2-2.1,3-1.8,4.8c0.6,4.1,5.8,5.2,8.6,2.6c0.9-0.9-0.5-2.3-1.4-1.4
	c-1.4,1.3-4.2,1.2-5-0.7c-0.3-0.8-0.3-1.8,0.1-2.6c0.2-0.5,1.8-2.4,2.5-1.4S71.5,26.6,70.8,25.6L70.8,25.6z"/>
<path class="st1" d="M109.6,23.6c-2.2,1.7-3.1,4.7-2.1,7.3c0.8,2.1,3.1,4.3,5.6,3.6s3.3-4.9,3.1-7c0-2.4-1.9-4.3-4.3-4.3
	c-0.2,0-0.4,0-0.6,0c-1.3,0.2-0.7,2.1,0.5,1.9c4-0.7,2.4,8.9-0.8,7.2c-3-1.5-2.2-5.6,0-7.3C112.1,24.3,110.7,22.9,109.6,23.6
	L109.6,23.6z"/>
<path class="st1" d="M103.2,25c-1.1-1.6-3.3-1.4-4.7-0.2c-1.4,1.2-2.1,3-1.8,4.8c0.6,4.1,5.8,5.2,8.6,2.6c0.9-0.9-0.5-2.3-1.4-1.4
	c-1.4,1.3-4.2,1.2-5-0.7c-0.3-0.8-0.3-1.8,0.1-2.6c0.2-0.5,1.8-2.4,2.5-1.4S103.9,26,103.2,25L103.2,25z"/>
<path class="st0" d="M7.4,71.4c6.5-0.6,12.9-0.7,19.4-0.3c6.4,0.5,12.2,0.9,18.6-0.2c12.7-2.4,26.3,0.1,39.2,0.4
	c13.3,0.2,26.5-0.7,39.7-0.8c6.7,0,13.5,1.2,20.2,0.5c6.5-0.6,13.2-3.3,19.7-2.4c7.6,1.1,10.8-10.5,3.2-11.6
	c-6.6-1-12.6,0.1-19.1,1.3c-6.8,1.3-13.4,0.4-20.2,0.2c-13.8-0.4-27.7,0.9-41.5,0.7c-13-0.2-26.6-2.6-39.4-0.8
	c-3,0.4-5.9,1.2-8.9,1.4c-3.5,0.2-7-0.4-10.5-0.7c-6.8-0.5-13.6-0.4-20.3,0.2C-0.2,60.1-0.3,72.1,7.4,71.4L7.4,71.4z"/>
<path class="st0" d="M218.1,68.5c5.1-1.2,3.2-7.6,2.6-11.3c-0.6-2.1-2.8-3.4-4.9-2.8c-2.1,0.6-3.3,2.8-2.8,4.9
	c0.2,0.9,0.3,1.8,0.5,2.7c0,0.1,0.1,0.9,0.1,0.6c0,0.2,0,1.6,0.2,0.6l1-1.8l-0.2,0.3l1.8-1l-0.3,0.1c-2.1,0.6-3.4,2.8-2.8,4.9
	C213.8,67.8,215.9,69,218.1,68.5L218.1,68.5z"/>
<path class="st0" d="M144.3,70.3c6.7-0.2,13.3-0.6,20-1.2c5.1-0.5,5.1-8.5,0-8c-6.7,0.6-13.3,1-20,1.2
	C139.2,62.4,139.1,70.4,144.3,70.3z"/>
<path class="st0" d="M147.3,69.8c4.5-1,9,0.7,13.4,1.2c4.3,0.4,8.5,0.6,12.8,0.5c5.1,0,5.2-8,0-8c-5.1,0.1-10.3-0.2-15.4-0.9
	c-4.5-0.8-8.5-1.5-13-0.5C140.1,63.2,142.2,70.9,147.3,69.8L147.3,69.8z"/>
<path class="st0" d="M2.6,64.8L2.4,65l3.9-1l-0.2-0.1l2.8,2.8c-1.1-4.2,1.3-7.6,3.9-10.6c3.4-3.8-2.2-9.5-5.7-5.7s-6.1,7.7-6.3,13
	c-0.1,2.3-0.4,5.4,1.3,7.1s4.3,1.4,6.1-0.1C12.2,67.3,6.6,61.6,2.6,64.8L2.6,64.8z"/>
<path class="st0" d="M3,65.9c-0.1,3,2.2,5,5.1,5.2l-2-7.4c0.6,0,0.6,0-0.2-0.1c-2.2,0-4,1.8-4,4v0.1c0.1,1.3,0.6,2.9,2,3.4
	c2.3,1,4.4,0.4,6.7-0.1c2-0.5,4.1-0.2,6.1-0.9c2.4-0.7,3.8-3.7,2.4-5.9c-1.6-2.5-5.1-3.6-7.6-5c-4.5-2.4-8.6,4.5-4,6.9
	c2,1.1,4.1,2,6,3.2l-1.4-1.4l0.2,0.3l2.3-5.9c-1.5,0.3-3,0.4-4.5,0.5c-1.3,0.4-2.7,0.6-4.1,0.8l2,0.6H7.9l2,3.4v-0.1l-4,4
	c1.5,0.1,2.9-0.2,4.2-1c3.6-2.1,1.8-7.2-2-7.4H7.6l2,0.6l-0.4-0.3l1.4,1.3l-0.2-0.4l0.5,2v-0.5C11.1,60.7,3.1,60.7,3,65.9L3,65.9z"
	/>
<path class="st0" d="M10.1,61v-0.3c0-2.2-1.8-4-4-4c-1.5,0-2.8,0.8-3.5,2c-0.5,0.9-0.8,1.8-0.8,2.8l7.5-2c-0.4-0.8,0.3,0.9,0,0.1
	c-0.5-1.9-2.4-3.1-4.4-2.9c-2,0.3-3.5,1.9-3.5,3.9c0.1-0.6,0.1-0.7,0-0.3h7.7C9.1,60.1,9,60,9,59.8c0.1,0.6,0.1,0.7,0,0.2
	c0-2.2-1.8-4-4-4c-1.8,0-3.4,1.2-3.9,3c-0.4,1.7-0.6,3.5-0.4,5.3c0,2.2,1.8,4,4,4c2.2,0,4-1.8,4-4l0-2c0-0.3,0-0.6,0-0.9
	c0-1.1-0.2,0.5,0.1-0.3L1,60c0.1,0.8,0.2,1.6,0.4,2.4c0.5,1.7,2.1,2.9,3.9,2.9c1.8-0.1,3.3-1.2,3.9-2.9c0.2-0.6,0.3-1.2,0.3-1.8
	l-7.9,1.1C1.7,62.3,2,63,2.3,63.6c0.9,1.6,2.8,2.3,4.5,1.8c1.7-0.5,2.9-2.1,2.9-3.9l-0.2,1.1l-7.5-2V61c0.2,2.1,1.7,4.1,4,4
	C8.1,64.9,10.3,63.2,10.1,61L10.1,61z"/>
<path class="st0" d="M13,15.2c6-7.7,19.2-6,27.9-5.9l32.4,0.5c5.2,0.1,5.2-7.9,0-8C60.7,1.6,48,1.2,35.4,1.2
	c-9.5,0-21.7,0.1-28.1,8.3C4.2,13.5,9.8,19.2,13,15.2L13,15.2z"/>
<path class="st0" d="M10.1,11.7C14,7.4,20.4,8.2,25.6,8.4C33.2,8.7,40.8,9,48.5,9.3L93.1,11c5.2,0.2,5.1-7.8,0-8L42.5,1
	c-7.6-0.3-15.4-1-23-0.8C13.9,0.4,8.4,1.7,4.5,6C1,9.8,6.7,15.5,10.1,11.7L10.1,11.7z"/>
<path class="st0" d="M13,12.7c1.2-1.7,2.6-3.3,4.2-4.8c2.3-2.3,0.7-7.2-2.8-6.8L8.9,1.5L10,9.4c12.4-2.3,25-0.2,37.4,1.2
	c5.1,0.6,5.1-7.4,0-8C34.2,1.1,21.1-0.7,7.9,1.7C3.5,2.5,4.4,10,8.9,9.6l5.4-0.5l-2.8-6.8c-2,2-3.8,4.1-5.4,6.5
	C3.1,12.9,10.1,16.9,13,12.7z"/>
<path class="st0" d="M142.6,10.5c12.6-1.4,25.4-0.5,37.7,2.7c5,1.3,7.1-6.4,2.1-7.7c-13-3.4-26.5-4.4-39.9-3
	C137.5,3,137.5,11,142.6,10.5z"/>
<path class="st0" d="M217.3,12.5l-7.1-0.2v12c7.1-0.2,12.9-4.6,14.6-11.6h-11.6c0.5,2.8,1.2,6.1,0.9,9c-0.3,2.5-1.5,4.5-2.3,6.8
	c-1.7,5.5-2,11.6-2.8,17.3l7.4-4.2c2.2,0.9,1.6,1.7,1.5-0.7c-0.2-1.3-0.4-2.5-0.8-3.7c-0.6-2.8-1-5.7-1.4-8.6
	c-0.7-5.4-1-10.8-1.1-16.3c-0.1-7.7-12.1-7.7-12,0c0.1,8.1,0.9,16.3,2.2,24.3c1.1,6.5,1.5,13.7,8.4,16.5c2.8,1.1,7-1.2,7.4-4.2
	c1-6.6,1.3-13.6,3.8-19.9s1.6-13,0.4-19.6c-1.1-5.9-10.2-5.5-11.6,0c-0.4,1.7-1.2,2.7-3,2.8c-7.7,0.2-7.7,11.8,0,12l7.1,0.2
	C225,24.7,225,12.7,217.3,12.5L217.3,12.5z"/>
<path class="st0" d="M203,15.6c2.3,0.2,4.4-0.8,6.6-0.5c1.4,0.2,2.7,0.6,4,0.7c1.1-0.1,2.1-0.1,3.2-0.1l-4.2-4.2
	c0.1,0,0.2,0.1,0.2,0.2c-0.5,3.2,0.8,6.5,4.2,7.4c2.9,0.8,6.9-1,7.4-4.2c0.9-5.8-1.2-11.7-8.1-11.1c-2.3,0.2-4.2-0.5-6.5-0.7
	s-4.6,0.7-6.9,0.6c-3.2-0.2-6,2.9-6,6C196.9,13,199.7,15.3,203,15.6L203,15.6z"/>
</svg>
