<svg id="Слой_1" data-name="Слой 1" xmlns="http://www.w3.org/2000/svg" viewBox="0 0 231.06 53.58"><defs><style>.cls-1{fill:#faebd7;}.cls-2{fill:#333;}</style></defs><title>cream</title><path class="cls-1" d="M110.55,91.22q19.89.12,39.77-.05c3.22,0,3.22-5,0-5q-19.89.17-39.77.05c-3.22,0-3.22,5,0,5Z" transform="translate(-16.55 -73.4)"/><path class="cls-1" d="M85.5,97.32l45.87.1-.66-4.91Q102.4,97,73.87,99.8c-3.17.31-3.21,5.3,0,5A112,112,0,0,1,109,107l.66-4.91a182.19,182.19,0,0,1-30.44-5c-3.12-.78-4.45,4-1.33,4.82a190.25,190.25,0,0,0,31.77,5.15c2.81.22,3.4-4.3.66-4.91A116.44,116.44,0,0,0,73.87,99.8v5Q103.06,102,132,97.32c2.83-.45,2.08-4.9-.66-4.91l-45.87-.1c-3.22,0-3.22,5,0,5Z" transform="translate(-16.55 -73.4)"/><path class="cls-1" d="M28.21,121.79q-2.75-12.08-5.5-24.17c-.7-3.1-1.92-6.89-.94-10.06,1.51-4.86,7.81-4.42,11.88-4.62,16.81-.84,33.62-1.66,50.43-2.25,32.93-1.14,65.94-1.39,98.83,1q14,1,27.91,2.69,7.83,1,15.63,2.17c4.64.72,10.21.91,14.34,3.31,2.79,1.62,5.31-2.7,2.52-4.32-7-4.07-17.2-4.13-25.11-5.2q-13.27-1.8-26.61-3c-19-1.64-38-2.36-57-2.49-18.77-.13-37.54.32-56.29,1q-14.07.53-28.14,1.22l-13.57.66c-4,.2-8.41,0-12.32,1.18-6.38,1.93-8.31,7.88-7.52,14,1.29,10.11,4.41,20.22,6.67,30.15.71,3.14,5.54,1.81,4.82-1.33Z" transform="translate(-16.55 -73.4)"/><path class="cls-1" d="M21.34,118.45c.76,4.58,5.24,11.64,10.59,7,2.08-1.79,1.12-4.15,5.42-4,.83,0,2,1,2.83,1.18,3.22.56,4.51-2.38,7.53-2.28,3.55.12,7.22.4,10.79.57s5.47,2.11,9.14,1.52c5-.81,10.07-1.78,15.13-2.48s12.8-1.78,17,2.09a2.47,2.47,0,0,0,2.43.64,29.81,29.81,0,0,1,11.59-2.49,41.56,41.56,0,0,0,7.29-.16c7.38-1.27,14.62-.64,22.08-.32l19.94.86a18.28,18.28,0,0,1,4.38.29c1.08.33,2.26,1.41,3.44,1.58,2,.29,6.33-2.39,7.65-.24.76,1.24,2.89,1.81,3.93.51,3-3.73,7.9-3.3,11.59-.93a2.52,2.52,0,0,0,3.67-1.49c0,.09,8.24,2.46,8.62,2.53a43.67,43.67,0,0,0,9.65.49c4.91-.18,8.09-.33,12.42,2.3a5.16,5.16,0,0,0,4.94.64c4.91-1.9,6.73-9.55,8.24-13.9a157.7,157.7,0,0,0,5.92-22.51c.59-3.14-4.22-4.49-4.82-1.33a158.31,158.31,0,0,1-5.92,22.51c-.83,2.4-2.55,9.76-5.31,10.07-1.68.19-5.21-2.5-7.29-2.82-3.35-.5-6.77.07-10.13.11a37.45,37.45,0,0,1-12.45-2.18c-3.4-1.07-7.48-1.31-8.69,2.76l3.67-1.49c-5.42-3.49-13.36-3.7-17.65,1.71l3.93.51a7.37,7.37,0,0,0-5.08-3.74c-2.76-.48-4.66,1.44-7.26.78-6.69-1.7-13.81-1.43-20.74-1.73-8.48-.37-17.52-1.68-26-.59-7.81,1-15.52.35-23,3.45l2.43.64c-5.72-5.29-14.73-4.42-21.86-3.38-4.38.64-8.78,1.74-13.19,2.16-3.41.33-6.27-1.22-9.75-1.37-3.82-.17-7.71-.57-11.5-.7-2.72-.09-4.65,2.3-7.14,1.91-2.76-.43-4.41-1.77-7.31-.25-1.23.65-1.7,1.81-2.76,2.53q-.61,2.4-3.13.28a20.49,20.49,0,0,1-.53-2.65c-.52-3.17-5.34-1.82-4.82,1.33Z" transform="translate(-16.55 -73.4)"/><path class="cls-1" d="M113.43,104.14l29.71,0v-5c-18.94,1.06-37.92,2.24-56.46,6.51-2.69.62-2.18,5.2.66,4.91l38.08-3.9v-5L94.05,105.1c-2.2.24-3.73,3.45-1.26,4.66,5.21,2.54,10.86,2.59,16.55,2.94q11.38.7,22.77,1.12v-5a252.86,252.86,0,0,1-32.69,1.61v5l7.92,0-.66-4.91-8.44,2.45c-3.08.89-1.77,5.72,1.33,4.82L108,115.3c2.68-.78,2.2-4.92-.66-4.91l-7.92,0c-3.22,0-3.22,4.95,0,5a252.86,252.86,0,0,0,32.69-1.61c3.13-.36,3.29-4.87,0-5q-9.41-.36-18.81-.88c-5.8-.33-12.65.11-18-2.49l-1.26,4.66,31.36-3.47c3.16-.35,3.21-5.33,0-5l-38.08,3.9.66,4.91c18.11-4.17,36.63-5.3,55.13-6.34,3.19-.18,3.24-5,0-5l-29.71,0c-3.22,0-3.22,5,0,5Z" transform="translate(-16.55 -73.4)"/><path class="cls-1" d="M99.72,118.52c21.45.34,42.92.51,64.16-3,2.88-.48,2-4.81-.66-4.91l-52.73-2,.66,4.91L134,108.66a2.53,2.53,0,0,0,.6-4.57c-6.12-3.26-13.55-3-20.32-3.3-8.22-.41-16.44-.53-24.67-.43v5q22-1.87,44.09-1.68v-5Q114,100,94.44,103.1c-1.87.29-2.38,3-1.1,4.18a41.5,41.5,0,0,0,6.71,5.1l.6-4.57a10.72,10.72,0,0,1-5.89.18c-3.15-.58-4.49,4.24-1.33,4.82a19.71,19.71,0,0,0,8.54-.18,2.53,2.53,0,0,0,.6-4.57,35.12,35.12,0,0,1-5.7-4.31l-1.1,4.18q18.88-3,38-4.23c3.18-.21,3.25-5,0-5q-22.08-.19-44.09,1.68c-3.16.27-3.27,5,0,5,7-.09,13.92,0,20.88.26,6.74.27,15.5-.45,21.59,2.79l.6-4.57-22.88,4.87c-2.84.61-2.07,4.81.66,4.91l52.73,2-.66-4.91c-20.77,3.45-41.85,3.17-62.83,2.84-3.22-.05-3.22,4.95,0,5Z" transform="translate(-16.55 -73.4)"/><path class="cls-1" d="M98.5,110.86l-31.25-.1.66,4.91c9.39-3.56,19.62-3.68,29-7.33,2.19-.85,2.55-4.1,0-4.82a25.44,25.44,0,0,0-18.56,1.7c-2.9,1.4-.36,5.71,2.52,4.32a20.11,20.11,0,0,1,14.71-1.2v-4.82c-9.36,3.65-19.6,3.77-29,7.33-2.52,1-2.32,4.9.66,4.91l31.25.1c3.22,0,3.22-5,0-5Z" transform="translate(-16.55 -73.4)"/><path class="cls-1" d="M73,99.75l.47-.25L70,100l.5.11L67.8,98l.14.26,2.69-6.61c-1.8.54-5-.69-7.06-.55a22.92,22.92,0,0,0-7,1.48c-3.21,1.3-6,4.08-5.15,7.84,1.73,7.64,13.85,8.76,19.8,7.35,2.92-.69,4-4.14,2.69-6.61-4.55-8.43-19-8.11-27.17-8.06-4.48,0-11.05-.41-14.81,2.51s-3.3,7.64-2,11.58l7.52-4.38c-2.81-2.91-7.65-5-11-1.52-3.5,3.69-3,11.65-2.42,16.23.45,3.79,4.62,6,7.68,3.18a14.81,14.81,0,0,1,12.94-3.93l-1.07-8.22c-5.53,2.46-10.22-1.34-12-6.42A30.43,30.43,0,0,1,30,95.6c-.39-3.47,1-3.73,4.2-4.18,4.44-.63,4.14-7.79,0-8.68-6.07-1.3-13.9.86-13.13,8.57.24,2.41,1.87,4.52,4.5,4.5.71,0,7.64.33,7.78,0l-2-2.6q-.56,1.33-1.06,2.69a11.26,11.26,0,0,0,.53,8.67l7.07-5.45a10.16,10.16,0,0,1-3.26-4.67l-4.34,5.7c4.65-.07,7.53,4.42,10.39,7.48a22.84,22.84,0,0,0,9.61,6.48l1.2-8.84a53.59,53.59,0,0,1-11.92.05v9a32.66,32.66,0,0,1,19.2,3.07L61,109a127.72,127.72,0,0,1-13.05.19c-5.82-.21-5.74,8.62,0,9,7.49.5,15.23,1.63,22.73,1.47,4.88-.1,9.28-3.22,8.51-8.56-.88-6.09-7.38-7.61-12.45-8.61-5.85-1.15-12.54-1.53-17.28-5.55-4.39-3.72-10.79,2.61-6.36,6.36,6.42,5.44,14,6.39,22,8,1.55.32,5.3,2,5.42.38s-.44-1.06-1.93-1.14c-1.31-.07-2.62-.17-3.93-.26L48,109.17v9A127.72,127.72,0,0,0,61,118c4.12-.27,6.55-6.24,2.27-8.39a40.83,40.83,0,0,0-23.74-4.3c-5.72.72-5.84,8.38,0,9a53.59,53.59,0,0,0,11.92-.05c4.92-.57,6.26-7.14,1.2-8.84-4.64-1.55-7.22-6.47-10.75-9.55-3.38-2.94-7.1-4.8-11.64-4.73-2.78,0-5.29,2.86-4.34,5.7a19.16,19.16,0,0,0,5.58,8.64c4,3.48,9.18-.82,7.07-5.45-.58-1.27,1.55-4.28,1.76-5.56A6.61,6.61,0,0,0,39,89c-3-3.46-9.51-2.17-13.46-2.14l4.5,4.5,1.74.11V82.74c-4.62.65-9.27,2.58-10.69,7.47s.63,11.28,2.36,15.7c4.06,10.4,14.46,15,24.74,10.41,3.46-1.54,2.59-7.56-1.07-8.22a24.39,24.39,0,0,0-21.7,6.25l7.68,3.18a34.27,34.27,0,0,1-.29-5.89,19,19,0,0,1,.31-3q-4.49-1.39-2,.54c3,3.14,9-.06,7.52-4.38l-.4-1.2q-1-1.77.47-1.22c.52-.3,2.79-.07,3.49-.12a79.93,79.93,0,0,1,9.12-.06c3.46.17,12.88-.13,14.84,3.49l2.69-6.61c-2.34.56-7.87.7-9.18-2.14l.45,3.47c.07-.32,6.57-.27,7.1-.21,2,.2,3.85.7,5.8.12a4.56,4.56,0,0,0,2.69-6.61C74.25,90.95,71,90.65,68.44,92c-5.12,2.71-.58,10.48,4.54,7.77Z" transform="translate(-16.55 -73.4)"/><path class="cls-1" d="M59.65,110.11l.27-.42h6.36c-.35-.39-2.39-2.53-2.39-3.31l-1.32,3.18c1-1.18,6.06-1.36,7.78-1.47a43.38,43.38,0,0,1,9.82.5l2.39-8.68-16-2.34,1.07,8.22a36.06,36.06,0,0,1,15.59-5.94c2.84-.4,4.14-4.41,2.69-6.61-2.42-3.68-5.87-4.7-10.08-5.18-6.07-.69-12.17-1.2-18.25-1.8-5.61-.55-10.77-1.06-16.33.06-1.32.27-3.37-.05-1.76,1.1,1.34,1,2.93.43,4.49.32,3.17-.23,6.35-.43,9.52-.64,23.92-1.61,49.87-6,73.25,1L128,79.3,64.18,82c-5.77.24-5.8,9.25,0,9L128,88.3c5-.21,6.14-7.34,1.2-8.84C115,75.18,100.3,75.12,85.69,76s-29.62,1.56-44.33,3c-4.72.45-9.79,2.08-11.15,7.24-1.28,4.87,2.33,9.2,7.15,9.61,2.59.22,5-.65,7.52-1.06,3.85-.64,7.88.08,11.73.46l10.57,1c1.77.17,9.85-.1,11,1.58l2.69-6.61A41.83,41.83,0,0,0,63.09,98c-2.82,1.9-3.09,7.62,1.07,8.22l16,2.34c5.63.82,8.14-7.74,2.39-8.68-7-1.14-17.66-2.23-24.17,1.5s-2.14,10.46,1.52,14.64a4.54,4.54,0,0,0,6.36,0,7.79,7.79,0,0,0,2.36-5.95c-.16-5.78-9.16-5.8-9,0Z" transform="translate(-16.55 -73.4)"/><path class="cls-1" d="M57.35,93.36c23.35-.65,47-1.15,69.41,6.63V91.32a327.55,327.55,0,0,1-54,7.18l1.2,8.84A284.35,284.35,0,0,1,102.12,103c5.65-.65,5.91-8.68,0-9L72.07,92.44v9c5,.11,7.85,3.83,8.25,8.46s2.34,6.83,6.91,8c10.07,2.54,21,1.54,30.77-1.83,5.44-1.88,3.1-10.58-2.39-8.68a49,49,0,0,1-15.92,2.9c-3.15,0-6.11-.68-9.22-.87-1.21-.08-2-1-1.16.5-.39-.67-.12-2.49-.27-3.29a17.54,17.54,0,0,0-17-14.17c-5.82-.13-5.75,8.69,0,9L102.12,103V94c-10.23,1.18-20.45,2.41-30.52,4.61-4.92,1.08-3.88,9.09,1.2,8.84a342.43,342.43,0,0,0,56.35-7.5c4.63-1,3.91-7.32,0-8.68-23.08-8-47.69-7.62-71.8-7-5.78.16-5.8,9.16,0,9Z" transform="translate(-16.55 -73.4)"/><path class="cls-1" d="M101.73,108.64l70.23-.3c5.81,0,5.77-8.77,0-9l-24.33-1c-6.89-.28-15.64.74-21.84-2.76L123.52,104l23.86,1.15c6.23.3,13.49,1.85,19.22-1.24,2-1.06,3-4.25,1.61-6.16-4.36-5.89-10.58-6.56-17.43-7.46l-27.68-3.62c-5.73-.75-5.67,8.26,0,9l20,2.62c4.31.56,14.36,0,17.3,4l1.61-6.16c-2.25,1.21-5.55.44-8,.33l-10.5-.5-20-1c-4.51-.22-6.06,6.24-2.27,8.39,6.87,3.89,14.83,3.53,22.49,3.84L172,108.34v-9l-70.23.3c-5.79,0-5.8,9,0,9Z" transform="translate(-16.55 -73.4)"/><path class="cls-1" d="M121.5,89.23q25.49-.57,51,.74V81a167.88,167.88,0,0,1-21.09.9q-4.8-.11-9.59-.51-2.87-.24-5.73-.58c-1.35-.16-4.67-1.51-4.29.24l-4.34,5.7c12.94-1.27,28.07-2.69,37.32,8.38l2-7.52A228.27,228.27,0,0,1,144,94.07c-4.17,1-4.41,7.88,0,8.68a241.12,241.12,0,0,1,29.89,7.44l1.2-8.84a242.52,242.52,0,0,1-48.06-.59v9l55.24,1.61v-9a46.55,46.55,0,0,0-20.55,5c-3.28,1.63-2.74,7.62,1.07,8.22a118.5,118.5,0,0,0,37,.07c5.71-.88,3.28-9.55-2.39-8.68a104.26,104.26,0,0,1-32.2-.07l1.07,8.22a36.2,36.2,0,0,1,16-3.8c5.8-.07,5.79-8.83,0-9L127,100.77c-5.91-.17-5.62,8.37,0,9a242.52,242.52,0,0,0,48.06.59c5-.43,6.23-7.24,1.2-8.84a241.12,241.12,0,0,0-29.89-7.44v8.68a228.27,228.27,0,0,0,22.72-6.51,4.57,4.57,0,0,0,2-7.52c-10.83-13-28.36-12.52-43.68-11-3,.29-5,2.63-4.34,5.7,1.61,7.41,13.94,6.58,19.66,7A165,165,0,0,0,172.46,90c5.68-.59,5.89-8.7,0-9q-25.46-1.31-51-.74c-5.78.13-5.8,9.13,0,9Z" transform="translate(-16.55 -73.4)"/><path class="cls-1" d="M165.91,116.84a49.11,49.11,0,0,0,27.59-.08c3.49-1,4.68-6.46,1.07-8.22-10-4.88-19.95-9.77-29.37-15.64C157,87.76,149.77,81.14,139.77,80c-4.33-.48-6.29,6.64-2.27,8.39,22.48,9.79,47.78,2,70.28,11.1V90.84a57.19,57.19,0,0,1-28.41.59l-1.2,8.84a16.79,16.79,0,0,1,7.11,1.23l3.47-8.22L174.5,90.22c-4.08-.88-6.67,3-5.08,6.61,6,13.43,21.21,14.88,33,20.39l2.27-8.39-5.52.55c-5.21.51-5.91,6.88-1.2,8.84a55.8,55.8,0,0,0,32.34,3.06c5.68-1.09,3.28-9.77-2.39-8.68a47.46,47.46,0,0,1-27.55-3.06l-1.2,8.84,5.52-.55c3.94-.39,6.75-6.3,2.27-8.39-10-4.68-24.79-5.85-29.81-17.16l-5.08,6.61L186.36,102c4.67,1,8.41-6.11,3.47-8.22a27.61,27.61,0,0,0-11.66-2.46c-5,.08-6.27,7.66-1.2,8.84a67.18,67.18,0,0,0,33.19-.59c4.65-1.27,3.87-7.11,0-8.68C188.36,82,163.55,90,142,80.65L139.77,89c8.71,1,16.75,9.22,24,13.56,8.48,5,17.36,9.38,26.21,13.72l1.07-8.22a40.06,40.06,0,0,1-22.8.08c-5.58-1.59-8,7.09-2.39,8.68Z" transform="translate(-16.55 -73.4)"/><path class="cls-1" d="M234,123.36c8.2-8.19,14.22-21.49,11.7-33.3-1.35-6.33-8.1-6.92-13.5-7.66a79.88,79.88,0,0,0-23.57.43c-5.7.9-3.28,9.58,2.39,8.68a69.69,69.69,0,0,1,15.59-.7,37.28,37.28,0,0,1,8.07,1.08c2.47.74,2.37.54,2.36,3.16a31.17,31.17,0,0,1-9.42,22c-4.1,4.1,2.26,10.46,6.36,6.36Z" transform="translate(-16.55 -73.4)"/><path class="cls-1" d="M172.37,88.8a54.24,54.24,0,0,1,36.31,6.89l1.07-8.22c-10,3.9-20.45,6.55-30.89,9.13-4.67,1.15-3.85,7.18,0,8.68A54.07,54.07,0,0,0,212.63,107c4.89-1.31,3.91-8.87-1.2-8.84-6.34,0-12.69.06-18.95-1.08v8.68a217,217,0,0,1,25.2-6.25L212.15,94a48.87,48.87,0,0,1-5.78,10.54l3.89-2.23A31.15,31.15,0,0,0,198.67,104c-4,1.39-4.58,7.56,0,8.68,6.43,1.57,16.44,2.91,22.38-1,4.7-3.12,4.13-10.22-1.52-11.79a4.56,4.56,0,0,0-5.08,2.07l-1.53,3a4.61,4.61,0,0,0,.7,5.45c4.11,3.68,10.87,2.08,12-3.68,1.55-7.63-6.48-10.56-12.44-10.84-3.6-.16-5.35,3.89-3.89,6.77,2.61,5.12,9.07,11.66,15.17,7.25a6.44,6.44,0,0,0-3.82-11.76,4.69,4.69,0,0,0-4.34,3.3c-3,7.28,2.09,15.5,10.27,12,4.66-2,1.49-7.9-2.27-8.39a6.72,6.72,0,0,0-4.56,1c-3.26,1.72-2.54,5.9,0,7.77,3.67,2.7,8.81,1.58,11.58-1.89,4.1-5.11.68-10.59,1.84-16.22,1.07-5.16-5.22-7.55-8.22-3.47-3.9,5.31-7.8,10.65-11.35,16.2-2.15,3.36-3.95,8.06.11,10.9s9-.77,12.33-3a43.44,43.44,0,0,0,11.44-11.77l-8.39-2.27a5.67,5.67,0,0,1-1.19,3l8.22,1.07a16.88,16.88,0,0,1,1.13-10.61c1-2.23.64-4.8-1.61-6.16a13.42,13.42,0,0,0-8.91-1.72c-3.39.38-6.9,2.07-10.33,1.34-4.66-1-8.42,6.12-3.47,8.22a74.73,74.73,0,0,0,12.87,4.35c2.92.66,7.49,2,10.5,1.16a5.74,5.74,0,0,0,4.11-7c-.81-3.09-4.23-4.66-6.72-6.1-14.51-8.39-31.57-16-48.27-9.21-5.3,2.15-3,10.86,2.39,8.68,7.72-3.13,15.64-2.77,23.49-.26a70.78,70.78,0,0,1,11.45,5c1.62.85,3.21,1.75,4.8,2.66l3.17,1.84q2.75,2.12.74-.48l2.23-3.89c1.16-.69-2.2-.46-2.89-.58q-2.19-.39-4.34-.94a62,62,0,0,1-9-3l-3.47,8.22a20.74,20.74,0,0,0,8.42,0c2.71-.5,6.11-2,8.67-.5l-1.61-6.16a27.35,27.35,0,0,0-2,17.55c.8,3.92,6.33,4.22,8.22,1.07a17.83,17.83,0,0,0,2.42-7.53c.58-4.82-6.16-5.57-8.39-2.27a33.4,33.4,0,0,1-6,6.82c-1.48,1.27-5.16,4.63-7.26,4.49l3.18,1.32-.63-.63,1.32,3.18c-.24-2.24,4.43-7.18,5.61-8.89q3.33-4.8,6.8-9.51l-8.22-3.47a21,21,0,0,0-.36,6.57c0,.41.32,6.29.16,6.17v7.77l0,.2-2.27-8.39q2.62.43,3-1.84l-4.34,3.3c2.49,0-3-8-3.57-9l-3.89,6.77c.41,0,8.34.57,6.76-.85l.7,5.45,1.53-3-5.08,2.07.8.22-2.69-2.07q1.21-3.53-1.79-2a29.11,29.11,0,0,1-4.37.35,31.87,31.87,0,0,1-8-1v8.68a27.71,27.71,0,0,1,8.31-1.47c2.22-.1,3.31-.46,4.77-2.2,3-3.62,5-8.33,6.69-12.69,1.36-3.5-2.53-6.09-5.54-5.54a217,217,0,0,0-25.2,6.25c-3.93,1.23-4.62,7.84,0,8.68a114.49,114.49,0,0,0,21.34,1.4l-1.2-8.84a45.8,45.8,0,0,1-29-1.72v8.68c10.44-2.58,20.85-5.23,30.89-9.13,3.46-1.34,4.66-6.13,1.07-8.22A64,64,0,0,0,170,80.12c-5.7.94-3.28,9.62,2.39,8.68Z" transform="translate(-16.55 -73.4)"/><path class="cls-1" d="M243.85,92.21l-.51.66c5-1,3.83-9-1.2-8.84-1.31,0-2.78-.81-4.12-1a31.22,31.22,0,0,0-4-.06l-10,.2c-5.78.12-5.8,9.12,0,9l10-.2c2.84,0,5.33,1.09,8.1,1L241,84.19a7.46,7.46,0,0,0-4.87,3.48c-3.36,4.73,4.44,9.23,7.77,4.54Z" transform="translate(-16.55 -73.4)"/><path class="cls-1" d="M78.76,115.46a84,84,0,0,1,25.87-.06,86.62,86.62,0,0,1,12.08,2.82c3.48,1.08,7.15,3.2,10.9,2.61,2-.31,3.68-1.59,5.74-1.64s4.31.85,6.36,1.2a32.66,32.66,0,0,0,11.24,0c1.47-.26,3.16-1.07,4.51-.6,1.15.4,1.92,1.94,3.36,2.35,2.92.85,5.25-.3,6.86-2.74a4.56,4.56,0,0,0-1.61-6.16c-9.44-5.67-20.87-4.44-29.24,2.52l7.68,3.18-.18-3.21a4.63,4.63,0,0,0-3.3-4.34c-3.07-.83-5.46-.31-8.41.69-3.67,1.25-6.06,1-9.9.59-5.12-.49-9.59.95-12.61,5.24l8.22,1.07c-2.17-6.71-8.67-7.13-14.54-5.32-6.5,2-12.8-3.08-19,1.12l6.61,2.69c-1.6-4.71-5.68-6.14-10.37-5.75-6.93.58-14,2.53-20.79,3.81l5.08,2.07c-3.93-5.16-10.89-6.31-15.67-1.46-4.07,4.13,2.29,10.5,6.36,6.36a1,1,0,0,1,1.54-.36,4.78,4.78,0,0,0,5.08,2.07L72,122.07c1.9-.36,3.8-.78,5.71-1.07,1-.15,3.37.06,3-1.13.88,2.58,4.06,4.41,6.61,2.69,2.84-1.91,7.62.75,10.87.82,1.08,0,9.59-1.69,9.49-2a4.56,4.56,0,0,0,8.22,1.07c1.68-2.4,8-.22,10.18-.23a17.77,17.77,0,0,0,4.61-.62c1.84-.5,3.95-2.08,6-1.53l-3.3-4.34.18,3.21c.22,4.09,4.67,5.68,7.68,3.18A15.8,15.8,0,0,1,159.53,121l-1.61-6.16-.44.67,2.69-2.07q2.92.58.75-1.08a5.79,5.79,0,0,0-2.11-1.27,8.42,8.42,0,0,0-3.62-.7c-4,.1-7.53,1.77-11.62,1.46-3.44-.26-6.74-1.64-10.21-1.68a20,20,0,0,0-5.51,1.1c-2.22.57-3.24.11-5.37-.63a94.93,94.93,0,0,0-46.11-3.88c-5.71.89-3.28,9.56,2.39,8.68Z" transform="translate(-16.55 -73.4)"/><path class="cls-1" d="M27.45,91.22A27.9,27.9,0,0,1,43,83.31a26.89,26.89,0,0,1,8.51,0c3.19.55,6.1,2.12,9.32,2.46,2.87.31,5.23-.45,8-1.3a35.35,35.35,0,0,1,10-1.38C85.55,83,92.25,83,99,82.94l43.21-.41c6.71-.06,13.45-.3,20.14.14,7.45.48,14.76,2.38,22.25,1.45,5.67-.71,5.74-9.72,0-9-7.49.93-14.8-1-22.25-1.45s-14.73-.19-22.08-.12L93.39,74c-6.85.06-13.87-.28-20.68.53-3.33.39-6.61,2.05-9.88,2.24-3.12.17-6.46-1.68-9.61-2.2a37,37,0,0,0-32.14,10.3C17,88.94,23.33,95.3,27.45,91.22Z" transform="translate(-16.55 -73.4)"/><path class="cls-1" d="M187.76,85.26a12.9,12.9,0,0,0,9.12.84,4.5,4.5,0,1,0-2.39-8.68c-.17.05-1.36.27-.32.16a11.58,11.58,0,0,1-1.16,0c-.9,0,.58.27-.33-.06-.21-.07-1.27-.46-.38-.07-2.14-1-4.94-.69-6.16,1.61-1,2-.68,5.13,1.61,6.16Z" transform="translate(-16.55 -73.4)"/><path class="cls-1" d="M198.47,86.14l20,.08c5.79,0,5.8-9,0-9l-20-.08c-5.79,0-5.8,9,0,9Z" transform="translate(-16.55 -73.4)"/><path class="cls-2" d="M86.89,92.93c2.67.53,6.72-.75,7-4s-4.49-3.79-6.49-2.18c-2.21,1.79-2.32,5.59-.57,7.71a4.46,4.46,0,0,0,6.79.08c.78-1-.62-2.43-1.41-1.41a2.45,2.45,0,0,1-3.19.62,3.48,3.48,0,0,1-1.23-3.94,2.44,2.44,0,0,1,1.67-1.88,3.38,3.38,0,0,1,1.06-.08c.69.06,1,.13,1.12.84.43,1.94-2.81,2.56-4.17,2.29s-1.8,1.68-.53,1.93Z" transform="translate(-16.55 -73.4)"/><path class="cls-2" d="M146.89,87.58l0,7c0,1.09,1.78,1.41,2,.27a10,10,0,0,0,.06-2.5c-.07-.77-.41-2.29.18-2.93s1.48.38,2.24.46a1.66,1.66,0,0,0,1.52-.65c.79-1-.62-2.42-1.41-1.41.19-.24-1.83-.82-2.15-.78a2.66,2.66,0,0,0-1.82,1.22c-1.24,1.87-.22,4-.55,6.06l2,.27,0-7a1,1,0,0,0-2,0Z" transform="translate(-16.55 -73.4)"/><path class="cls-2" d="M101.8,89.85c-2.27-1.48-5.28.52-5.64,3a2.58,2.58,0,0,0,1.9,3,5.67,5.67,0,0,0,4.27-.84c1.09-.68.09-2.41-1-1.73-.74.46-3.67,1.47-3.14-.38.29-1,1.6-2,2.61-1.31s2.09-1,1-1.73Z" transform="translate(-16.55 -73.4)"/><path class="cls-2" d="M97.93,88.61a1.14,1.14,0,0,1,1.45-.81,2.15,2.15,0,0,1,1.38,1.79c.34,1.53-.37,3.1.06,4.62.53,1.88,3.33,2.9,4.4.89.6-1.14-1.12-2.15-1.73-1-.41.78-.81-1.27-.81-1.14a9.48,9.48,0,0,1,.09-1,9.56,9.56,0,0,0,0-2.33A4.65,4.65,0,0,0,101,86.38c-1.73-1.21-4.6-.54-5,1.7-.24,1.26,1.68,1.8,1.93.53Z" transform="translate(-16.55 -73.4)"/><path class="cls-2" d="M155.66,93.11c2.42.48,6.05-.69,6.26-3.61s-4.05-3.49-5.89-2a5.18,5.18,0,0,0-.51,7,4,4,0,0,0,6.13.07c.78-1-.62-2.43-1.41-1.41a2,2,0,0,1-2.65.53,2.93,2.93,0,0,1-1-3.32,2,2,0,0,1,1.38-1.56c.66-.19,1.65-.15,1.8.57.33,1.59-2.46,2.08-3.55,1.87-1.26-.25-1.8,1.68-.53,1.93Z" transform="translate(-16.55 -73.4)"/><path class="cls-2" d="M168.84,90.18c-2.06-1.34-4.79.46-5.13,2.69a2.39,2.39,0,0,0,1.75,2.78,5.09,5.09,0,0,0,3.85-.75c1.09-.68.09-2.41-1-1.73-.56.34-3,1.26-2.57-.2.24-.83,1.29-1.6,2.11-1.08,1.08.7,2.09-1,1-1.73Z" transform="translate(-16.55 -73.4)"/><path class="cls-2" d="M165.5,89.23a.87.87,0,0,1,1.12-.63c.67.15,1,.88,1.13,1.49.3,1.34-.33,2.72,0,4.05.49,1.75,3.1,2.67,4.08.81.6-1.14-1.12-2.15-1.73-1-.25.47-.49-1.25-.48-.94a8.27,8.27,0,0,1,.08-.9,8.46,8.46,0,0,0,0-2.06,4.2,4.2,0,0,0-1.6-2.92c-1.59-1.1-4.2-.48-4.59,1.56-.24,1.26,1.68,1.8,1.93.53Z" transform="translate(-16.55 -73.4)"/><path class="cls-2" d="M173.66,87.66l-.2,7.65,2-.27c-.23-1.33-.07-3.94,1.26-4.83,2.48-1.65,1.2,3.75,1,4.3h1.93c-.25-1.45-.59-5.36,2.16-4.81,1.63.32,1,4,.86,5.1-.12,1.28,1.89,1.27,2,0,.26-2.88.66-7.55-3.48-7-3.78.46-4,4.22-3.46,7.28.17,1,1.69.9,1.93,0,.57-2.11,1.48-7.92-2.46-7.31-3.33.51-4.16,5.15-3.7,7.84.19,1.14,1.94.82,2-.27l.2-7.65a1,1,0,0,0-2,0Z" transform="translate(-16.55 -73.4)"/><path class="cls-2" d="M106.14,86.53a8,8,0,0,0,.79,3.71,43.13,43.13,0,0,1,1.49,4.52,1,1,0,0,0,1.23.7c1.31-.42,1.55-1.86,2-3q1-2.76,2-5.53c.43-1.21-1.5-1.74-1.93-.53s-.86,2.4-1.31,3.6c-.16.42-1,3.45-1.31,3.56l1.23.7a39.79,39.79,0,0,0-1.27-4,8.27,8.27,0,0,1-.93-3.73c.12-1.28-1.89-1.27-2,0Z" transform="translate(-16.55 -73.4)"/><path class="cls-2" d="M114,86.62a19.82,19.82,0,0,0,2.56,7.68,1,1,0,0,0,1.73,0,50.32,50.32,0,0,0,3.47-6.83c.53-1.16-1.19-2.18-1.73-1a50.32,50.32,0,0,1-3.47,6.83h1.73A17.35,17.35,0,0,1,116,86.62c-.16-1.26-2.16-1.28-2,0Z" transform="translate(-16.55 -73.4)"/><path class="cls-2" d="M111.91,98.7c-.19,2,2.35,2.62,3.67,1.47a8.64,8.64,0,0,0,1.76-3c.6-1.27,1.17-2.56,1.66-3.88s-1.48-1.73-1.93-.53-.93,2.28-1.46,3.4c-.21.45-.42.9-.64,1.34q-.16.35-.36.68a.6.6,0,0,1-.69.47c.12-1.28-1.88-1.27-2,0Z" transform="translate(-16.55 -73.4)"/><path class="cls-2" d="M143,87.59c-1.14-1.61-3.27-1.41-4.69-.24a5.29,5.29,0,0,0-1.78,4.8c.62,4.05,5.8,5.17,8.58,2.55.94-.88-.48-2.3-1.41-1.41-1.4,1.32-4.16,1.17-5-.74a3.25,3.25,0,0,1,.06-2.56c.24-.53,1.8-2.4,2.52-1.39s2.47,0,1.73-1Z" transform="translate(-16.55 -73.4)"/><path class="cls-2" d="M73.21,80.38l.47,14.72h2c-.09-1.29-.35-3.27.43-4.37q.35-1.65,2.53-.71,2.55-1.22,2.5.95a6.66,6.66,0,0,1-.1,3.56c-.23,1.26,1.69,1.8,1.93.53.61-3.26.3-8.87-4.39-8.64-4.28.21-5.13,5.37-4.89,8.68.09,1.27,2,1.3,2,0l-.47-14.72c0-1.28-2-1.29-2,0Z" transform="translate(-16.55 -73.4)"/><path class="cls-1" d="M71.72,96.59l0,.38.06,0a1.65,1.65,0,0,0,.32-.16c1.15-.58.14-2.3-1-1.73A1.89,1.89,0,0,0,70,97.6a1,1,0,0,0,1.37.36,1,1,0,0,0,.36-1.37Z" transform="translate(-16.55 -73.4)"/><path class="cls-1" d="M81.2,92.95A2.59,2.59,0,0,0,76.81,91l1.57.2-.09-.14.14.5c0,.33-.37.44,0,.16.1-.08.18-.18.28-.27a4.94,4.94,0,0,0,.67-.6q.09-.08,0,0,.33-.2-.54-.12c0,.06.08.11.09.17a4.87,4.87,0,0,0,.51,1.16,1,1,0,0,0,1.13.46A1.3,1.3,0,0,0,81.4,91a1.54,1.54,0,0,0-1.46-1.08,4.63,4.63,0,0,0-3.69.87c-.87.75.25,2.15,1.21,1.57l.13-.08-.5.14q-.5-.51-.33,0c.26,1.26,2.19.73,1.93-.53-.21-1-1.19-1.85-2.23-1.22l1.21,1.57a1.74,1.74,0,0,1,1.1-.33h.61l.4,0q.3.07-.3-.31V91l.6-.46-.11,0,1.13.46a6.74,6.74,0,0,0-.92-1.74,1.54,1.54,0,0,0-1.92-.16c-.92.6-2.42,1.86-1.62,3.05a1,1,0,0,0,1.57.2c.48-.43,1,0,1,.53,0,1.29,2,1.29,2,0Z" transform="translate(-16.55 -73.4)"/><path class="cls-2" d="M121.73,105.38l.94.27a.78.78,0,0,1-.24.94A2.87,2.87,0,0,1,121,107.7c-1,.48-.3,2.12.77,1.83a1.44,1.44,0,0,1,1.38,2.47c-.46.44-3.79,2.08-3.86.13,0-1.28-2-1.29-2,0,.14,4.14,5.71,3.16,7.63.9,2.24-2.63-.57-6.27-3.68-5.43l.77,1.83c1.63-.75,3.32-2.46,2.56-4.41a2.6,2.6,0,0,0-3.83-1.36c-1,.73,0,2.47,1,1.73Z" transform="translate(-16.55 -73.4)"/><path class="cls-2" d="M131,104c-4.73.39-5.23,10.1-.18,10.12,4.58,0,6.33-11.13.74-10.24-1.27.2-.73,2.13.53,1.93s.93,2.55.79,3.16c-.21.93-1.13,3.6-2.61,3-1.68-.72-1.26-5.76.73-5.93,1.27-.11,1.28-2.11,0-2Z" transform="translate(-16.55 -73.4)"/><path class="cls-2" d="M138.85,109.58v2.75l2-.27c-.14-.78.71-2.52,1.63-2.72,1.49-.32,1.29,1.63,1.25,2.53h2a2.75,2.75,0,0,1,.34-1.54c.37-.54,1.12-1.2,1.49-.06a15.33,15.33,0,0,1,0,2.42c.16,1.26,2.16,1.28,2,0-.24-1.91.46-4.81-2.33-5-2.42-.2-3.44,2.2-3.49,4.23,0,1.29,1.94,1.28,2,0,.09-2-.66-5.12-3.39-4.58a4.81,4.81,0,0,0-3.42,5.3c.19,1.13,2,.84,2-.27v-2.75a1,1,0,0,0-2,0Z" transform="translate(-16.55 -73.4)"/><path class="cls-2" d="M150.91,104.69l-.21,4.41a10,10,0,0,0,0,3.36,1.54,1.54,0,0,0,1.29,1.13c.83.09,1-.55,1.71-.82,1.18-.47.66-2.41-.53-1.93a6.92,6.92,0,0,0-1,.61q.76.5.5-.47l.06-1.26.24-5c.06-1.29-1.94-1.28-2,0Z" transform="translate(-16.55 -73.4)"/><path class="cls-1" d="M234.24,113.05a3.7,3.7,0,0,0-.79-2.82,2.83,2.83,0,0,0-3.47-.39,6.58,6.58,0,0,0-2.33,3.56,2.52,2.52,0,0,0,1.75,3.08,2.56,2.56,0,0,0,3.08-1.75l.11-.31-.13.29a2.39,2.39,0,0,1,.25-.51q.12-.21.25-.42l.14-.2a1.6,1.6,0,0,1-1,.73h-1.33l.11,0-1.1-.64.09.07-.64-1.1,0-.41v.79a2.5,2.5,0,0,0,5,0Z" transform="translate(-16.55 -73.4)"/></svg>