<?xml version="1.0" encoding="utf-8"?>
<!-- Generator: Adobe Illustrator 20.1.0, SVG Export Plug-In . SVG Version: 6.00 Build 0)  -->
<svg version="1.1" id="Слой_1" xmlns="http://www.w3.org/2000/svg" xmlns:xlink="http://www.w3.org/1999/xlink" x="0px" y="0px"
	 viewBox="0 0 300 300" style="enable-background:new 0 0 300 300;" xml:space="preserve">
<style type="text/css">
	.st0{fill:none;stroke:#FFFCFC;stroke-width:7;stroke-miterlimit:10;}
	.st1{fill:#FDFDFD;stroke:#FFFCFC;stroke-width:0.25;stroke-miterlimit:10;}
	.st2{fill:#FDFDFD;}
</style>
<path class="st0" d="M16.2,72.8c0,0,20.4-6.2,39.7-7.3c19.4-1.1,57.2-4.6,72.1-4c14.9,0.6,64.1,3.3,68,3.9c4,0.6,44.7,4.4,48.2,8.4
	c3.4,4,7.6,3.4,5.9,18.2s-1.1,11.9-6.3,24.9s-24.4,47.8-24.4,47.8s0,0-16,22c-12.6,17.3-17.6,26.8-35.3,27.9s-64.3,0-64.3,0
	s-21.6-2.8-30.7-9.7s-33.6-37.6-38.1-47.2c-4.6-9.7-15.4-34-18.5-51.5S16.2,72.8,16.2,72.8z"/>
<path class="st1" d="M262.1,253.3H23.4c-3.6,0-6.5-2.9-6.5-6.5l0,0c0-3.6,2.9-6.5,6.5-6.5h238.7c3.6,0,6.5,2.9,6.5,6.5l0,0
	C268.6,250.4,265.7,253.3,262.1,253.3z"/>
<g>
	<g>
		<path class="st2" d="M247.5,111.8c4.6-8.6,17.5-26.9,28.7-19.2c6.2,4.3,11.4,11.5,13.4,18.7c2.2,7.6-2.2,14.5-6.8,20.3
			c-4.4,5.6-9.8,11.2-15.9,14.9c-6.3,3.8-13.4,5.7-20.4,7.5c-12.6,3.3-25.7,6.6-33.9,17.6c-1.9,2.6,2.4,5.1,4.3,2.5
			c8.2-11,23.1-13,35.4-16.5c12.6-3.5,22.5-9.4,31.2-19.2c8.2-9.2,14.8-19.8,9.6-32.1c-3.5-8.4-12.8-22-23.5-21
			c-11.4,1.1-21.4,14.6-26.4,23.8C241.6,112.1,245.9,114.6,247.5,111.8L247.5,111.8z"/>
	</g>
</g>
</svg>
