<?xml version="1.0" encoding="utf-8"?>
<!-- Generator: Adobe Illustrator 20.1.0, SVG Export Plug-In . SVG Version: 6.00 Build 0)  -->
<svg version="1.1" id="Слой_1" xmlns="http://www.w3.org/2000/svg" xmlns:xlink="http://www.w3.org/1999/xlink" x="0px" y="0px"
	 viewBox="0 0 300 300" style="enable-background:new 0 0 300 300;" xml:space="preserve">
<style type="text/css">
	.st0{fill:none;stroke:#FFFCFC;stroke-width:7;stroke-miterlimit:10;}
	.st1{fill:#FDFDFD;stroke:#FFFCFC;stroke-width:0.25;stroke-miterlimit:10;}
	.st2{fill:#FDFDFD;}
</style>
<path class="st0" d="M14,80.7c0.8-6,5.1-11.1,10.9-12.8c7.2-2.1,19.9-4.7,30.9-5.4c19.4-1.1,44.4-4,72.1-4c14.9,0,62.1,4.3,66,4.9
	c4,0.6,42.5,7.5,49.2,10.4c0,0,9.2,2.4,6.9,18.2c-2.2,15-1.1,11.9-6.3,24.9s-24.4,47.8-24.4,47.8s0,0-16,22
	c-12.6,17.3-17.6,26.8-35.3,27.9s-64.3,0-64.3,0s-21.6-2.8-30.7-9.7s-33.6-37.6-38.1-47.2c-4.6-9.7-15.4-34-18.5-51.5
	C14.8,97.5,13.2,86.5,14,80.7z"/>
<path class="st1" d="M259.1,246h-246c-1.6,0-2.9-1.3-2.9-2.9l0,0c0-1.6,1.3-2.9,2.9-2.9h246c1.6,0,2.9,1.3,2.9,2.9l0,0
	C262,244.8,260.7,246,259.1,246z"/>
<g>
	<g>
		<path class="st2" d="M249.1,112.2c6.8-11.8,27.4-8.5,33.9,1.8c6,9.6,0.9,22.4-6.5,29.7c-10.3,10.1-22.4,11.7-36.1,13.7
			c-11.3,1.6-22.3,4.3-29.5,13.9c-2.5,3.3,3.1,6.6,5.6,3.3c7-9.3,20.1-10.1,30.7-11.6c11.9-1.7,22.2-4.4,31.5-12.5
			c8.5-7.4,12.8-16.2,13.2-27.4c0.2-4.9-0.9-8.7-3.6-12.8c-3.1-4.6-7.8-8.2-12.9-10.1c-10.7-4-25.7-1.8-31.9,8.7
			C241.4,112.5,247,115.8,249.1,112.2L249.1,112.2z"/>
	</g>
</g>
</svg>
