<svg id="Слой_1" data-name="Слой 1" xmlns="http://www.w3.org/2000/svg" viewBox="0 0 286.91 267.29"><defs><style>.cls-1{fill:none;stroke-width:7px;}.cls-1,.cls-2{stroke:#fffcfc;stroke-miterlimit:10;}.cls-2{fill:#fdfdfd;stroke-width:0.25px;}.cls-3{fill:#fffcfc;}</style></defs><title>cup2</title><path class="cls-1" d="M246.11,35.91c0,9.87-2.14,119.93-7.26,132.87-4.74,12-21.28,38.71-24,43.27a1.67,1.67,0,0,0-.27.78c0,.78-1.47,4.45-14.11,21.83s-17.65,25.76-35.3,26.89-64.33,0-64.33,0-20.63.15-29.74-6.68-32.59-39.57-37.14-49.25-13.36-22-16.54-39.46C15.81,157.52,10.22,42.53,11,36.65" transform="translate(-7.17 -26.87)"/><rect class="cls-2" x="0.13" y="261.42" width="251.72" height="5.74" rx="2.87" ry="2.87"/><path class="cls-3" d="M12.11,39.44c.72-4.36,5.19-4.42,8.83-4.69,4.81-.36,9.63-.61,14.45-.87q14.92-.81,29.85-1.26c19.91-.61,39.84-.8,59.76-.73s39.86.4,59.79.81c20.27.42,40.92.06,60.74,4.93,3.12.77,4.46-4.05,1.33-4.82-15.77-3.88-32-4.44-48.12-4.81-17.27-.39-34.54-.74-51.81-.95-34.86-.41-69.75-.22-104.58,1.47-8.31.4-16.87.39-25.11,1.6-4.84.71-9.08,2.77-10,8-.52,3.15,4.3,4.5,4.82,1.33Z" transform="translate(-7.17 -26.87)"/><path class="cls-3" d="M14,40.65c-.06-1.34-.16-2.56.81-3.6a8,8,0,0,1,3.56-2c3.07-.93,1.76-5.76-1.33-4.82a13.17,13.17,0,0,0-6.13,3.71c-1.68,1.93-2,4.26-1.91,6.74.15,3.2,5.15,3.22,5,0Z" transform="translate(-7.17 -26.87)"/><path class="cls-3" d="M246,47.35c3.22,0,3.22-5,0-5s-3.22,5,0,5Z" transform="translate(-7.17 -26.87)"/><path class="cls-3" d="M247.42,38.43c.23-2.2-.91-3.69-2.75-4.75a21,21,0,0,0-5.61-2.42c-3.13-.7-4.47,4.12-1.33,4.82a13.73,13.73,0,0,1,3.09,1.22c.15.07,1.74,1,1.76.95q.36.14-.1-.52a5.22,5.22,0,0,1,0,.7,2.52,2.52,0,0,0,2.5,2.5,2.56,2.56,0,0,0,2.5-2.5Z" transform="translate(-7.17 -26.87)"/><path class="cls-3" d="M245.36,37.68c.33.07-.18-.09-.24-.12l-.3-.24q.2.21,0-.06a.66.66,0,0,1-.19-.33q-.11-.31-.06-.12c.07.23,0-.65-.07-.22a2.48,2.48,0,0,0,.73,1.77,2.57,2.57,0,0,0,1.44.69,2.52,2.52,0,0,0,2.74-1.79,3.67,3.67,0,0,0-.29-2.75,2.5,2.5,0,0,0-4.66,1.26,3.5,3.5,0,0,0,.47,1.61,2.52,2.52,0,0,0,2.49,1.19,2.48,2.48,0,0,0,2.08-1.79,3.25,3.25,0,0,0-2.77-4,2.75,2.75,0,0,0-1.93.25,2.55,2.55,0,0,0-1.15,1.49c-.27,1.18.36,2.88,1.75,3.08.13,0,.27.07.39.07s.12,0-.28-.19q-1.12-.5-.83-2l4.57-.6.22.92L244.78,37a1.33,1.33,0,0,1-.2-1q.07-.35,0-.06l4.91.66a3.67,3.67,0,0,0-2.79-3.73,2.5,2.5,0,1,0-1.33,4.82Z" transform="translate(-7.17 -26.87)"/><path class="cls-3" d="M243.91,39.56c3.22,0,3.22-5,0-5s-3.22,5,0,5Z" transform="translate(-7.17 -26.87)"/><path class="cls-3" d="M243.46,38.65c3.22,0,3.22-5,0-5s-3.22,5,0,5Z" transform="translate(-7.17 -26.87)"/><path class="cls-3" d="M242.89,38.54c3.22,0,3.22-5,0-5s-3.22,5,0,5Z" transform="translate(-7.17 -26.87)"/><path class="cls-3" d="M249.61,102a19,19,0,0,1,30.72,1.9c3.92,6.06,3.5,13.74,3.37,20.68a164.72,164.72,0,0,1-2,23.15c-1.85,11.5-3.88,29.09-14.36,36.34s-26.45,1.85-38.41,3.39c-6.3.81-6.38,10.82,0,10,15.71-2,33.62,4.42,46.81-7.32,5.87-5.23,9.09-12.81,11.28-20.19a168.25,168.25,0,0,0,5.54-28.37c1.9-16.26,4.5-37.56-9.39-49.43C271.28,82,252.64,82.62,242.54,95c-4,4.94,3,12.06,7.07,7.07Z" transform="translate(-7.17 -26.87)"/></svg>