<svg id="Слой_1" data-name="Слой 1" xmlns="http://www.w3.org/2000/svg" viewBox="0 0 195.79 81.93"><defs><style>.cls-1{fill:#fffcfc;}.cls-2{fill:#5b3400;}.cls-3{fill:#f6f6f6;}</style></defs><title>espresso1</title><path class="cls-1" d="M40.92,59.94C46.66,63,51.3,67.54,57.36,70.23a55.49,55.49,0,0,0,17.15,4.39c3.2.32,3.18-4.68,0-5a48.91,48.91,0,0,1-17.6-5.13c-4.83-2.49-8.72-6.31-13.47-8.87-2.83-1.53-5.36,2.79-2.52,4.32Z" transform="translate(-6.2 -1.22)"/><path class="cls-2" d="M115.49,47.91a104.47,104.47,0,0,0,28.82-1.65L143,41.45a265.5,265.5,0,0,1-32.67,7.18c-3.17.49-1.82,5.31,1.33,4.82a265.5,265.5,0,0,0,32.67-7.18c3.12-.9,1.8-5.43-1.33-4.82a99.51,99.51,0,0,1-27.49,1.47c-3.21-.27-3.19,4.74,0,5Z" transform="translate(-6.2 -1.22)"/><path class="cls-2" d="M79.86,71a29.27,29.27,0,0,0,17.92,1.08c5.56-1.32,4.25-9.76-1.33-9.82L65.9,61.9c-6.52-.07-6.32,9.46,0,10l14.65,1.26-1.33-9.82a25.52,25.52,0,0,1-22.51-4.88c-4.93-4-11.42,2.19-7.07,7.07a32.82,32.82,0,0,0,9.77,7.52l2.52-9.32A14.48,14.48,0,0,1,50.86,60.8c-5.23-3.82-10.11,4.83-5,8.63,4.48,3.37,9.07,6.57,14.56,8S72.06,79,77.78,79s10.8-1.63,16.28-1.92c6.82-.36,13.68,1.18,20.58.81l-1.33-9.82a71.17,71.17,0,0,1-28.17,2.36c-5.55-.62-6.91,9-1.33,9.82a272.7,272.7,0,0,0,40.4,2.87c12.85-.13,23.24-3.89,34.36-10.08,4.26-2.37,2.45-9.51-2.52-9.32-24,.93-48,1.76-72-1v10c17.53-1.74,35.4,1,52.54-4.06,5.6-1.66,4.18-9.38-1.33-9.82a367.28,367.28,0,0,0-47.64-.8c-7.24.36-14.64,1.22-21.74-.73-6.6-1.81-12.49-5.48-18.3-9-4.51-2.73-9,2.56-6.84,6.84A33.19,33.19,0,0,0,51.56,67.58l3.85-9.14c-6-1.13-9.75-5.62-13.14-10.36-3.72-5.18-12.4-.2-8.63,5,4.85,6.76,10.55,13.33,19.12,15a5,5,0,0,0,3.85-9.14,22.78,22.78,0,0,1-7.19-8.75L42.58,57c6.09,3.68,12.28,7.33,19.1,9.52,7.22,2.32,14.73,2.17,22.22,1.76a381.65,381.65,0,0,1,51.41.59L134,59.09c-16.21,4.81-33.27,2.05-49.88,3.7-6.46.64-6.39,9.27,0,10,23.92,2.72,48,1.89,72,1l-2.52-9.32c-4.64,2.58-9.31,5.26-14.41,6.83-5.41,1.66-11,1.89-16.63,1.89a262,262,0,0,1-36-2.52l-1.33,9.82A78.81,78.81,0,0,0,116,77.73c5.26-1.53,4.46-10.13-1.33-9.82-6,.32-11.68-.35-17.64-.73-5.41-.35-10.4,1.46-15.75,1.77a78.14,78.14,0,0,1-15.31-.55c-5.91-.85-10.42-4.09-15.08-7.6l-5,8.63a22.77,22.77,0,0,0,16.13,4.3c4.44-.49,7.41-6.84,2.52-9.32a25.27,25.27,0,0,1-7.75-6l-7.07,7.07A36.15,36.15,0,0,0,81.89,73c5.77-1.43,4-9.36-1.33-9.82L65.9,61.9v10l30.56.33-1.33-9.82a19.92,19.92,0,0,1-12.61-1.08c-6-2.36-8.59,7.31-2.66,9.64Z" transform="translate(-6.2 -1.22)"/><path class="cls-2" d="M52.81,61.44c-4.67-2-7.7-5.79-10.82-9.66a166.22,166.22,0,0,1-10.1-14A176.67,176.67,0,0,1,16.22,7.6c-2.37-5.9-12-3.32-9.64,2.66a189.52,189.52,0,0,0,17.65,34c5.95,9,13.23,21.35,23.54,25.77,5.85,2.51,10.95-6.1,5-8.63Z" transform="translate(-6.2 -1.22)"/><path class="cls-2" d="M12.2,12.48l124.43-.61,30.86-.15,8,0c1.59,0,4.88-.54,6.32.37,2.95,1.85.29,6.45-1,8.67-9.23,15.65-23.37,29.41-37.26,40.91l7.07,7.07,14.73-15.65c4.41-4.68-2.53-11.66-7.07-7.07l-10.5,10.6c-2.71,2.74-5.92,5.48-5.29,9.69,1.25,8.39,12.55,6.66,17.57,3.2,6.95-4.78,12.09-12.93,16.62-19.9a152.07,152.07,0,0,0,13-25.1c.78-1.89-.49-4.77-2.3-5.65-5.31-2.57-9.2,0-13.32,3.48-5.2,4.36-10.35,8.8-15.52,13.2l-31.78,27,7.07,7.07,37-41.28c3.55-4-1.31-11.49-6.06-7.85L120.17,54.61l6.06,7.85L145.29,44c3.4-3.3-.07-10.19-4.86-8.36A197,197,0,0,0,98.17,57.78c-4.49,3.12-1.88,10.69,3.85,9.14A75.7,75.7,0,0,0,130,52.55c3.06-2.46,1.09-7.39-2.21-8.36-16.27-4.75-34.46,1.69-50.12-5l-3.85,9.14,41.46,7.76,1.33-9.82A533.4,533.4,0,0,0,45.39,42c-5.59,0-6.86,8.37-1.33,9.82A298.74,298.74,0,0,0,86.22,59.6c5.55.63,6.89-8.91,1.33-9.82L71.2,47.09l-1.33,9.82q21-.8,41.92-.36c5.66.12,6.75-8.33,1.33-9.82C88.64,40,61.32,46.75,37.87,36L34,45.16A378.6,378.6,0,0,0,105.93,64l2.66-9.64c-30.5-4.84-69.87-12.15-82.42-45-2.25-5.9-11.28-3.7-9.64,2.66A57.62,57.62,0,0,0,30.84,37.63c3.3,3.46,10.12-.08,8.36-4.86l-7.9-21.4L24,17A159,159,0,0,1,54.37,41.47l4.86-8.36A35.74,35.74,0,0,1,39.85,17.44L33,24.28A338.88,338.88,0,0,1,78,48.76l3.85-9.14A65.28,65.28,0,0,1,50.67,17.48l-4.86,8.36a178,178,0,0,1,32.76,8.48l2.66-9.64L44.48,11.37,41.83,21l18.53,6.51c5.29,1.86,9-6.7,3.85-9.14L43,8.33C37.28,5.6,32.19,14.1,38,17Q79.43,37.47,122.2,55l2.66-9.64L67.37,32l-2.66,9.64,45.7,7.47c4.48.73,8.94-4.68,4.86-8.36A145.81,145.81,0,0,0,70,12.9l-1.33,9.82a127.88,127.88,0,0,1,41.06,5.87l2.66-9.64A311.45,311.45,0,0,1,77,6.88c-5.2-2.13-9,6.78-3.85,9.14l17,7.79,2.52-9.32A129.67,129.67,0,0,1,53.49,9l-2.66,9.64a439.89,439.89,0,0,1,75.61,23.81V32.84a47.34,47.34,0,0,1-23.9,1l-1.33,9.82a81.56,81.56,0,0,1,23,3c5.26,1.46,7.71-4.68,4.86-8.36A160.28,160.28,0,0,0,93.72,4.82l-2.52,9.32A291.72,291.72,0,0,1,141.8,24.75l1.33-9.82-39.28-4.42c-5.61-.63-6.77,8.59-1.33,9.82l36.75,8.33V19A177.94,177.94,0,0,0,108,32.34c-4.37,2.38-2.37,9.38,2.52,9.32a114.09,114.09,0,0,0,33.22-5.34,5.07,5.07,0,0,0,1.19-9.14,70.34,70.34,0,0,0-26.08-9.82c-5.39-.87-8.93,6-3.85,9.14A50.74,50.74,0,0,0,169.2,26c3.19-2.09,3.39-8.46-1.19-9.14A176.57,176.57,0,0,0,134.32,15c-6.44.29-6.43,9.67,0,10A135.74,135.74,0,0,0,158,24.18c4.67-.58,7.12-6.52,2.52-9.32a57.4,57.4,0,0,0-22.33-8c-6.17-.83-9.12,8.27-2.66,9.64a348.61,348.61,0,0,0,42.61,6.33L176.84,13A39.23,39.23,0,0,0,164,17.38c-4.12,2.2-2.51,10,2.52,9.32L179,25.05c6.29-.82,6.37-10.83,0-10L166.5,16.7,169,26a31.46,31.46,0,0,1,10.48-3.35c5.94-.89,3.88-9.37-1.33-9.82a326.66,326.66,0,0,1-39.95-6l-2.66,9.64a50.59,50.59,0,0,1,19.94,7L158,14.18a135.74,135.74,0,0,1-23.71.87V25a163,163,0,0,1,31,1.46l-1.19-9.14a40.76,40.76,0,0,1-44.11.49L116.19,27a63,63,0,0,1,23.69,8.81l1.19-9.14a104.42,104.42,0,0,1-30.56,5L113,41a164,164,0,0,1,28.89-12.32c4.47-1.42,5-8.5,0-9.64l-36.75-8.33-1.33,9.82,39.28,4.42c5.77.65,6.52-8.25,1.33-9.82a306.44,306.44,0,0,0-53.27-11c-5.4-.63-6.12,6.81-2.52,9.32a152.13,152.13,0,0,1,33.39,31.93L126.93,37a91.63,91.63,0,0,0-25.71-3.36c-5.48.06-7,8.59-1.33,9.82a58.18,58.18,0,0,0,29.21-1c5.12-1.52,4.33-7.83,0-9.64A439.89,439.89,0,0,0,53.49,9c-6.27-1.37-8.86,7.79-2.66,9.64a139.15,139.15,0,0,0,41.83,5.82c4.63-.06,7.24-7.15,2.52-9.32l-17-7.79-3.85,9.14A311.45,311.45,0,0,0,109.7,28.59c6.23,1.72,8.78-7.72,2.66-9.64a136.88,136.88,0,0,0-43.72-6.23c-5.92.12-6.43,7.85-1.33,9.82a132.52,132.52,0,0,1,40.9,25.26l4.86-8.36L67.37,32c-6.21-1-9,8.15-2.66,9.64L122.2,55c6.43,1.5,8.47-7.25,2.66-9.64Q83.32,28.29,43,8.33L38,17,59.16,27,63,17.89,44.48,11.37c-6.1-2.14-8.66,7.47-2.66,9.64l36.75,13.3c6.06,2.19,8.67-7.46,2.66-9.64A178,178,0,0,0,48.47,16.2c-5.11-.82-8,4.33-4.86,8.36A74.35,74.35,0,0,0,79.21,49.26c5.57,1.83,8.46-6.16,3.85-9.14a338.88,338.88,0,0,0-45-24.48c-4.27-1.92-9.64,2.19-6.84,6.84A46.49,46.49,0,0,0,56.58,42.76c4.89,1.65,8.19-4.93,4.86-8.36A170,170,0,0,0,29,8.37C25.49,6.2,20.12,9.86,21.65,14l7.9,21.4,8.36-4.86A47.15,47.15,0,0,1,26.17,9.35L16.53,12c14.05,36.79,54.54,46.44,89.4,52,6.29,1,9-8.63,2.66-9.64A378.6,378.6,0,0,1,36.68,35.52c-5.26-1.95-9,6.78-3.85,9.14C57.51,56,84.9,49.34,110.46,56.38l1.33-9.82q-21-.44-41.92.36c-5.34.2-7.15,8.87-1.33,9.82l16.35,2.69,1.33-9.82a280.25,280.25,0,0,1-39.5-7.46L45.39,52a533.4,533.4,0,0,1,71.18,4.34c5.55.71,6.85-8.79,1.33-9.82L76.44,38.72c-5.12-1-9.43,6.77-3.85,9.14,17,7.24,35.21.93,52.51,6l-2.21-8.36A63.7,63.7,0,0,1,99.36,57.28l3.85,9.14a186.59,186.59,0,0,1,39.87-21.17l-4.86-8.36-19.06,18.5c-4,3.84,1.46,11.38,6.06,7.85l44.51-34.14-6.06-7.85-37,41.28c-4.34,4.84,2.19,11.22,7.07,7.07l25.13-21.37,11.83-10.06,6.65-5.66c.72-.61,5.82-4.61,4.9-5.06l-2.3-5.65a138.73,138.73,0,0,1-12.43,23.44,124.39,124.39,0,0,1-7.45,10.23,33.32,33.32,0,0,1-4.3,4.69A12.75,12.75,0,0,1,153,62q-2.5-.08-1,1.58l-.5,3.85c1.25-2.74,4.4-5,6.51-7.12l7.22-7.29L158.22,46,143.48,61.63c-4.49,4.77,2.18,11.12,7.07,7.07a203.37,203.37,0,0,0,33.63-35.48c4-5.35,8.53-11.29,8.85-18.25a12.11,12.11,0,0,0-9.29-12.73c-7.82-2-17.22-.52-25.22-.49l-27.87.14-55.74.27L12.2,2.48c-6.43,0-6.45,10,0,10Z" transform="translate(-6.2 -1.22)"/><path class="cls-2" d="M165,17.84a11.77,11.77,0,0,1,11.32,2.21c1.73,1.57,2.16,2.79.65,4.64-1.86,2.27-4,4.38-6,6.54-4.33,4.75,2.72,11.84,7.07,7.07,6.17-6.77,14.39-14.14,7.05-23.37-5.36-6.75-14.69-9.09-22.81-6.73-6.17,1.8-3.54,11.45,2.66,9.64Z" transform="translate(-6.2 -1.22)"/><path class="cls-2" d="M147.58,57.81l-13.31,0c-3.42,0-7.29-.54-10.25,1.5-5.26,3.63-.27,12.31,5,8.63,1.58-1.09,6.49-.14,8.53-.15l10,0c6.43,0,6.45-10,0-10Z" transform="translate(-6.2 -1.22)"/><path class="cls-2" d="M86.57,57.25a33.74,33.74,0,0,1-12.18-.44c-2.41-.58-9-2.06-10.32-4.41l.5,3.85c.3-1.81,3.48-4.61,4.55-5.94l5.17-6.5c2.27-2.86,1.72-7.26-2.21-8.36a29.25,29.25,0,0,0-14.21-.39c-3.94.82-4.5,5.72-2.21,8.36,9.68,11.14,26.72,16.07,40.72,18.65a117.7,117.7,0,0,0,48-1.12c6.27-1.45,3.61-11.09-2.66-9.64A105.32,105.32,0,0,1,99,52.42c-12.37-2.28-27.74-6.21-36.31-16.08L60.53,44.7a18,18,0,0,1,8.89.39l-2.21-8.36c-3.65,4.6-7.94,9.08-11.11,14-2.15,3.34-1.41,6.81,1.59,9.26,7.74,6.32,19.19,8.46,28.87,7.25,6.3-.79,6.38-10.8,0-10Z" transform="translate(-6.2 -1.22)"/><path class="cls-2" d="M170.67,51.9c2.85-6.35,8.46-10.27,12.87-15.45,4.59-5.38,7-12.36,12.12-17.28l-7.85-6.06A116.72,116.72,0,0,1,168.66,39.7L177,44.56l5.72-14.48c1.5-3.8,3.63-7.73,4.4-11.75.16-.85.05-8.74-2.25-8.43q-1.54,3.46,1.27,2.76l3.29.06c1.24,0,4.22-.13,4.78.24l-2.3-3c-.2-.9-4.67,4.79-5.15,5.4q-2.83,3.61-5.69,7.2c-3.82,4.78-7.68,9.52-11.65,14.17A293.29,293.29,0,0,1,144.13,63.2c-4.76,4.35,2.32,11.4,7.07,7.07a305.28,305.28,0,0,0,28.26-30c4.51-5.4,8.9-10.9,13.25-16.43,3-3.8,9.14-9.06,9.26-14.23.14-6.25-6.23-6.81-10.88-6.9-5-.09-11.14-.9-14.49,3.78a7.56,7.56,0,0,0-.76,7.57c1.26,2.8,1.31,3,.11,6.08-2.81,7.26-5.72,14.48-8.58,21.71-1.89,4.78,5.09,8.27,8.36,4.86a126.36,126.36,0,0,0,20.71-28.61c2.62-5-3.67-10.08-7.85-6.06-5.55,5.34-8,12.77-13.11,18.4C170.67,35.78,165,40.18,162,46.85c-2.61,5.82,6,10.91,8.63,5Z" transform="translate(-6.2 -1.22)"/><path class="cls-3" d="M32,22.4a38.18,38.18,0,0,1,4.1-.37c1.22,0,2.25.36,2.66,1.63a4.38,4.38,0,0,1,0,2.33c-.74,2.95-3.69,4.21-6.48,4.11-.64,0-.64,1,0,1,3.47.12,7.05-1.78,7.56-5.49a4.23,4.23,0,0,0-1.48-4.14c-1.69-1.08-4.57-.24-6.38-.07-.64.06-.64,1.06,0,1Z" transform="translate(-6.2 -1.22)"/><path class="cls-3" d="M32.32,27.59a28.55,28.55,0,0,0,6-.21c.63-.09.36-1.05-.27-1a27.35,27.35,0,0,1-5.73.17c-.64,0-.64,1,0,1Z" transform="translate(-6.2 -1.22)"/><path class="cls-3" d="M48.71,22.52c-1.29,0-2.61-.07-3.9,0a2,2,0,0,0-1.61.7,7.93,7.93,0,0,0-1.07,2.62,5.75,5.75,0,0,0-.37,2.64c.66,3.4,6,1.63,7.61.19.49-.42-.22-1.13-.71-.71-1.65,1.45-6.73,2.68-5.77-1.17.28-1.1.59-2.95,1.8-3.25a18,18,0,0,1,4,0,.5.5,0,0,0,0-1Z" transform="translate(-6.2 -1.22)"/><path class="cls-3" d="M52.6,23v7a.5.5,0,0,0,1,0V23a.5.5,0,0,0-1,0Z" transform="translate(-6.2 -1.22)"/><path class="cls-3" d="M53.7,23.61l3-.17c.74,0,2.23-.4,2.72.13s.23,2,.22,2.7v2.91a.5.5,0,0,0,1,0V25.29c0-.79.24-2-.36-2.63s-1.6-.34-2.34-.3l-4.24.25c-.64,0-.64,1,0,1Z" transform="translate(-6.2 -1.22)"/><path class="cls-3" d="M64.61,23v6.73a.5.5,0,0,0,1,0V23a.5.5,0,0,0-1,0Z" transform="translate(-6.2 -1.22)"/><path class="cls-3" d="M65.11,24.42c1.23-.12,3.61-.33,4.4.76.34.47.28.7-.11,1.11a2.92,2.92,0,0,1-1.12.61,11.63,11.63,0,0,0-1.66.68c-.56.31-.06,1.18.5.86,1.3-.72,4.3-1.25,3.62-3.48-.26-.85-1.11-1.14-1.89-1.32a11.36,11.36,0,0,0-3.74-.23c-.63.06-.64,1.06,0,1Z" transform="translate(-6.2 -1.22)"/><path class="cls-3" d="M73.9,27.26c2.29.19,6,.51,7.5-1.81,1.32-2.11-1.57-3-3.17-2.61a4.64,4.64,0,0,0-3.7,4.49c.16,2.85,4,2.82,6.1,2.61.63-.06.64-1.06,0-1-1.41.14-4,.35-4.79-1.05-.86-1.56.56-3.27,2-3.87.5-.2,1.57-.53,2.06-.19q.52,0,.26.76.41.87-.52,1.11a5.36,5.36,0,0,1-1.16.45,13.26,13.26,0,0,1-4.57.12c-.64-.05-.64.95,0,1Z" transform="translate(-6.2 -1.22)"/><path class="cls-3" d="M87.87,23c-1.46,1.06-3.45,3.32-3.08,5.32s4.35,1.4,5.7.92c.6-.21.34-1.18-.27-1-1,.35-4.59,1.18-4.37-.78a6,6,0,0,1,2.52-3.63c.52-.37,0-1.24-.5-.86Z" transform="translate(-6.2 -1.22)"/><path class="cls-3" d="M98.28,24.12a3.66,3.66,0,0,0-4.89,3c-.2,2,1.64,5.08,4,4.19.6-.22.34-1.19-.27-1-1.84.69-3-2.12-2.67-3.53A2.66,2.66,0,0,1,98,25.08c.6.23.86-.74.27-1Z" transform="translate(-6.2 -1.22)"/><path class="cls-3" d="M103.86,25.53c-.51,2.32,2.57,3.34,4.33,3.7,2,.41,4.34-.1,4.7-2.43.82-5.3-9.22-6.27-8-1.37.15.62,1.12.36,1-.27-.61-2.46,2.84-2.2,4.14-1.56,1.46.72,2.73,2.58,1.41,4.05-.86,1-2.2.79-3.33.51s-3.54-.93-3.23-2.37c.14-.63-.83-.9-1-.27Z" transform="translate(-6.2 -1.22)"/><path class="cls-3" d="M111.15,52.27a6.85,6.85,0,0,0-7.44,2.55c-1.72,2.18-3.06,6.21-2.5,9,1.23,6,8.92-3.14,3.46-3.39-.64,0-.64,1,0,1l.09,2.54L102.16,63c-.23-.36.16-1.71.22-2.07a14.47,14.47,0,0,1,1.06-3.67c1.32-2.89,4.18-5,7.45-4,.62.19.88-.77.27-1Z" transform="translate(-6.2 -1.22)"/><path class="cls-3" d="M120,52.42c-3.17-.45-3.4,5.71-2.15,7.55,1.64,2.41,5.35,2.49,7.46.7s3.6-6.61,1.31-8.83-5.94-.72-7.22,1.68c-.3.57.56,1.07.86.5.88-1.64,3.67-3.16,5.38-1.67s1.05,4.95-.14,6.63a4.44,4.44,0,0,1-5.38,1.58,3.31,3.31,0,0,1-2-2.86c-.08-.67.29-4.49,1.61-4.3.63.09.9-.87.27-1Z" transform="translate(-6.2 -1.22)"/><path class="cls-3" d="M139.26,54.35a6.59,6.59,0,0,1-.59,3.47c-.26.57.54,1.08.86.5a54,54,0,0,1,4.56-6.84l-.84-.22a19.17,19.17,0,0,1,.42,5.8.5.5,0,0,0,.75.43,22.59,22.59,0,0,0,5.15-5.43l-.93-.25a15.32,15.32,0,0,1-2.33,6.64c-.34.55.52,1,.86.5a16.4,16.4,0,0,0,2.46-7.15c.06-.53-.68-.62-.93-.25a21.08,21.08,0,0,1-4.79,5.07l.75.43a20.14,20.14,0,0,0-.45-6.06.5.5,0,0,0-.84-.22,55.63,55.63,0,0,0-4.72,7l.86.5a7.57,7.57,0,0,0,.73-4c-.05-.64-1.05-.64-1,0Z" transform="translate(-6.2 -1.22)"/><path class="cls-3" d="M153.62,52v4.3h1a19.25,19.25,0,0,1,1.21-7.16l-.48.37c.91,0,2,3.37,2.22,4,.59,1.38,1.13,2.79,1.63,4.2.22.6,1.18.34,1-.27-.71-2-1.49-4-2.36-5.88-.52-1.16-.94-3-2.45-3a.52.52,0,0,0-.48.37,20,20,0,0,0-1.24,7.42.5.5,0,0,0,1,0V52a.5.5,0,0,0-1,0Z" transform="translate(-6.2 -1.22)"/></svg>