<svg id="Слой_1" data-name="Слой 1" xmlns="http://www.w3.org/2000/svg" viewBox="0 0 183.35 66.91"><defs><style>.cls-1{fill:#331906;}.cls-2{fill:#3d2310;}.cls-3{fill:#fffcfc;}</style></defs><title>espresso1</title><path class="cls-1" d="M87.53,183.73c6.19,4.31,13.34,6.13,20.68,7.39,8.72,1.49,17.49,2.77,26.23,4.15l.66-4.91a140.67,140.67,0,0,1-38.76-6.53c-3.08-1-4.39,3.85-1.33,4.82a145.7,145.7,0,0,0,40.09,6.71c2.75.07,3.5-4.46.66-4.91-8.2-1.29-16.4-2.54-24.59-3.88-7.5-1.23-14.79-2.74-21.13-7.15-2.65-1.84-5.15,2.49-2.52,4.32Z" transform="translate(-35.69 -144.73)"/><path class="cls-2" d="M47.41,155.5c8.12,11.93,16.47,24.13,28.12,32.92,12.36,9.32,27.33,13.18,42.67,12.74,8.56-.24,17.11-1,25.66-1.48,7.53-.46,15.79,0,22.18-4.63,6.24-4.53,10.66-11.78,15.35-17.79l16.75-21.46c2-2.51-1.56-6.07-3.54-3.54l-14.35,18.4c-4.48,5.74-8.69,11.94-13.7,17.23-6.27,6.62-14.17,6.27-22.68,6.79-7.95.49-15.89,1.09-23.85,1.41-15,.61-29.53-2.59-41.69-11.81-11-8.35-18.91-20-26.6-31.31-1.8-2.65-6.13-.15-4.32,2.52Z" transform="translate(-35.69 -144.73)"/><path class="cls-2" d="M50,155.82a608.47,608.47,0,0,1,73-5.64c23.79-.37,47.62,1.05,70.84,6.53,3.13.74,4.46-4.08,1.33-4.82-47.54-11.21-98.57-7.45-146.52-.89-3.17.43-1.82,5.25,1.33,4.82Z" transform="translate(-35.69 -144.73)"/><path class="cls-2" d="M52.86,157.77q14.32,11.23,29.65,21l1.93-4.57a31.26,31.26,0,0,1-14.27-7.51c-3-2.85-5.13-6.41-8.78-8.57A2.52,2.52,0,0,0,58,161.58c3.72,7.09,10,11.83,16.34,16.41l2.52-4.32A40.18,40.18,0,0,1,66.43,165c-1.89-2.18-5.33.62-3.93,3A50.55,50.55,0,0,0,85.23,188.8c2.9,1.34,5.45-3,2.52-4.32a46.07,46.07,0,0,1-20.93-18.95l-3.93,3A44.16,44.16,0,0,0,74.31,178c2.84,1.64,5.09-2.47,2.52-4.32-5.71-4.09-11.22-8.27-14.55-14.61l-3.42,3.42c4.23,2.49,6.77,7.27,10.71,10.26a36.45,36.45,0,0,0,13.54,6.32A2.51,2.51,0,0,0,85,174.49q-14.8-9.44-28.64-20.26c-2.5-2-6.07,1.55-3.54,3.54Z" transform="translate(-35.69 -144.73)"/><path class="cls-2" d="M79.17,178.47l-.17-1-4.18,2.43C81,185.75,87.19,191.5,94.45,196c2.35,1.46,5.29-2.14,3-3.93a164.87,164.87,0,0,1-14.15-12.61l-1.77,4.27c3.39-.17,7.73,2.57,10.83,3.89,2.41,1,5.27-1.79,3-3.93a142.69,142.69,0,0,0-15.35-12.25L78.14,176l10.59,4.07c2.35.9,4.21-2.56,2.43-4.18l-19-17.29c-2.37-2.16-5.92,1.36-3.54,3.54l19,17.29,2.43-4.18-10.59-4.07c-2.83-1.09-4.05,3-1.93,4.57a133.31,133.31,0,0,1,14.34,11.47l3-3.93c-4.13-1.75-8.77-4.79-13.36-4.57A2.53,2.53,0,0,0,79.79,183a164.87,164.87,0,0,0,14.15,12.61l3-3.93c-6.9-4.29-12.77-9.78-18.61-15.37-1.93-1.84-4.56.06-4.18,2.43l.17,1c.51,3.17,5.33,1.82,4.82-1.33Z" transform="translate(-35.69 -144.73)"/><path class="cls-2" d="M92.43,174.47c3.87,2.84,9.49,4.39,14.09,2.45,5.3-2.24,4-8.66-.27-11.2-3.68-2.16-10.4-3.12-12.6,1.5-2.47,5.16,3.1,8.68,7.4,9.59,5.86,1.24,26-1.92,21.48-11.82-2-4.38-9.09-5.09-13.14-3.56-4.9,1.85-7.4,7.44-4.71,12.13,4.25,7.42,24.11,11.95,26.14.51,2-11.17-15.41-11.7-18.58-2.33-4,11.88,11.26,17.13,20.14,13.59,4-1.59,6.92-5.62,4.9-9.91S128.75,169,124.34,170c-4.84,1.07-7,6.74-3.09,10.28,4,3.7,12.91,5.73,18.33,5.16,5.75-.61,7.66-6.08,4.54-10.62a12.2,12.2,0,0,0-14.39-4.16c-4.14,1.67-4.37,7.07,0,8.68,5.5,2,16.71,1.5,17-6.54.27-7.13-11.75-9.51-17-9.12-6.32.48-10.1,8.94-2.77,11.38,7,2.33,14.9-3.06,13.2-10.51-1.29-5.64-10-3.26-8.68,2.39-.09-.41-2.78-1.38-1.8-.66l2.23,3.89.07-1-2.23,3.89c.57-.41,7.93.1,8.11.93l.45-3.47c-.9,2.07-4.88.63-6.24.13v8.68c.66-.27,4.67-1.25,4.58.57l1.32-3.18q1.52-.59-1.23-.37a30.2,30.2,0,0,1-3.87-.74q-1.66-.42-3.28-1-3.09-1.94-1.65-.27l-1.16,4.38a4.11,4.11,0,0,0,1.89.55q1.37-3.44-1.82-1.87c-1.73.15-5.18.13-6.17-1.75a3.68,3.68,0,0,0,.74-3.79,15,15,0,0,1-3.85-.5,20.67,20.67,0,0,1-3.6-1.16,1,1,0,0,1,.73-.66V165c-1.18,1.79-4.66,2.8-6.66,3.13-1.08.18-6.31-.05-6.23.17l-.45,3.47.38-.76-2.69,2.07a2.38,2.38,0,0,1,2.65.71l-.45-3.47-.29,1,2.07-2.69c-1.94.86-4.66-.9-6.1-2-4.68-3.43-9.17,4.38-4.54,7.77Z" transform="translate(-35.69 -144.73)"/><path class="cls-2" d="M133.42,160.53l-24.85-.12-12.42-.06c-2.95,0-6.9-.63-9.29,1.61-3.82,3.58-1.68,11.85.73,15.58,1.5,2.31,3.71,3.71,5.94,5.21a19.59,19.59,0,0,1,7.3,8.55l2.69-6.61A12.74,12.74,0,0,1,93,182.46c-4.88-3.32-9,4.36-4.54,7.77,16,12.11,36.67,7.66,54.25,2.1,4.65-1.47,4.08-9.13-1.2-8.84-15.1.83-30.34,1.54-44.87-3.41-5.49-1.87-7.85,6.82-2.39,8.68,15.26,5.2,31.39,4.6,47.26,3.73l-1.2-8.84c-15.45,4.88-33.2,9.49-47.32-1.19l-4.54,7.77a21.82,21.82,0,0,0,17.44,3.14c3.07-.68,3.84-4.13,2.69-6.61A26.2,26.2,0,0,0,101,177c-1.48-1.16-3.3-2-4.69-3.24-1.08-1-3.35-4.66-2.33-6.33l-2.69,2.07c3.24-.77,7.33-.12,10.64-.1l10.51.05,21,.1c5.79,0,5.8-9,0-9Z" transform="translate(-35.69 -144.73)"/><path class="cls-2" d="M91.56,177a76.22,76.22,0,0,0,28.72,8.67v-9c-14.18.07-31.89.14-41-12.83-3.3-4.71-11.11-.21-7.77,4.54,11.23,16,30.8,17.37,48.76,17.29,5.9,0,5.66-8.43,0-9a64.66,64.66,0,0,1-24.17-7.44c-5.11-2.73-9.66,5-4.54,7.77Z" transform="translate(-35.69 -144.73)"/><path class="cls-2" d="M74.53,168.67l15.3-.19c4.88-.06,6.36-7.94,1.2-8.84l-13.9-2.43-6.49-1.13c-1.69-.3-5.4-.19-6.55-1.66l1.32,3.18.08-1L61,161.1c12.68.09,25.37.17,38-.71,6.08-.42,12.15-1.07,18.23-1.45,3.19-.2,6.39-.33,9.59-.31,1.6,0,3.2,0,4.79.14l1.91.13q3.18,1,.93-.88l3.14-5.54a123.09,123.09,0,0,1-35.84,3.7v9q18.72-.56,37.44-.29c5.79.08,5.8-8.92,0-9q-18.72-.27-37.44.29c-5.8.17-5.79,8.76,0,9a131.86,131.86,0,0,0,38.23-4,4.54,4.54,0,0,0,3.14-5.54c-2-5.87-8.11-5.76-13.43-5.95a191.59,191.59,0,0,0-23,1.09c-15.23,1.3-30.43,1.43-45.7,1.32a4.6,4.6,0,0,0-4.5,4.5c-.47,6.21,6.21,7.19,10.83,8l21.32,3.72,1.2-8.84-15.3.19c-5.79.07-5.8,9.07,0,9Z" transform="translate(-35.69 -144.73)"/><path class="cls-2" d="M142.95,164.86h20.8q3.85.47-.08-1.14l2.69-6.61c-7.95,2.27-16.06,2.66-24.27,2.94-4.34.15-6.29,6.13-2.27,8.39,8.68,4.88,18.29,6.21,28,7.35v-9l-28.07,3.12c-3.51.39-6.4,4.84-3.18,7.68,4.63,4.1,10.16,4.51,15.58,7v-7.77q-6.54,4-13.34,7.59c-4.16,2.18-1.95,8.18,2.27,8.39l5.2.25-1.2-8.84a31,31,0,0,1-6.95.89c-4.93.09-6.3,7.72-1.2,8.84,11.21,2.46,23.37,1.52,30.17-8.88,3.18-4.86-4.61-9.38-7.77-4.54-4.39,6.71-13.1,6.26-20,4.74l-1.2,8.84a42.28,42.28,0,0,0,9.34-1.21c5.09-1.24,3.74-8.6-1.2-8.84l-5.2-.25,2.27,8.39q6.81-3.57,13.34-7.59c2.64-1.62,3.21-6.3,0-7.77-4.31-2-10.17-2.4-13.76-5.57l-3.18,7.68,28.07-3.12c5.79-.64,5.77-8.33,0-9-8.12-.95-16.26-2.06-23.49-6.12L142.08,169c9-.31,18-.78,26.66-3.26,3-.85,3.93-4,2.69-6.61-1.91-4-6.84-3.32-10.53-3.31h-18c-5.79,0-5.8,9,0,9Z" transform="translate(-35.69 -144.73)"/><path class="cls-2" d="M167.22,181.74c0-.51,0-4.17-.3-4.51s-.28,2.58-1.89,2.82l5.54,5.54c1.79-5.92,8.91-11.48,13.26-15.61,3.27-3.11,6.87-8.35,1.93-12-4.6-3.44-8.47.08-11.56,3.32-1.07,1.12-2.4,2.45-4.13,2.37s-2.46-1.59-3.59-2.7c-1.61-1.59-5.4-2.42-6.52-4l-3.89,6.77a91.37,91.37,0,0,1,16.33.25c5.75.6,5.71-8.4,0-9a91.37,91.37,0,0,0-16.33-.25c-3.12.23-6,3.75-3.89,6.77,1.9,2.74,4.08,3.25,6.71,4.95,3,1.92,4.26,4.9,8,5.86a13.25,13.25,0,0,0,8.87-1c1.28-.61,6.84-5.15,6.09-5.45l-2.69-2.07c-1-1.38.06-1.27-1.68-.13a23.41,23.41,0,0,0-3.17,3q-2.8,2.8-5.38,5.8c-2.8,3.26-5.75,6.56-7,10.74-1.09,3.61,2.34,6,5.54,5.54,8.61-1.28,11.24-14.55,4.55-19.59a8.85,8.85,0,0,0-10.62,0c-4,3.09-3.47,8.1-3.14,12.6.43,5.74,9.43,5.79,9,0Z" transform="translate(-35.69 -144.73)"/><path class="cls-2" d="M169.79,154.18a133.37,133.37,0,0,1-14.34-.55c-4.32-.41-10.74-.46-14.69-2.44l2.07,2.69-.19-.76-4.34,5.7c3.51.17,6.84,1.89,10.22,2.71a73.84,73.84,0,0,0,9.27,1.57,158.93,158.93,0,0,0,20.18.55c4.76-.07,5.73-5.86,2.27-8.39-4.11-3-9-3.44-14-3.81-6.92-.53-13.84-1-20.77-1.55-5.78-.43-5.75,8.57,0,9l16.81,1.26c4.56.34,9.53.07,13.37,2.88l2.27-8.39a152.67,152.67,0,0,1-20.18-.55c-6.66-.78-12.85-4-19.49-4.28-3-.15-5,3-4.34,5.7,1.45,5.68,9.92,5.61,14.6,6.28a137,137,0,0,0,21.24,1.39c5.79-.07,5.8-9.07,0-9Z" transform="translate(-35.69 -144.73)"/><path class="cls-2" d="M160.56,162.27c5.74,0,11.56-.31,17.29,0,4.6.24,8.25,2.05,12-1.67,2.19-2.19,1.47-7-2-7.52l-4.16-.66c-5.67-.9-8.11,7.77-2.39,8.68l4.16.66-2-7.52a29.29,29.29,0,0,0-3.7-.86c-2.22-.21-4.47-.12-6.69-.12l-12.5,0c-5.79,0-5.8,9,0,9Z" transform="translate(-35.69 -144.73)"/><path class="cls-2" d="M50.35,166.51a57.09,57.09,0,0,0,15.88,14.55c2.75,1.69,5.26-2.63,2.52-4.32A50.67,50.67,0,0,1,54.66,164c-1.91-2.54-6.25-.05-4.32,2.52Z" transform="translate(-35.69 -144.73)"/><path class="cls-2" d="M36.08,154.15c11,17.69,22.49,35.65,40.4,47,2.72,1.73,5.23-2.59,2.52-4.32C61.85,186,50.88,168.55,40.39,151.62c-1.69-2.73-6-.22-4.32,2.52Z" transform="translate(-35.69 -144.73)"/><path class="cls-2" d="M72,197.48c9.92,12.27,30.22,10.53,44.2,9.15,3.17-.31,3.21-5.32,0-5-12.62,1.24-31.72,3.37-40.66-7.69-2-2.5-5.54,1.05-3.54,3.54Z" transform="translate(-35.69 -144.73)"/><path class="cls-2" d="M111.23,199.43c-6.46-1.34-11.52-5.21-16.54-9.28l-2.43,4.18a129.78,129.78,0,0,1,15.87,5.5,2.51,2.51,0,0,0,3.16-2.41c-.48-4.32-4.89-7.27-7.92-10-3.88-3.56-8-6.87-12.18-10-2.57-1.93-5.07,2.41-2.52,4.32,3.23,2.43,6.37,5,9.39,7.65q1.79,1.59,3.52,3.23c1,.93,4.55,3.52,4.71,4.88l3.16-2.41a129.78,129.78,0,0,0-15.87-5.5c-2.26-.62-4.45,2.54-2.43,4.18,5.67,4.6,11.45,9.05,18.75,10.57,3.14.65,4.48-4.17,1.33-4.82Z" transform="translate(-35.69 -144.73)"/><path class="cls-2" d="M80.33,182.26a29.62,29.62,0,0,1,15.16,9.36l1.77-4.27a59,59,0,0,1-26.69-9.68c-2.46-1.72-6.75-4.55-2.86-7.88,1.62-1.38,5.52-2,7.61-2.31,2.3-.36,6.73-.93,9,0q-1.14-2-2.17.18A14.93,14.93,0,0,1,78.71,170c-2.88,1.64-.35,5.53,2.52,4.32l1.54-.65c3-1.25.41-5.56-2.52-4.32l-1.54.65,2.52,4.32c3.95-2.25,12.4-10,3.53-11.79-6.52-1.29-18.3-.27-22.82,5.35-5,6.26,4.17,13,8.79,15.77a67.07,67.07,0,0,0,26.52,8.67c2.34.28,3-2.82,1.77-4.27a34.32,34.32,0,0,0-17.37-10.65c-3.12-.81-4.44,4-1.33,4.82Z" transform="translate(-35.69 -144.73)"/><path class="cls-2" d="M49.23,160.75c-1.45,5.82.77,11,4.79,15.25,5.23,5.5,11.86,10,17.76,14.73,2,1.62,5.73-.53,3.93-3a23.37,23.37,0,0,0-6.29-6.08,2.51,2.51,0,0,0-3.42.9c-5.48,11.3,15.56,17.33,23.08,18.48,2.18.33,4.56-2.37,2.43-4.18L79.13,186.31c-1.45-1.23-4.54-.59-4.27,1.77.5,4.41,2.88,7.53,7.2,8.8,3.09.91,4.41-3.91,1.33-4.82a4.25,4.25,0,0,1-3.53-4l-4.27,1.77L88,200.35l2.43-4.18C87,195.65,67.57,190.69,70.31,185l-3.42.9a15.85,15.85,0,0,1,4.5,4.28l3.93-3c-4.43-3.58-8.89-7.14-13.3-10.75s-9.55-8-8-14.37c.78-3.12-4-4.45-4.82-1.33Z" transform="translate(-35.69 -144.73)"/><path class="cls-2" d="M80.63,195.55a29.61,29.61,0,0,0,2.12,4.84l3.93-3q-6.63-6-12.75-12.59c-2-2.16-5.16.58-3.93,3,2.63,5.21,5.55,10.12,10.9,12.89a46.36,46.36,0,0,0,17.35,4.78c2.39.17,3.53-3.66,1.26-4.66a38.93,38.93,0,0,1-8.59-5.09L89.16,200c4.4-.19,10,3.41,14.07,5,3,1.21,4.28-3.63,1.33-4.82-4.66-1.89-10.3-5.43-15.4-5.22-1.94.08-3.59,2.83-1.77,4.27a43.73,43.73,0,0,0,9.6,5.87l1.26-4.66a40.9,40.9,0,0,1-14.82-4.1c-4.61-2.36-6.87-6.66-9.11-11.09l-3.93,3q6.12,6.56,12.75,12.59a2.51,2.51,0,0,0,3.93-3,14.4,14.4,0,0,1-1.62-3.65c-1-3-5.86-1.73-4.82,1.33Z" transform="translate(-35.69 -144.73)"/><path class="cls-2" d="M44.19,160.69a10.78,10.78,0,0,0,3.5,6.18c1.46,1.32,4.48.54,4.27-1.77a20.83,20.83,0,0,1-.26-4.06l-1.24,2.16c2.28-1.37,4.87,1.41,5.65,3.18L59.53,163A148.68,148.68,0,0,1,45,154.09l-1.93,4.57,4.79,1.78c2.8,1,4.13-3.06,1.93-4.57l-8.66-5.94-1.93,4.57A69,69,0,0,0,52,155.57c3.22,0,3.22-5,0-5a61.7,61.7,0,0,1-11.38-.88,2.51,2.51,0,0,0-1.93,4.57l8.66,5.94,1.93-4.57-4.79-1.78c-2.81-1-4.11,3.05-1.93,4.57A148.68,148.68,0,0,0,57,167.28c2.35,1.26,4.41-1.2,3.42-3.42a9.92,9.92,0,0,0-8.72-5.9c-5.07-.11-5.14,3-4.76,7.14l4.27-1.77a6.52,6.52,0,0,1-2.21-4c-.6-3.16-5.42-1.82-4.82,1.33Z" transform="translate(-35.69 -144.73)"/><path class="cls-2" d="M82.23,155.72a136.52,136.52,0,0,0,26.48-1.41c2.44-.36,2.33-4.37,0-4.82-9.41-1.83-11.4,11.3-9.92,17.9,2.36,10.56,11.57,17.13,20.23,22.49l-.51-3.93-12.34,10.46a2.51,2.51,0,0,0,.51,3.93,42.84,42.84,0,0,0,11.4,3.35c3.15.45,4.51-4.37,1.33-4.82a38.29,38.29,0,0,1-10.2-2.85l.51,3.93L122,189.49a2.52,2.52,0,0,0-.51-3.93c-5.49-3.4-11.24-7.07-14.92-12.53a20.1,20.1,0,0,1-3.18-7.71c-.37-2.15-.36-11.85,3.93-11v-4.82a129.91,129.91,0,0,1-25.15,1.23c-3.22-.15-3.21,4.85,0,5Z" transform="translate(-35.69 -144.73)"/><path class="cls-2" d="M75.81,200.76c10.16,7.91,21.27,10.51,34,10.65,7.6.09,15.2.12,22.8.13,7.06,0,14.24.42,21.23-.68,3.17-.5,1.82-5.32-1.33-4.82-6.5,1-13.34.51-19.9.5q-9.5,0-19-.1c-12.57-.1-23.95-1.22-34.22-9.22-2.51-2-6.07,1.56-3.54,3.54Z" transform="translate(-35.69 -144.73)"/><path class="cls-2" d="M111.53,206.21l22.47.05v-5a183.73,183.73,0,0,1-21.33-.14c-2.81-.18-3.41,4.29-.66,4.91A85.8,85.8,0,0,0,137.28,208c2.27-.16,3.66-3.47,1.26-4.66a78.85,78.85,0,0,0-14.72-5.55l-.66,4.91c4.88-.41,9.74-.59,14.64-.53,2.66,0,3.17-3.29,1.26-4.66l1.29-1.31c1.44-1.46.59-3.48-1.1-4.18a11.07,11.07,0,0,0-5.35-.87l.66,4.91,3.8-.17-1.1-4.18-5.3,4.18c-1.62,1.28-.45,3.6,1.1,4.18a3.46,3.46,0,0,1,3.39,3.61,2.52,2.52,0,0,0,3.08,3.08,28.74,28.74,0,0,0,7.19-3.52,2.53,2.53,0,0,0,.51-3.93c-2.66-2.42-7.45-3-9.37.77a5.21,5.21,0,0,0,4.92,7.44l-1.26-4.66q-1.53-1.36-.36-2.77a13.47,13.47,0,0,1,1.4-2.55,29.67,29.67,0,0,1,2.67-3.64,43.41,43.41,0,0,1,6.9-6.06c3.55-2.7,6.82-5.42,8.75-9.53a2.54,2.54,0,0,0-1.49-3.67,12.5,12.5,0,0,0-10.92,1.7c-2.64,1.8-.15,6.14,2.52,4.32a7.66,7.66,0,0,1,7.07-1.2l-1.49-3.67c-2.19,4.65-6.42,7.18-10.31,10.29A34.58,34.58,0,0,0,137,197.14c-1.4,2.74-2.36,6.3-.16,8.92a5.31,5.31,0,0,0,7.21,1.11c1.88-1.35,1.41-4.73-1.26-4.66l.91.32.51-3.93a24.1,24.1,0,0,1-6,3l3.08,3.08c1.81-5.21-2.58-8.17-6.89-9.76l1.1,4.18,5.3-4.18c1.42-1.12.65-3.88-1.1-4.18a15,15,0,0,0-6.45.17c-2.7.65-2.18,5.08.66,4.91a5.81,5.81,0,0,1,4,.69l-1.1-4.18c-2.86,2.9-4,6.51-.28,9.17l1.26-4.66c-4.89-.06-9.76.12-14.64.53-2.68.23-3.54,4.15-.66,4.91a72.25,72.25,0,0,1,13.53,5l1.26-4.66a81.13,81.13,0,0,1-23.94-1.77l-.66,4.91a183.73,183.73,0,0,0,21.33.14c3.19-.16,3.24-5,0-5l-22.47-.05c-3.22,0-3.22,5,0,5Z" transform="translate(-35.69 -144.73)"/><path class="cls-2" d="M40,155.2a402.2,402.2,0,0,1,62.4-3.16c3.22.09,3.22-4.91,0-5A402.2,402.2,0,0,0,40,150.2c-3.15.41-3.19,5.41,0,5Z" transform="translate(-35.69 -144.73)"/><path class="cls-2" d="M177.65,155.06c12.43.33,24.23,4.87,36.52,6.32,3.19.38,3.16-4.63,0-5-12.32-1.45-24-6-36.52-6.32-3.22-.09-3.22,4.91,0,5Z" transform="translate(-35.69 -144.73)"/><path class="cls-2" d="M176.2,156.15c6.87-.31,13.73-.35,20.6,0,5.67.28,13.41-.24,18.5,2.53l.6-4.57a15.61,15.61,0,0,0-2,.45,2.45,2.45,0,0,0-1.24,2.16c.12,3.87-3.68,7.69-5.75,10.63-2.41,3.42-4.64,7.23-8.08,9.73-2.58,1.88-.08,6.22,2.52,4.32,4.22-3.07,6.9-7.31,9.88-11.53,2.83-4,6.6-8,6.43-13.15l-1.24,2.16c-.48.22.66.1.79.05,1.93-.67,2.6-3.48.6-4.57-5.09-2.77-11.46-2.59-17.1-3a213.62,213.62,0,0,0-24.52-.23c-3.2.15-3.22,5.15,0,5Z" transform="translate(-35.69 -144.73)"/><path class="cls-2" d="M145.67,202.62l17.39-.05v-5c-8.36.73-16,5.36-24.39,5.15-3.22-.08-3.22,4.92,0,5,8.56.22,16-4.42,24.39-5.15,3.15-.27,3.27-5,0-5l-17.39.05c-3.22,0-3.22,5,0,5Z" transform="translate(-35.69 -144.73)"/><path class="cls-2" d="M144,206.58c13.19,9.82,32.62,2,41.06-10.28,1.14-1.66-.41-3.67-2.16-3.76-6.6-.35-11.83,4.71-17.7,7a52.87,52.87,0,0,1-20.79,3.59l.66,4.91c5-.73,10.06-1.56,15.06-2.52,3.05-.59,8-.54,10-3.2,1.27-1.64.58-4.24-1.77-4.27a31.64,31.64,0,0,0-12.13,2.16,2.54,2.54,0,0,0-.6,4.57c5.78,3.74,17,3,19-5.11a2.6,2.6,0,0,0-1.15-2.82c-2.42-1.73-6.28-1.58-9.12-2.09-.35-.06-3.94-.52-4.17-1-.36-.74,5-3.73,5.8-4.17l-3.42-3.42a42.86,42.86,0,0,0-4.11,6.65,2.57,2.57,0,0,0,.39,3,25.88,25.88,0,0,1,3.39,3.81c1.86,2.59,6.2.09,4.32-2.52a33.2,33.2,0,0,0-4.17-4.82l.39,3a42.86,42.86,0,0,1,4.11-6.65c1.6-2.13-1.41-4.51-3.42-3.42-2.85,1.54-10.71,5.88-8.93,10.24,2.38,5.81,12.36,2.75,16.42,5.66l-1.15-2.82c-1.21,4.95-8.59,4.09-11.62,2.13l-.6,4.57a28.06,28.06,0,0,1,10.81-2l-1.77-4.27c-1.39,1.79-8.59,2.07-10.66,2.45-4.07.75-8.15,1.4-12.25,2-2.86.42-2.05,4.85.66,4.91a57.9,57.9,0,0,0,18.94-2.64,57,57,0,0,0,8.38-3.46c3.6-1.83,6.91-4.77,11.16-4.54l-2.16-3.76c-7,10.21-23.31,16.61-34.22,8.48-2.58-1.92-5.08,2.42-2.52,4.32Z" transform="translate(-35.69 -144.73)"/><path class="cls-2" d="M159.51,196a74.26,74.26,0,0,0-19.19,1.77c-3.14.7-1.81,5.52,1.33,4.82A69,69,0,0,1,159.51,201c3.22.12,3.21-4.88,0-5Z" transform="translate(-35.69 -144.73)"/><path class="cls-2" d="M160.6,211.1c10.5.36,18.43-2.43,25.89-9.95s14.76-16.48,19.66-25.94a2.51,2.51,0,0,0-3.93-3q-7,6.76-13.28,14.13l3.93,3c5.74-8.37,13.73-14.81,17.52-24.46,1.18-3-3.66-4.3-4.82-1.33-3.55,9.06-11.6,15.38-17,23.27-1.59,2.32,2.08,5.19,3.93,3q6.32-7.38,13.28-14.13l-3.93-3c-4.32,8.34-10.47,15.78-16.78,22.71-2.88,3.16-6,6.25-9.81,8.29-4.63,2.48-9.53,2.59-14.64,2.41-3.22-.11-3.21,4.89,0,5Z" transform="translate(-35.69 -144.73)"/><path class="cls-2" d="M168.4,210.55c18.42.28,26.84-18.78,35.16-31.95,1.51-2.38-2-5.13-3.93-3a89.87,89.87,0,0,0-12.77,17.73l4.57,1.93c1.59-5.39,5.53-10.6,8.31-15.46a133,133,0,0,1,10-15.32l-4.57-1.93a51.15,51.15,0,0,1-4.44,9.59c-1.68,2.85,2.43,5,4.32,2.52,2.8-3.71,8-8.25,8-13.13a2.57,2.57,0,0,0-2.5-2.5c-3-.36-4.36,2.63-5.84,4.77q-4.06,5.87-7.81,11.94c-4.65,7.53-8.7,15.88-16.13,21.09l3.76,2.16c-.34-3.79,5-9.05,7-12a65.58,65.58,0,0,0,6.71-11.47A2.5,2.5,0,0,0,193.9,173c-3.6,5.12-7.3,10.16-11.19,15.07-2.83,3.58-7,11.06-11.69,12.27l3.08,3.08c2.83-8.2,9-14.68,12.07-22.79.93-2.45-2.51-4.05-4.18-2.43l-16.89,16.36,3.93,3q3.06-4.75,6.44-9.27c1.93-2.58-2.41-5.07-4.32-2.52q-3.38,4.53-6.44,9.27c-1.56,2.43,1.92,5,3.93,3l16.89-16.36-4.18-2.43c-3.09,8.11-9.23,14.54-12.07,22.79-.64,1.86,1.33,3.53,3.08,3.08,5.64-1.47,9.33-7.85,12.74-12.11q6.84-8.55,13.12-17.53L193.9,173c-2.23,5.15-5.43,9.64-8.64,14.21-2.34,3.33-6.13,7.41-5.74,11.75.16,1.71,2.07,3.35,3.76,2.16,5.92-4.15,10-9.77,13.69-15.88,2-3.35,4-6.72,6.13-10,.78-1.23,6.4-11.34,7.44-11.21l-2.5-2.5c0,2.92-5.67,8.36-7.37,10.6l4.32,2.52a57.47,57.47,0,0,0,4.94-10.79c1-2.92-3-4-4.57-1.93a143,143,0,0,0-10.86,16.92c-2.73,4.8-6.34,9.74-7.91,15.07-.8,2.7,3.2,4.43,4.57,1.93a84.37,84.37,0,0,1,12-16.71l-3.93-3c-7.21,11.41-14.78,29.72-30.84,29.47-3.22,0-3.22,5,0,5Z" transform="translate(-35.69 -144.73)"/><path class="cls-2" d="M170,190.68a17.35,17.35,0,0,1-.74,5c-.81,2.77,3.09,4.3,4.57,1.93q9.12-14.65,19.43-28.5l-4.32-2.52L179.26,188c-1.3,2.88,2.58,5.31,4.32,2.52,5.17-8.26,10.82-16.39,15.16-25.12a2.5,2.5,0,0,0-4.32-2.52,24.45,24.45,0,0,0-4.7,11c-.34,2.06,1.65,4,3.67,2.82a24.28,24.28,0,0,0,9.78-10.33l-4.57-1.93a46,46,0,0,0-1.76,9c-.2,2.06,3,3.43,4.27,1.77a62.45,62.45,0,0,0,8.24-13.49c1.3-2.91-3-5.46-4.32-2.52a57.62,57.62,0,0,1-7.45,12.48l4.27,1.77a39,39,0,0,1,1.58-7.71c.81-2.67-3.28-4.49-4.57-1.93a19.38,19.38,0,0,1-8,8.53l3.67,2.82a21.56,21.56,0,0,1,4.2-9.79l-4.32-2.52c-4.34,8.74-10,16.86-15.16,25.12l4.32,2.52,9.64-21.39a2.5,2.5,0,0,0-4.32-2.52q-10.31,13.85-19.43,28.5L174,197a22.09,22.09,0,0,0,.92-6.33c0-3.22-5-3.22-5,0Z" transform="translate(-35.69 -144.73)"/><path class="cls-2" d="M205.72,157.58c-3,1.37-5.09,4-8,5.63l3.42,3.42c1.1-2.36,7.22-9.43,1.75-10.94-2.31-.64-4.44,1.56-6,2.94a86.62,86.62,0,0,0-8,8.21l4.18,1.1c-.17-.47,1.62-3.14,2.05-3.85,1-1.58,2-3.08,3.12-4.56,1.93-2.58-2.41-5.07-4.32-2.52-2.09,2.8-7,8.42-5.68,12.26.58,1.63,2.86,2.64,4.18,1.1,1.57-1.83,3.19-3.62,4.9-5.32q1.28-1.28,2.62-2.49c.65-.59,2.48-1.34,1.26-2.11l-1.24-2.16c.22,1.79-2.46,4.22-3.2,5.82a2.52,2.52,0,0,0,3.42,3.42c2.88-1.6,5-4.28,8-5.63s.39-5.63-2.52-4.32Z" transform="translate(-35.69 -144.73)"/><path class="cls-2" d="M179.1,154.16A97,97,0,0,1,204,156.8c3.13.75,4.46-4.07,1.33-4.82a102.25,102.25,0,0,0-26.24-2.82c-3.21.07-3.22,5.07,0,5Z" transform="translate(-35.69 -144.73)"/><path class="cls-3" d="M112.52,187.31a3.78,3.78,0,0,1,2-.56q1.07-.33.9,1,.83,1.16-.48,1.51a15,15,0,0,0-2.22,1.16.5.5,0,0,0,.39.91l.91-.09q1.92,0,1.48,1.57c0,1.18-.23,1.39-1.36,1.76A2.75,2.75,0,0,1,111,194c-.4-.51-1.1.21-.71.71,1.44,1.84,5.1,1.33,6.33-.59a2.33,2.33,0,0,0-.13-2.64,3.47,3.47,0,0,0-3.62-1.07l.39.91c1.3-1,4.71-1.69,3.84-4.09-.81-2.22-3.52-1.45-5.09-.75-.59.26-.08,1.13.5.86Z" transform="translate(-35.69 -144.73)"/><path class="cls-3" d="M122.42,186.56c-4.09.34-4.56,9.11-.18,9.12,3.9,0,5.63-10,.87-9.26-.63.1-.36,1.06.27,1,1-.15,1.55,1.26,1.59,2a6.44,6.44,0,0,1-.18,1.73c-.29,1.25-1.43,4.17-3.35,3.26-2.11-1-1.54-6.65,1-6.86.64-.05.64-1.05,0-1Z" transform="translate(-35.69 -144.73)"/><path class="cls-3" d="M87.68,171c2.75.54,7.11-.71,7.42-4.08s-4.69-3.63-6.62-2.06c-2.3,1.88-2.41,5.93-.61,8.16a4.62,4.62,0,0,0,7.11.09c.39-.5-.31-1.21-.71-.71a3.6,3.6,0,0,1-4.64.85c-1.85-1.06-2.33-3.56-1.79-5.48A3.63,3.63,0,0,1,90.32,165a4.89,4.89,0,0,1,1.45-.12c1.25.07,1.53.3,1.81,1.57s.28,1.31-.49,2.11a5,5,0,0,1-1.4,1,5.83,5.83,0,0,1-3.74.42c-.63-.12-.9.84-.27,1Z" transform="translate(-35.69 -144.73)"/><path class="cls-3" d="M128.29,171.05c2.75.54,7.11-.71,7.42-4.08s-4.69-3.63-6.62-2.06c-2.3,1.88-2.41,5.93-.61,8.16a4.62,4.62,0,0,0,7.11.09c.39-.5-.31-1.21-.71-.71a3.6,3.6,0,0,1-4.64.85c-1.85-1.06-2.33-3.56-1.79-5.48a3.63,3.63,0,0,1,2.47-2.72,4.89,4.89,0,0,1,1.45-.12c1.25.07,1.53.3,1.81,1.57s.28,1.31-.49,2.11a5,5,0,0,1-1.4,1,5.83,5.83,0,0,1-3.74.42c-.63-.12-.9.84-.27,1Z" transform="translate(-35.69 -144.73)"/><path class="cls-3" d="M104.44,165.84a2.24,2.24,0,0,0-2-2.51,3.18,3.18,0,0,0-3.08,2.16c-.42,1-.82,3.07.37,3.74.77.43,1.71.11,2.49.67,3.52,2.51-2.21,3.84-2.86,2.23-.24-.59-1.21-.33-1,.27.83,2,5.05,1.81,5.8-.23a2.7,2.7,0,0,0-1.44-3.18c-.64-.36-1.41-.27-2-.55-1-.45-.83-1.24-.58-2.14l.37-.92q1.2-2,2.9.47c-.07.64.93.63,1,0Z" transform="translate(-35.69 -144.73)"/><path class="cls-3" d="M144.71,166.91a2.24,2.24,0,0,0-2-2.51,3.18,3.18,0,0,0-3.08,2.16c-.42,1-.82,3.07.37,3.74.77.43,1.71.11,2.49.67,3.52,2.51-2.21,3.84-2.86,2.23-.24-.59-1.21-.33-1,.27.83,2,5.05,1.81,5.8-.23a2.7,2.7,0,0,0-1.44-3.18c-.64-.36-1.41-.27-2-.55-1-.45-.83-1.24-.58-2.14l.37-.92q1.2-2,2.9.47c-.07.64.93.63,1,0Z" transform="translate(-35.69 -144.73)"/><path class="cls-3" d="M153.51,166.93a2.24,2.24,0,0,0-2-2.51,3.18,3.18,0,0,0-3.08,2.16c-.42,1-.82,3.07.37,3.74.77.43,1.71.11,2.49.67,3.52,2.51-2.21,3.84-2.86,2.23-.24-.59-1.21-.33-1,.27.83,2,5.05,1.81,5.8-.23a2.7,2.7,0,0,0-1.44-3.18c-.64-.36-1.41-.27-2-.55-1-.45-.83-1.24-.58-2.14l.37-.92q1.2-2,2.9.47c-.07.64.93.63,1,0Z" transform="translate(-35.69 -144.73)"/><path class="cls-3" d="M109.06,165l0,11.72a.5.5,0,0,0,1,0l0-11.72a.5.5,0,0,0-1,0Z" transform="translate(-35.69 -144.73)"/><path class="cls-3" d="M110.18,165.6c2.06-1.15,5.11-.3,5.2,2.38a2.42,2.42,0,0,1-4.27,1.71c-.41-.5-1.11.21-.71.71,2,2.41,5.86.85,6-2.13.14-3.6-3.87-5.11-6.7-3.53-.56.31-.06,1.18.5.86Z" transform="translate(-35.69 -144.73)"/><path class="cls-3" d="M119.11,164.91l0,9.51c0,.54.89.7,1,.13a12.76,12.76,0,0,0,.05-3.16c-.1-1.18-.57-3.47.36-4.42l2.14-.72q.47.37,1,.69a2.3,2.3,0,0,0,.67.22,1.47,1.47,0,0,0,1.45-.63c.4-.5-.31-1.21-.71-.71s-2.63-1-3.52-.8a2.79,2.79,0,0,0-1.73,1.23c-1.61,2.33-.25,5.45-.66,8l1,.13,0-9.51a.5.5,0,0,0-1,0Z" transform="translate(-35.69 -144.73)"/><path class="cls-3" d="M160.1,165c-2.55-.15-3.41,3.47-3.62,5.4-.23,2.09.91,4.85,3.41,4.65,5.07-.4,5.07-12,.11-10.16-.6.22-.34,1.19.27,1,2.67-1,2.48,3.23,2.23,4.71s-1.08,3.61-3.06,3.32c-2.2-.32-2.14-2.79-1.77-4.49.26-1.16.81-3.5,2.42-3.4.64,0,.64-1,0-1Z" transform="translate(-35.69 -144.73)"/><path class="cls-3" d="M129.64,192v2.75l1-.13a3.48,3.48,0,0,1,1.86-3.29c2-.8,2.06,1.78,2,3h1a3.15,3.15,0,0,1,.42-1.78c.56-.83,2-1.73,2.4.19.17.75-.09,1.64,0,2.42s1.08.64,1,0c-.2-1.61.53-4.29-1.83-4.55-2.13-.23-2.94,2-3,3.73,0,.65,1,.64,1,0,.07-1.72-.38-4.49-2.76-4.1-2,.33-3.39,2.83-3.07,4.69.1.56,1,.42,1-.13V192a.5.5,0,0,0-1,0Z" transform="translate(-35.69 -144.73)"/><path class="cls-3" d="M141.7,187.11l-.21,4.41c0,1-.37,2.31,0,3.23.57,1.52,1.53.31,2.38,0,.59-.24.33-1.2-.27-1,0,0-.93.46-.82.49-.72-.14-.32-1.55-.3-2.09l.24-5c0-.64-1-.64-1,0Z" transform="translate(-35.69 -144.73)"/></svg>