<svg id="Слой_1" data-name="Слой 1" xmlns="http://www.w3.org/2000/svg" viewBox="0 0 209.47 96.38"><defs><style>.cls-1{fill:#331906;}.cls-2{fill:#3d2310;}.cls-3{fill:#fffcfc;}</style></defs><title>cup1</title><path class="cls-1" d="M87.53,183.73c6.19,4.31,13.34,6.13,20.68,7.39,8.72,1.49,17.49,2.77,26.23,4.15l.66-4.91a140.67,140.67,0,0,1-38.76-6.53c-3.08-1-4.39,3.85-1.33,4.82a145.7,145.7,0,0,0,40.09,6.71c2.75.07,3.5-4.46.66-4.91-8.2-1.29-16.4-2.54-24.59-3.88-7.5-1.23-14.79-2.74-21.13-7.15-2.65-1.84-5.15,2.49-2.52,4.32Z" transform="translate(-25.03 -115.25)"/><path class="cls-2" d="M47.41,155.5c8.12,11.93,16.47,24.13,28.12,32.92,12.36,9.32,27.33,13.18,42.67,12.74,8.56-.24,17.11-1,25.66-1.48,7.53-.46,15.79,0,22.18-4.63,6.24-4.53,10.66-11.78,15.35-17.79l16.75-21.46c2-2.51-1.56-6.07-3.54-3.54l-14.35,18.4c-4.48,5.74-8.69,11.94-13.7,17.23-6.27,6.62-14.17,6.27-22.68,6.79-7.95.49-15.89,1.09-23.85,1.41-15,.61-29.53-2.59-41.69-11.81-11-8.35-18.91-20-26.6-31.31-1.8-2.65-6.13-.15-4.32,2.52Z" transform="translate(-25.03 -115.25)"/><path class="cls-2" d="M50,155.82a608.47,608.47,0,0,1,73-5.64c23.79-.37,47.62,1.05,70.84,6.53,3.13.74,4.46-4.08,1.33-4.82-47.54-11.21-98.57-7.45-146.52-.89-3.17.43-1.82,5.25,1.33,4.82Z" transform="translate(-25.03 -115.25)"/><path class="cls-2" d="M52.86,157.77q14.32,11.23,29.65,21l1.93-4.57a31.26,31.26,0,0,1-14.27-7.51c-3-2.85-5.13-6.41-8.78-8.57A2.52,2.52,0,0,0,58,161.58c3.72,7.09,10,11.83,16.34,16.41l2.52-4.32A40.18,40.18,0,0,1,66.43,165c-1.89-2.18-5.33.62-3.93,3A50.55,50.55,0,0,0,85.23,188.8c2.9,1.34,5.45-3,2.52-4.32a46.07,46.07,0,0,1-20.93-18.95l-3.93,3A44.16,44.16,0,0,0,74.31,178c2.84,1.64,5.09-2.47,2.52-4.32-5.71-4.09-11.22-8.27-14.55-14.61l-3.42,3.42c4.23,2.49,6.77,7.27,10.71,10.26a36.45,36.45,0,0,0,13.54,6.32A2.51,2.51,0,0,0,85,174.49q-14.8-9.44-28.64-20.26c-2.5-2-6.07,1.55-3.54,3.54Z" transform="translate(-25.03 -115.25)"/><path class="cls-2" d="M79.17,178.47l-.17-1-4.18,2.43C81,185.75,87.19,191.5,94.45,196c2.35,1.46,5.29-2.14,3-3.93a164.87,164.87,0,0,1-14.15-12.61l-1.77,4.27c3.39-.17,7.73,2.57,10.83,3.89,2.41,1,5.27-1.79,3-3.93a142.69,142.69,0,0,0-15.35-12.25L78.14,176l10.59,4.07c2.35.9,4.21-2.56,2.43-4.18l-19-17.29c-2.37-2.16-5.92,1.36-3.54,3.54l19,17.29,2.43-4.18-10.59-4.07c-2.83-1.09-4.05,3-1.93,4.57a133.31,133.31,0,0,1,14.34,11.47l3-3.93c-4.13-1.75-8.77-4.79-13.36-4.57A2.53,2.53,0,0,0,79.79,183a164.87,164.87,0,0,0,14.15,12.61l3-3.93c-6.9-4.29-12.77-9.78-18.61-15.37-1.93-1.84-4.56.06-4.18,2.43l.17,1c.51,3.17,5.33,1.82,4.82-1.33Z" transform="translate(-25.03 -115.25)"/><path class="cls-2" d="M92.43,174.47c3.87,2.84,9.49,4.39,14.09,2.45,5.3-2.24,4-8.66-.27-11.2-3.68-2.16-10.4-3.12-12.6,1.5-2.47,5.16,3.1,8.68,7.4,9.59,5.86,1.24,26-1.92,21.48-11.82-2-4.38-9.09-5.09-13.14-3.56-4.9,1.85-7.4,7.44-4.71,12.13,4.25,7.42,24.11,11.95,26.14.51,2-11.17-15.41-11.7-18.58-2.33-4,11.88,11.26,17.13,20.14,13.59,4-1.59,6.92-5.62,4.9-9.91S128.75,169,124.34,170c-4.84,1.07-7,6.74-3.09,10.28,4,3.7,12.91,5.73,18.33,5.16,5.75-.61,7.66-6.08,4.54-10.62a12.2,12.2,0,0,0-14.39-4.16c-4.14,1.67-4.37,7.07,0,8.68,5.5,2,16.71,1.5,17-6.54.27-7.13-11.75-9.51-17-9.12-6.32.48-10.1,8.94-2.77,11.38,7,2.33,14.9-3.06,13.2-10.51-1.29-5.64-10-3.26-8.68,2.39-.09-.41-2.78-1.38-1.8-.66l2.23,3.89.07-1-2.23,3.89c.57-.41,7.93.1,8.11.93l.45-3.47c-.9,2.07-4.88.63-6.24.13v8.68c.66-.27,4.67-1.25,4.58.57l1.32-3.18q1.52-.59-1.23-.37a30.2,30.2,0,0,1-3.87-.74q-1.66-.42-3.28-1-3.09-1.94-1.65-.27l-1.16,4.38a4.11,4.11,0,0,0,1.89.55q1.37-3.44-1.82-1.87c-1.73.15-5.18.13-6.17-1.75a3.68,3.68,0,0,0,.74-3.79,15,15,0,0,1-3.85-.5,20.67,20.67,0,0,1-3.6-1.16,1,1,0,0,1,.73-.66V165c-1.18,1.79-4.66,2.8-6.66,3.13-1.08.18-6.31-.05-6.23.17l-.45,3.47.38-.76-2.69,2.07a2.38,2.38,0,0,1,2.65.71l-.45-3.47-.29,1,2.07-2.69c-1.94.86-4.66-.9-6.1-2-4.68-3.43-9.17,4.38-4.54,7.77Z" transform="translate(-25.03 -115.25)"/><path class="cls-2" d="M133.42,160.53l-24.85-.12-12.42-.06c-2.95,0-6.9-.63-9.29,1.61-3.82,3.58-1.68,11.85.73,15.58,1.5,2.31,3.71,3.71,5.94,5.21a19.59,19.59,0,0,1,7.3,8.55l2.69-6.61A12.74,12.74,0,0,1,93,182.46c-4.88-3.32-9,4.36-4.54,7.77,16,12.11,36.67,7.66,54.25,2.1,4.65-1.47,4.08-9.13-1.2-8.84-15.1.83-30.34,1.54-44.87-3.41-5.49-1.87-7.85,6.82-2.39,8.68,15.26,5.2,31.39,4.6,47.26,3.73l-1.2-8.84c-15.45,4.88-33.2,9.49-47.32-1.19l-4.54,7.77a21.82,21.82,0,0,0,17.44,3.14c3.07-.68,3.84-4.13,2.69-6.61A26.2,26.2,0,0,0,101,177c-1.48-1.16-3.3-2-4.69-3.24-1.08-1-3.35-4.66-2.33-6.33l-2.69,2.07c3.24-.77,7.33-.12,10.64-.1l10.51.05,21,.1c5.79,0,5.8-9,0-9Z" transform="translate(-25.03 -115.25)"/><path class="cls-2" d="M91.56,177a76.22,76.22,0,0,0,28.72,8.67v-9c-14.18.07-31.89.14-41-12.83-3.3-4.71-11.11-.21-7.77,4.54,11.23,16,30.8,17.37,48.76,17.29,5.9,0,5.66-8.43,0-9a64.66,64.66,0,0,1-24.17-7.44c-5.11-2.73-9.66,5-4.54,7.77Z" transform="translate(-25.03 -115.25)"/><path class="cls-2" d="M74.53,168.67l15.3-.19c4.88-.06,6.36-7.94,1.2-8.84l-13.9-2.43-6.49-1.13c-1.69-.3-5.4-.19-6.55-1.66l1.32,3.18.08-1L61,161.1c12.68.09,25.37.17,38-.71,6.08-.42,12.15-1.07,18.23-1.45,3.19-.2,6.39-.33,9.59-.31,1.6,0,3.2,0,4.79.14l1.91.13q3.18,1,.93-.88l3.14-5.54a123.09,123.09,0,0,1-35.84,3.7v9q18.72-.56,37.44-.29c5.79.08,5.8-8.92,0-9q-18.72-.27-37.44.29c-5.8.17-5.79,8.76,0,9a131.86,131.86,0,0,0,38.23-4,4.54,4.54,0,0,0,3.14-5.54c-2-5.87-8.11-5.76-13.43-5.95a191.59,191.59,0,0,0-23,1.09c-15.23,1.3-30.43,1.43-45.7,1.32a4.6,4.6,0,0,0-4.5,4.5c-.47,6.21,6.21,7.19,10.83,8l21.32,3.72,1.2-8.84-15.3.19c-5.79.07-5.8,9.07,0,9Z" transform="translate(-25.03 -115.25)"/><path class="cls-2" d="M142.95,164.86h20.8q3.85.47-.08-1.14l2.69-6.61c-7.95,2.27-16.06,2.66-24.27,2.94-4.34.15-6.29,6.13-2.27,8.39,8.68,4.88,18.29,6.21,28,7.35v-9l-28.07,3.12c-3.51.39-6.4,4.84-3.18,7.68,4.63,4.1,10.16,4.51,15.58,7v-7.77q-6.54,4-13.34,7.59c-4.16,2.18-1.95,8.18,2.27,8.39l5.2.25-1.2-8.84a31,31,0,0,1-6.95.89c-4.93.09-6.3,7.72-1.2,8.84,11.21,2.46,23.37,1.52,30.17-8.88,3.18-4.86-4.61-9.38-7.77-4.54-4.39,6.71-13.1,6.26-20,4.74l-1.2,8.84a42.28,42.28,0,0,0,9.34-1.21c5.09-1.24,3.74-8.6-1.2-8.84l-5.2-.25,2.27,8.39q6.81-3.57,13.34-7.59c2.64-1.62,3.21-6.3,0-7.77-4.31-2-10.17-2.4-13.76-5.57l-3.18,7.68,28.07-3.12c5.79-.64,5.77-8.33,0-9-8.12-.95-16.26-2.06-23.49-6.12L142.08,169c9-.31,18-.78,26.66-3.26,3-.85,3.93-4,2.69-6.61-1.91-4-6.84-3.32-10.53-3.31h-18c-5.79,0-5.8,9,0,9Z" transform="translate(-25.03 -115.25)"/><path class="cls-2" d="M167.22,181.74c0-.51,0-4.17-.3-4.51s-.28,2.58-1.89,2.82l5.54,5.54c1.79-5.92,8.91-11.48,13.26-15.61,3.27-3.11,6.87-8.35,1.93-12-4.6-3.44-8.47.08-11.56,3.32-1.07,1.12-2.4,2.45-4.13,2.37s-2.46-1.59-3.59-2.7c-1.61-1.59-5.4-2.42-6.52-4l-3.89,6.77a91.37,91.37,0,0,1,16.33.25c5.75.6,5.71-8.4,0-9a91.37,91.37,0,0,0-16.33-.25c-3.12.23-6,3.75-3.89,6.77,1.9,2.74,4.08,3.25,6.71,4.95,3,1.92,4.26,4.9,8,5.86a13.25,13.25,0,0,0,8.87-1c1.28-.61,6.84-5.15,6.09-5.45l-2.69-2.07c-1-1.38.06-1.27-1.68-.13a23.41,23.41,0,0,0-3.17,3q-2.8,2.8-5.38,5.8c-2.8,3.26-5.75,6.56-7,10.74-1.09,3.61,2.34,6,5.54,5.54,8.61-1.28,11.24-14.55,4.55-19.59a8.85,8.85,0,0,0-10.62,0c-4,3.09-3.47,8.1-3.14,12.6.43,5.74,9.43,5.79,9,0Z" transform="translate(-25.03 -115.25)"/><path class="cls-2" d="M169.79,154.18a133.37,133.37,0,0,1-14.34-.55c-4.32-.41-10.74-.46-14.69-2.44l2.07,2.69-.19-.76-4.34,5.7c3.51.17,6.84,1.89,10.22,2.71a73.84,73.84,0,0,0,9.27,1.57,158.93,158.93,0,0,0,20.18.55c4.76-.07,5.73-5.86,2.27-8.39-4.11-3-9-3.44-14-3.81-6.92-.53-13.84-1-20.77-1.55-5.78-.43-5.75,8.57,0,9l16.81,1.26c4.56.34,9.53.07,13.37,2.88l2.27-8.39a152.67,152.67,0,0,1-20.18-.55c-6.66-.78-12.85-4-19.49-4.28-3-.15-5,3-4.34,5.7,1.45,5.68,9.92,5.61,14.6,6.28a137,137,0,0,0,21.24,1.39c5.79-.07,5.8-9.07,0-9Z" transform="translate(-25.03 -115.25)"/><path class="cls-2" d="M160.56,162.27c5.74,0,11.56-.31,17.29,0,4.6.24,8.25,2.05,12-1.67,2.19-2.19,1.47-7-2-7.52l-4.16-.66c-5.67-.9-8.11,7.77-2.39,8.68l4.16.66-2-7.52a29.29,29.29,0,0,0-3.7-.86c-2.22-.21-4.47-.12-6.69-.12l-12.5,0c-5.79,0-5.8,9,0,9Z" transform="translate(-25.03 -115.25)"/><path class="cls-2" d="M50.35,166.51a57.09,57.09,0,0,0,15.88,14.55c2.75,1.69,5.26-2.63,2.52-4.32A50.67,50.67,0,0,1,54.66,164c-1.91-2.54-6.25-.05-4.32,2.52Z" transform="translate(-25.03 -115.25)"/><path class="cls-2" d="M36.08,154.15c11,17.69,22.49,35.65,40.4,47,2.72,1.73,5.23-2.59,2.52-4.32C61.85,186,50.88,168.55,40.39,151.62c-1.69-2.73-6-.22-4.32,2.52Z" transform="translate(-25.03 -115.25)"/><path class="cls-2" d="M72,197.48c9.92,12.27,30.22,10.53,44.2,9.15,3.17-.31,3.21-5.32,0-5-12.62,1.24-31.72,3.37-40.66-7.69-2-2.5-5.54,1.05-3.54,3.54Z" transform="translate(-25.03 -115.25)"/><path class="cls-2" d="M111.23,199.43c-6.46-1.34-11.52-5.21-16.54-9.28l-2.43,4.18a129.78,129.78,0,0,1,15.87,5.5,2.51,2.51,0,0,0,3.16-2.41c-.48-4.32-4.89-7.27-7.92-10-3.88-3.56-8-6.87-12.18-10-2.57-1.93-5.07,2.41-2.52,4.32,3.23,2.43,6.37,5,9.39,7.65q1.79,1.59,3.52,3.23c1,.93,4.55,3.52,4.71,4.88l3.16-2.41a129.78,129.78,0,0,0-15.87-5.5c-2.26-.62-4.45,2.54-2.43,4.18,5.67,4.6,11.45,9.05,18.75,10.57,3.14.65,4.48-4.17,1.33-4.82Z" transform="translate(-25.03 -115.25)"/><path class="cls-2" d="M80.33,182.26a29.62,29.62,0,0,1,15.16,9.36l1.77-4.27a59,59,0,0,1-26.69-9.68c-2.46-1.72-6.75-4.55-2.86-7.88,1.62-1.38,5.52-2,7.61-2.31,2.3-.36,6.73-.93,9,0q-1.14-2-2.17.18A14.93,14.93,0,0,1,78.71,170c-2.88,1.64-.35,5.53,2.52,4.32l1.54-.65c3-1.25.41-5.56-2.52-4.32l-1.54.65,2.52,4.32c3.95-2.25,12.4-10,3.53-11.79-6.52-1.29-18.3-.27-22.82,5.35-5,6.26,4.17,13,8.79,15.77a67.07,67.07,0,0,0,26.52,8.67c2.34.28,3-2.82,1.77-4.27a34.32,34.32,0,0,0-17.37-10.65c-3.12-.81-4.44,4-1.33,4.82Z" transform="translate(-25.03 -115.25)"/><path class="cls-2" d="M49.23,160.75c-1.45,5.82.77,11,4.79,15.25,5.23,5.5,11.86,10,17.76,14.73,2,1.62,5.73-.53,3.93-3a23.37,23.37,0,0,0-6.29-6.08,2.51,2.51,0,0,0-3.42.9c-5.48,11.3,15.56,17.33,23.08,18.48,2.18.33,4.56-2.37,2.43-4.18L79.13,186.31c-1.45-1.23-4.54-.59-4.27,1.77.5,4.41,2.88,7.53,7.2,8.8,3.09.91,4.41-3.91,1.33-4.82a4.25,4.25,0,0,1-3.53-4l-4.27,1.77L88,200.35l2.43-4.18C87,195.65,67.57,190.69,70.31,185l-3.42.9a15.85,15.85,0,0,1,4.5,4.28l3.93-3c-4.43-3.58-8.89-7.14-13.3-10.75s-9.55-8-8-14.37c.78-3.12-4-4.45-4.82-1.33Z" transform="translate(-25.03 -115.25)"/><path class="cls-2" d="M80.63,195.55a29.61,29.61,0,0,0,2.12,4.84l3.93-3q-6.63-6-12.75-12.59c-2-2.16-5.16.58-3.93,3,2.63,5.21,5.55,10.12,10.9,12.89a46.36,46.36,0,0,0,17.35,4.78c2.39.17,3.53-3.66,1.26-4.66a38.93,38.93,0,0,1-8.59-5.09L89.16,200c4.4-.19,10,3.41,14.07,5,3,1.21,4.28-3.63,1.33-4.82-4.66-1.89-10.3-5.43-15.4-5.22-1.94.08-3.59,2.83-1.77,4.27a43.73,43.73,0,0,0,9.6,5.87l1.26-4.66a40.9,40.9,0,0,1-14.82-4.1c-4.61-2.36-6.87-6.66-9.11-11.09l-3.93,3q6.12,6.56,12.75,12.59a2.51,2.51,0,0,0,3.93-3,14.4,14.4,0,0,1-1.62-3.65c-1-3-5.86-1.73-4.82,1.33Z" transform="translate(-25.03 -115.25)"/><path class="cls-2" d="M44.19,160.69a10.78,10.78,0,0,0,3.5,6.18c1.46,1.32,4.48.54,4.27-1.77a20.83,20.83,0,0,1-.26-4.06l-1.24,2.16c2.28-1.37,4.87,1.41,5.65,3.18L59.53,163A148.68,148.68,0,0,1,45,154.09l-1.93,4.57,4.79,1.78c2.8,1,4.13-3.06,1.93-4.57l-8.66-5.94-1.93,4.57A69,69,0,0,0,52,155.57c3.22,0,3.22-5,0-5a61.7,61.7,0,0,1-11.38-.88,2.51,2.51,0,0,0-1.93,4.57l8.66,5.94,1.93-4.57-4.79-1.78c-2.81-1-4.11,3.05-1.93,4.57A148.68,148.68,0,0,0,57,167.28c2.35,1.26,4.41-1.2,3.42-3.42a9.92,9.92,0,0,0-8.72-5.9c-5.07-.11-5.14,3-4.76,7.14l4.27-1.77a6.52,6.52,0,0,1-2.21-4c-.6-3.16-5.42-1.82-4.82,1.33Z" transform="translate(-25.03 -115.25)"/><path class="cls-2" d="M82.23,155.72a136.52,136.52,0,0,0,26.48-1.41c2.44-.36,2.33-4.37,0-4.82-9.41-1.83-11.4,11.3-9.92,17.9,2.36,10.56,11.57,17.13,20.23,22.49l-.51-3.93-12.34,10.46a2.51,2.51,0,0,0,.51,3.93,42.84,42.84,0,0,0,11.4,3.35c3.15.45,4.51-4.37,1.33-4.82a38.29,38.29,0,0,1-10.2-2.85l.51,3.93L122,189.49a2.52,2.52,0,0,0-.51-3.93c-5.49-3.4-11.24-7.07-14.92-12.53a20.1,20.1,0,0,1-3.18-7.71c-.37-2.15-.36-11.85,3.93-11v-4.82a129.91,129.91,0,0,1-25.15,1.23c-3.22-.15-3.21,4.85,0,5Z" transform="translate(-25.03 -115.25)"/><path class="cls-2" d="M75.81,200.76c10.16,7.91,21.27,10.51,34,10.65,7.6.09,15.2.12,22.8.13,7.06,0,14.24.42,21.23-.68,3.17-.5,1.82-5.32-1.33-4.82-6.5,1-13.34.51-19.9.5q-9.5,0-19-.1c-12.57-.1-23.95-1.22-34.22-9.22-2.51-2-6.07,1.56-3.54,3.54Z" transform="translate(-25.03 -115.25)"/><path class="cls-2" d="M111.53,206.21l22.47.05v-5a183.73,183.73,0,0,1-21.33-.14c-2.81-.18-3.41,4.29-.66,4.91A85.8,85.8,0,0,0,137.28,208c2.27-.16,3.66-3.47,1.26-4.66a78.85,78.85,0,0,0-14.72-5.55l-.66,4.91c4.88-.41,9.74-.59,14.64-.53,2.66,0,3.17-3.29,1.26-4.66l1.29-1.31c1.44-1.46.59-3.48-1.1-4.18a11.07,11.07,0,0,0-5.35-.87l.66,4.91,3.8-.17-1.1-4.18-5.3,4.18c-1.62,1.28-.45,3.6,1.1,4.18a3.46,3.46,0,0,1,3.39,3.61,2.52,2.52,0,0,0,3.08,3.08,28.74,28.74,0,0,0,7.19-3.52,2.53,2.53,0,0,0,.51-3.93c-2.66-2.42-7.45-3-9.37.77a5.21,5.21,0,0,0,4.92,7.44l-1.26-4.66q-1.53-1.36-.36-2.77a13.47,13.47,0,0,1,1.4-2.55,29.67,29.67,0,0,1,2.67-3.64,43.41,43.41,0,0,1,6.9-6.06c3.55-2.7,6.82-5.42,8.75-9.53a2.54,2.54,0,0,0-1.49-3.67,12.5,12.5,0,0,0-10.92,1.7c-2.64,1.8-.15,6.14,2.52,4.32a7.66,7.66,0,0,1,7.07-1.2l-1.49-3.67c-2.19,4.65-6.42,7.18-10.31,10.29A34.58,34.58,0,0,0,137,197.14c-1.4,2.74-2.36,6.3-.16,8.92a5.31,5.31,0,0,0,7.21,1.11c1.88-1.35,1.41-4.73-1.26-4.66l.91.32.51-3.93a24.1,24.1,0,0,1-6,3l3.08,3.08c1.81-5.21-2.58-8.17-6.89-9.76l1.1,4.18,5.3-4.18c1.42-1.12.65-3.88-1.1-4.18a15,15,0,0,0-6.45.17c-2.7.65-2.18,5.08.66,4.91a5.81,5.81,0,0,1,4,.69l-1.1-4.18c-2.86,2.9-4,6.51-.28,9.17l1.26-4.66c-4.89-.06-9.76.12-14.64.53-2.68.23-3.54,4.15-.66,4.91a72.25,72.25,0,0,1,13.53,5l1.26-4.66a81.13,81.13,0,0,1-23.94-1.77l-.66,4.91a183.73,183.73,0,0,0,21.33.14c3.19-.16,3.24-5,0-5l-22.47-.05c-3.22,0-3.22,5,0,5Z" transform="translate(-25.03 -115.25)"/><path class="cls-2" d="M40,155.2a402.2,402.2,0,0,1,62.4-3.16c3.22.09,3.22-4.91,0-5A402.2,402.2,0,0,0,40,150.2c-3.15.41-3.19,5.41,0,5Z" transform="translate(-25.03 -115.25)"/><path class="cls-2" d="M177.65,155.06c12.43.33,24.23,4.87,36.52,6.32,3.19.38,3.16-4.63,0-5-12.32-1.45-24-6-36.52-6.32-3.22-.09-3.22,4.91,0,5Z" transform="translate(-25.03 -115.25)"/><path class="cls-2" d="M176.2,156.15c6.87-.31,13.73-.35,20.6,0,5.67.28,13.41-.24,18.5,2.53l.6-4.57a15.61,15.61,0,0,0-2,.45,2.45,2.45,0,0,0-1.24,2.16c.12,3.87-3.68,7.69-5.75,10.63-2.41,3.42-4.64,7.23-8.08,9.73-2.58,1.88-.08,6.22,2.52,4.32,4.22-3.07,6.9-7.31,9.88-11.53,2.83-4,6.6-8,6.43-13.15l-1.24,2.16c-.48.22.66.1.79.05,1.93-.67,2.6-3.48.6-4.57-5.09-2.77-11.46-2.59-17.1-3a213.62,213.62,0,0,0-24.52-.23c-3.2.15-3.22,5.15,0,5Z" transform="translate(-25.03 -115.25)"/><path class="cls-2" d="M145.67,202.62l17.39-.05v-5c-8.36.73-16,5.36-24.39,5.15-3.22-.08-3.22,4.92,0,5,8.56.22,16-4.42,24.39-5.15,3.15-.27,3.27-5,0-5l-17.39.05c-3.22,0-3.22,5,0,5Z" transform="translate(-25.03 -115.25)"/><path class="cls-2" d="M144,206.58c13.19,9.82,32.62,2,41.06-10.28,1.14-1.66-.41-3.67-2.16-3.76-6.6-.35-11.83,4.71-17.7,7a52.87,52.87,0,0,1-20.79,3.59l.66,4.91c5-.73,10.06-1.56,15.06-2.52,3.05-.59,8-.54,10-3.2,1.27-1.64.58-4.24-1.77-4.27a31.64,31.64,0,0,0-12.13,2.16,2.54,2.54,0,0,0-.6,4.57c5.78,3.74,17,3,19-5.11a2.6,2.6,0,0,0-1.15-2.82c-2.42-1.73-6.28-1.58-9.12-2.09-.35-.06-3.94-.52-4.17-1-.36-.74,5-3.73,5.8-4.17l-3.42-3.42a42.86,42.86,0,0,0-4.11,6.65,2.57,2.57,0,0,0,.39,3,25.88,25.88,0,0,1,3.39,3.81c1.86,2.59,6.2.09,4.32-2.52a33.2,33.2,0,0,0-4.17-4.82l.39,3a42.86,42.86,0,0,1,4.11-6.65c1.6-2.13-1.41-4.51-3.42-3.42-2.85,1.54-10.71,5.88-8.93,10.24,2.38,5.81,12.36,2.75,16.42,5.66l-1.15-2.82c-1.21,4.95-8.59,4.09-11.62,2.13l-.6,4.57a28.06,28.06,0,0,1,10.81-2l-1.77-4.27c-1.39,1.79-8.59,2.07-10.66,2.45-4.07.75-8.15,1.4-12.25,2-2.86.42-2.05,4.85.66,4.91a57.9,57.9,0,0,0,18.94-2.64,57,57,0,0,0,8.38-3.46c3.6-1.83,6.91-4.77,11.16-4.54l-2.16-3.76c-7,10.21-23.31,16.61-34.22,8.48-2.58-1.92-5.08,2.42-2.52,4.32Z" transform="translate(-25.03 -115.25)"/><path class="cls-2" d="M159.51,196a74.26,74.26,0,0,0-19.19,1.77c-3.14.7-1.81,5.52,1.33,4.82A69,69,0,0,1,159.51,201c3.22.12,3.21-4.88,0-5Z" transform="translate(-25.03 -115.25)"/><path class="cls-2" d="M160.6,211.1c10.5.36,18.43-2.43,25.89-9.95s14.76-16.48,19.66-25.94a2.51,2.51,0,0,0-3.93-3q-7,6.76-13.28,14.13l3.93,3c5.74-8.37,13.73-14.81,17.52-24.46,1.18-3-3.66-4.3-4.82-1.33-3.55,9.06-11.6,15.38-17,23.27-1.59,2.32,2.08,5.19,3.93,3q6.32-7.38,13.28-14.13l-3.93-3c-4.32,8.34-10.47,15.78-16.78,22.71-2.88,3.16-6,6.25-9.81,8.29-4.63,2.48-9.53,2.59-14.64,2.41-3.22-.11-3.21,4.89,0,5Z" transform="translate(-25.03 -115.25)"/><path class="cls-2" d="M168.4,210.55c18.42.28,26.84-18.78,35.16-31.95,1.51-2.38-2-5.13-3.93-3a89.87,89.87,0,0,0-12.77,17.73l4.57,1.93c1.59-5.39,5.53-10.6,8.31-15.46a133,133,0,0,1,10-15.32l-4.57-1.93a51.15,51.15,0,0,1-4.44,9.59c-1.68,2.85,2.43,5,4.32,2.52,2.8-3.71,8-8.25,8-13.13a2.57,2.57,0,0,0-2.5-2.5c-3-.36-4.36,2.63-5.84,4.77q-4.06,5.87-7.81,11.94c-4.65,7.53-8.7,15.88-16.13,21.09l3.76,2.16c-.34-3.79,5-9.05,7-12a65.58,65.58,0,0,0,6.71-11.47A2.5,2.5,0,0,0,193.9,173c-3.6,5.12-7.3,10.16-11.19,15.07-2.83,3.58-7,11.06-11.69,12.27l3.08,3.08c2.83-8.2,9-14.68,12.07-22.79.93-2.45-2.51-4.05-4.18-2.43l-16.89,16.36,3.93,3q3.06-4.75,6.44-9.27c1.93-2.58-2.41-5.07-4.32-2.52q-3.38,4.53-6.44,9.27c-1.56,2.43,1.92,5,3.93,3l16.89-16.36-4.18-2.43c-3.09,8.11-9.23,14.54-12.07,22.79-.64,1.86,1.33,3.53,3.08,3.08,5.64-1.47,9.33-7.85,12.74-12.11q6.84-8.55,13.12-17.53L193.9,173c-2.23,5.15-5.43,9.64-8.64,14.21-2.34,3.33-6.13,7.41-5.74,11.75.16,1.71,2.07,3.35,3.76,2.16,5.92-4.15,10-9.77,13.69-15.88,2-3.35,4-6.72,6.13-10,.78-1.23,6.4-11.34,7.44-11.21l-2.5-2.5c0,2.92-5.67,8.36-7.37,10.6l4.32,2.52a57.47,57.47,0,0,0,4.94-10.79c1-2.92-3-4-4.57-1.93a143,143,0,0,0-10.86,16.92c-2.73,4.8-6.34,9.74-7.91,15.07-.8,2.7,3.2,4.43,4.57,1.93a84.37,84.37,0,0,1,12-16.71l-3.93-3c-7.21,11.41-14.78,29.72-30.84,29.47-3.22,0-3.22,5,0,5Z" transform="translate(-25.03 -115.25)"/><path class="cls-2" d="M170,190.68a17.35,17.35,0,0,1-.74,5c-.81,2.77,3.09,4.3,4.57,1.93q9.12-14.65,19.43-28.5l-4.32-2.52L179.26,188c-1.3,2.88,2.58,5.31,4.32,2.52,5.17-8.26,10.82-16.39,15.16-25.12a2.5,2.5,0,0,0-4.32-2.52,24.45,24.45,0,0,0-4.7,11c-.34,2.06,1.65,4,3.67,2.82a24.28,24.28,0,0,0,9.78-10.33l-4.57-1.93a46,46,0,0,0-1.76,9c-.2,2.06,3,3.43,4.27,1.77a62.45,62.45,0,0,0,8.24-13.49c1.3-2.91-3-5.46-4.32-2.52a57.62,57.62,0,0,1-7.45,12.48l4.27,1.77a39,39,0,0,1,1.58-7.71c.81-2.67-3.28-4.49-4.57-1.93a19.38,19.38,0,0,1-8,8.53l3.67,2.82a21.56,21.56,0,0,1,4.2-9.79l-4.32-2.52c-4.34,8.74-10,16.86-15.16,25.12l4.32,2.52,9.64-21.39a2.5,2.5,0,0,0-4.32-2.52q-10.31,13.85-19.43,28.5L174,197a22.09,22.09,0,0,0,.92-6.33c0-3.22-5-3.22-5,0Z" transform="translate(-25.03 -115.25)"/><path class="cls-2" d="M205.72,157.58c-3,1.37-5.09,4-8,5.63l3.42,3.42c1.1-2.36,7.22-9.43,1.75-10.94-2.31-.64-4.44,1.56-6,2.94a86.62,86.62,0,0,0-8,8.21l4.18,1.1c-.17-.47,1.62-3.14,2.05-3.85,1-1.58,2-3.08,3.12-4.56,1.93-2.58-2.41-5.07-4.32-2.52-2.09,2.8-7,8.42-5.68,12.26.58,1.63,2.86,2.64,4.18,1.1,1.57-1.83,3.19-3.62,4.9-5.32q1.28-1.28,2.62-2.49c.65-.59,2.48-1.34,1.26-2.11l-1.24-2.16c.22,1.79-2.46,4.22-3.2,5.82a2.52,2.52,0,0,0,3.42,3.42c2.88-1.6,5-4.28,8-5.63s.39-5.63-2.52-4.32Z" transform="translate(-25.03 -115.25)"/><path class="cls-2" d="M179.1,154.16A97,97,0,0,1,204,156.8c3.13.75,4.46-4.07,1.33-4.82a102.25,102.25,0,0,0-26.24-2.82c-3.21.07-3.22,5.07,0,5Z" transform="translate(-25.03 -115.25)"/><path class="cls-3" d="M127.51,183.65c-4.75.4-5.3,10.65-.22,10.66,4.52,0,6.56-11.71,1.06-10.84-.63.1-.36,1.06.27,1,1.22-.19,2,1.53,2,2.52a7.76,7.76,0,0,1-.22,2.09c-.36,1.54-1.76,5.07-4.12,3.94-2.6-1.24-1.89-8.09,1.22-8.34.64-.05.64-1.05,0-1Z" transform="translate(-25.03 -115.25)"/><path class="cls-3" d="M84.8,167.19c3.19.63,8.27-.82,8.63-4.72s-5.45-4.13-7.66-2.35c-2.69,2.16-2.78,6.91-.71,9.49a5.36,5.36,0,0,0,8.27.11c.39-.5-.31-1.21-.71-.71A4.34,4.34,0,0,1,87,170c-2.21-1.27-2.8-4.26-2.15-6.56a4.38,4.38,0,0,1,3-3.27A5.87,5.87,0,0,1,89.6,160l1,.15q1.48.15,1.22,1.78c.32,1.46.37,1.59-.57,2.57a6,6,0,0,1-1.67,1.18,7,7,0,0,1-4.48.51c-.63-.12-.9.84-.27,1Z" transform="translate(-25.03 -115.25)"/><path class="cls-3" d="M132.7,167.27c3.19.63,8.27-.82,8.63-4.72s-5.45-4.13-7.66-2.35c-2.69,2.16-2.78,6.91-.71,9.49a5.36,5.36,0,0,0,8.27.11c.39-.5-.31-1.21-.71-.71a4.34,4.34,0,0,1-5.58,1c-2.21-1.27-2.8-4.26-2.15-6.56a4.38,4.38,0,0,1,3-3.27,5.87,5.87,0,0,1,1.73-.14l1,.15q1.48.15,1.22,1.78c.32,1.46.37,1.59-.57,2.57a6,6,0,0,1-1.67,1.18,7,7,0,0,1-4.48.51c-.63-.12-.9.84-.27,1Z" transform="translate(-25.03 -115.25)"/><path class="cls-3" d="M104.46,161.21a2.55,2.55,0,0,0-2.24-2.87,3.65,3.65,0,0,0-3.55,2.48c-.47,1.16-1,3.55.4,4.31.91.51,2,.14,2.94.8,4.28,3-2.67,4.79-3.51,2.72-.24-.59-1.21-.33-1,.27.94,2.31,5.83,2.06,6.67-.28a3.1,3.1,0,0,0-1.65-3.65c-.74-.41-1.64-.31-2.35-.64-1.23-.57-1.08-1.5-.78-2.64l.45-1.11q1.49-2.42,3.58.6c-.07.64.93.63,1,0Z" transform="translate(-25.03 -115.25)"/><path class="cls-3" d="M152,162.47a2.55,2.55,0,0,0-2.24-2.87,3.65,3.65,0,0,0-3.55,2.48c-.47,1.16-1,3.55.4,4.31.91.51,2,.14,2.94.8,4.28,3-2.67,4.79-3.51,2.72-.24-.59-1.21-.33-1,.27.94,2.31,5.83,2.06,6.67-.28a3.1,3.1,0,0,0-1.65-3.65c-.74-.41-1.64-.31-2.35-.64-1.23-.57-1.08-1.5-.78-2.64l.45-1.11q1.49-2.42,3.58.6c-.07.64.93.63,1,0Z" transform="translate(-25.03 -115.25)"/><path class="cls-3" d="M162.33,162.49a2.55,2.55,0,0,0-2.24-2.87,3.65,3.65,0,0,0-3.55,2.48c-.47,1.16-1,3.55.4,4.31.91.51,2,.14,2.94.8,4.28,3-2.67,4.79-3.51,2.72-.24-.59-1.21-.33-1,.27.94,2.31,5.83,2.06,6.67-.28a3.1,3.1,0,0,0-1.65-3.65c-.74-.41-1.64-.31-2.35-.64-1.23-.57-1.08-1.5-.78-2.64l.45-1.11q1.49-2.42,3.58.6c-.07.64.93.63,1,0Z" transform="translate(-25.03 -115.25)"/><path class="cls-3" d="M110.09,160.26l0,13.83a.5.5,0,0,0,1,0l0-13.83a.5.5,0,0,0-1,0Z" transform="translate(-25.03 -115.25)"/><path class="cls-3" d="M110.72,160.85c2.48-1.39,6.17-.35,6.27,2.89a3,3,0,0,1-5.19,2.08c-.41-.5-1.11.21-.71.71,2.26,2.78,6.76,1,6.9-2.45.17-4.18-4.49-5.92-7.77-4.09-.56.31-.06,1.18.5.86Z" transform="translate(-25.03 -115.25)"/><path class="cls-3" d="M121.94,160.11l0,11.21c0,.54.89.7,1,.13a15,15,0,0,0,.06-3.71c-.12-1.41-.67-4.12.43-5.26l2.65-.88q.56.44,1.15.82a2.63,2.63,0,0,0,.75.25,1.65,1.65,0,0,0,1.65-.71c.4-.5-.31-1.21-.71-.71-.64.81-3.11-1.13-4.22-.92a3.21,3.21,0,0,0-2,1.41c-1.89,2.73-.29,6.43-.76,9.45l1,.13,0-11.21a.5.5,0,0,0-1,0Z" transform="translate(-25.03 -115.25)"/><path class="cls-3" d="M170.2,160.34c-3-.18-3.94,4.08-4.18,6.3-.26,2.41,1,5.6,3.93,5.38,5.86-.45,5.89-13.93.17-11.8-.6.22-.34,1.19.27,1,3.24-1.2,3,3.86,2.74,5.66-.33,2-1.32,4.32-3.71,4-2.66-.38-2.62-3.33-2.16-5.4.31-1.41,1-4.19,2.94-4.07.64,0,.64-1,0-1Z" transform="translate(-25.03 -115.25)"/><path class="cls-3" d="M136.19,190v3.27l1-.13a4.23,4.23,0,0,1,2.26-4c2.51-1,2.59,2.14,2.53,3.61h1a3.83,3.83,0,0,1,.51-2.17c.71-1,2.5-2.16,3,.27.2.9-.11,1.94,0,2.88.08.63,1.08.64,1,0-.23-1.85.64-5-2.09-5.32-2.48-.27-3.41,2.33-3.47,4.34,0,.65,1,.64,1,0,.08-2-.4-5.26-3.16-4.78-2.32.4-4,3.29-3.59,5.46.1.56,1,.42,1-.13V190a.5.5,0,0,0-1,0Z" transform="translate(-25.03 -115.25)"/><path class="cls-3" d="M150.55,184.2l-.25,5.25c-.05,1.14-.45,2.74,0,3.82.65,1.72,1.75.28,2.72-.1.59-.24.33-1.2-.27-1,0,0-1.08.54-.93.55-1.08-.1-.55-1.83-.51-2.55l.29-6c0-.64-1-.64-1,0Z" transform="translate(-25.03 -115.25)"/><path class="cls-3" d="M119.58,183.17C116.06,182.74,114,187,114,190c0,2.62,2.21,5.77,5.16,4.49,2.36-1,2.69-5.1.31-6.31-2.17-1.1-4.7,1.22-5.28,3.24a.5.5,0,0,0,1,.27,4.85,4.85,0,0,1,2.28-2.61c4-1.67,3,7.79-1.31,3.83-2.63-2.42-.31-9.2,3.49-8.74.64.08.63-.92,0-1Z" transform="translate(-25.03 -115.25)"/><path class="cls-2" d="M45.82,150.09c-3-2.67-6.89-7-6.69-11.33l-2.23,3.89c1.84-1.38,7.64-.78,9.89-.92q5.33-.32,10.67-.42c6.21-.11,16.54-1.94,20.66,3.42l2.69-6.61a20.5,20.5,0,0,1-7.63-.18c-2.37-.53-4.67-2-7.07-2.27-3.56-.37-7.25,2-10.1,3.88s-3.13,6.13,0,7.77a58.54,58.54,0,0,0,22.85,6.6c5.85.48,5.61-8.3,0-9L53.79,141.8c-5.73-.71-5.68,8.29,0,9l25.07,3.11v-9a47.26,47.26,0,0,1-18.3-5.37v7.77c1.72-1.11,3.34-2.42,5.46-2.32,1.68.08,3.85,1.44,5.6,1.78a32.84,32.84,0,0,0,11.59,0c2.66-.42,4.35-4.45,2.69-6.61-2.05-2.66-4-5.21-7.2-6.58-3-1.29-6.39-1.15-9.58-1.24a248.73,248.73,0,0,0-25.23.55c-5.19.38-14.19-.37-13.81,7.17.31,6.17,5,12.46,9.39,16.37s10.72-2.52,6.36-6.36Z" transform="translate(-25.03 -115.25)"/><path class="cls-2" d="M40.9,147.5l12.31,4.91,1.2-8.84a31.71,31.71,0,0,1-5.45-.15,16.08,16.08,0,0,1-2.39-.42q-2.35-.84-1.06-.12l.45,3.47q-1.17,1.19.47.58a12.37,12.37,0,0,1,2.51-.22,27.54,27.54,0,0,1,4.09.2,64.85,64.85,0,0,1,8.7,1.81c5.61,1.44,8-7.24,2.39-8.68-6.74-1.73-20.91-5.68-25.89,1.5-6.58,9.48,11,11.26,16.17,11s5.8-7,1.2-8.84l-12.31-4.91c-5.38-2.15-7.72,6.55-2.39,8.68Z" transform="translate(-25.03 -115.25)"/><path class="cls-2" d="M64.17,145.1c11.28.26,22.51-2.49,33.8-2.9,11.9-.44,23.82-.57,35.73-.84l-1.2-8.84c-21,3.44-42.06,6.32-63.27,8-5.72.45-5.82,9.34,0,9,18.6-1.08,37.22-2.08,55.83-.48,5,.43,6.2-7.94,1.2-8.84l-13.46-2.43c-5.66-1-8.09,7.65-2.39,8.68l13.46,2.43,1.2-8.84c-18.6-1.6-37.23-.6-55.83.48v9c22-1.72,43.88-4.73,65.66-8.3,5-.83,3.8-9-1.2-8.84-11.91.26-23.83.4-35.73.84-11.29.41-22.53,3.16-33.8,2.9-5.79-.13-5.79,8.87,0,9Z" transform="translate(-25.03 -115.25)"/><path class="cls-2" d="M59.91,141.64c9.95.88,19.68-1.68,29.52-2.68a175.62,175.62,0,0,1,27.26-.65,180.06,180.06,0,0,1,55.48,12.19l1.2-8.84a202.36,202.36,0,0,1-49.27-3.88l-1.2,8.84a188,188,0,0,1,23.6-.21c5.79.31,5.77-8.69,0-9a188,188,0,0,0-23.6.21c-4.75.34-6.47,7.76-1.2,8.84a212.42,212.42,0,0,0,51.67,4.2c5.28-.22,5.84-7,1.2-8.84a188,188,0,0,0-56.06-12.4,175.83,175.83,0,0,0-29.07.54c-9.83,1-19.59,3.56-29.52,2.68-5.77-.51-5.73,8.49,0,9Z" transform="translate(-25.03 -115.25)"/><path class="cls-2" d="M44.29,148.21c-2-3.67-3.91-7.39-5.67-11.18-.68-1.45-5.07-9.93-4.45-10.46-3.56,3,5.2,1.76,5.69,1.72q2.88-.26,5.76-.47,6.25-.46,12.51-.69a362,362,0,0,1,51,1.74c5.76.6,5.71-8.41,0-9a360.62,360.62,0,0,0-64.47-1c-5.47.41-20.13-.84-19.62,8,.22,3.79,2.8,8,4.32,11.45,2.17,4.92,4.58,9.72,7.15,14.44,2.77,5.09,10.54.55,7.77-4.54Z" transform="translate(-25.03 -115.25)"/><path class="cls-2" d="M31.73,130.54A30.61,30.61,0,0,0,37,139.38c1.43,1.7,5,1.81,6.36,0,.84-1.08,1.47-2.83,2.4-3.73,1.55-1.5,3.57.15,5.29,1.14l3.47-8.22L46.7,126l-1.2,8.84q13.64.31,27.24,1.33v-9A46.27,46.27,0,0,1,54.87,124l-1.2,8.84c15.94-1.67,31.4,1.84,46.8,5.55,5.63,1.36,8-7.32,2.39-8.68-16.12-3.88-32.52-7.62-49.19-5.88a4.52,4.52,0,0,0-1.2,8.84,53.09,53.09,0,0,0,20.26,3.52c5.85-.11,5.72-8.57,0-9q-13.61-1-27.24-1.33c-5.23-.12-5.9,7.29-1.2,8.84l7.81,2.58c4.89,1.62,7.84-5.71,3.47-8.22C52,127,48,125.13,43.8,126.25a10,10,0,0,0-4.18,2.29c-1.37,1.31-1.56,3.09-2.63,4.47h6.36a17.2,17.2,0,0,1-2.94-4.87c-2.11-5.32-10.82-3-8.68,2.39Z" transform="translate(-25.03 -115.25)"/><path class="cls-2" d="M74,131.21q25.72.16,51.4,1.75c5.78.36,5.76-8.64,0-9Q99.7,122.38,74,122.21c-5.79,0-5.8,9,0,9Z" transform="translate(-25.03 -115.25)"/><path class="cls-2" d="M52,131.53c18.2,2.74,35.29-5.38,53.31-6.31,9-.46,18-.37,26.95-.42s18-.39,26.58,2.86l1.2-8.84c-14.44,1.05-29.77.79-43.89,4.16-4.16,1-4.42,7.86,0,8.68L150,137.93v-8.68l-1.92.3c-5.71.89-3.28,9.56,2.39,8.68l1.92-.3c4.36-.68,4.23-7.89,0-8.68L118.54,123v8.68c13.3-3.17,27.89-2.85,41.5-3.84a4.52,4.52,0,0,0,1.2-8.84c-8.1-3.07-16.67-3.24-25.22-3.2-9,0-18,0-27,.3a133.21,133.21,0,0,0-25.91,3.45c-9.39,2.15-19,4.78-28.68,3.32-5.67-.85-8.11,7.82-2.39,8.68Z" transform="translate(-25.03 -115.25)"/><path class="cls-2" d="M44.91,128.43c11.32,1,22.51-.56,33.77-1.55a173.53,173.53,0,0,1,33.88.45c5.75.62,5.71-8.39,0-9a173.54,173.54,0,0,0-33.88-.45c-11.26,1-22.44,2.52-33.77,1.55-5.77-.5-5.74,8.51,0,9Z" transform="translate(-25.03 -115.25)"/><path class="cls-2" d="M51.62,130.89c11.66-7.51,25.94-6.68,39.25-6.61l45.83.23c5.79,0,5.8-9,0-9L87,115.26c-13.71-.06-28,.19-39.89,7.86-4.85,3.13-.35,10.92,4.54,7.77Z" transform="translate(-25.03 -115.25)"/><path class="cls-2" d="M144.36,140.28a35.19,35.19,0,0,1,14.08,1.23c5.57,1.65,7.92-7,2.39-8.68a197.28,197.28,0,0,1-23.17-8.63V132c2.87-1.94,9,3.51,11.16,5.17,3.55,2.77,7,5.56,11.07,7.51,8.72,4.15,18.39,5.41,27.38,8.81l2.39-8.68q-13.59-4.77-27.13-9.67c-8.24-3-16.3-6-23.57-11l-2.27,8.39c7.12.78,13.86,5,20.43,7.65a204.36,204.36,0,0,0,21.45,7.18c5.59,1.55,8-7.14,2.39-8.68a201.05,201.05,0,0,1-23.13-7.86c-7-2.89-13.5-6.45-21.15-7.29-4.84-.53-5.55,6.13-2.27,8.39,7.35,5.05,15.62,8.27,24,11.3q14.41,5.24,28.89,10.3c5.51,1.94,7.74-6.66,2.39-8.68-10.76-4.07-22.59-5-32-12.09-6.25-4.71-16.21-14.13-24.52-8.5-2.51,1.7-3.32,6.28,0,7.77a215.8,215.8,0,0,0,25.32,9.54l2.39-8.68a41.86,41.86,0,0,0-16.47-1.55c-5.7.61-5.76,9.61,0,9Z" transform="translate(-25.03 -115.25)"/><path class="cls-2" d="M147.76,133.12a22.61,22.61,0,0,1,12.88,6.16c4.16,4,10.53-2.32,6.36-6.36a30.58,30.58,0,0,0-16.85-8.47c-2.42-.35-4.81.6-5.54,3.14-.6,2.11.74,5.19,3.14,5.54Z" transform="translate(-25.03 -115.25)"/><path class="cls-2" d="M31.19,128.69q22.67-2.57,45.48-3.17v-9q-22.58,1.74-45.08,4.29l1.2,8.84c28-9.6,57.65-3.46,86.48-4.38,5.78-.18,5.8-9.18,0-9-29.67.95-60.09-5.19-88.87,4.7-4.47,1.54-4.15,9.45,1.2,8.84q22.5-2.55,45.08-4.29c5.7-.44,5.86-9.15,0-9q-22.81.6-45.48,3.17c-5.69.64-5.76,9.65,0,9Z" transform="translate(-25.03 -115.25)"/><path class="cls-2" d="M143.74,129.66q26.8.24,53.57,1.64l-1.2-8.84q-8.2,1.6-16.44,3c-5.52.94-11.5,2.58-17,1.14l-1.2,8.84a248.85,248.85,0,0,1,35.87,7.44l1.2-8.84-25.64.29c-4.93.06-6.3,7.75-1.2,8.84a241.7,241.7,0,0,1,27.65,7.64l-1.07-8.22a124.46,124.46,0,0,0-14.7,7.92c-4.08,2.57-2,7.83,2.27,8.39a36.44,36.44,0,0,0,25.07-6l-6.61-2.69a12.2,12.2,0,0,1,.88,4.8c0,3.23,3.92,5.85,6.77,3.89a27.18,27.18,0,0,0,7.36-7.39l-8.22-3.47c.81-3.23,1.89-6.09-.24-9.23a6,6,0,0,0-6.08-2.68c-1.75.33-3.88,1.61-4.5,3.41q-1.84,2.52,3.48,1.35v-1.41c.82-1.62.73-4.55,1.41-6.42,1.15-3.19-2.42-6.56-5.54-5.54a46.16,46.16,0,0,1-13,2.37c-5.77.21-5.8,9.21,0,9A55.32,55.32,0,0,0,202,136.26l-5.54-5.54c-1.76,4.88-3.48,12.88,1.12,16.8a6,6,0,0,0,6.62.92,6.68,6.68,0,0,0,2.22-1.75,8.11,8.11,0,0,0,1.18-1.72q1.07-1.63-.43-.11l-3.47-.45c-1.49-.67,0,6.53.27,7.15a9.32,9.32,0,0,0,5.32,4.85,8.26,8.26,0,0,0,10.48-5.93c1.27-5.08-5.39-7.63-8.22-3.47a14.9,14.9,0,0,1-4.13,4.16l6.77,3.89a19.37,19.37,0,0,0-1.21-7.19c-.95-2.54-4-4.43-6.61-2.69a28.9,28.9,0,0,1-20.52,4.72l2.27,8.39a124.46,124.46,0,0,1,14.7-7.92c3.8-1.73,2.24-7.09-1.07-8.22a241.7,241.7,0,0,0-27.65-7.64l-1.2,8.84,25.64-.29c5.06-.06,6.13-7.44,1.2-8.84a264.78,264.78,0,0,0-38.27-7.76c-5.09-.66-6,7.59-1.2,8.84,6.09,1.59,12.05.47,18.15-.53q10.08-1.65,20.11-3.62c5.19-1,3.65-8.59-1.2-8.84q-26.76-1.4-53.57-1.64c-5.79-.05-5.8,8.95,0,9Z" transform="translate(-25.03 -115.25)"/><path class="cls-2" d="M153.23,127.5c18.52-.51,37.17-1,55.31,3.42l2.39-8.68a475,475,0,0,0-67.19-5,4.55,4.55,0,0,0-3.18,7.68c17.62,17.67,43.41,10.81,65.35,15.91l-2.69-6.61A28.16,28.16,0,0,0,198,148c-.52,4.19,5.09,5.5,7.68,3.18a99.21,99.21,0,0,0,12.11-12.95L210.16,135a10.35,10.35,0,0,1-2.15,6.81c-3.55,4.5,2.77,10.91,6.36,6.36A20.22,20.22,0,0,0,219.16,135c0-3.55-5.17-6.39-7.68-3.18a99.21,99.21,0,0,1-12.11,12.95L207,148a19.36,19.36,0,0,1,3.95-9.22c1.7-2.32-.07-6-2.69-6.61-19.67-4.57-45.72,2.1-61.38-13.6l-3.18,7.68a458.36,458.36,0,0,1,64.8,4.7c5.56.81,8.17-7.28,2.39-8.68-18.94-4.57-38.36-4.28-57.7-3.74-5.78.16-5.8,9.16,0,9Z" transform="translate(-25.03 -115.25)"/><path class="cls-2" d="M201.27,136.87l7.53-.08h1.51q2.53,0,1,0c-.22-.85-.68,3-.64,2.77-.77,4.23-3.6,7.93-4.64,12.13-.92,3.69,3.18,7.21,6.61,5.08a30.09,30.09,0,0,0,11.21-12.1c2.6-5.16-5.16-9.72-7.77-4.54a21.39,21.39,0,0,1-8,8.87l6.61,5.08c1.72-6.89,6.85-12.76,4.53-20.26-2.49-8.08-11.27-6-17.93-6-5.79.07-5.8,9.07,0,9Z" transform="translate(-25.03 -115.25)"/><path class="cls-2" d="M212,164.94c7.88-7.72,12.42-16.12,15.31-26.75,1-3.63,2.93-8.34-.93-10.92-1.56-1-13.62-1.21-13.58-1l-1.16,4.38q-1.55.63.36.27a9.69,9.69,0,0,1,3.15.09,27.42,27.42,0,0,1,4.2,1.36c2.43.84,5.08.71,7.44,1.51l-3.14-3.14c-.53-1.82-1.65,2.08-1.93,2.64-.55,1.12-1.12,2.24-1.74,3.33a87,87,0,0,1-5.33,8.1c-3.65,5.06-7.18,11.34-11.81,15.53-4.3,3.9,2.08,10.25,6.36,6.36,3.53-3.2,6.13-7.67,8.94-11.51A154.59,154.59,0,0,0,227.32,142c3.69-6.33,9.47-15.85-1.29-17.27-5.19-.68-19.44-7.36-21.89,1.53-1,3.73,2.13,7.1,5.4,8.18a18.47,18.47,0,0,0,5.15.65c1.36,0,2.73,0,4.09,0,.29,0,3.5.35,2.28-.64l-1.32-3.18c-.11,4.69-2.76,10.91-4.71,15.09-2.27,4.84-5.6,8.53-9.38,12.23-4.14,4.06,2.22,10.42,6.36,6.36Z" transform="translate(-25.03 -115.25)"/><path class="cls-2" d="M149.63,127c6.8.06,13.39-1.43,20.14-1.93,6.39-.48,12.47,1,18.8,1.52,6.64.56,13.31.44,20,.77,6.37.32,13.63.26,19.79,2l-2.69-2.07.48.82-.45-3.47c-.49,2-3.62,4.37-4.95,5.85l7.07,5.45A31.45,31.45,0,0,1,232.4,130c2.91-2.94,0-9.35-4.38-7.52l-11,4.64c-5.26,2.21-2.95,10.93,2.39,8.68l11-4.64L226,123.6a41.68,41.68,0,0,0-6,7.73c-2.61,4.3,3.61,9.31,7.07,5.45,3.21-3.57,12.65-12.79,3.63-16.18-3.79-1.43-8.94-1.27-12.95-1.63q-6.91-.63-13.84-.83c-8.82-.28-17.32-1.08-26.07-2-9.47-1-18.76,1.92-28.22,1.84-5.79,0-5.8,9,0,9Z" transform="translate(-25.03 -115.25)"/><path class="cls-2" d="M143.1,125.88a57.52,57.52,0,0,1,13.05.6c2.39.4,4.85-.63,5.54-3.14.59-2.16-.73-5.13-3.14-5.54a67.85,67.85,0,0,0-15.45-.92c-5.76.35-5.79,9.35,0,9Z" transform="translate(-25.03 -115.25)"/></svg>