<?xml version="1.0" encoding="utf-8"?>
<!-- Generator: Adobe Illustrator 20.1.0, SVG Export Plug-In . SVG Version: 6.00 Build 0)  -->
<svg version="1.1" id="Слой_1" xmlns="http://www.w3.org/2000/svg" xmlns:xlink="http://www.w3.org/1999/xlink" x="0px" y="0px"
	 viewBox="0 0 300 300" style="enable-background:new 0 0 300 300;" xml:space="preserve">
<style type="text/css">
	.st0{fill:#FFFCFC;}
	.st1{fill:#5B3400;}
	.st2{fill:#F6F6F6;}
</style>
<g>
	<g>
		<path class="st0" d="M67.3,191.9c5.7,3.1,10.4,7.6,16.4,10.3c5.5,2.4,11.2,3.8,17.2,4.4c3.2,0.3,3.2-4.7,0-5
			c-6.1-0.6-12.1-2.3-17.6-5.1c-4.8-2.5-8.7-6.3-13.5-8.9C67,186.1,64.4,190.4,67.3,191.9L67.3,191.9z"/>
	</g>
</g>
<g>
	<g>
		<path class="st1" d="M141.9,179.9c9.7,0.8,19.3,0.2,28.8-1.6c-0.4-1.6-0.9-3.2-1.3-4.8c-10.7,3.1-21.6,5.5-32.7,7.2
			c-3.2,0.5-1.8,5.3,1.3,4.8c11-1.7,21.9-4.1,32.7-7.2c3.1-0.9,1.8-5.4-1.3-4.8c-9.1,1.8-18.2,2.2-27.5,1.5
			C138.7,174.6,138.7,179.6,141.9,179.9L141.9,179.9z"/>
	</g>
</g>
<g>
	<g>
		<path class="st1" d="M106.2,203c5.9,2.3,11.8,2.5,17.9,1.1c5.6-1.3,4.2-9.8-1.3-9.8c-10.2-0.1-20.4-0.2-30.6-0.3
			c-6.5-0.1-6.3,9.5,0,10c4.9,0.4,9.8,0.8,14.7,1.3c-0.4-3.3-0.9-6.5-1.3-9.8c-7.9,2-16.2,0.3-22.5-4.9c-4.9-4-11.4,2.2-7.1,7.1
			c2.8,3.1,6,5.6,9.8,7.5c0.8-3.1,1.7-6.2,2.5-9.3c-4.3,0.5-7.6-0.4-11.1-2.9c-5.2-3.8-10.1,4.8-5,8.6c4.5,3.4,9.1,6.6,14.6,8
			c5.6,1.5,11.7,1.5,17.4,1.5c5.6,0,10.8-1.6,16.3-1.9c6.8-0.4,13.7,1.2,20.6,0.8c-0.4-3.3-0.9-6.5-1.3-9.8
			c-9.3,2.7-18.6,3.4-28.2,2.4c-5.5-0.6-6.9,9-1.3,9.8c13.4,1.9,26.9,3,40.4,2.9c12.8-0.1,23.2-3.9,34.4-10.1
			c4.3-2.4,2.5-9.5-2.5-9.3c-24,0.9-48,1.8-72-1c0,3.3,0,6.7,0,10c17.5-1.7,35.4,1,52.5-4.1c5.6-1.7,4.2-9.4-1.3-9.8
			c-15.9-1.3-31.8-1.6-47.6-0.8c-7.2,0.4-14.6,1.2-21.7-0.7c-6.6-1.8-12.5-5.5-18.3-9c-4.5-2.7-9,2.6-6.8,6.8
			c2.5,5.1,6.2,9,10.8,12.3c1.3-3,2.6-6.1,3.9-9.1c-6-1.1-9.8-5.6-13.1-10.4c-3.7-5.2-12.4-0.2-8.6,5c4.9,6.8,10.6,13.3,19.1,15
			c5.7,1.1,8.5-5.8,3.9-9.1c-3.2-2.3-5.4-5.2-7.2-8.8c-2.3,2.3-4.6,4.6-6.8,6.8c6.1,3.7,12.3,7.3,19.1,9.5
			c7.2,2.3,14.7,2.2,22.2,1.8c17.2-0.9,34.3-0.8,51.4,0.6c-0.4-3.3-0.9-6.5-1.3-9.8c-16.2,4.8-33.3,2.1-49.9,3.7
			c-6.5,0.6-6.4,9.3,0,10c23.9,2.7,48,1.9,72,1c-0.8-3.1-1.7-6.2-2.5-9.3c-4.6,2.6-9.3,5.3-14.4,6.8c-5.4,1.7-11,1.9-16.6,1.9
			c-12,0-24.1-0.9-36-2.5c-0.4,3.3-0.9,6.5-1.3,9.8c10.4,1.2,20.8,0.2,30.8-2.7c5.3-1.5,4.5-10.1-1.3-9.8c-6,0.3-11.7-0.3-17.6-0.7
			c-5.4-0.3-10.4,1.5-15.7,1.8c-5,0.3-10.3,0.2-15.3-0.5c-5.9-0.8-10.4-4.1-15.1-7.6c-1.7,2.9-3.4,5.8-5,8.6
			c4.7,3.4,10.3,4.9,16.1,4.3c4.4-0.5,7.4-6.8,2.5-9.3c-3.1-1.5-5.5-3.4-7.7-6c-2.4,2.4-4.7,4.7-7.1,7.1c9.2,7.5,20.7,10.3,32.2,7.5
			c5.8-1.4,4-9.4-1.3-9.8c-4.9-0.4-9.8-0.8-14.7-1.3c0,3.3,0,6.7,0,10c10.2,0.1,20.4,0.2,30.6,0.3c-0.4-3.3-0.9-6.5-1.3-9.8
			c-4.5,1.1-8.4,0.6-12.6-1.1C102.9,191,100.3,200.6,106.2,203L106.2,203z"/>
	</g>
</g>
<g>
	<g>
		<path class="st1" d="M79.2,193.4c-4.7-2-7.7-5.8-10.8-9.7c-3.6-4.5-7-9.2-10.1-14c-6.2-9.5-11.4-19.6-15.7-30.2
			c-2.4-5.9-12-3.3-9.6,2.7c4.8,11.9,10.6,23.3,17.6,34c5.9,9,13.2,21.3,23.5,25.8C80,204.6,85.1,196,79.2,193.4L79.2,193.4z"/>
	</g>
</g>
<g>
	<g>
		<path class="st1" d="M38.6,144.5c41.5-0.2,83-0.4,124.4-0.6c10.3-0.1,20.6-0.1,30.9-0.2c2.7,0,5.3,0,8,0c1.6,0,4.9-0.5,6.3,0.4
			c2.9,1.8,0.3,6.4-1,8.7c-9.2,15.7-23.4,29.4-37.3,40.9c2.4,2.4,4.7,4.7,7.1,7.1c4.9-5.2,9.8-10.4,14.7-15.7
			c4.4-4.7-2.5-11.7-7.1-7.1c-3.5,3.5-7,7.1-10.5,10.6c-2.7,2.7-5.9,5.5-5.3,9.7c1.2,8.4,12.6,6.7,17.6,3.2
			c6.9-4.8,12.1-12.9,16.6-19.9c5.2-7.9,9.4-16.4,13-25.1c0.8-1.9-0.5-4.8-2.3-5.6c-5.3-2.6-9.2,0-13.3,3.5
			c-5.2,4.4-10.3,8.8-15.5,13.2c-10.6,9-21.2,18-31.8,27c2.4,2.4,4.7,4.7,7.1,7.1c12.3-13.8,24.7-27.5,37-41.3
			c3.5-4-1.3-11.5-6.1-7.9c-14.8,11.4-29.7,22.8-44.5,34.1c2,2.6,4,5.2,6.1,7.9c6.4-6.2,12.7-12.3,19.1-18.5
			c3.4-3.3-0.1-10.2-4.9-8.4c-15,5.7-29.1,13-42.3,22.2c-4.5,3.1-1.9,10.7,3.9,9.1c10.3-2.8,19.6-7.7,27.9-14.4
			c3.1-2.5,1.1-7.4-2.2-8.4c-16.3-4.7-34.5,1.7-50.1-5c-1.3,3-2.6,6.1-3.9,9.1c13.8,2.6,27.6,5.2,41.5,7.8c0.4-3.3,0.9-6.5,1.3-9.8
			c-23.6-3-47.4-4.5-71.2-4.3c-5.6,0-6.9,8.4-1.3,9.8c13.9,3.6,27.9,6.2,42.2,7.8c5.5,0.6,6.9-8.9,1.3-9.8
			c-5.4-0.9-10.9-1.8-16.3-2.7c-0.4,3.3-0.9,6.5-1.3,9.8c14-0.5,27.9-0.7,41.9-0.4c5.7,0.1,6.8-8.3,1.3-9.8
			c-24.5-6.7-51.8,0-75.3-10.7c-1.3,3-2.6,6.1-3.9,9.1c23.3,8.6,47.4,14.9,71.9,18.8c0.9-3.2,1.8-6.4,2.7-9.6
			c-30.5-4.8-69.9-12.2-82.4-45c-2.3-5.9-11.3-3.7-9.6,2.7c2.5,9.7,7.4,18.4,14.3,25.6c3.3,3.5,10.1-0.1,8.4-4.9
			c-2.6-7.1-5.3-14.3-7.9-21.4c-2.4,1.9-4.9,3.8-7.3,5.6c11.2,6.9,21.3,15.1,30.4,24.5c1.6-2.8,3.2-5.6,4.9-8.4
			c-8.2-2.8-14.9-8.2-19.4-15.7c-2.3,2.3-4.6,4.6-6.8,6.8c15.6,7,30.6,15.2,45,24.5c1.3-3,2.6-6.1,3.9-9.1
			c-12.5-4.1-23.1-11.8-31.2-22.1c-1.6,2.8-3.2,5.6-4.9,8.4c11.2,1.8,22.1,4.6,32.8,8.5c0.9-3.2,1.8-6.4,2.7-9.6
			c-12.2-4.4-24.5-8.9-36.7-13.3c-0.9,3.2-1.8,6.4-2.7,9.6c6.2,2.2,12.4,4.3,18.5,6.5c5.3,1.9,9-6.7,3.9-9.1
			c-7.1-3.4-14.1-6.7-21.2-10.1c-5.8-2.7-10.8,5.8-5,8.6c27.6,13.7,55.7,26.3,84.2,38.1c0.9-3.2,1.8-6.4,2.7-9.6
			c-19.2-4.5-38.3-9-57.5-13.4c-0.9,3.2-1.8,6.4-2.7,9.6c15.2,2.5,30.5,5,45.7,7.5c4.5,0.7,8.9-4.7,4.9-8.4
			c-13.3-12-28.6-21.3-45.3-27.8c-0.4,3.3-0.9,6.5-1.3,9.8c14-0.3,27.7,1.7,41.1,5.9c0.9-3.2,1.8-6.4,2.7-9.6
			c-12-3.3-23.8-7.3-35.4-12.1c-5.2-2.1-9,6.8-3.9,9.1c5.7,2.6,11.3,5.2,17,7.8c0.8-3.1,1.7-6.2,2.5-9.3
			c-13.3,0.2-26.4-1.6-39.2-5.5c-0.9,3.2-1.8,6.4-2.7,9.6c25.9,5.6,51.2,13.6,75.6,23.8c0-3.2,0-6.4,0-9.6c-7.9,2.3-15.8,2.7-23.9,1
			c-0.4,3.3-0.9,6.5-1.3,9.8c7.9-0.1,15.5,0.9,23,3c5.3,1.5,7.7-4.7,4.9-8.4c-10-13-22-24.1-35.4-33.5c-0.8,3.1-1.7,6.2-2.5,9.3
			c17.2,2,34.1,5.6,50.6,10.6c0.4-3.3,0.9-6.5,1.3-9.8c-13.1-1.5-26.2-2.9-39.3-4.4c-5.6-0.6-6.8,8.6-1.3,9.8
			c12.3,2.8,24.5,5.6,36.8,8.3c0-3.2,0-6.4,0-9.6c-10.8,3.4-21.3,7.9-31.3,13.3c-4.4,2.4-2.4,9.4,2.5,9.3
			c11.3-0.1,22.4-1.9,33.2-5.3c4.1-1.3,4.9-6.8,1.2-9.1c-8-5-16.8-8.3-26.1-9.8c-5.4-0.9-8.9,6-3.9,9.1c16.4,10.3,38,10.1,54.2-0.5
			c3.2-2.1,3.4-8.5-1.2-9.1c-11.2-1.6-22.4-2.3-33.7-1.8c-6.4,0.3-6.4,9.7,0,10c7.9,0.4,15.8,0.1,23.7-0.9c4.7-0.6,7.1-6.5,2.5-9.3
			c-6.9-4.2-14.3-6.9-22.3-8c-6.2-0.8-9.1,8.3-2.7,9.6c14.1,3,28.3,5.1,42.6,6.3c-0.4-3.3-0.9-6.5-1.3-9.8
			c-4.6,0.7-8.8,2.2-12.9,4.4c-4.1,2.2-2.5,10,2.5,9.3c4.2-0.5,8.4-1.1,12.5-1.6c6.3-0.8,6.4-10.8,0-10c-4.2,0.5-8.4,1.1-12.5,1.6
			c0.8,3.1,1.7,6.2,2.5,9.3c3.4-1.8,6.7-2.8,10.5-3.4c5.9-0.9,3.9-9.4-1.3-9.8c-13.4-1.2-26.8-3.2-39.9-6c-0.9,3.2-1.8,6.4-2.7,9.6
			c7.2,1,13.7,3.2,19.9,7c0.8-3.1,1.7-6.2,2.5-9.3c-7.9,1-15.8,1.3-23.7,0.9c0,3.3,0,6.7,0,10c10.4-0.5,20.7,0,31,1.5
			c-0.4-3-0.8-6.1-1.2-9.1c-13.4,8.8-30.5,9-44.1,0.5c-1.3,3-2.6,6.1-3.9,9.1c8.5,1.4,16.3,4.2,23.7,8.8c0.4-3,0.8-6.1,1.2-9.1
			c-10,3.2-20.1,4.8-30.6,5c0.8,3.1,1.7,6.2,2.5,9.3c9.2-5,18.9-9.1,28.9-12.3c4.5-1.4,5-8.5,0-9.6c-12.3-2.8-24.5-5.6-36.8-8.3
			c-0.4,3.3-0.9,6.5-1.3,9.8c13.1,1.5,26.2,2.9,39.3,4.4c5.8,0.6,6.5-8.3,1.3-9.8c-17.4-5.3-35.2-8.9-53.3-11
			c-5.4-0.6-6.1,6.8-2.5,9.3c12.7,8.9,23.9,19.7,33.4,31.9c1.6-2.8,3.2-5.6,4.9-8.4c-8.4-2.3-17-3.5-25.7-3.4
			c-5.5,0.1-7,8.6-1.3,9.8c9.8,2.1,19.6,1.9,29.2-1c5.1-1.5,4.3-7.8,0-9.6c-24.4-10.2-49.7-18.2-75.6-23.8c-6.3-1.4-8.9,7.8-2.7,9.6
			c13.6,4.1,27.6,6,41.8,5.8c4.6-0.1,7.2-7.2,2.5-9.3c-5.7-2.6-11.3-5.2-17-7.8c-1.3,3-2.6,6.1-3.9,9.1c11.5,4.7,23.3,8.8,35.4,12.1
			c6.2,1.7,8.8-7.7,2.7-9.6c-14.2-4.4-28.9-6.5-43.7-6.2c-5.9,0.1-6.4,7.8-1.3,9.8c15.1,5.8,28.9,14.4,40.9,25.3
			c1.6-2.8,3.2-5.6,4.9-8.4c-15.2-2.5-30.5-5-45.7-7.5c-6.2-1-9,8.2-2.7,9.6c19.2,4.5,38.3,9,57.5,13.4c6.4,1.5,8.5-7.2,2.7-9.6
			c-27.7-11.4-55-23.8-81.8-37.1c-1.7,2.9-3.4,5.8-5,8.6c7.1,3.4,14.1,6.7,21.2,10.1c1.3-3,2.6-6.1,3.9-9.1
			c-6.2-2.2-12.4-4.3-18.5-6.5c-6.1-2.1-8.7,7.5-2.7,9.6c12.2,4.4,24.5,8.9,36.7,13.3c6.1,2.2,8.7-7.5,2.7-9.6
			c-10.7-3.9-21.6-6.7-32.8-8.5c-5.1-0.8-8,4.3-4.9,8.4c9.2,11.7,21.5,20.1,35.6,24.7c5.6,1.8,8.5-6.2,3.9-9.1
			c-14.4-9.3-29.4-17.5-45-24.5c-4.3-1.9-9.6,2.2-6.8,6.8c5.9,9.7,14.6,16.7,25.4,20.3c4.9,1.6,8.2-4.9,4.9-8.4
			c-9.7-10-20.6-18.7-32.4-26c-3.5-2.2-8.9,1.5-7.3,5.6c2.6,7.1,5.3,14.3,7.9,21.4c2.8-1.6,5.6-3.2,8.4-4.9
			c-5.8-6.1-9.7-13.1-11.7-21.2c-3.2,0.9-6.4,1.8-9.6,2.7c14.1,36.8,54.5,46.4,89.4,52c6.3,1,9-8.6,2.7-9.6
			c-24.5-3.9-48.6-10.2-71.9-18.8c-5.3-1.9-9,6.8-3.9,9.1c24.7,11.3,52.1,4.7,77.6,11.7c0.4-3.3,0.9-6.5,1.3-9.8
			c-14-0.3-28-0.2-41.9,0.4c-5.3,0.2-7.1,8.9-1.3,9.8c5.4,0.9,10.9,1.8,16.3,2.7c0.4-3.3,0.9-6.5,1.3-9.8
			c-13.3-1.5-26.5-4.1-39.5-7.5c-0.4,3.3-0.9,6.5-1.3,9.8c23.8-0.1,47.6,1.3,71.2,4.3c5.6,0.7,6.9-8.8,1.3-9.8
			c-13.8-2.6-27.6-5.2-41.5-7.8c-5.1-1-9.4,6.8-3.9,9.1c17,7.2,35.2,0.9,52.5,6c-0.7-2.8-1.5-5.6-2.2-8.4c-7,5.6-14.9,9.5-23.5,11.8
			c1.3,3,2.6,6.1,3.9,9.1c12.4-8.6,25.7-15.8,39.9-21.2c-1.6-2.8-3.2-5.6-4.9-8.4c-6.4,6.2-12.7,12.3-19.1,18.5
			c-4,3.8,1.5,11.4,6.1,7.9c14.8-11.4,29.7-22.8,44.5-34.1c-2-2.6-4-5.2-6.1-7.9c-12.3,13.8-24.7,27.5-37,41.3
			c-4.3,4.8,2.2,11.2,7.1,7.1c8.4-7.1,16.8-14.2,25.1-21.4c3.9-3.4,7.9-6.7,11.8-10.1c2.2-1.9,4.4-3.8,6.7-5.7
			c0.7-0.6,5.8-4.6,4.9-5.1c-0.8-1.9-1.5-3.8-2.3-5.6c-3.4,8.2-7.6,16-12.4,23.4c-2.3,3.5-4.8,7-7.4,10.2c-1.3,1.6-2.7,3.3-4.3,4.7
			c-0.8,0.7-1.7,1.4-2.7,1.9c-1.7-0.1-2,0.5-1,1.6c-0.2,1.3-0.3,2.6-0.5,3.9c1.3-2.7,4.4-5,6.5-7.1c2.4-2.4,4.8-4.9,7.2-7.3
			c-2.4-2.4-4.7-4.7-7.1-7.1c-4.9,5.2-9.8,10.4-14.7,15.7c-4.5,4.8,2.2,11.1,7.1,7.1c12.6-10.4,23.9-22.3,33.6-35.5
			c4-5.4,8.5-11.3,8.8-18.3c0.3-6.1-3.3-11.2-9.3-12.7c-7.8-2-17.2-0.5-25.2-0.5c-9.3,0-18.6,0.1-27.9,0.1
			c-18.6,0.1-37.2,0.2-55.7,0.3c-20.9,0.1-41.8,0.2-62.7,0.3C32.1,134.5,32.1,144.5,38.6,144.5L38.6,144.5z"/>
	</g>
</g>
<g>
	<g>
		<path class="st1" d="M191.3,149.8c3.9-1.1,8.2-0.6,11.3,2.2c1.7,1.6,2.2,2.8,0.6,4.6c-1.9,2.3-4,4.4-6,6.5
			c-4.3,4.7,2.7,11.8,7.1,7.1c6.2-6.8,14.4-14.1,7.1-23.4c-5.4-6.8-14.7-9.1-22.8-6.7C182.5,142,185.1,151.6,191.3,149.8
			L191.3,149.8z"/>
	</g>
</g>
<g>
	<g>
		<path class="st1" d="M173.9,189.8c-4.4,0-8.9,0-13.3,0c-3.4,0-7.3-0.5-10.3,1.5c-5.3,3.6-0.3,12.3,5,8.6c1.6-1.1,6.5-0.1,8.5-0.2
			c3.3,0,6.7,0,10,0C180.4,199.8,180.4,189.8,173.9,189.8L173.9,189.8z"/>
	</g>
</g>
<g>
	<g>
		<path class="st1" d="M112.9,189.2c-4.1,0.5-8.1,0.5-12.2-0.4c-2.4-0.6-9-2.1-10.3-4.4c0.2,1.3,0.3,2.6,0.5,3.9
			c0.3-1.8,3.5-4.6,4.5-5.9c1.7-2.2,3.4-4.3,5.2-6.5c2.3-2.9,1.7-7.3-2.2-8.4c-4.8-1.3-9.4-1.4-14.2-0.4c-3.9,0.8-4.5,5.7-2.2,8.4
			c9.7,11.1,26.7,16.1,40.7,18.7c16,2.9,32.2,2.5,48-1.1c6.3-1.4,3.6-11.1-2.7-9.6c-14,3.2-28.5,3.7-42.7,1.1
			c-12.4-2.3-27.7-6.2-36.3-16.1c-0.7,2.8-1.5,5.6-2.2,8.4c3.1-0.6,5.9-0.5,8.9,0.4c-0.7-2.8-1.5-5.6-2.2-8.4
			c-3.7,4.6-7.9,9.1-11.1,14c-2.2,3.3-1.4,6.8,1.6,9.3c7.7,6.3,19.2,8.5,28.9,7.2C119.2,198.4,119.3,188.4,112.9,189.2L112.9,189.2z
			"/>
	</g>
</g>
<g>
	<g>
		<path class="st1" d="M197,183.9c2.9-6.4,8.5-10.3,12.9-15.4c4.6-5.4,7-12.4,12.1-17.3c-2.6-2-5.2-4-7.9-6.1
			c-5.2,9.8-11.5,18.6-19.1,26.6c2.8,1.6,5.6,3.2,8.4,4.9c1.9-4.8,3.8-9.7,5.7-14.5c1.5-3.8,3.6-7.7,4.4-11.7
			c0.2-0.9,0.1-8.7-2.3-8.4c-1,2.3-0.6,3.2,1.3,2.8c1.1,0,2.2,0,3.3,0.1c1.2,0,4.2-0.1,4.8,0.2c-0.8-1-1.5-2-2.3-3
			c-0.2-0.9-4.7,4.8-5.1,5.4c-1.9,2.4-3.8,4.8-5.7,7.2c-3.8,4.8-7.7,9.5-11.7,14.2c-7.9,9.3-16.3,18.2-25.3,26.4
			c-4.8,4.3,2.3,11.4,7.1,7.1c10.2-9.3,19.4-19.4,28.3-30c4.5-5.4,8.9-10.9,13.3-16.4c3-3.8,9.1-9.1,9.3-14.2
			c0.1-6.3-6.2-6.8-10.9-6.9c-5-0.1-11.1-0.9-14.5,3.8c-1.6,2.2-1.9,5.1-0.8,7.6c1.3,2.8,1.3,3,0.1,6.1c-2.8,7.3-5.7,14.5-8.6,21.7
			c-1.9,4.8,5.1,8.3,8.4,4.9c8.2-8.5,15.2-18.1,20.7-28.6c2.6-5-3.7-10.1-7.9-6.1c-5.5,5.3-8,12.8-13.1,18.4
			c-4.8,5.3-10.4,9.7-13.4,16.4C185.8,184.7,194.4,189.8,197,183.9L197,183.9z"/>
	</g>
</g>
<g>
	<g>
		<path class="st2" d="M58.4,154.4c1.3-0.1,2.8-0.4,4.1-0.4c1.2,0,2.2,0.4,2.7,1.6c0.2,0.7,0.2,1.6,0,2.3c-0.7,2.9-3.7,4.2-6.5,4.1
			c-0.6,0-0.6,1,0,1c3.5,0.1,7.1-1.8,7.6-5.5c0.2-1.5-0.2-3.3-1.5-4.1c-1.7-1.1-4.6-0.2-6.4-0.1C57.8,153.4,57.7,154.4,58.4,154.4
			L58.4,154.4z"/>
	</g>
</g>
<g>
	<g>
		<path class="st2" d="M58.7,159.6c2,0.1,4,0.1,6-0.2c0.6-0.1,0.4-1.1-0.3-1c-1.9,0.3-3.8,0.3-5.7,0.2C58,158.5,58,159.5,58.7,159.6
			L58.7,159.6z"/>
	</g>
</g>
<g>
	<g>
		<path class="st2" d="M75.1,154.5c-1.3,0-2.6-0.1-3.9,0c-0.7,0-1.2,0.2-1.6,0.7c-0.6,0.7-0.8,1.8-1.1,2.6c-0.2,0.8-0.5,1.8-0.4,2.6
			c0.7,3.4,6,1.6,7.6,0.2c0.5-0.4-0.2-1.1-0.7-0.7c-1.7,1.4-6.7,2.7-5.8-1.2c0.3-1.1,0.6-2.9,1.8-3.2c1.2-0.3,2.8,0,4,0
			C75.7,155.5,75.7,154.5,75.1,154.5L75.1,154.5z"/>
	</g>
</g>
<g>
	<g>
		<path class="st2" d="M79,155c0,2.3,0,4.7,0,7c0,0.6,1,0.6,1,0c0-2.3,0-4.7,0-7C80,154.4,79,154.4,79,155L79,155z"/>
	</g>
</g>
<g>
	<g>
		<path class="st2" d="M80.1,155.6c1-0.1,2-0.1,3-0.2c0.7,0,2.2-0.4,2.7,0.1c0.5,0.5,0.2,2,0.2,2.7c0,1,0,1.9,0,2.9c0,0.6,1,0.6,1,0
			c0-1.3,0-2.6,0-3.9c0-0.8,0.2-2-0.4-2.6c-0.6-0.6-1.6-0.3-2.3-0.3c-1.4,0.1-2.8,0.2-4.2,0.2C79.4,154.6,79.4,155.6,80.1,155.6
			L80.1,155.6z"/>
	</g>
</g>
<g>
	<g>
		<path class="st2" d="M91,155c0,2.2,0,4.5,0,6.7c0,0.6,1,0.6,1,0c0-2.2,0-4.5,0-6.7C92,154.4,91,154.4,91,155L91,155z"/>
	</g>
</g>
<g>
	<g>
		<path class="st2" d="M91.5,156.4c1.2-0.1,3.6-0.3,4.4,0.8c0.3,0.5,0.3,0.7-0.1,1.1c-0.3,0.3-0.7,0.5-1.1,0.6
			c-0.6,0.2-1.1,0.4-1.7,0.7c-0.6,0.3-0.1,1.2,0.5,0.9c1.3-0.7,4.3-1.3,3.6-3.5c-0.3-0.9-1.1-1.1-1.9-1.3c-1.2-0.3-2.5-0.3-3.7-0.2
			C90.8,155.5,90.8,156.5,91.5,156.4L91.5,156.4z"/>
	</g>
</g>
<g>
	<g>
		<path class="st2" d="M100.3,159.2c2.3,0.2,6,0.5,7.5-1.8c1.3-2.1-1.6-3-3.2-2.6c-2,0.4-3.8,2.3-3.7,4.5c0.2,2.8,4,2.8,6.1,2.6
			c0.6-0.1,0.6-1.1,0-1c-1.4,0.1-4,0.3-4.8-1.1c-0.9-1.6,0.6-3.3,2-3.9c0.5-0.2,1.6-0.5,2.1-0.2c0.3,0,0.4,0.3,0.3,0.8
			c0.3,0.6,0.1,1-0.5,1.1c-0.4,0.2-0.8,0.3-1.2,0.4c-1.5,0.4-3.1,0.2-4.6,0.1C99.6,158.2,99.6,159.2,100.3,159.2L100.3,159.2z"/>
	</g>
</g>
<g>
	<g>
		<path class="st2" d="M114.2,155c-1.5,1.1-3.5,3.3-3.1,5.3c0.4,2.1,4.4,1.4,5.7,0.9c0.6-0.2,0.3-1.2-0.3-1c-1,0.4-4.6,1.2-4.4-0.8
			c0.2-1.4,1.4-2.8,2.5-3.6C115.3,155.5,114.8,154.6,114.2,155L114.2,155z"/>
	</g>
</g>
<g>
	<g>
		<path class="st2" d="M124.7,156.1c-2.2-0.8-4.7,0.7-4.9,3c-0.2,2,1.6,5.1,4,4.2c0.6-0.2,0.3-1.2-0.3-1c-1.8,0.7-3-2.1-2.7-3.5
			c0.4-1.6,2.1-2.3,3.6-1.8C125,157.3,125.2,156.3,124.7,156.1L124.7,156.1z"/>
	</g>
</g>
<g>
	<g>
		<path class="st2" d="M130.2,157.5c-0.5,2.3,2.6,3.3,4.3,3.7c2,0.4,4.3-0.1,4.7-2.4c0.8-5.3-9.2-6.3-8-1.4c0.2,0.6,1.1,0.4,1-0.3
			c-0.6-2.5,2.8-2.2,4.1-1.6c1.5,0.7,2.7,2.6,1.4,4.1c-0.9,1-2.2,0.8-3.3,0.5c-1-0.2-3.5-0.9-3.2-2.4
			C131.3,157.2,130.4,156.9,130.2,157.5L130.2,157.5z"/>
	</g>
</g>
<g>
	<g>
		<path class="st2" d="M137.5,184.3c-2.8-0.9-5.6,0.3-7.4,2.5c-1.7,2.2-3.1,6.2-2.5,9c1.2,6,8.9-3.1,3.5-3.4c-0.6,0-0.6,1,0,1
			c0,0.8,0.1,1.7,0.1,2.5c-0.9-0.3-1.7-0.6-2.6-0.9c-0.2-0.4,0.2-1.7,0.2-2.1c0.2-1.3,0.5-2.5,1.1-3.7c1.3-2.9,4.2-5,7.4-4
			C137.9,185.4,138.1,184.4,137.5,184.3L137.5,184.3z"/>
	</g>
</g>
<g>
	<g>
		<path class="st2" d="M146.4,184.4c-3.2-0.4-3.4,5.7-2.2,7.5c1.6,2.4,5.4,2.5,7.5,0.7c2.1-1.8,3.6-6.6,1.3-8.8
			c-2.2-2.1-5.9-0.7-7.2,1.7c-0.3,0.6,0.6,1.1,0.9,0.5c0.9-1.6,3.7-3.2,5.4-1.7c1.8,1.5,1.1,4.9-0.1,6.6c-1.2,1.7-3.4,2.4-5.4,1.6
			c-1.2-0.5-1.9-1.5-2-2.9c-0.1-0.7,0.3-4.5,1.6-4.3C146.8,185.5,147,184.5,146.4,184.4L146.4,184.4z"/>
	</g>
</g>
<g>
	<g>
		<path class="st2" d="M165.6,186.3c0.1,1.2-0.1,2.3-0.6,3.5c-0.3,0.6,0.5,1.1,0.9,0.5c1.4-2.4,2.9-4.7,4.6-6.8
			c-0.3-0.1-0.6-0.1-0.8-0.2c0.4,1.9,0.6,3.8,0.4,5.8c0,0.4,0.5,0.7,0.8,0.4c2-1.5,3.7-3.3,5.2-5.4c-0.3-0.1-0.6-0.2-0.9-0.3
			c-0.3,2.4-1,4.6-2.3,6.6c-0.3,0.5,0.5,1,0.9,0.5c1.4-2.2,2.2-4.6,2.5-7.1c0.1-0.5-0.7-0.6-0.9-0.3c-1.3,2-2.9,3.6-4.8,5.1
			c0.3,0.1,0.5,0.3,0.8,0.4c0.2-2.1,0-4-0.5-6.1c-0.1-0.3-0.6-0.5-0.8-0.2c-1.8,2.2-3.3,4.6-4.7,7c0.3,0.2,0.6,0.3,0.9,0.5
			c0.6-1.3,0.8-2.5,0.7-4C166.6,185.7,165.6,185.7,165.6,186.3L165.6,186.3z"/>
	</g>
</g>
<g>
	<g>
		<path class="st2" d="M180,184c0,1.4,0,2.9,0,4.3c0.3,0,0.7,0,1,0c-0.1-2.5,0.3-4.8,1.2-7.2c-0.2,0.1-0.3,0.2-0.5,0.4
			c0.9,0,2,3.4,2.2,4c0.6,1.4,1.1,2.8,1.6,4.2c0.2,0.6,1.2,0.3,1-0.3c-0.7-2-1.5-4-2.4-5.9c-0.5-1.2-0.9-3-2.5-3
			c-0.2,0-0.4,0.2-0.5,0.4c-0.9,2.4-1.3,4.9-1.2,7.4c0,0.6,1,0.6,1,0c0-1.4,0-2.9,0-4.3C181,183.4,180,183.4,180,184L180,184z"/>
	</g>
</g>
</svg>
