<svg id="Слой_1" data-name="Слой 1" xmlns="http://www.w3.org/2000/svg" viewBox="0 0 215.92 13.35"><defs><style>.cls-1{fill:#333;}.cls-2{fill:#fff8e7;}</style></defs><title>foamedmilk</title><path class="cls-1" d="M25.92,115.23c9.7-2.12,19.54-1.59,29.43-2.41,13-1.07,26.09-1,39.15-.93l108.29.59c10.9.06,18.11,1.06,29.31,1.83" transform="translate(-20.99 -106.81)"/><path class="cls-2" d="M27.24,120c8.66-1.75,17.48-1.52,26.25-2.09,8.45-.55,16.86-1,25.33-1.08,17.36-.15,34.74.12,52.1.21,33.78.18,67.48-.17,101.17,2.22,6.42.46,6.39-9.55,0-10-34.35-2.44-68.71-2-103.14-2.23-17.68-.1-35.39-.42-53.07-.17-8.73.13-17.39.83-26.1,1.25-8.46.4-16.87.56-25.2,2.24-6.3,1.27-3.64,10.91,2.66,9.64Z" transform="translate(-20.99 -106.81)"/><path class="cls-1" d="M73,110.8a24.05,24.05,0,0,1,.46,5.33.5.5,0,0,0,1,0,25.28,25.28,0,0,0-.5-5.59c-.13-.63-1.09-.36-1,.27Z" transform="translate(-20.99 -106.81)"/><path class="cls-1" d="M73.8,110.67c1.46-.71,4-.78,4.43,1.25s-2.36,2.88-3.86,2.72c-.64-.07-.63.93,0,1,2.23.24,5.48-1.3,4.83-4s-3.84-2.85-5.9-1.85c-.58.28-.07,1.15.5.86Z" transform="translate(-20.99 -106.81)"/><path class="cls-1" d="M81.83,109.59a3.54,3.54,0,0,0-1.16,4c.45,1.16,1.71,2.37,3.06,1.94s1.78-2.69,1.71-3.87a2.33,2.33,0,0,0-2.65-2.3c-.63.11-.36,1.07.27,1,2.36-.4,1.41,5.1-.48,4.11-1.68-.88-1.3-3.17,0-4.17.5-.4-.21-1.11-.71-.71Z" transform="translate(-20.99 -106.81)"/><path class="cls-1" d="M102.23,109.59a3.54,3.54,0,0,0-1.16,4c.45,1.16,1.71,2.37,3.06,1.94s1.78-2.69,1.71-3.87a2.33,2.33,0,0,0-2.65-2.3c-.63.11-.36,1.07.27,1,2.36-.4,1.41,5.1-.48,4.11-1.68-.88-1.3-3.17,0-4.17.5-.4-.21-1.11-.71-.71Z" transform="translate(-20.99 -106.81)"/><path class="cls-1" d="M88.57,109.89a15.75,15.75,0,0,0,.07,3.33,5,5,0,0,0,.61,2.38c.82,1,2.07-.14,2.58-.89.36-.53-.5-1-.86-.5a1.87,1.87,0,0,1-.64.64q-.55,0-.5-.53a5.33,5.33,0,0,1-.25-1.51,15.49,15.49,0,0,1,0-2.91c.05-.64-.95-.64-1,0Z" transform="translate(-20.99 -106.81)"/><path class="cls-1" d="M86.85,112.49l3.83-.49c.63-.08.64-1.08,0-1l-3.83.49c-.63.08-.64,1.08,0,1Z" transform="translate(-20.99 -106.81)"/><path class="cls-1" d="M108.24,115.24a22.33,22.33,0,0,1,0-2.8,13.33,13.33,0,0,1,.2-1.72l.07-.37q.1-1.21,1.14-.1c-.39.51.48,1,.86.5a1.49,1.49,0,0,0-2-2.17c-.86.43-1,1.47-1.16,2.33a21.59,21.59,0,0,0-.17,4.33c0,.64,1,.64,1,0Z" transform="translate(-20.99 -106.81)"/><path class="cls-1" d="M106.66,112.76l2.48-.23c.64-.06.64-1.06,0-1l-2.48.23c-.64.06-.64,1.06,0,1Z" transform="translate(-20.99 -106.81)"/><path class="cls-1" d="M125,109.56a3.54,3.54,0,0,0-1.16,4c.45,1.16,1.71,2.37,3.06,1.94s1.78-2.69,1.71-3.87a2.33,2.33,0,0,0-2.65-2.3c-.63.11-.36,1.07.27,1,2.36-.4,1.41,5.1-.48,4.11-1.68-.88-1.3-3.17,0-4.17.5-.4-.21-1.11-.71-.71Z" transform="translate(-20.99 -106.81)"/><path class="cls-1" d="M120.09,115.21a22.33,22.33,0,0,1,0-2.8,13.33,13.33,0,0,1,.2-1.72l.07-.37q.1-1.21,1.14-.1c-.39.51.48,1,.86.5a1.49,1.49,0,0,0-2-2.17c-.86.43-1,1.47-1.16,2.33a21.59,21.59,0,0,0-.17,4.33c0,.64,1,.64,1,0Z" transform="translate(-20.99 -106.81)"/><path class="cls-1" d="M118.51,112.73l2.48-.23c.64-.06.64-1.06,0-1l-2.48.23c-.64.06-.64,1.06,0,1Z" transform="translate(-20.99 -106.81)"/><path class="cls-1" d="M133.37,111.53c-1.42-.92-3.3.35-3.51,1.89-.32,2.29,2.57,2.05,3.86,1.25.55-.34,0-1.2-.5-.86s-2.74,1-2.33-.44c.22-.79,1.22-1.46,2-1,.54.35,1-.51.5-.86Z" transform="translate(-20.99 -106.81)"/><path class="cls-1" d="M130.73,110.52a.93.93,0,0,1,1.17-.66,1.58,1.58,0,0,1,1,1.31c.23,1-.25,2.07,0,3.07s2,1.76,2.62.55c.3-.57-.56-1.07-.86-.5q-.39.33-.59-.09a.66.66,0,0,1-.25-.75,6.39,6.39,0,0,1,.06-.68,6.27,6.27,0,0,0,0-1.53,2.94,2.94,0,0,0-1.09-2,2,2,0,0,0-3.1,1c-.12.63.84.9,1,.27Z" transform="translate(-20.99 -106.81)"/><path class="cls-1" d="M137.34,109.69l-.13,4.85,1-.13c-.15-.91,0-2.58.83-3.19,1.84-1.29,1,2.51.89,2.86h1c-.18-1-.36-3.54,1.5-3.22,1.19.2.75,2.57.68,3.37-.06.64.94.64,1,0,.16-1.73.46-4.64-2.06-4.33-2.3.28-2.4,2.59-2.08,4.45.09.5.84.45,1,0,.33-1.23,1-4.87-1.43-4.47-2,.34-2.49,3.18-2.22,4.8.1.57,1,.41,1-.13l.13-4.85a.5.5,0,0,0-1,0Z" transform="translate(-20.99 -106.81)"/><path class="cls-1" d="M162.38,109.93l-.13,4.85,1-.13c-.15-.91,0-2.58.83-3.19,1.84-1.29,1,2.51.89,2.86h1c-.18-1-.36-3.54,1.5-3.22,1.19.2.75,2.57.68,3.37-.06.64.94.64,1,0,.16-1.73.46-4.64-2.06-4.33-2.3.28-2.4,2.59-2.08,4.45.09.5.84.45,1,0,.33-1.23,1-4.87-1.43-4.47-2,.34-2.49,3.18-2.22,4.8.1.57,1,.41,1-.13l.13-4.85a.5.5,0,0,0-1,0Z" transform="translate(-20.99 -106.81)"/><path class="cls-1" d="M146.58,112.86c1.21.16,3.53-.27,3.34-2-.14-1.2-2.09-1.61-3-1a3.39,3.39,0,0,0-.62,4.2,2,2,0,0,0,3.26.06c.37-.53-.5-1-.86-.5-.49.72-1.42.29-1.72-.36a2.53,2.53,0,0,1,.26-2.22,1,1,0,0,1,1.29-.35c.47.25.19.66-.16.89a2.4,2.4,0,0,1-1.58.26c-.63-.09-.9.88-.27,1Z" transform="translate(-20.99 -106.81)"/><path class="cls-1" d="M153.24,111c-2.25-.26-3.61,3.2-1.25,4,.88.29,1.46-.33,1.75-1.1a17.6,17.6,0,0,0,.79-5.26h-1a16.82,16.82,0,0,1-.26,3.17,3.94,3.94,0,0,0-.11,2.25,1.31,1.31,0,0,0,2.13.49c.47-.44-.24-1.15-.71-.71a1,1,0,0,1-.47-1.16l.13-.61q.09-.47.15-1a17.82,17.82,0,0,0,.14-2.49.5.5,0,0,0-1,0,22.87,22.87,0,0,1-.47,3.85c-.07.32-.29,2.24-1.23,1-.72-1,.85-1.53,1.41-1.46s.63-.93,0-1Z" transform="translate(-20.99 -106.81)"/><path class="cls-1" d="M170.81,110.6v4.16a.5.5,0,0,0,1,0V110.6a.5.5,0,0,0-1,0Z" transform="translate(-20.99 -106.81)"/><path class="cls-1" d="M171.31,109.49a.5.5,0,0,0,0-1,.5.5,0,0,0,0,1Z" transform="translate(-20.99 -106.81)"/><path class="cls-1" d="M173.48,108.7c0,1,0,2.07,0,3.1a9.52,9.52,0,0,0-.06,2.48c.2.82,1.17,1.33,1.78.57.4-.5-.31-1.21-.71-.71a9.14,9.14,0,0,1-.07-1c0-.52.05-1,.07-1.55,0-1,0-1.92,0-2.88a.5.5,0,0,0-1,0Z" transform="translate(-20.99 -106.81)"/><path class="cls-1" d="M176.51,108.58q0,3.15,0,6.3a.5.5,0,0,0,1,0q0-3.15,0-6.3a.5.5,0,0,0-1,0Z" transform="translate(-20.99 -106.81)"/><path class="cls-1" d="M177.59,113.09a5.49,5.49,0,0,0,2-1.94c.34-.55-.53-1.05-.86-.5a4.45,4.45,0,0,1-1.64,1.58.5.5,0,0,0,.5.86Z" transform="translate(-20.99 -106.81)"/><path class="cls-1" d="M176.95,113.16A5.06,5.06,0,0,0,178,114c.36.23.73.46.82.91.13.63,1.1.36,1-.27-.24-1.15-1.46-1.41-2.15-2.2-.42-.49-1.13.22-.71.71Z" transform="translate(-20.99 -106.81)"/></svg>