<svg id="Слой_1" data-name="Слой 1" xmlns="http://www.w3.org/2000/svg" viewBox="0 0 231.23 67.66"><defs><style>.cls-1{fill:#f4f0ec;}.cls-2{fill:#333;}</style></defs><title>foamedmilk</title><path class="cls-1" d="M47.62,83.08a138.65,138.65,0,0,1,16.61.07c3.34.16,5.9-.25,8-3,1.94-2.57-2.4-5.07-4.32-2.52-1.27,1.69-7.88.24-9.46.19a107.5,107.5,0,0,0-10.8.27c-3.19.23-3.22,5.23,0,5Z" transform="translate(-13.29 -36.08)"/><path class="cls-1" d="M20,95.66l-1.3-31.95c-.19-4.56-1.87-12.14,1.16-15.87,3.32-4.09,10.7-2.27,15.42-2,20.83,1.33,41.57,1.52,62.43.85l15.9-.51c4.37-.13,8.7,1.33,13,.86,2-.22,4-1.14,6.08-1.11,2.26,0,4.6,1.09,6.87,1.33,5.06.52,10-.78,14.88-2.08,10.95-2.94,20.92-2.94,32-.85,10,1.88,19.3,4.75,29.49,3.72,2.89-.29,4.66.17,7.6.93,2.18.56,3.25.06,5.35-.07,8.31-.54,7.86,8.33,7.79,14.52q-.22,18.87-.47,37.74l4.27-1.77c-8-9.71-23.1-8.9-34.45-9.3q-12.56-.45-25.14-.07c-8.1.24-16.22,1.2-24.32,1.15-7.89,0-15.3-2.7-23.1-3.41-8.41-.77-16.64.19-25.06-1-7.44-1-13.11,2.08-20.24,3.43-8.26,1.56-17,1.69-25.41,1.48-9.32-.24-18.14-2.33-27.33-3.48-6.87-.86-13.44.09-18.93,4.52-2.51,2,1.05,5.54,3.54,3.54,8.4-6.77,20.49-1.77,29.94-.54a143.68,143.68,0,0,0,26.81.71,101.68,101.68,0,0,0,11.79-1.22c4.43-.78,8.53-2.86,12.94-3.6s8.94.73,13.4,1.06c4.95.37,9.9-.2,14.85-.1,9.08.19,17.68,3.54,26.8,3.6,9.39.06,18.8-1.06,28.19-1.25q14.5-.29,29,.52c8.16.45,17.56.66,23.18,7.48,1.44,1.75,4.24.25,4.27-1.77q.24-18.87.47-37.74c.09-7.35-.31-18.31-9.67-19.76-1.62-.25-2.92.34-4.45.41-2.9.13-5.31-1.18-8.16-1.27-2.33-.07-4.63.5-6.95.65a40.7,40.7,0,0,1-10.74-1c-11-2.23-22.07-5.25-33.39-4.8a69.16,69.16,0,0,0-15.25,2.73,46.8,46.8,0,0,1-10,2c-3,.13-5.76-.84-8.7-1.23-2.73-.37-4.54.36-7.19.73s-4.56-.24-7-.59c-6-.84-12.48.09-18.51.29-23.8.77-47.4.54-71.17-1-4.43-.3-9.38-.58-13.13,2.24S13.23,50,13.3,54.2C13.55,68,14.42,81.86,15,95.66c.13,3.21,5.13,3.22,5,0Z" transform="translate(-13.29 -36.08)"/><path class="cls-1" d="M45.56,71.45c-.91,4.25-.55,9.61,4.72,10.4,5.57.83,11.65-2.73,15.33-6.6a2.53,2.53,0,0,0-.51-3.93,13,13,0,0,0-15.86,2.23,2.55,2.55,0,0,0,.51,3.93,13.65,13.65,0,0,0,8.7,2.81c3.22,0,3.22-5,0-5a9.38,9.38,0,0,1-6.18-2.13l.51,3.93a8,8,0,0,1,9.8-1.45l-.51-3.93a16.48,16.48,0,0,1-7.37,4.67c-1.29.38-3.68,1.29-4.56-.3-.44-.8.07-2.49.24-3.3.67-3.14-4.15-4.48-4.82-1.33Z" transform="translate(-13.29 -36.08)"/><path class="cls-1" d="M41.75,77.75a128.16,128.16,0,0,1,36.8-.19l1.6-11.79c-8.9.6-17.76.71-26.67.54-7.33-.14-14.56.25-21,4.22-4.77,3-3.18,9,1.43,11a57.91,57.91,0,0,0,7,2.4l1.6-11.79A52.2,52.2,0,0,0,19,79.2l7.27,9.42a5.17,5.17,0,0,1,6.15-.53l3-11.18A52.53,52.53,0,0,0,17.82,81.7c-4.79,2.23-3.27,9.73,1.43,11A176,176,0,0,0,85,97.28c7.57-.91,7.66-12.92,0-12a166.88,166.88,0,0,1-62.52-4.19l1.43,11a35.35,35.35,0,0,1,11.55-3.15c5.53-.53,8.66-8.08,3-11.18a17.55,17.55,0,0,0-20.69,2.4c-5.18,4.56,1.48,12.81,7.27,9.42a38.9,38.9,0,0,1,17.48-5.44c6.56-.41,8.38-9.91,1.6-11.79a57.91,57.91,0,0,1-7-2.4l1.43,11C44.1,77.47,50.73,78.29,57,78.4c7.74.14,15.47-.1,23.18-.62C86.41,77.35,88.86,67,81.74,66a148.22,148.22,0,0,0-43.18.19C31,67.32,34.19,78.89,41.75,77.75Z" transform="translate(-13.29 -36.08)"/><path class="cls-1" d="M79.7,95.42c2.58-1.33,5.69-3.19,8.69-3.12,2.54.06,4.77,1.6,7.09,2.44,4.22,1.53,9.06,1.39,12.37-2,2-2,.21-.22-.18-.78a10,10,0,0,0,2.56,1.51A18.36,18.36,0,0,0,117.3,96c5.18.57,9.38-1.78,14.2.69s8,1.3,13.1.56c5.58-.81,12.29,1.24,17.9,1.78a261.22,261.22,0,0,0,39,.77c7.68-.41,7.73-12.41,0-12a261.22,261.22,0,0,1-39-.77c-6.08-.59-12.61-2.38-18.72-1.8-1.95.19-4.54,1.54-6.23,1.09-2.59-.68-4.56-2.53-7.37-2.94-5.08-.75-9.91,2-14.55-.67-4.37-2.55-8.93-4.13-13.5-1-2.3,1.56-1.4,2.42-4,1.25a26.18,26.18,0,0,0-7.22-2.41C84.73,79.66,79,82.3,73.64,85.06c-6.86,3.55-.8,13.9,6.06,10.36Z" transform="translate(-13.29 -36.08)"/><path class="cls-1" d="M203.43,98.52c4.53-.85,7.17,1.8,11.24,2.87s9.18,0,13.45-.26c7.66-.56,7.72-12.56,0-12-2.48.18-5,.38-7.45.54-2.7.17-3.82-.44-6.26-1.49A23.74,23.74,0,0,0,200.24,87c-7.58,1.42-4.37,13,3.19,11.57Z" transform="translate(-13.29 -36.08)"/><path class="cls-1" d="M65.36,74.72l-18.94-.09c-7.75,0-7.69,11.67,0,12a314.78,314.78,0,0,0,42.14-1c6.32-.58,8.64-10.15,1.6-11.79-11.08-2.57-22.32-2.21-33.61-2.14A110.93,110.93,0,0,1,40.6,71c-1.74-.24-14.36-2.22-14.39-4.64h-12l.52,9.13,11.79-1.6c-.9-4.8-2.22-10.47-.24-15.16a8.33,8.33,0,0,1,3.26-4c.35-.2,2.64-.74,2.68-.79l.14-4.6-1.1.57c-3.49.36-6.91,4.95-8.06,7.82a12.2,12.2,0,0,0,1,11.32c4.2,6.21,14.61,7.06,18.73.28,4.24-7-1-15.56-8.78-16l4.24,10.24c.87-.95,1.07-1.22,2.36-.89l3.19-11.57c-2.3-.59-5.93-1.28-8.21-.18q-2.62-.47-.29,1.83.34,2.64,2.24,1.4a23.41,23.41,0,0,0,3.52-.32c5.52-.15,10.38-.19,15.5-2.48l-7.27-9.42c-.91.74-2.38,1.32-3.11,2.13a.77.77,0,0,0-.74.55,1.65,1.65,0,0,0,0,1.59H35.21c5,9,17.31,12.46,26.16,7,.58-.36,3.32-2.14,3.26-2.55.06.36-4.89-2.4-2.2,1.47A10.26,10.26,0,0,0,68,56.31a10.85,10.85,0,0,0,6.92-.52c2-.73,3.88-2.57,5.87-3.12s.82-.22,3,.85a9.66,9.66,0,0,0,7.75.34c2.65-1,4.28-3,6.49-4.62,2.54-1.84,5-.89,7.67.33,5.26,2.38,9.84,5.48,15.79,5.9,5.66.4,10-1.74,13.39-6.17,4.7-6.12-5.72-12.11-10.36-6.06-1.53,2-7.75-1.39-9.21-2.17-4.35-2.33-9-4.76-14-5-4.1-.18-10.41,1.71-12.7,5.53-.7,1.17-1.3.55.24,1-.77-.21-1.83-1.28-2.64-1.63a10.43,10.43,0,0,0-5.87-.72A16.62,16.62,0,0,0,75.17,42c-.78.4-4.34,1.89-4.72,2.68-.22.46,1.62.5,1.74.34s-1.41-2.3-1.62-2.57A8.92,8.92,0,0,0,65,39c-5.2-.92-7.1,3.32-11.39,4.61a7,7,0,0,1-8-3.46c-2.34-4.24-7.87-3.5-10.36,0-3.76,5.28-.8,12.17,4.45,15.08,6.52,3.62,13.23-.74,18.23-4.81,5.71-4.64-1.58-12-7.27-9.42-4.11,1.83-9.54.57-13.94,1.21s-9.1,2.65-11.37,6.67a9.17,9.17,0,0,0,1.62,11.3,11.13,11.13,0,0,0,6.31,2.65c2.49.3,5.07-.77,7.49-.15,7.48,1.93,10.67-9.63,3.19-11.57a13.77,13.77,0,0,0-14,4,6.08,6.08,0,0,0,4.24,10.24c-4.68-.26,1.93-4.37,3.19-5,2.71-1.46,5.19-3.53,5.85-6.7C44.69,46.21,37.4,41.66,30.88,42c-6.74.35-12.61,5.43-15.33,11.37-3.46,7.53-2.08,15.88-.61,23.71,1.25,6.62,12.17,5.14,11.79-1.6l-.52-9.13c-.44-7.65-12.11-7.78-12,0,.2,13.78,20.19,16.32,30.55,17.06,14.06,1,28.34-1.22,42.21,2l1.6-11.79a314.78,314.78,0,0,1-42.14,1v12l18.94.09c7.72,0,7.73-12,0-12Z" transform="translate(-13.29 -36.08)"/><path class="cls-1" d="M26.34,50c-.42,1.46-.77.36.64.7a16.86,16.86,0,0,0,3.47,0q4.85,0,9.69.24,9.36.46,18.65,1.82V41.19q-2.12.59.14.58L48.56,47.82c5.31,7,11.48,5.56,19.1,4,7.29-1.53,17.55,6.45,23.23,10.47l1.43-11c-9.91,3.44-20.19,1.42-30.39.8-7.72-.47-22-1.58-24.71,8.05-1.31,4.67-.91,10.31-.84,15.11,0,1.21-.38,3.47.15,4.61v1.21l7.33.95c1.67-.8,3.27-3.21,4.94-4.29,7.77-5,17.46-6.36,26.46-7.5,3-.38,5.46-2,5.89-5.2.36-2.66-1.35-6.14-4.3-6.58l-8.57-1.29C60.74,56,57.48,67.59,65.1,68.73L73.67,70l1.6-11.79c-11.33,1.43-23.43,3-33.14,9.53C37.48,70.9,31.65,75.7,31.6,81.84c0,5.68,5.7,10.36,11.16,8.35,6.07-2.23,5.75-8.68,5.63-14-.05-2.34-1-9,.26-11.07l-.4-.47a18.46,18.46,0,0,1,2.55-.44,43.13,43.13,0,0,1,5.13-.3c13.33-.13,26.56,3.47,39.58-1.05,5.08-1.76,5.71-7.94,1.43-11A93,93,0,0,0,77.18,41a19,19,0,0,0-10.1-1.37c-1.79.28-3.45.92-5.2,1.31-1.15.26-3.48.12-3,.81-4.54-6-14.44-.78-10.36,6.06,2.72,4.57,8.29,7.09,13.41,4.94,4.64-2,6.66-10.59,0-11.57A218,218,0,0,0,32.38,38.7c-7-.07-15.31.13-17.61,8.14C12.63,54.28,24.21,57.45,26.34,50Z" transform="translate(-13.29 -36.08)"/><path class="cls-1" d="M60.92,68.49l61.49-.42-1.6-11.79-56.45,8.4c-6.36.95-5,9.85,0,11.57,18,6.17,37.06,6.48,55.86,6.55v-12c-10.93.74-21.93,1.61-32.34,5.26-6.36,2.23-5.33,11.44,1.6,11.79a340,340,0,0,0,67.11-3.43c7.61-1.13,4.38-12.7-3.19-11.57a324.33,324.33,0,0,1-63.92,3l1.6,11.79c9.45-3.31,19.22-4.15,29.15-4.83,7.63-.52,7.81-12,0-12-17.8-.07-35.66-.28-52.67-6.12V76.26L124,67.86c6.79-1,5-11.83-1.6-11.79l-61.49.42c-7.72.05-7.74,12.05,0,12Z" transform="translate(-13.29 -36.08)"/><path class="cls-1" d="M115.23,59.86c-8.19.62-13.73-5.34-19-10.8l-2.65,10A42.52,42.52,0,0,1,111,55.49c5.74.11,11.35,1.71,17-.2,2.41-.82,4.52-2.38,6.9-3.21s3.82,0,5.86,1.38c4.83,3.19,9.34,5.45,15.23,4,7.49-1.88,4.31-13.46-3.19-11.57-2.31.58-4.87-2.11-6.64-3.2a19.18,19.18,0,0,0-7.07-2.88c-5.59-.89-9.35,2.16-14.29,3.95s-11.21-.4-16.45-.19a51.66,51.66,0,0,0-17.94,4c-4.08,1.71-6.07,6.47-2.65,10,7.42,7.72,16,15.17,27.47,14.31,7.65-.58,7.72-12.58,0-12Z" transform="translate(-13.29 -36.08)"/><path class="cls-1" d="M116.22,46.86c-4.57-.7-8.69-.23-12.6,2.37s-4,9.94,1.43,11c21.35,4,42.61.84,63.8-2.69l-3.19-11.57a461.41,461.41,0,0,0-46,16.39c-4.84,2-6.5,10.26,0,11.57A121.29,121.29,0,0,0,150,76.23v-12l-36.19,4c-7.66.85-7.77,11.25,0,12a496.27,496.27,0,0,0,64.21,2l-1.6-11.79A237.55,237.55,0,0,0,153,77.65a6.06,6.06,0,0,0,0,11.57,48.79,48.79,0,0,0,14,2.85v-12l-5.44.07c-7.76.09-7.68,11.59,0,12a291.74,291.74,0,0,0,51.11-1.73c6.16-.75,8.79-10.14,1.6-11.79A472.43,472.43,0,0,1,152.68,60l-1.6,11.79L175,70c7.66-.59,7.77-11.58,0-12a226.56,226.56,0,0,1-28.2-3.23c-.69-.13-5.25-1.63-5.75-1.33l.88,3.31a10.11,10.11,0,0,1,1.78-2.16A15.94,15.94,0,0,1,149,51q1.28-.45,2.58-.79,1.81.37.15-1.6c-.4,5.52,6.66,7.46,10.24,4.24a20.87,20.87,0,0,1,4-3.1c.77-.41,2.66-.51,2.81-1.48-.76,4.65,4.05,10,8.81,6.78,2.44-1.67,5.65-4.36,8.8-4.28,2.56.06,3.28,2.34,5.3,3.53,6,3.52,9.27-3.88,14.87-1.66,7.18,2.85,10.29-8.75,3.19-11.57A15.88,15.88,0,0,0,198.22,41c-.64.24-5.21,2.27-5,3.09-.25-1.27,5.68,2.44,4.41-.66-.37-.9-1.9-1.74-2.64-2.22-7.83-5-16.53-1.21-23.42,3.5l8.81,6.78a12,12,0,0,0-9.21-14.11c-6.85-1.78-12.84,2.72-17.62,7l10.24,4.24c.57-7.95-8.25-11.38-14.89-10-7.07,1.42-16.32,7.13-18.34,14.55-2.62,9.63,8,12.25,15,13.46A253.94,253.94,0,0,0,175,70V58l-23.94,1.84c-6.88.53-8,9.37-1.6,11.79A472.43,472.43,0,0,0,211.1,90.18l1.6-11.79a291.74,291.74,0,0,1-51.11,1.73v12l5.44-.07c7.78-.09,7.66-11.51,0-12a37.61,37.61,0,0,1-10.82-2.42V89.22A237.55,237.55,0,0,1,179.63,82c6.5-1.63,5.23-12-1.6-11.79a496.27,496.27,0,0,1-64.21-2v12l36.19-4c7.49-.83,7.86-12.41,0-12a108.22,108.22,0,0,1-27.19-1.91V73.89a461.41,461.41,0,0,1,46-16.39c7.54-2.24,4.3-12.82-3.19-11.57-18.91,3.16-38.34,6.31-57.42,2.69l1.43,11A4.66,4.66,0,0,1,113,58.43c7.55,1.15,10.81-10.41,3.19-11.57Z" transform="translate(-13.29 -36.08)"/><path class="cls-1" d="M190.91,48.35a116.5,116.5,0,0,0-12.86,0c-3.12.19-6.84.14-9.67,1.67-6,3.24-5,10.85.26,14.21,5.72,3.64,13.19,5.74,19.58,7.84,7.57,2.48,15.27,4.54,23,6.59l1.6-11.79-25.52.81c-7.13.23-7.68,9.34-1.6,11.79a114,114,0,0,0,16.55,5.31q4,.94,8.09,1.58c2.08.32,6-.06,7.7.92l-2.76-3.59q2.43-4.53,0-2.38a7.64,7.64,0,0,0-2,1.8,6.08,6.08,0,0,0,4.24,10.24,29.51,29.51,0,0,1,11.5,2.82c3.85,1.83,9.26-.29,9-5.18a89.13,89.13,0,0,1,3-27.71H229.34a91.24,91.24,0,0,1,1.49,20.31c-.26,7.78,11.45,7.63,12,0,.94-13,6.87-34.39-11-37.69-15.74-2.91-32-.06-46.51,6.33-3.49,1.53-3.84,7-1.21,9.42,7.18,6.52,16.63,7,25.87,7.21q4.22.11,8.45,0c1.24,0,3.23.66,2-.56-1.67-1.72-.64,3-.34,3.63v1.92l3.81-3.8L222.45,70q-2.45-1.41-1.26,1.22c.25,2.7.7,1.09,1.74-.06s2.05-2.2,3-3.34c4.56-5.29,14.18-17.33,2.34-21-9.16-2.83-19.3.8-26.1,7-2.41,2.21-2.19,6.24,0,8.49a9.44,9.44,0,0,0,7.74,3.11c7.67-.46,7.73-12.46,0-12l.74.4V62.3c2.74-2.51,10.39-6.65,14.11-3.9L222,54.82c-.49-1.6.33-1.53-1,0-1,1.2-1.93,2.54-3,3.76-1.66,2-3.56,3.76-5.2,5.75-2.66,3.23-4.36,7.41-2.34,11.42,3.34,6.65,17.83,9.73,21,1.46,1.51-3.92.71-9.75-.51-13.66-1.43-4.62-5.15-6.58-9.76-6.7-5.32-.14-10.63.12-15.95-.16-4.34-.23-9.31-.43-12.69-3.51l-1.21,9.42a69.34,69.34,0,0,1,33.84-5.51c1.58.14,5.08,0,6.37,1.1,1.59,1.41.67,5.12.54,7-.43,6.14-.89,12.29-1.34,18.43h12a105.88,105.88,0,0,0-1.92-23.5c-1.14-6-10.1-5.45-11.57,0A100.43,100.43,0,0,0,226,91l9-5.18a44.73,44.73,0,0,0-17.56-4.46l4.24,10.24c2.64-2.91,6.13-4.59,5.59-9.28-.52-4.48-4-6.37-8.11-6.86a118,118,0,0,1-30.31-7.55l-1.6,11.79,25.52-.81c6.64-.21,8.3-10,1.6-11.79S200.74,63.49,194,61.38c-3.21-1-6.4-2.08-9.55-3.26-1.8-.67-3.6-1.37-5.37-2.12l-1.68-.74q-2.75-2-1.22,1.06l-1.76,4.24c.53-.67,6.83-.34,7.56-.36,3-.07,5.94,0,8.91.14,7.72.37,7.7-11.63,0-12Z" transform="translate(-13.29 -36.08)"/><path class="cls-2" d="M74.84,55.59a7.22,7.22,0,0,0-2.37,8.23c.91,2.37,3.48,4.81,6.23,4s3.62-5.5,3.49-7.88A4.74,4.74,0,0,0,76.8,55.2c-1.27.21-.73,2.14.53,1.93,4.86-.82,2.92,10.48-1,8.44-3.45-1.81-2.67-6.5-.09-8.56,1-.8-.42-2.21-1.41-1.41Z" transform="translate(-13.29 -36.08)"/><path class="cls-2" d="M64.85,67.12a45.63,45.63,0,0,1,0-5.73,27.25,27.25,0,0,1,.41-3.53l.14-.75q.22-2.49,2.38-.18c-.77,1,1,2,1.73,1,2-2.68-1.1-5.84-4-4.4-1.76.88-2.1,3-2.35,4.74a44.1,44.1,0,0,0-.34,8.85c.07,1.28,2.07,1.29,2,0Z" transform="translate(-13.29 -36.08)"/><path class="cls-2" d="M61.65,62l5.07-.46c1.27-.12,1.28-2.12,0-2L61.65,60c-1.27.12-1.28,2.12,0,2Z" transform="translate(-13.29 -36.08)"/><path class="cls-2" d="M92,59.62c-2.89-1.88-6.7.72-7.13,3.84-.64,4.65,5.24,4.16,7.86,2.53,1.09-.68.09-2.41-1-1.73-1.28.79-5.64,2.06-4.79-.92.46-1.62,2.51-3,4.07-2,1.08.7,2.09-1,1-1.73Z" transform="translate(-13.29 -36.08)"/><path class="cls-2" d="M86.58,57.53A1.92,1.92,0,0,1,89,56.17a3.26,3.26,0,0,1,2.13,2.68c.47,2.09-.51,4.22.08,6.28.64,2.27,4,3.57,5.32,1.13.6-1.14-1.12-2.15-1.73-1q-.83.69-1.24-.19A1.37,1.37,0,0,1,93,63.52a13.07,13.07,0,0,1,.12-1.39,12.8,12.8,0,0,0,0-3.11A6,6,0,0,0,91,54.9c-2.17-1.54-5.77-.71-6.31,2.09-.24,1.26,1.68,1.8,1.93.53Z" transform="translate(-13.29 -36.08)"/><path class="cls-2" d="M100.14,55.85l-.26,9.92,2-.27c-.31-1.86-.08-5.29,1.71-6.54,3.81-2.67,2.05,5.14,1.86,5.87h1.93c-.36-2.13-.74-7.26,3.08-6.61,2.45.41,1.55,5.26,1.41,6.91-.12,1.28,1.89,1.27,2,0,.32-3.52.95-9.46-4.18-8.83-4.69.57-4.89,5.28-4.24,9.07.17,1,1.69.9,1.93,0,.67-2.5,1.95-9.92-2.91-9.11-4.09.69-5.07,6.48-4.52,9.78.19,1.14,1.94.82,2-.27l.26-9.92a1,1,0,0,0-2,0Z" transform="translate(-13.29 -36.08)"/><path class="cls-2" d="M151.3,56.33,151,66.25l2-.27c-.31-1.86-.08-5.29,1.71-6.54,3.81-2.67,2.05,5.14,1.86,5.87h1.93c-.36-2.13-.74-7.26,3.08-6.61,2.45.41,1.55,5.26,1.41,6.91-.12,1.28,1.89,1.27,2,0,.32-3.52.95-9.46-4.18-8.83-4.69.57-4.89,5.28-4.24,9.07.17,1,1.69.9,1.93,0,.67-2.5,1.95-9.92-2.91-9.11-4.09.69-5.07,6.48-4.52,9.78.19,1.14,1.94.82,2-.27l.26-9.92a1,1,0,0,0-2,0Z" transform="translate(-13.29 -36.08)"/><path class="cls-2" d="M119,62.3c2.45.33,7.18-.55,6.8-4-.27-2.43-4.25-3.28-6-2-2.38,1.73-2.88,6.23-1.25,8.55a4,4,0,0,0,6.63.13c.73-1.06-1-2.06-1.73-1-1,1.48-2.93.6-3.54-.73a5.19,5.19,0,0,1,.54-4.56A2,2,0,0,1,123.1,58c1,.51.4,1.38-.32,1.86a4.93,4.93,0,0,1-3.25.54c-1.26-.17-1.8,1.76-.53,1.93Z" transform="translate(-13.29 -36.08)"/><path class="cls-2" d="M132.61,58.57c-4.58-.52-7.35,6.5-2.54,8.09,1.78.59,3-.68,3.53-2.23,1.23-3.29,1.47-7.26,1.61-10.74h-2a34.41,34.41,0,0,1-.54,6.49c-.27,1.47-.86,3.12-.23,4.59a2.66,2.66,0,0,0,4.31,1c.94-.89-.48-2.3-1.41-1.41-1.7,1.6-.74-3.63-.74-3.64q.18-1,.31-1.94a36.39,36.39,0,0,0,.3-5.08,1,1,0,0,0-2,0,46.77,46.77,0,0,1-1,7.87c-.14.66-.61,4.62-2.56,2-1.47-2,1.73-3.15,2.91-3s1.27-1.86,0-2Z" transform="translate(-13.29 -36.08)"/><path class="cls-2" d="M168.52,57.7v8.5a1,1,0,0,0,2,0V57.7a1,1,0,0,0-2,0Z" transform="translate(-13.29 -36.08)"/><path class="cls-2" d="M169.52,55.42a1,1,0,0,0,0-2,1,1,0,0,0,0,2Z" transform="translate(-13.29 -36.08)"/><path class="cls-2" d="M174,53.81c0,2.11,0,4.22-.07,6.33-.06,1.6-.51,3.51-.12,5.07s2.37,2.69,3.59,1.15c.79-1-.61-2.42-1.41-1.41a11.6,11.6,0,0,1-.18-2.1c.06-1.05.11-2.11.15-3.16.06-2,.07-3.92.05-5.88a1,1,0,0,0-2,0Z" transform="translate(-13.29 -36.08)"/><path class="cls-2" d="M180.18,53.57q.05,6.44,0,12.88a1,1,0,0,0,2,0q.08-6.44,0-12.88a1,1,0,0,0-2,0Z" transform="translate(-13.29 -36.08)"/><path class="cls-2" d="M182.34,62.78a11.05,11.05,0,0,0,4.09-4,1,1,0,0,0-1.73-1,9,9,0,0,1-3.37,3.25c-1.12.63-.12,2.36,1,1.73Z" transform="translate(-13.29 -36.08)"/><path class="cls-2" d="M181.07,62.92a10.49,10.49,0,0,0,2.29,1.79c.71.46,1.42.93,1.6,1.81.25,1.26,2.18.73,1.93-.53-.46-2.34-3-2.87-4.39-4.48-.84-1-2.25.44-1.41,1.41Z" transform="translate(-13.29 -36.08)"/><path class="cls-2" d="M125.78,75.72c-4.73.39-5.23,10.1-.18,10.12,4.58,0,6.33-11.13.74-10.24-1.27.2-.73,2.13.53,1.93s.93,2.55.79,3.16c-.21.93-1.13,3.6-2.61,3-1.68-.72-1.26-5.76.73-5.93,1.27-.11,1.28-2.11,0-2Z" transform="translate(-13.29 -36.08)"/><path class="cls-2" d="M132.5,81.65V84.4l2-.27c-.14-.78.71-2.52,1.63-2.72,1.49-.32,1.29,1.63,1.25,2.53h2a2.75,2.75,0,0,1,.34-1.54c.37-.54,1.12-1.2,1.49-.06a15.33,15.33,0,0,1,0,2.42c.16,1.26,2.16,1.28,2,0-.24-1.91.46-4.81-2.33-5-2.42-.2-3.44,2.2-3.49,4.23,0,1.29,1.94,1.28,2,0,.09-2-.66-5.12-3.39-4.58a4.81,4.81,0,0,0-3.42,5.3c.19,1.13,2,.84,2-.27V81.65a1,1,0,0,0-2,0Z" transform="translate(-13.29 -36.08)"/><path class="cls-2" d="M144.56,76.76l-.21,4.41a10,10,0,0,0,0,3.36,1.54,1.54,0,0,0,1.29,1.13c.83.09,1-.55,1.71-.82,1.18-.47.66-2.41-.53-1.93a6.92,6.92,0,0,0-1,.61q.76.5.5-.47l.06-1.26.24-5c.06-1.29-1.94-1.28-2,0Z" transform="translate(-13.29 -36.08)"/><path class="cls-2" d="M119.12,75.31c-3.29-.4-5.25,3.49-5.29,6.32,0,2.65,2.28,5.49,5.14,4.3,2.43-1,2.71-5.09.33-6.33-2.16-1.13-4.7,1-5.29,3.07a1,1,0,0,0,1.93.53,3.44,3.44,0,0,1,1.65-1.84c2.14-.66,1.5,4.59-1,2.32-1.89-1.71-.09-6.68,2.54-6.36,1.27.16,1.26-1.85,0-2Z" transform="translate(-13.29 -36.08)"/><path class="cls-1" d="M113.27,48.88c-.51.26-.95-.45-.06.26a6.7,6.7,0,0,0,2.09.93c1.18.32,4.66.75,5.6-.18q1-.18-.11-.24-1.27-.28.11.2a8.78,8.78,0,0,0,2.59.82,21.38,21.38,0,0,0,6.18.23c7.65-.59,7.71-12.59,0-12-2.54.2-3.94-.3-6.32-.91s-4.42.55-6.46.29l3,.82c-4.46-2.23-8.06-2.93-12.72-.59-6.9,3.47-.83,13.82,6.06,10.36Z" transform="translate(-13.29 -36.08)"/><path class="cls-1" d="M75.07,49.37c.92-.28,2.49.52,3.49.54a23.27,23.27,0,0,0,4.62-.85H80c-.74-.13,1.08.52,1.06.51a7.4,7.4,0,0,0,3,.75,11.7,11.7,0,0,0,2.32-.19c.65-.11,2.51-.07.59-.38,3.2.51,6.46-.83,7.38-4.19.79-2.86-1-6.86-4.19-7.38-1.64-.26-4.3-.73-5.84.18-1,.61,2.44.86,1-.14a8.21,8.21,0,0,0-3.75-.94c-.53,0-2.32.07-2.71.47-.55.56,1.29.5.1,0-2.12-.9-5-.57-7.09.06C64.5,40,67.65,51.6,75.07,49.37Z" transform="translate(-13.29 -36.08)"/></svg>