<svg id="Слой_1" data-name="Слой 1" xmlns="http://www.w3.org/2000/svg" viewBox="0 0 231.23 130.72"><defs><style>.cls-1{fill:#f7e7ce;}.cls-2{fill:#f4f0ec;}.cls-3{fill:#333;}</style></defs><title>foamedmilk2</title><path class="cls-1" d="M44,148.8q97.4-1.06,194.79,1.23c3.22.08,3.22-4.92,0-5Q141.38,142.74,44,143.8c-3.22,0-3.22,5,0,5Z" transform="translate(-34.54 -24.69)"/><path class="cls-1" d="M43.12,143.37c1,3.66,4.14,5.29,7.83,4.88,3.39-.37,6.57-1.52,10-1.7a58,58,0,0,1,9,.39c6.34.66,12.61,1.94,19,2.11,6.2.16,12.12-1.2,18.19-2.25,13-2.25,25,3.24,38,3.83a87.84,87.84,0,0,0,36.62-6.31c3-1.18,1.66-6-1.33-4.82a84.37,84.37,0,0,1-32.61,6.22,81.35,81.35,0,0,1-17.11-2.07c-5.26-1.21-10.39-2.78-15.84-2.69-5.25.08-10.36,1.37-15.5,2.25a60.23,60.23,0,0,1-17.61.27c-5.41-.65-10.79-1.63-16.24-1.89-2.08-.1-17.06,2.06-17.49.45-.84-3.1-5.66-1.79-4.82,1.33Z" transform="translate(-34.54 -24.69)"/><path class="cls-2" d="M68.87,71.69a138.65,138.65,0,0,1,16.61.07c3.34.16,5.9-.25,8-3,1.94-2.57-2.4-5.07-4.32-2.52-1.27,1.69-7.88.24-9.46.19a107.5,107.5,0,0,0-10.8.27c-3.19.23-3.22,5.23,0,5Z" transform="translate(-34.54 -24.69)"/><path class="cls-2" d="M41.23,84.27l-1.3-31.95c-.19-4.56-1.87-12.14,1.16-15.87,3.32-4.09,10.7-2.27,15.42-2,20.83,1.33,41.57,1.52,62.43.85l15.9-.51c4.37-.13,8.7,1.33,13,.86,2-.22,4-1.14,6.08-1.11,2.26,0,4.6,1.09,6.87,1.33,5.06.52,10-.78,14.88-2.08,10.95-2.94,20.92-2.94,32-.85,10,1.88,19.3,4.75,29.49,3.72,2.89-.29,4.66.17,7.6.93,2.18.56,3.25.06,5.35-.07,8.31-.54,7.86,8.33,7.79,14.52q-.22,18.87-.47,37.74L261.7,88c-8-9.71-23.1-8.9-34.45-9.3q-12.56-.45-25.14-.07c-8.1.24-16.22,1.2-24.32,1.15-7.89,0-15.3-2.7-23.1-3.41-8.41-.77-16.64.19-25.06-1-7.44-1-13.11,2.08-20.24,3.43-8.26,1.56-17,1.69-25.41,1.48C74.66,80.1,65.84,78,56.66,76.86,49.78,76,43.22,77,37.73,81.38c-2.51,2,1.05,5.54,3.54,3.54,8.4-6.77,20.49-1.77,29.94-.54A143.68,143.68,0,0,0,98,85.08a101.68,101.68,0,0,0,11.79-1.22c4.43-.78,8.53-2.86,12.94-3.6s8.94.73,13.4,1.06c4.95.37,9.9-.2,14.85-.1,9.08.19,17.68,3.54,26.8,3.6,9.39.06,18.8-1.06,28.19-1.25q14.5-.29,29,.52c8.16.45,17.56.66,23.18,7.48,1.44,1.75,4.24.25,4.27-1.77q.24-18.87.47-37.74c.09-7.35-.31-18.31-9.67-19.76-1.62-.25-2.92.34-4.45.41-2.9.13-5.31-1.18-8.16-1.27-2.33-.07-4.63.5-6.95.65a40.7,40.7,0,0,1-10.74-1c-11-2.23-22.07-5.25-33.39-4.8A69.16,69.16,0,0,0,174.31,29a46.8,46.8,0,0,1-10,2c-3,.13-5.76-.84-8.7-1.23-2.73-.37-4.54.36-7.19.73s-4.56-.24-7-.59c-6-.84-12.48.09-18.51.29-23.8.77-47.4.54-71.17-1-4.43-.3-9.38-.58-13.13,2.24s-4.13,7.2-4.05,11.41c.25,13.82,1.12,27.65,1.68,41.46.13,3.21,5.13,3.22,5,0Z" transform="translate(-34.54 -24.69)"/><path class="cls-2" d="M66.81,60.07c-.91,4.25-.55,9.61,4.72,10.4,5.57.83,11.65-2.73,15.33-6.6a2.53,2.53,0,0,0-.51-3.93,13,13,0,0,0-15.86,2.23A2.55,2.55,0,0,0,71,66.1a13.65,13.65,0,0,0,8.7,2.81c3.22,0,3.22-5,0-5a9.38,9.38,0,0,1-6.18-2.13L74,65.7a8,8,0,0,1,9.8-1.45l-.51-3.93A16.48,16.48,0,0,1,75.94,65c-1.29.38-3.68,1.29-4.56-.3-.44-.8.07-2.49.24-3.3.67-3.14-4.15-4.48-4.82-1.33Z" transform="translate(-34.54 -24.69)"/><path class="cls-2" d="M63,66.36a128.16,128.16,0,0,1,36.8-.19l1.6-11.79c-8.9.6-17.76.71-26.67.54-7.33-.14-14.56.25-21,4.22-4.77,3-3.18,9,1.43,11a57.91,57.91,0,0,0,7,2.4l1.6-11.79a52.2,52.2,0,0,0-23.53,7.08l7.27,9.42a5.17,5.17,0,0,1,6.15-.53l3-11.18a52.53,52.53,0,0,0-17.61,4.78c-4.79,2.23-3.27,9.73,1.43,11a176,176,0,0,0,65.71,4.62c7.57-.91,7.66-12.92,0-12A166.88,166.88,0,0,1,43.69,69.7l1.43,11a35.35,35.35,0,0,1,11.55-3.15c5.53-.53,8.66-8.08,3-11.18A17.55,17.55,0,0,0,39,68.75c-5.18,4.56,1.48,12.81,7.27,9.42a38.9,38.9,0,0,1,17.48-5.44c6.56-.41,8.38-9.91,1.6-11.79a57.91,57.91,0,0,1-7-2.4l1.43,11C65.35,66.08,72,66.9,78.21,67c7.74.14,15.47-.1,23.18-.62,6.26-.43,8.71-10.78,1.6-11.79a148.22,148.22,0,0,0-43.18.19C52.2,55.94,55.43,67.5,63,66.36Z" transform="translate(-34.54 -24.69)"/><path class="cls-2" d="M100.94,84c2.58-1.33,5.69-3.19,8.69-3.12,2.54.06,4.77,1.6,7.09,2.44,4.22,1.53,9.06,1.39,12.37-2,2-2,.21-.22-.18-.78a10,10,0,0,0,2.56,1.51,18.36,18.36,0,0,0,7.07,2.53c5.18.57,9.38-1.78,14.2.69s8,1.3,13.1.56c5.58-.81,12.29,1.24,17.9,1.78a261.22,261.22,0,0,0,39,.77c7.68-.41,7.73-12.41,0-12a261.22,261.22,0,0,1-39-.77c-6.08-.59-12.61-2.38-18.72-1.8-1.95.19-4.54,1.54-6.23,1.09-2.59-.68-4.56-2.53-7.37-2.94-5.08-.75-9.91,2-14.55-.67-4.37-2.55-8.93-4.13-13.5-1-2.3,1.56-1.4,2.42-4,1.25a26.18,26.18,0,0,0-7.22-2.41c-6.17-.84-11.91,1.79-17.26,4.55-6.86,3.55-.8,13.9,6.06,10.36Z" transform="translate(-34.54 -24.69)"/><path class="cls-2" d="M224.68,87.13c4.53-.85,7.17,1.8,11.24,2.87s9.18,0,13.45-.26c7.66-.56,7.72-12.56,0-12-2.48.18-5,.38-7.45.54-2.7.17-3.82-.44-6.26-1.49a23.74,23.74,0,0,0-14.17-1.24c-7.58,1.42-4.37,13,3.19,11.57Z" transform="translate(-34.54 -24.69)"/><path class="cls-2" d="M86.6,63.34l-18.94-.09c-7.75,0-7.69,11.67,0,12a314.78,314.78,0,0,0,42.14-1c6.32-.58,8.64-10.15,1.6-11.79-11.08-2.57-22.32-2.21-33.61-2.14a110.93,110.93,0,0,1-15.94-.7c-1.74-.24-14.36-2.22-14.39-4.64h-12L36,64.1l11.79-1.6c-.9-4.8-2.22-10.47-.24-15.16a8.33,8.33,0,0,1,3.26-4c.35-.2,2.64-.74,2.68-.79L53.6,38l-1.1.57c-3.49.36-6.91,4.95-8.06,7.82a12.2,12.2,0,0,0,1,11.32c4.2,6.21,14.61,7.06,18.73.28,4.24-7-1-15.56-8.78-16l4.24,10.24c.87-.95,1.07-1.22,2.36-.89l3.19-11.57c-2.3-.59-5.93-1.28-8.21-.18q-2.62-.47-.29,1.83Q57,44,58.9,42.78a23.41,23.41,0,0,0,3.52-.32c5.52-.15,10.38-.19,15.5-2.48l-7.27-9.42c-.91.74-2.38,1.32-3.11,2.13a.77.77,0,0,0-.74.55,1.65,1.65,0,0,0,0,1.59H56.45c5,9,17.31,12.46,26.16,7,.58-.36,3.32-2.14,3.26-2.55.06.36-4.89-2.4-2.2,1.47a10.26,10.26,0,0,0,5.53,4.21,10.85,10.85,0,0,0,6.92-.52c2-.73,3.88-2.57,5.87-3.12s.82-.22,3,.85a9.66,9.66,0,0,0,7.75.34c2.65-1,4.28-3,6.49-4.62,2.54-1.84,5-.89,7.67.33,5.26,2.38,9.84,5.48,15.79,5.9,5.66.4,10-1.74,13.39-6.17,4.7-6.12-5.72-12.11-10.36-6.06-1.53,2-7.75-1.39-9.21-2.17-4.35-2.33-9-4.76-14-5-4.1-.18-10.41,1.71-12.7,5.53-.7,1.17-1.3.55.24,1-.77-.21-1.83-1.28-2.64-1.63a10.43,10.43,0,0,0-5.87-.72,16.62,16.62,0,0,0-5.09,1.8c-.78.4-4.34,1.89-4.72,2.68-.22.46,1.62.5,1.74.34s-1.41-2.3-1.62-2.57a8.92,8.92,0,0,0-5.56-3.5c-5.2-.92-7.1,3.32-11.39,4.61a7,7,0,0,1-8-3.46c-2.34-4.24-7.87-3.5-10.36,0-3.76,5.28-.8,12.17,4.45,15.08,6.52,3.62,13.23-.74,18.23-4.81,5.71-4.64-1.58-12-7.27-9.42-4.11,1.83-9.54.57-13.94,1.21s-9.1,2.65-11.37,6.67a9.17,9.17,0,0,0,1.62,11.3,11.13,11.13,0,0,0,6.31,2.65c2.49.3,5.07-.77,7.49-.15,7.48,1.93,10.67-9.63,3.19-11.57a13.77,13.77,0,0,0-14,4,6.08,6.08,0,0,0,4.24,10.24c-4.68-.26,1.93-4.37,3.19-5,2.71-1.46,5.19-3.53,5.85-6.7,1.53-7.38-5.77-11.92-12.28-11.58C45.39,31,39.52,36,36.8,42c-3.46,7.53-2.08,15.88-.61,23.71,1.25,6.62,12.17,5.14,11.79-1.6L47.45,55c-.44-7.65-12.11-7.78-12,0C35.65,68.75,55.64,71.29,66,72c14.06,1,28.34-1.22,42.21,2l1.6-11.79a314.78,314.78,0,0,1-42.14,1v12l18.94.09c7.72,0,7.73-12,0-12Z" transform="translate(-34.54 -24.69)"/><path class="cls-2" d="M47.59,38.64c-.42,1.46-.77.36.64.7a16.86,16.86,0,0,0,3.47,0q4.85,0,9.69.24Q70.74,40,80,41.37V29.8q-2.12.59.14.58L69.81,36.43c5.31,7,11.48,5.56,19.1,4,7.29-1.53,17.55,6.45,23.23,10.47l1.43-11c-9.91,3.44-20.19,1.42-30.39.8-7.72-.47-22-1.58-24.71,8.05-1.31,4.67-.91,10.31-.84,15.11,0,1.21-.38,3.47.15,4.61v1.21l7.33.95c1.67-.8,3.27-3.21,4.94-4.29,7.77-5,17.46-6.36,26.46-7.5,3-.38,5.46-2,5.89-5.2.36-2.66-1.35-6.14-4.3-6.58l-8.57-1.29C82,44.64,78.72,56.2,86.35,57.34l8.57,1.29,1.6-11.79c-11.33,1.43-23.43,3-33.14,9.53-4.65,3.14-10.48,7.94-10.53,14.08,0,5.68,5.7,10.36,11.16,8.35,6.07-2.23,5.75-8.68,5.63-14-.05-2.34-1-9,.26-11.07l-.4-.47A18.46,18.46,0,0,1,72,52.82a43.13,43.13,0,0,1,5.13-.3c13.33-.13,26.56,3.47,39.58-1.05,5.08-1.76,5.71-7.94,1.43-11A93,93,0,0,0,98.42,29.63a19,19,0,0,0-10.1-1.37c-1.79.28-3.45.92-5.2,1.31-1.15.26-3.48.12-3,.81-4.54-6-14.44-.78-10.36,6.06,2.72,4.57,8.29,7.09,13.41,4.94,4.64-2,6.66-10.59,0-11.57a218,218,0,0,0-29.58-2.48c-7-.07-15.31.13-17.61,8.14-2.14,7.44,9.44,10.61,11.57,3.19Z" transform="translate(-34.54 -24.69)"/><path class="cls-2" d="M82.17,57.1l61.49-.42-1.6-11.79L85.61,53.3c-6.36.95-5,9.85,0,11.57,18,6.17,37.06,6.48,55.86,6.55v-12c-10.93.74-21.93,1.61-32.34,5.26-6.36,2.23-5.33,11.44,1.6,11.79A340,340,0,0,0,177.84,73c7.61-1.13,4.38-12.7-3.19-11.57a324.33,324.33,0,0,1-63.92,3l1.6,11.79c9.45-3.31,19.22-4.15,29.15-4.83,7.63-.52,7.81-12,0-12-17.8-.07-35.66-.28-52.67-6.12V64.87l56.45-8.4c6.79-1,5-11.83-1.6-11.79l-61.49.42c-7.72.05-7.74,12.05,0,12Z" transform="translate(-34.54 -24.69)"/><path class="cls-2" d="M136.47,48.47c-8.19.62-13.73-5.34-19-10.8l-2.65,10a42.52,42.52,0,0,1,17.41-3.6c5.74.11,11.35,1.71,17-.2,2.41-.82,4.52-2.38,6.9-3.21s3.82,0,5.86,1.38c4.83,3.19,9.34,5.45,15.23,4,7.49-1.88,4.31-13.46-3.19-11.57-2.31.58-4.87-2.11-6.64-3.2a19.18,19.18,0,0,0-7.07-2.88c-5.59-.89-9.35,2.16-14.29,3.95s-11.21-.4-16.45-.19a51.66,51.66,0,0,0-17.94,4c-4.08,1.71-6.07,6.47-2.65,10,7.42,7.72,16,15.17,27.47,14.31,7.65-.58,7.72-12.58,0-12Z" transform="translate(-34.54 -24.69)"/><path class="cls-2" d="M137.46,35.47c-4.57-.7-8.69-.23-12.6,2.37s-4,9.94,1.43,11c21.35,4,42.61.84,63.8-2.69L186.9,34.54a461.41,461.41,0,0,0-46,16.39c-4.84,2-6.5,10.26,0,11.57a121.29,121.29,0,0,0,30.38,2.34v-12l-36.19,4c-7.66.85-7.77,11.25,0,12a496.27,496.27,0,0,0,64.21,2l-1.6-11.79a237.55,237.55,0,0,0-23.43,7.19,6.06,6.06,0,0,0,0,11.57,48.79,48.79,0,0,0,14,2.85v-12l-5.44.07c-7.76.09-7.68,11.59,0,12A291.74,291.74,0,0,0,233.94,79c6.16-.75,8.79-10.14,1.6-11.79a472.43,472.43,0,0,1-61.61-18.61l-1.6,11.79,23.94-1.84c7.66-.59,7.77-11.58,0-12a226.56,226.56,0,0,1-28.2-3.23c-.69-.13-5.25-1.63-5.75-1.33l.88,3.31A10.11,10.11,0,0,1,165,43.16a15.94,15.94,0,0,1,5.27-3.5q1.28-.45,2.58-.79,1.81.37.15-1.6c-.4,5.52,6.66,7.46,10.24,4.24a20.87,20.87,0,0,1,4-3.1c.77-.41,2.66-.51,2.81-1.48-.76,4.65,4.05,10,8.81,6.78,2.44-1.67,5.65-4.36,8.8-4.28,2.56.06,3.28,2.34,5.3,3.53,6,3.52,9.27-3.88,14.87-1.66,7.18,2.85,10.29-8.75,3.19-11.57a15.88,15.88,0,0,0-11.51-.08c-.64.24-5.21,2.27-5,3.09-.25-1.27,5.68,2.44,4.41-.66-.37-.9-1.9-1.74-2.64-2.22-7.83-5-16.53-1.21-23.42,3.5l8.81,6.78A12,12,0,0,0,192.37,26c-6.85-1.78-12.84,2.72-17.62,7L185,37.27c.57-7.95-8.25-11.38-14.89-10-7.07,1.42-16.32,7.13-18.34,14.55-2.62,9.63,8,12.25,15,13.46a253.94,253.94,0,0,0,29.54,3.33v-12L172.33,48.4c-6.88.53-8,9.37-1.6,11.79A472.43,472.43,0,0,0,232.35,78.8L233.94,67a291.74,291.74,0,0,1-51.11,1.73v12l5.44-.07c7.78-.09,7.66-11.51,0-12a37.61,37.61,0,0,1-10.82-2.42V77.83a237.55,237.55,0,0,1,23.43-7.19c6.5-1.63,5.23-12-1.6-11.79a496.27,496.27,0,0,1-64.21-2v12l36.19-4c7.49-.83,7.86-12.41,0-12a108.22,108.22,0,0,1-27.19-1.91V62.5a461.41,461.41,0,0,1,46-16.39c7.54-2.24,4.3-12.82-3.19-11.57-18.91,3.16-38.34,6.31-57.42,2.69l1.43,11A4.66,4.66,0,0,1,134.27,47c7.55,1.15,10.81-10.41,3.19-11.57Z" transform="translate(-34.54 -24.69)"/><path class="cls-2" d="M212.15,37a116.5,116.5,0,0,0-12.86,0c-3.12.19-6.84.14-9.67,1.67-6,3.24-5,10.85.26,14.21,5.72,3.64,13.19,5.74,19.58,7.84,7.57,2.48,15.27,4.54,23,6.59L234,55.53l-25.52.81c-7.13.23-7.68,9.34-1.6,11.79a114,114,0,0,0,16.55,5.31q4,.94,8.09,1.58c2.08.32,6-.06,7.7.92l-2.76-3.59q2.43-4.53,0-2.38a7.64,7.64,0,0,0-2,1.8A6.08,6.08,0,0,0,238.67,82a29.51,29.51,0,0,1,11.5,2.82c3.85,1.83,9.26-.29,9-5.18a89.13,89.13,0,0,1,3-27.71H250.59a91.24,91.24,0,0,1,1.49,20.31c-.26,7.78,11.45,7.63,12,0,.94-13,6.87-34.39-11-37.69-15.74-2.91-32-.06-46.51,6.33-3.49,1.53-3.84,7-1.21,9.42,7.18,6.52,16.63,7,25.87,7.21q4.22.11,8.45,0c1.24,0,3.23.66,2-.56-1.67-1.72-.64,3-.34,3.63v1.92l3.81-3.8-1.54-.17q-2.45-1.41-1.26,1.22c.25,2.7.7,1.09,1.74-.06s2.05-2.2,3-3.34c4.56-5.29,14.18-17.33,2.34-21-9.16-2.83-19.3.8-26.1,7-2.41,2.21-2.19,6.24,0,8.49A9.44,9.44,0,0,0,231.19,54c7.67-.46,7.73-12.46,0-12l.74.4v8.49c2.74-2.51,10.39-6.65,14.11-3.9l-2.76-3.59c-.49-1.6.33-1.53-1,0-1,1.2-1.93,2.54-3,3.76-1.66,2-3.56,3.76-5.2,5.75-2.66,3.23-4.36,7.41-2.34,11.42,3.34,6.65,17.83,9.73,21,1.46,1.51-3.92.71-9.75-.51-13.66-1.43-4.62-5.15-6.58-9.76-6.7-5.32-.14-10.63.12-15.95-.16-4.34-.23-9.31-.43-12.69-3.51l-1.21,9.42a69.34,69.34,0,0,1,33.84-5.51c1.58.14,5.08,0,6.37,1.1,1.59,1.41.67,5.12.54,7-.43,6.14-.89,12.29-1.34,18.43h12a105.88,105.88,0,0,0-1.92-23.5c-1.14-6-10.1-5.45-11.57,0a100.43,100.43,0,0,0-3.39,30.9l9-5.18A44.73,44.73,0,0,0,238.67,70l4.24,10.24c2.64-2.91,6.13-4.59,5.59-9.28-.52-4.48-4-6.37-8.11-6.86a118,118,0,0,1-30.31-7.55l-1.6,11.79L234,67.53c6.64-.21,8.3-10,1.6-11.79S222,52.1,215.26,50c-3.21-1-6.4-2.08-9.55-3.26-1.8-.67-3.6-1.37-5.37-2.12l-1.68-.74q-2.75-2-1.22,1.06l-1.76,4.24c.53-.67,6.83-.34,7.56-.36,3-.07,5.94,0,8.91.14,7.72.37,7.7-11.63,0-12Z" transform="translate(-34.54 -24.69)"/><path class="cls-2" d="M66.81,113.19c-.9,10.95-2.05,26.87,11.44,30.39,3.37.88,6.2-1.13,7.38-4.19,3.78-9.78-4.46-25.89-16.62-22.25-11.8,3.53-10.13,25.93,3.31,25.48,4.77-.16,8.46-6.73,4.24-10.24-5-4.13-11.34-8.17-13.61-14.5-2.65-7.37,1-14.36,4.41-20.77L57,91.05a55.6,55.6,0,0,0-5.72,20.15l11.18-3a64.77,64.77,0,0,1-5-17.69c-.42-3.24-2.46-6-6-6-2.92,0-6.42,2.79-6,6a84.61,84.61,0,0,0,6.61,23.74c2.66,6,10.69,2.18,11.18-3a39.53,39.53,0,0,1,4.09-14.09C70.8,90.24,60.64,84.19,57,91.05c-4.72,8.91-8.7,18.22-6.09,28.44,2.46,9.61,9.91,15.32,17.16,21.37l4.24-10.24q1.12,0,1-1.11.75-1.52-1.21-.6c.15.46,1.42,1.23,1.75,1.76,1.16,1.83.91,3.61.17,5.54L81.45,132c-5.49-1.43-3-14.67-2.64-18.82.63-7.7-11.37-7.66-12,0Z" transform="translate(-34.54 -24.69)"/><path class="cls-2" d="M37.61,75.41c.26,9.87,1.05,19.71,1.77,29.56.55,7.66,12.56,7.72,12,0-.71-9.84-1.5-19.69-1.77-29.56-.21-7.71-12.21-7.74-12,0Z" transform="translate(-34.54 -24.69)"/><path class="cls-2" d="M36.84,78.49q1.6,23.93,3.1,47.86c.47,7.67,12.47,7.73,12,0q-1.46-23.93-3.1-47.86c-.51-7.66-12.52-7.72-12,0Z" transform="translate(-34.54 -24.69)"/><path class="cls-2" d="M36.34,74.45c0,22.22,4.24,44.06,4.39,66.26,0,5.13,6.58,8,10.24,4.24a11,11,0,0,0,3.29-7.6c.08-3.2-1.88-5.9-1.93-9-.1-6.48-10.74-8.51-11.79-1.6a42.64,42.64,0,0,0-.48,10.49l11.79-1.6A168.83,168.83,0,0,1,50,96.22c.52-7.71-11.48-7.68-12,0a182.18,182.18,0,0,0,2.25,42.63c1.11,6.61,12.4,5.15,11.79-1.6a30,30,0,0,1,.05-7.3l-11.79-1.6a18.84,18.84,0,0,0,.89,5.58l.83,2.35q.15,2,.42.18l10.24,4.24c-.15-22.2-4.42-44-4.39-66.26,0-7.72-12-7.73-12,0Z" transform="translate(-34.54 -24.69)"/><path class="cls-2" d="M44.3,115.36A44.36,44.36,0,0,0,51.15,138c3.59,5.68,12.73,2.09,11-4.62a179.48,179.48,0,0,1-5.71-53.9l-11.18,3c1.76,3.36,1.59,8.05,2.58,11.73a107.61,107.61,0,0,0,4.53,12.9c3.43,8.38,7.09,16.68,10.65,25,2.69,6.3,12.85,1.79,11-4.62a405,405,0,0,1-10.86-47.1L51.52,83.63,61,120.15c1.72,6.62,11.68,5.14,11.79-1.6l.55-34.41-11.79,1.6,5.82,27.74c1.42,6.77,11.66,5,11.79-1.6l.54-27.6-11.18,3c4.08,5.87,4.83,14.76,6.54,21.61,1.67,6.69,11.6,5.07,11.79-1.6a203.64,203.64,0,0,0-.59-22.16c-.62-7.59-12.28-7.81-12,0q.31,8.67,1,17.31c.62,7.61,11.79,7.82,12,0a132.88,132.88,0,0,1,1.08-14.32H76.77a230.85,230.85,0,0,1,2.71,24c.4,6.5,10,8.45,11.79,1.6a30.81,30.81,0,0,0,.39-13.34c-1-5.57-8.31-5.22-11-1.43a36.65,36.65,0,0,0-6.29,17.25l9-5.18c-5.32-3.63-13.88-1.54-13.28,6.11.56,7.16,8.37,9.49,14.07,6.36,12.06-6.64,13-22.59,4.32-32.24-3.15-3.5-8.74-1.44-10,2.65a35.32,35.32,0,0,0,0,21.56c1.4,4.42,8.76,6.48,11,1.43a106.39,106.39,0,0,0,7.94-26.74H85.86L88,98.45c1.72,6.78,11.41,5,11.79-1.6A43.48,43.48,0,0,0,98.27,83c-1.84-6.87-11.2-4.89-11.79,1.6a36.1,36.1,0,0,0,4.42,20.62c2.15,4,8.16,3.8,10.36,0a106.93,106.93,0,0,0,8.38-18.32H98.08a29.42,29.42,0,0,1,.5,10.3c-1,7.4,9.68,10.92,11.57,3.19a50.59,50.59,0,0,1,2.52-7.92l-11.18-3c.23,5.72.67,13,8.25,12.93,5.47-.07,11.3-4.4,13.26-9.41,2.5-6.42-2.82-10.88-8.66-11.94-6.13-1.12-11.8,1-16.44,4.93-3.09,2.63-1.78,7.47,1.21,9.42,6.34,4.13,14.36,3.31,21.37,1.48,6.58-1.72,15.12-4.9,18.32-11.34a6.11,6.11,0,0,0-3.59-8.81,33.24,33.24,0,0,0-10.42-1.9c-6.69-.21-8.26,10.31-1.6,11.79,16,3.55,31.91,6.58,48.31,4.12l-3.19-11.57q-26.48,5.34-52.61,12.19c-6.76,1.77-5,11.39,1.6,11.79q19.24,1.14,38.5.67v-12c-22.94,2.82-44.65,10.15-66.35,17.83-6,2.13-5.57,12.18,1.6,11.79q24-1.32,47.91-4.52c3-.4,5.46-2,5.89-5.2.37-2.74-1.36-6-4.3-6.58-10.1-1.91-20.11-.07-30,2.11a204.49,204.49,0,0,0-28.91,8.7l5.84,10c7.36-6,17.6-12.45,21.22-21.53,2.06-5.16-4.63-9.06-8.81-6.78a16.48,16.48,0,0,0-8.71,14.55c-.12,4.23,3.91,6.4,7.6,5.79,7.18-1.21,20.8-11.91,13.54-20-7.1-7.94-18.75,4.57-21.67,10.8-2.08,4.42-2.38,9.54,1.14,13.37a10.57,10.57,0,0,0,12.7,2.1c4.16-2.29,6.91-7.79,3.72-12-3.37-4.51-10-3.6-14.7-2.3-7.44,2-4.28,13.62,3.19,11.57.85-.23,4-.19,2.56-1.4l-1.76-4.24,3.66-1.25.49-1c.74-.81,1.18-1.94,1.92-2.79s2.77-3.18,3.88-3.14l-4.24-1.76.64.57L102,102.14c-.17,2.61-4.63,3.9-6.48,4.21l7.6,5.79c.06-2.15.94-3.19,2.77-4.19l-8.81-6.78C96,104.07,91.27,107,89,109q-4.91,4.3-10,8.4c-4.58,3.72.35,12.12,5.84,10a205.35,205.35,0,0,1,25.34-7.88c8.66-2.07,18.31-4.61,27.22-2.93l1.6-11.79q-23.86,3.2-47.91,4.52l1.6,11.79c20.56-7.28,41.4-14.73,63.16-17.4,7.43-.91,7.94-12.19,0-12q-19.26.47-38.5-.67l1.6,11.79Q145,96,171.51,90.68c7.68-1.55,4.28-12.69-3.19-11.57C154.24,81.23,140.09,78,126.39,75l-1.6,11.79A22.61,22.61,0,0,1,132,88.25l-3.59-8.81c-1.69,3.41-7.72,4.93-11.15,5.83-3.9,1-8.55,2.05-12.12-.27l1.21,9.42a7.42,7.42,0,0,1,2.27-1.34c.77-.28,2.88,0,3.28-.31q1.68.51,0-1.71,0-2.64-1.16-1.44a2.49,2.49,0,0,1-1.06.58q-1.77.56,1.39.33l2.76,3.59a24.93,24.93,0,0,1-.34-4.68c-.22-5.38-8.67-8.9-11.18-3a68.65,68.65,0,0,0-3.73,10.79l11.57,3.19a46.4,46.4,0,0,0-.5-16.68c-1.34-6.19-9.75-5.19-11.57,0a90.08,90.08,0,0,1-7.17,15.45h10.36a24.85,24.85,0,0,1-2.78-14.57L86.7,86.19a32.72,32.72,0,0,1,1,10.66l11.79-1.6L97.43,87c-1.37-5.4-10.65-6-11.57,0a95.33,95.33,0,0,1-6.73,23.87l11,1.43a24,24,0,0,1,0-15.18L80,99.75a8.46,8.46,0,0,1,.73,11.19l-.91,1q-3.78,2.28,2.08,6.33L78.37,121l-1,.38c4.17,2.85,8.53-1.09,9-5.18A24.33,24.33,0,0,1,91,105l-11-1.43a16.09,16.09,0,0,1-.39,7l11.79,1.6A261.78,261.78,0,0,0,88.34,85c-.95-5.65-10.78-5.81-11.57,0a162.16,162.16,0,0,0-1.51,17.51h12q-.7-8.64-1-17.31h-12a203.64,203.64,0,0,1,.59,22.16l11.79-1.6c-2-7.9-3-17.66-7.75-24.47-3.31-4.77-11.06-3.21-11.18,3l-.54,27.6,11.79-1.6L73.12,82.55c-1.42-6.76-11.68-5-11.79,1.6l-.55,34.41L72.57,117,63.09,80.44c-2-7.61-12.83-4.28-11.57,3.19a405,405,0,0,0,10.86,47.1l11-4.62c-3.63-8.49-7.48-16.93-10.8-25.54a86.87,86.87,0,0,1-3.82-12.15c-.93-4.15-1.13-8.12-3.14-12-2.9-5.53-10.93-2.61-11.18,3a190.89,190.89,0,0,0,6.14,57.09l11-4.62a32.18,32.18,0,0,1-5.21-16.6c-.25-7.7-12.25-7.74-12,0Z" transform="translate(-34.54 -24.69)"/><path class="cls-2" d="M53.47,125.53c0,3.25-.72,7.41,1,10.34,1.86,3.18,6.08,3.66,9.32,4.51l1.6-11.79A45.9,45.9,0,0,0,49,132.92c-2.93,1.38-3.68,5.59-2.15,8.21,1.76,3,5.26,3.53,8.21,2.15a29.63,29.63,0,0,1,10.28-2.68c3-.22,5.52-2.11,5.89-5.2a6,6,0,0,0-4.3-6.58c-1.77-.47-3.59-.86-5.33-1.44l2.65,1.54-.41-.32,1.54,2.65q0,1.52,0-.41v-5.32c0-7.72-12-7.73-12,0Z" transform="translate(-34.54 -24.69)"/><path class="cls-2" d="M45.88,140.21q.06.29.09.59l-.21-1.6a8.85,8.85,0,0,1,0,1.8l.21-1.6a8.76,8.76,0,0,1-.44,1.74,6,6,0,0,0,8.81,6.78,6.75,6.75,0,0,0,2.76-3.59,13.92,13.92,0,0,0,.36-7.32,6,6,0,0,0-2.76-3.59,6,6,0,0,0-8.21,2.15,6.78,6.78,0,0,0-.6,4.62Z" transform="translate(-34.54 -24.69)"/><path class="cls-2" d="M43,140.79a4.79,4.79,0,0,1-.27,3.13H51.4l-.09.37-3.67,4.82h-1l4.86-8.36-1.27-.57-3,7.34q2.33,0,.74-1.2c1.29,4.62,8.5,4.9,9.64,0a21.5,21.5,0,0,1,.63-2.4q-3.05-1.74-2.62.9c-.37,4.58,5.58,6.24,8.54,3.54,1.07-1,3.57-2.21,4.28-3.38q2.07-.91-1.46-2.18a11.38,11.38,0,0,1-.16,2.3l7.52-4.32-.78-.42,2.3,3,.13.81-2.3,3c-1.33.73.81,1,1.87,1.26a8.2,8.2,0,0,0,3,.05,7.31,7.31,0,0,0,5.09-3.61H75v-.33c.32,6.42,9.74,6.45,10,0l.1-2.51c.14-3.37-3.29-5.53-6.33-4.82-5.18,1.2-9.67-3.52-14.47,1.08-2.92,2.8-3.15,8.3.58,10.55,4.51,2.71,6.77-2.46,10.49-1.85,2,.32,3.25,1.71,5.45,1.4,2.85-.4,4.71-3.1,6.44-5.11H80.24l7.31,7.66c3.84,4,11.1-1.29,7.85-6.06-2.26-3.32-4.69-7-9.14-7.1a7.33,7.33,0,0,0-7.47,5.7,5.07,5.07,0,0,0,3.49,6.15,9.68,9.68,0,0,0,6.16-.43c2-.75,2-1.35,4.37-.64,1.18.36,2.24.92,3.46,1.17,4.66,1,9.85-.94,11.37-5.64l-7.34,3c1.95,1.08,2.5,2.87,5.11,3.09a5.73,5.73,0,0,0,3.27-.62l1-.78q2.39-1.35-1.54-1.19c4,5,11.07-2.1,7.07-7.07-3.84-4.77-8.9-1.75-12.6,1.19l3.54-1.46-.75-.06,3.54,1.46c-1.29-1.1-2.06-2.34-3.6-3.19a5.07,5.07,0,0,0-7.34,3l-.29.89,2.3-3c-2.66,1.6-6.19-1.54-9.25-1.43a11.18,11.18,0,0,0-3.78,1c-.57.23-2.89.89-2.05,1.09l3.49,6.15q-4.48,1.35-1.67,3.79l7.85-6.06-7.31-7.66c-1.76-1.85-5.34-2-7.07,0q-1.26,1.49-2.56,3l3.85-.5c-3-.5-4.84-2.1-8.12-1.75s-5,2.18-7.71,3.49l3.85-.5-.78-.19,3,2.3q-3.57,4.14.25,4.54a10.82,10.82,0,0,0,3.31.78,16.51,16.51,0,0,0,6.14-.46L75.14,142l-.1,2.51H85a9,9,0,0,0-1.36-4.72,5.06,5.06,0,0,0-8.63,0c1.13-1.7,2.18-1.28-.18-2.21a6.17,6.17,0,0,0-2.34-.26,7,7,0,0,0-5.29,2.47,6.37,6.37,0,0,0,2,9.62c3.62,2,7.07-.59,7.52-4.32.55-4.56-1.07-9.66-6.13-10.63-5.2-1-10.09,3.6-13.6,6.82l8.54,3.54c.41-5.12-1.79-10.77-7.72-11-5.76-.23-8.81,5-9.94,9.85h9.64c-1.73-6.19-7.44-7.33-13-5.78-3,.82-4.78,4.62-3,7.34a10.76,10.76,0,0,0,7.24,5.17c5.06,1,8.07-4.49,4.86-8.36-2.24-2.71-5.38-3.36-8.71-2.57a5,5,0,0,0-3.67,4.82A8.4,8.4,0,0,0,42.76,149c1.92,2.77,6.94,3.71,8.63,0A15.2,15.2,0,0,0,53,140.79c-.6-6.35-10.6-6.41-10,0Z" transform="translate(-34.54 -24.69)"/><path class="cls-2" d="M112.26,149.22h.08c1.7,1.8,5.42,2.08,7.07,0,.42-.53,3.26-3.83,1.13-2.42l-3.85.5q-1.48-1.17-.13.14a15.31,15.31,0,0,0,1.76,1.28c1.35.68,2.59.4,3.94.76l-3-2.3.46.71a5.08,5.08,0,0,0,6.84,1.79c1.79-1.11,3.06-.93,5-1.32l1.7-.24q-2-.43.43.75l4.32-7.52a5.74,5.74,0,0,1-3.25-1.06v8.63l.75-.41c6.32-.71,6.4-10.72,0-10a13.55,13.55,0,0,0-5.8,1.78,5,5,0,0,0,0,8.63,19.17,19.17,0,0,0,8.3,2.42c3.76.29,6.26-4.47,4.32-7.52-4.53-7.11-14.17-6.86-20.77-2.78l6.84,1.79a6.52,6.52,0,0,0-4.36-3.24,4.29,4.29,0,0,0-1.8-.14q-1.32,0,.77.23a10.55,10.55,0,0,0-2.27-1.61,5.9,5.9,0,0,0-5.59.33,6.59,6.59,0,0,0-2.16,2c-.2.3-1.62,3-.63,1.7h7.07a8.57,8.57,0,0,0-7.15-2.91c-6.4.33-6.44,10.33,0,10Z" transform="translate(-34.54 -24.69)"/><path class="cls-2" d="M142.29,148.52l-1-1.56c.49,4,5.27,7,8.54,3.54q2-1.22-.68-2.2a5.08,5.08,0,0,0,9.14,1.19q-4.34-3.06-2.72-.29.71,1.05,1.51,2a9,9,0,0,0,4.38,2.44,8.23,8.23,0,0,0,5.07-.59,6.5,6.5,0,0,0,2.09-1.33q2.25-1.27-.79-1a5.09,5.09,0,0,0,6.84-1.79l1.56-2.82h-8.63c1.74,2.3,2,4.62,5,5.74s4.59-.93,7.28-1.17c6.36-.57,6.42-10.57,0-10-1.14.1-4.51.29-5.13,1.45-.43.82,2.59,2,2.79,1.4s-1-2.13-1.29-2.47c-2.14-2.83-6.65-3.6-8.63,0l-1.56,2.82,6.84-1.79a7.69,7.69,0,0,0-7.28-.39,9.47,9.47,0,0,0-3.09,2.17q2.58,1.11,1.26-.76a14,14,0,0,0-1-1.39c-4.34-4.89-10-1.56-13.12,2.68l9.14,1.19c-2.91-7.4-10.91-7.65-16-2.21l8.54,3.54c-.7-5.73-5.68-10.33-11.7-8.08s-3.39,11.89,2.66,9.64Z" transform="translate(-34.54 -24.69)"/><path class="cls-2" d="M177,148.13a4.32,4.32,0,0,1,1.56,2.92c1,3.8,5.64,4.66,8.36,2.21a16.82,16.82,0,0,0,3.61-4.6l-6.84,1.79,1.28.82c2.75,1.77,6.5,0,7.34-3l.74-2.62-9.14,1.19,2.34,4.25c2.08,3.78,8,2.9,9.14-1.19l.2-.74-2.3,3c-1.85,1,3.1.31,3.79,0a7.24,7.24,0,0,0,1.9-1.4c.48-.43,2-1.69.48-.79l-3.85.5c-2.14-.82.58,1,.79,1.08a7.29,7.29,0,0,0,3.24.81c2.62-.09,3.49-1.86,5.27-3.25l-3.54,1.46q-1.51-.87-.56,1.2c.88,6.35,10.51,3.65,9.64-2.66-.52-3.74-2.3-7.28-6.2-8.35-3.68-1-5.65.81-8.16,3.05l4.86-1.29q1.42,1,.56.19a5.17,5.17,0,0,0-1.32-1.12,7.16,7.16,0,0,0-1.94-.79c-2-.43-4.87.3-6,2.2q-1,1.07.57,0,2.09-.68-.37-.64a6,6,0,0,0-2.88.44,5.9,5.9,0,0,0-3.89,4.39l9.14-1.19-2.34-4.25c-2.1-3.81-8-2.87-9.14,1.19l-.74,2.62,7.34-3-1.28-.82a5,5,0,0,0-6.84,1.79,5.44,5.44,0,0,1-2,2.58l8.36,2.21a16.11,16.11,0,0,0-4.13-7.34c-4.43-4.68-11.5,2.4-7.07,7.07Z" transform="translate(-34.54 -24.69)"/><path class="cls-2" d="M213.21,148.71l.55-2q.74-2.17-.51.32l-3.54,1.46.68-.06-2.52-.68c-1.56-1.19-.06.67.29,1.37l1.48,3c1.4,2.82,5.78,3.28,7.85,1a10.07,10.07,0,0,0,1.38-1.79,6.09,6.09,0,0,0,.41-.9q1-2-1.77,1h-2.66c-1.79-.34-2.19-2.31-1.37-.62a7.56,7.56,0,0,0,1.23,1.8,6.42,6.42,0,0,0,4.41,2.08,6.1,6.1,0,0,0,4.06-1.4,8.35,8.35,0,0,0,1.67-1.88c.35-.53,1.29-1.25.35-.79l-2.52.68L220.6,150c3.37,5.47,12,.45,8.63-5a7,7,0,0,0-7.24-3.52,6.81,6.81,0,0,0-3.71,1.92,7.35,7.35,0,0,0-1.2,1.55c-.3.55-1.13,1.24.07.48l2.52-.68-.57,0,2.52.68c.68.3.83,1,.19-.15A7.39,7.39,0,0,0,221,144a6.08,6.08,0,0,0-8.89-.72,7.21,7.21,0,0,0-1.16,1.45c-.2.33-1.44,2.3-.52,1.3l7.85,1c-1.68-3.39-3.34-8.5-7.88-8.62s-5.81,3.93-6.82,7.6c-1.71,6.21,7.94,8.87,9.64,2.66Z" transform="translate(-34.54 -24.69)"/><path class="cls-2" d="M233.31,148a28.31,28.31,0,0,0,2.13-3.76L226.3,143l2.28,7c1.62,5,7.84,4.47,9.64,0-.83,2.06-6.62-2.85-5.35.92a5,5,0,0,0,.88,1.43,5.93,5.93,0,0,0,4.64,2.38c4.26.08,5.79-3.77,7.3-7l-5.65,2.3,1.68.65a4.89,4.89,0,0,0,4.86-1.29,7.41,7.41,0,0,0,1.71-2.37l.5-1.19q-6.17-2.27-4.77,1c1.74,6.19,11.39,3.56,9.64-2.66-1-3.41-3.07-6.56-6.89-7a6.68,6.68,0,0,0-5.07,1.58c-1.11,1-1.42,2.67-2.2,3.49L244.4,141l-1.68-.65a5,5,0,0,0-5.65,2.3l-1,2.23q-1.68,2.71,2.08-.19l3.54,1.46c-.42-.37-.9-1.75-1.44-2.37a6.3,6.3,0,0,0-4.48-2.32c-3.76-.24-5.9,2.77-7.15,5.87h9.64l-2.28-7c-1.22-3.75-7.19-5.33-9.14-1.19a28.31,28.31,0,0,1-2.13,3.76c-3.59,5.36,5.07,10.37,8.63,5Z" transform="translate(-34.54 -24.69)"/><path class="cls-2" d="M141.27,149.43h2.47l-3-3-.11.19A3,3,0,0,0,144,151c6.44-1.92,12.89-1.23,19.5-.78,6,.41,14.06-1.54,19.68.84,3.52,1.49,6.58-3.68,3-5.18-6.73-2.84-13.81-1.15-20.91-1.54-7.75-.43-15.32-1.38-22.89.88l3.39,4.41a6.45,6.45,0,0,0,.93-3.22,3,3,0,0,0-3-3h-2.47c-3.86,0-3.87,6,0,6Z" transform="translate(-34.54 -24.69)"/><path class="cls-2" d="M208.92,153.71c5.27,0,10.81.38,16.06-.16a37.31,37.31,0,0,0,3.85-.94c2.53-.53,5.11-.08,7.66-.66,3.76-.86,2.17-6.64-1.6-5.79-2.06.47-4.08.1-6.15.4-1.68.24-3.14.83-4.82,1-4.89.53-10.09.09-15,.13-3.86,0-3.87,6,0,6Z" transform="translate(-34.54 -24.69)"/><path class="cls-2" d="M244.08,147.87a53.11,53.11,0,0,0,9.32-.26,3.09,3.09,0,0,0,3-3c0-1.48-1.38-3.19-3-3a53.11,53.11,0,0,1-9.32.26c-3.86-.23-3.84,5.77,0,6Z" transform="translate(-34.54 -24.69)"/><path class="cls-2" d="M249.89,77.51c.86,17.27,1.6,34.72-3.28,51.51l5.89.8c-.85-16.14-.35-32.28.22-48.41.13-3.87-5.79-3.84-6,0a157.4,157.4,0,0,1-6.86,38h5.79a103.43,103.43,0,0,1-2.43-51.69l-5.89-.8a287.31,287.31,0,0,1-1.78,36h6c.35-5.89.86-11.62,2.84-17.21h-5.79a78.69,78.69,0,0,1,4.48,16.47c.57,3.58,5.6,2.31,5.89-.8a64.75,64.75,0,0,0,.16-10.33c-.2-3.2-5.14-4.29-5.89-.8L239.85,106l5.48-.72a9.64,9.64,0,0,1-1.11-3.68c-.38-3.19-4.87-4.27-5.89-.8l-1.61,5.45c-1.09,3.71,4.69,5.3,5.79,1.6l1.61-5.45-5.89-.8a20.31,20.31,0,0,0,1.93,6.71c1.11,2.3,5,1.73,5.48-.72L249,91.91l-5.89-.8a64.75,64.75,0,0,1-.16,10.33l5.89-.8a78.69,78.69,0,0,0-4.48-16.47,3,3,0,0,0-5.79,0c-2.16,6.09-2.67,12.4-3.06,18.81-.23,3.92,5.58,3.75,6,0a287.31,287.31,0,0,0,1.78-36c0-3.28-5.18-4.21-5.89-.8A109.89,109.89,0,0,0,239.86,121a3,3,0,0,0,5.79,0,164.15,164.15,0,0,0,7.07-39.61h-6c-.56,16.14-1.07,32.28-.22,48.41.18,3.32,4.92,4.14,5.89.8,5-17.31,4.38-35.3,3.49-53.1-.19-3.84-6.19-3.87-6,0Z" transform="translate(-34.54 -24.69)"/><path class="cls-2" d="M227.48,86l0,15h6l-.19-24.85-5.89.8a290.54,290.54,0,0,1,6.87,39.53l5.89-.8a152.68,152.68,0,0,0-6-22.56,3,3,0,0,0-5.89.8l-.72,18.25,5.89-.8q-3.5-11-6.22-22.3c-.81-3.36-5.8-2.52-5.89.8a81.85,81.85,0,0,0,1.26,16.7c.54,3.09,5,2.61,5.79,0a228.54,228.54,0,0,0,6.21-24.29l-5.89-.8A151.11,151.11,0,0,1,229,99.06l5.89-.8c-1.5-5.76-2.09-14.17-6-18.77a3,3,0,0,0-4.71.61,49.6,49.6,0,0,0-6.78,22.05c-.27,3.85,5.73,3.84,6,0a42.86,42.86,0,0,1,6-19l-4.71.61c1.47,1.7,1.75,5.58,2.29,7.65l2.21,8.48c.87,3.35,5.76,2.53,5.89-.8a151.11,151.11,0,0,0-.32-17.52c-.24-3.15-5.19-4.33-5.89-.8A228.54,228.54,0,0,1,222.61,105h5.79a73.89,73.89,0,0,1-1-15.1l-5.89.8q2.72,11.26,6.22,22.3a3,3,0,0,0,5.89-.8L234.28,94l-5.89.8a152.68,152.68,0,0,1,6,22.56c.61,3.28,6.24,2.58,5.89-.8a302.22,302.22,0,0,0-7.08-41.12c-.81-3.3-5.92-2.58-5.89.8l.19,24.85c0,3.86,6,3.87,6,0l0-15c0-3.86-6-3.87-6,0Z" transform="translate(-34.54 -24.69)"/><path class="cls-2" d="M252.55,90.35a9.74,9.74,0,0,1,1,4.9c.07,3.55,4.71,3.86,5.89.8a35.59,35.59,0,0,0,1.74-6l-5.48.72c1.94,3,.43,9,.11,12.37-.39,4-.77,8-1.28,12a107.25,107.25,0,0,1-5.84,23.06c-1.31,3.64,4.49,5.21,5.79,1.6a117,117,0,0,0,6.28-26.49c.58-4.95,1.09-9.91,1.48-14.88.3-3.79.78-7.39-1.35-10.72-1.29-2-5-2-5.48.72a35.59,35.59,0,0,1-1.74,6l5.89.8a19.92,19.92,0,0,0-1.82-7.93c-1.54-3.53-6.71-.48-5.18,3Z" transform="translate(-34.54 -24.69)"/><path class="cls-2" d="M253.46,145.61a5.83,5.83,0,0,0,3.2-5.58h-6a53.74,53.74,0,0,0,1.35,7.56c.72,2.81,5.12,2.91,5.79,0a47.78,47.78,0,0,0,1.13-8h-6l-.08,6.57c0,3.92,5.67,3.79,6,0,1.1-12.41,3.39-25.36,2.3-37.81-.33-3.82-6.34-3.85-6,0,1.09,12.45-1.2,25.4-2.3,37.81h6l.08-6.57c0-3.89-5.77-3.83-6,0A38.15,38.15,0,0,1,252,146h5.79a41.87,41.87,0,0,1-1.14-6c-.42-3.75-5.94-4-6,0l-.23.4c-3.3,2-.29,7.18,3,5.18Z" transform="translate(-34.54 -24.69)"/><path class="cls-2" d="M255.2,107.75c-.11.94-.28,1.87-.48,2.79l5.89.8a8.2,8.2,0,0,1,.39-1.79l-5.89-.8.17,1.92a3,3,0,0,0,5.12,2.12c1.91-1.77,1.26-5.17,1.25-7.52,0-3.86-6-3.87-6,0v4.11q0,.95.5-.84l5.12,2.12-.17-1.92a3,3,0,0,0-5.89-.8,15.45,15.45,0,0,0-.61,3.38c-.27,3.36,5.19,4.1,5.89.8.31-1.45.52-2.91.69-4.39s-1.51-3-3-3a3.07,3.07,0,0,0-3,3Z" transform="translate(-34.54 -24.69)"/><path class="cls-2" d="M156.85,125.64l22,0c5.65,0,7.23-7.33,2.78-10.25-9-5.9-22.7-6-33.09-6.43-10.55-.45-23.86-1.37-32.89,5.11-4.28,3.08-3,10.13,2.78,10.25a82.86,82.86,0,0,0,41-9.91c3.29-1.76,3.36-6.1,1.11-8.64-4.78-5.41-13.94-1.91-19.74-.18a95.7,95.7,0,0,0-22,9.81c-3.26,2-3.89,7.71,0,9.5a15.31,15.31,0,0,0,4.26,1.46V115.73a217.05,217.05,0,0,0-36.61,8.51c-4.63,1.51-5.8,9.8,0,10.61a49.63,49.63,0,0,0,21.19-1.32c5.82-1.69,4.89-11-1.46-10.8-11.34.43-22.45,2.08-32.55,7.51-4.58,2.46-2.75,10.84,2.78,10.25q33.18-3.53,66.18-8.53c6.06-.92,4.71-11.5-1.46-10.8a333.11,333.11,0,0,0-45.13,8.23c-6.15,1.57-4.63,10.57,1.46,10.8l44.54,1.73v-11l-33.09.93v11L188.39,139c7-.34,7.12-10.83,0-11a164.65,164.65,0,0,0-20.85.82c-7,.72-7.19,10.61,0,11q9.82.53,19.64.28l-1.46-10.8a222.25,222.25,0,0,1-30.52,3.54c-5.86.28-7.87,9.66-1.46,10.8,11.57,2.07,23.17,4,35,2.9s23.22-1.4,35-1.47c8.7-.05,23.52,1.41,29.3-6.71,6.11-8.58.12-18-5.93-24.49-3.09-3.31-7.75-1.18-9.19,2.43a76.86,76.86,0,0,0-5.25,23.35l9.39-3.89c-2.24-2.44-2.66-5.93-3.22-9.07l-3.84,6.77a20.59,20.59,0,0,1,7.13-.2c3,.36,5.46-2.81,5.5-5.5a20.13,20.13,0,0,0-6.47-15.3,5.56,5.56,0,0,0-8.64,1.11q-7.09,12.64-15.11,24.71c-3.93,5.91,5.59,11.43,9.5,5.55q8-12.07,15.11-24.71l-8.64,1.11a9.27,9.27,0,0,1,3.25,7.53l5.5-5.5a29.68,29.68,0,0,0-10.05.59c-3.09.67-4.34,4-3.84,6.77.93,5.25,2.38,9.93,6,13.92,3.45,3.75,9.07.58,9.39-3.89a67.5,67.5,0,0,1,4.85-20.43l-9.19,2.43c1.87,2,6,5.72,5.23,9-.87,3.65-8.22,3-11.09,3.18-8.44.5-16.9.13-25.34.28-8,.15-15.83,1.42-23.79,1.77-9.31.41-18.5-1.2-27.63-2.83l-1.46,10.8a243.92,243.92,0,0,0,33.45-3.94c6.13-1.15,4.67-11-1.46-10.8q-9.83.25-19.64-.28v11a164.65,164.65,0,0,1,20.85-.82V128l-79.55,3.86c-7,.34-7.11,11.2,0,11l33.09-.93c7.09-.2,7.08-10.73,0-11l-44.54-1.73L98.85,140a311.87,311.87,0,0,1,42.21-7.84l-1.46-10.8q-31.54,4.77-63.25,8.14l2.78,10.25c8.36-4.5,17.64-5.66,27-6l-1.46-10.8a36.42,36.42,0,0,1-15.34,1.32v10.61a217.05,217.05,0,0,1,36.61-8.51c5.3-.76,5.2-9.75,0-10.61l-1.64-.35v9.5a83.39,83.39,0,0,1,15.2-7.34c2.47-.87,5-1.64,7.51-2.29,1.13-.29,2.26-.56,3.4-.79q1.22-.28,2.45-.47,1.56-.07-.17-.45l1.11-8.64a71.29,71.29,0,0,1-35.41,8.41l2.78,10.25c7.33-5.27,18.78-4,27.34-3.61s20.22.12,27.54,4.92l2.78-10.25-22,0c-7.08,0-7.09,11,0,11Z" transform="translate(-34.54 -24.69)"/><path class="cls-2" d="M222.5,123.82l-20.65,0c-7.08,0-7.09,11,0,11a83.77,83.77,0,0,0,28-4.73,5.53,5.53,0,0,0-1.46-10.8q-19.75-1.12-39.52-.79l1.46,10.8c6.8-2.61,13.6-5.24,20.25-8.24,5.58-2.52,11.75-5.12,15.7-10,1.46-1.8,3.46-4.89,3.32-7.37l.24-1.26q-4,1.41-1,2.18c.79.91,2.47,1,3.2,2.05,3.29,4.89-11.17,7.48-14.08,7.51l1.46,10.8a37.08,37.08,0,0,0,14.38-7.69c4.6-3.87-.5-10.09-5.35-9.19a73.73,73.73,0,0,0-16,5l7.53,7.53c3.36-6.2,11.24-17.39,2.16-22.36-3.69-2-8.71-1.67-12.75-1.5a76.32,76.32,0,0,0-15.62,2.41L198,109.25l21.44-16.41c4.41-3.37,2.12-12.62-4.24-10.05A157,157,0,0,0,192,94.38a5.55,5.55,0,0,0,2.78,10.25,40.34,40.34,0,0,0,14.24-2l-5.35-9.19a131.4,131.4,0,0,1-12.3,10.35c-4.27,3.15-3,10,2.78,10.25l10.15.35-2.78-10.25q-15.13,10-31,18.62c-4.16,2.26-3.2,8.88,1.31,10.05,4.18,1.08,7.31.11,10.6-2.55,3.87-3.13.52-9.35-3.89-9.39a80.62,80.62,0,0,0-39.15,9.74c-5.76,3.1-1.62,11.2,4.24,10.05,17.69-3.45,35.57-8,53.67-8.34l-3.89-9.39a35.61,35.61,0,0,1-8.23,5.62c-5.4,2.74-2.08,9.66,2.78,10.25a91,91,0,0,0,21,.12c4.84-.53,8.2-7.59,2.78-10.25-10.44-5.12-24.59-3.77-35.94-3.8-12.85,0-25.7.14-38.5-1.19L140,133.9a57,57,0,0,1,16-8.79c4.28-1.49,5.67-7.62,1.31-10.05-3.72-2.08-7.28-1.48-10.42,1.25-3.43,3-.82,9.88,3.89,9.39a77.11,77.11,0,0,0,23.84-6.4c4.11-1.83,3.27-9.41-1.31-10.05a22,22,0,0,0-11.73,1.06c-6.53,2.6-4.14,11.92,2.92,10.61q12.57-2.33,25.26-3.81l-1.46-10.8a292.74,292.74,0,0,0-28.13,9.43l4.24,10.05a106.34,106.34,0,0,0,18.82-13.47c5.3-4.72-2.51-12.48-7.78-7.78a93.08,93.08,0,0,1-16.59,11.75c-5.28,3-1.69,12.38,4.24,10.05a292.74,292.74,0,0,1,28.13-9.43c5.74-1.61,4.89-11.53-1.46-10.8q-14.16,1.62-28.18,4.2l2.92,10.61a11.29,11.29,0,0,1,5.88-1.06l-1.31-10.05a60.37,60.37,0,0,1-18.29,4.9l3.89,9.39-2.91.47,1.31-10.05a65.84,65.84,0,0,0-18.65,9.9c-4.4,3.37-2.9,9.66,2.78,10.25,11.52,1.2,23.08,1.18,34.65,1.18,5.46,0,10.93,0,16.39.2s12.79-.38,17.86,2.11l2.78-10.25a91,91,0,0,1-21-.12L190.64,138a46.22,46.22,0,0,0,10.45-7.34c3.52-3.24.77-9.46-3.89-9.39-19.08.3-38,5.09-56.59,8.73l4.24,10.05a68.89,68.89,0,0,1,33.6-8.24l-3.89-9.39.1-.28L176,132.22q15.92-8.65,31-18.62a5.55,5.55,0,0,0-2.78-10.25L194.1,103l2.78,10.25a154.32,154.32,0,0,0,14.53-12.07c3.91-3.69-.11-10.93-5.35-9.19a31.27,31.27,0,0,1-11.31,1.64l2.78,10.25A140.18,140.18,0,0,1,218.1,93.4l-4.24-10.05L192.42,99.75c-4.68,3.58-2.25,11.72,4.24,10.05a62.08,62.08,0,0,1,16.29-2.07c.31,0,3.55.24,3.59.14L215,106.15l-.72,1.51c-1.62,1.75-2.67,5.29-3.83,7.43-2.82,5.2,2.67,9.62,7.53,7.53a61.83,61.83,0,0,1,13.37-3.9L226,109.53a24.28,24.28,0,0,1-9.53,4.86c-6,1.63-4.8,10.85,1.46,10.8,8.63-.07,20-3.31,24.38-11.53s-1.8-15.66-9.14-19.1c-3.59-1.69-7.65-2.79-11,0s-2.21,7.36-5.05,10.27c-3.3,3.37-8.73,5.23-12.94,7.11-5.51,2.45-11.15,4.59-16.77,6.75-5.47,2.1-5.16,10.91,1.46,10.8q19.77-.33,39.52.79l-1.46-10.8a74.31,74.31,0,0,1-25.05,4.34v11l20.65,0c7.08,0,7.09-11,0-11Z" transform="translate(-34.54 -24.69)"/><path class="cls-2" d="M202.15,98q-23.62-.59-47.2,1.09l1.46,10.8c20.3-7.88,42.78-6,63.17-13.52,4.54-1.68,5.88-9.6,0-10.61-17.48-3-33.9,2.38-50.11,8.48l5.35,9.19,15.35-15.59c3.22-3.27,1-9.61-3.89-9.39-8.49.39-12.88,6.34-19.7,10.3-6.19,3.6-14.14,2.88-17.79,10.22-2.2,4.43,2.69,11.06,7.53,7.53,9.65-7.05,19.69-14.34,31.21-18,4.54-1.43,10.61-3.17,15.3-1.36,2.79,1.07,4.37,3.33,5.38,6.05.32.85,2.38,8.49.93,8.49L213.9,110a11.75,11.75,0,0,1,4.69-5.7L210.51,101c.63,3.82-1,7.71-.6,11.59a12.58,12.58,0,0,0,4.11,8.48c4.65,3.93,12,3,15-2.44a5.56,5.56,0,0,0-3.29-8.08,19.33,19.33,0,0,0-12.52.63c-6.47,2.63-3.64,13.28,2.92,10.61a9.44,9.44,0,0,1,6.68-.63l-3.29-8.08,1.51-.55a5.72,5.72,0,0,1-.23-2.14,30.54,30.54,0,0,1,.46-4.22,27.33,27.33,0,0,0-.14-8.09c-.57-3.49-5.31-5-8.08-3.29a21.75,21.75,0,0,0-8.63,9.65c-1.64,3.69.24,8.27,4.75,8.28,10.76,0,12.44-11.1,10.51-19.46-2-8.65-7.64-15.8-16.72-17.32C184.07,72.76,165.07,86.56,150.77,97l7.53,7.53c1.12-2.26,3.72-2.5,6-3.17a34.1,34.1,0,0,0,7.87-3.11c4.4-2.61,8.75-8.56,14.15-8.8l-3.89-9.39L167,95.65c-3.62,3.67,0,11.21,5.35,9.19,14-5.27,29.05-11.08,44.26-8.48V85.76c-20.39,7.55-42.87,5.64-63.17,13.52-5.31,2.06-5.23,11.28,1.46,10.8q23.57-1.68,47.2-1.09c7.08.18,7.08-10.82,0-11Z" transform="translate(-34.54 -24.69)"/><path class="cls-2" d="M42.5,142.23l-1,5.29h5.79c-1.6-5.56-1.86-11.22.12-16.68l-5.48.72a25.59,25.59,0,0,1,2.86,17.28c-.69,3.76,4.61,5.33,5.79,1.6.83-2.64-.32-5.42-3.29-5.78a3.8,3.8,0,0,0-3.16.89c-.6.48-2.37,3.07-1.27,2.39l3,5.18a6.49,6.49,0,0,1,4.8-1.15,2.92,2.92,0,0,0,2.59-1.49l.31-.52-4.1-1.08c.39.69.52,1.74.89,2.5A3,3,0,0,0,53,152.86a10.33,10.33,0,0,0,2.39-.35,7.33,7.33,0,0,1,3-.19,13.39,13.39,0,0,0,8-1.7h-3c1.67,1,2.14.8,4,1,2,.17,4.13,1.16,6.07,1.86a3.05,3.05,0,0,0,3.39-1.38q-.57-1.77.36-.26l.61.47a7.76,7.76,0,0,0,2.62.77c2.79.09,6.51-1.86,9.1-2.69,3.66-1.18,2.09-7-1.6-5.79-2.12.69-4.74,2.13-6.94,2.24-2.64.13,1.1.34-.4-.26-.55-.22-1-.84-1.63-1.09-3.16-1.26-5.63,1.19-7.3,3.57l3.39-1.38c-3.07-1.11-6.82-2.78-10.1-2.62a9.28,9.28,0,0,0-1.51.41c-3,.61-3.32.82-6.06.6a7.74,7.74,0,0,0-2.29-.11c-.67.14-1.36,1-2,.93l2.59,1.49c-.39-.81-.41-1.66-.89-2.5-.74-1.29-2.81-2-4.1-1.08a7.31,7.31,0,0,0-2.46,2.68L50.68,146a10.88,10.88,0,0,0-7.82,2c-3.15,2.16-.3,7.24,3,5.18a4.67,4.67,0,0,0,1.73-1.48c1.5-2.49-2.84-2.78-2.83-2.8l5.79,1.6a32.08,32.08,0,0,0-3.47-21.9c-1.33-2.42-4.65-1.58-5.48.72-2.31,6.38-2,13.4-.12,19.87.77,2.68,5.22,3,5.79,0l1-5.29c.71-3.77-5.07-5.39-5.79-1.6Z" transform="translate(-34.54 -24.69)"/><path class="cls-2" d="M61.67,146.41c.3.81,0-.31.06.17,0,.29.07-.3,0,.22a9.32,9.32,0,0,0-.26,1.87,4.56,4.56,0,0,0,2.05,4c2.9,1.64,6.67-.8,5.83-4.18l-5.48,2.31.58.77a3.1,3.1,0,0,0,4.1,1.08l.79-.41a3,3,0,0,0,1.08-4.1,3.07,3.07,0,0,0-4.1-1.08l-.79.41,4.1,1.08L69,147.8a3.06,3.06,0,0,0-3.75-1.23,3,3,0,0,0-1.74,3.54l1.49-2.8,1,0,1.37,1.3,0,.3a2.31,2.31,0,0,0,0-.53c0,.47,0,.12.05-.15a6.38,6.38,0,0,0,0-3.43,3,3,0,1,0-5.79,1.6Z" transform="translate(-34.54 -24.69)"/><path class="cls-2" d="M52.61,152.23l2.6,1.77a3,3,0,0,0,4.1-1.08,3.07,3.07,0,0,0-1.08-4.1L55.64,147a3,3,0,0,0-4.1,1.08,3.07,3.07,0,0,0,1.08,4.1Z" transform="translate(-34.54 -24.69)"/><path class="cls-2" d="M56.68,154l.58.3a3,3,0,1,0,3-5.18l-.58-.3a3,3,0,1,0-3,5.18Z" transform="translate(-34.54 -24.69)"/><path class="cls-2" d="M94.8,143.71a4.62,4.62,0,0,0,.91,3c.29.39,2.5,1.71,2.53,1.87l2.89-3.8q-1.62-.17-3.23-.45c-2.68-.43-5.38,2.81-2.92,5,3,2.71,7,3.26,8.64-1l-2.1,2.1c-1,.22-1.36-.21,0,.4a7.1,7.1,0,0,0,2.3.6,4.7,4.7,0,0,0,3.06-.7h-3c2.39,1.48,4.64.27,5.65-2.11h-5.18l.81,1.43a3,3,0,0,0,5.48.72l.82-1.25-4.1,1.08,1,.71a3,3,0,0,0,3.64-.47,4,4,0,0,0,.87-1q.88-1.58-.81.11l-2.92-.77a3.78,3.78,0,0,0,3.68,1.32c1.2-.25,2.23-1.62,2.54-1.78l-4.41-1.79a15.37,15.37,0,0,0,1.13,2.4,3,3,0,0,0,5.18,0l.64-.81-5-1.32a9.38,9.38,0,0,0,1.11,3.17,3,3,0,0,0,2.59,1.49,4.64,4.64,0,0,0,2.34-.67c.6-.35,2-1.19.56-.92l-2.92-.77.34.35a3.05,3.05,0,0,0,4.24,0l.49-.46-5-1.32.42,1.77c.9,3.75,6.69,2.16,5.79-1.6l-.42-1.77a3,3,0,0,0-5-1.32l-.49.46h4.24a3.32,3.32,0,0,0-3.25-1.12c-.94.16-3.6,1.49-1.31,1.37l2.59,1.49a5.78,5.78,0,0,1-.51-1.74c-.48-2.29-3.47-2.8-5-1.32a8,8,0,0,0-1.58,2h5.18l-.52-1a3.06,3.06,0,0,0-4.41-1.79,4,4,0,0,0-1.17.76q-1.67,1.67,2.22.63a3,3,0,0,0-2.92-.77,4.34,4.34,0,0,0-2.06,1.22c-.21.2-1.45,1.94-.66,1.2l3.64-.47-1-.71c-1.36-1-3.29-.18-4.1,1.08l-.82,1.25,5.48.72a7.4,7.4,0,0,0-1.41-2.86c-1.18-1.54-4.19-2.32-5.18,0l2.56,0a3,3,0,0,0-3,0,9.65,9.65,0,0,0-3.65-1,5.14,5.14,0,0,0-1.62.84l-.47.61q-1,2,1.09-1l-2.92,5q2.41.39,4.83.67c2.14.25,3.16-2.11,2.89-3.8-.18-1.14-3.28-4.52-3.23-3.24-.16-3.85-6.16-3.87-6,0Z" transform="translate(-34.54 -24.69)"/><path class="cls-3" d="M98.55,78.16a7.22,7.22,0,0,0-2.37,8.23c.91,2.37,3.48,4.81,6.23,4s3.62-5.5,3.49-7.88a4.74,4.74,0,0,0-5.39-4.69c-1.27.21-.73,2.14.53,1.93,4.86-.82,2.92,10.48-1,8.44-3.45-1.81-2.67-6.5-.09-8.56,1-.8-.42-2.21-1.41-1.41Z" transform="translate(-34.54 -24.69)"/><path class="cls-3" d="M88.56,89.69a45.63,45.63,0,0,1,0-5.73A27.25,27.25,0,0,1,89,80.44l.14-.75q.22-2.49,2.38-.18c-.77,1,1,2,1.73,1,2-2.68-1.1-5.84-4-4.4-1.76.88-2.1,3-2.35,4.74a44.1,44.1,0,0,0-.34,8.85c.07,1.28,2.07,1.29,2,0Z" transform="translate(-34.54 -24.69)"/><path class="cls-3" d="M85.36,84.61l5.07-.46c1.27-.12,1.28-2.12,0-2l-5.07.46c-1.27.12-1.28,2.12,0,2Z" transform="translate(-34.54 -24.69)"/><path class="cls-3" d="M115.71,82.2c-2.89-1.88-6.7.72-7.13,3.84-.64,4.65,5.24,4.16,7.86,2.53,1.09-.68.09-2.41-1-1.73-1.28.79-5.64,2.06-4.79-.92.46-1.62,2.51-3,4.07-2,1.08.7,2.09-1,1-1.73Z" transform="translate(-34.54 -24.69)"/><path class="cls-3" d="M110.29,80.1a1.92,1.92,0,0,1,2.42-1.36,3.26,3.26,0,0,1,2.13,2.68c.47,2.09-.51,4.22.08,6.28.64,2.27,4,3.57,5.32,1.13.6-1.14-1.12-2.15-1.73-1q-.83.69-1.24-.19a1.37,1.37,0,0,1-.53-1.54,13.07,13.07,0,0,1,.12-1.39,12.8,12.8,0,0,0,0-3.11,6,6,0,0,0-2.21-4.12c-2.17-1.54-5.77-.71-6.31,2.09-.24,1.26,1.68,1.8,1.93.53Z" transform="translate(-34.54 -24.69)"/><path class="cls-3" d="M123.85,78.43l-.26,9.92,2-.27c-.31-1.86-.08-5.29,1.71-6.54,3.81-2.67,2.05,5.14,1.86,5.87H131c-.36-2.13-.74-7.26,3.08-6.61,2.45.41,1.55,5.26,1.41,6.91-.12,1.28,1.89,1.27,2,0,.32-3.52.95-9.46-4.18-8.83-4.69.57-4.89,5.28-4.24,9.07.17,1,1.69.9,1.93,0,.67-2.5,1.95-9.92-2.91-9.11-4.09.69-5.07,6.48-4.52,9.78.19,1.14,1.94.82,2-.27l.26-9.92a1,1,0,0,0-2,0Z" transform="translate(-34.54 -24.69)"/><path class="cls-3" d="M175,78.9l-.26,9.92,2-.27c-.31-1.86-.08-5.29,1.71-6.54,3.81-2.67,2.05,5.14,1.86,5.87h1.93c-.36-2.13-.74-7.26,3.08-6.61,2.45.41,1.55,5.26,1.41,6.91-.12,1.28,1.89,1.27,2,0,.32-3.52.95-9.46-4.18-8.83-4.69.57-4.89,5.28-4.24,9.07.17,1,1.69.9,1.93,0,.67-2.5,1.95-9.92-2.91-9.11-4.09.69-5.07,6.48-4.52,9.78.19,1.14,1.94.82,2-.27L177,78.9a1,1,0,0,0-2,0Z" transform="translate(-34.54 -24.69)"/><path class="cls-3" d="M142.71,84.87c2.45.33,7.18-.55,6.8-4-.27-2.43-4.25-3.28-6-2-2.38,1.73-2.88,6.23-1.25,8.55a4,4,0,0,0,6.63.13c.73-1.06-1-2.06-1.73-1-1,1.48-2.93.6-3.54-.73a5.19,5.19,0,0,1,.54-4.56,2,2,0,0,1,2.65-.73c1,.51.4,1.38-.32,1.86a4.93,4.93,0,0,1-3.25.54c-1.26-.17-1.8,1.76-.53,1.93Z" transform="translate(-34.54 -24.69)"/><path class="cls-3" d="M156.32,81.14c-4.58-.52-7.35,6.5-2.54,8.09,1.78.59,3-.68,3.53-2.23,1.23-3.29,1.47-7.26,1.61-10.74h-2a34.41,34.41,0,0,1-.54,6.49c-.27,1.47-.86,3.12-.23,4.59a2.66,2.66,0,0,0,4.31,1c.94-.89-.48-2.3-1.41-1.41-1.7,1.6-.74-3.63-.74-3.64q.18-1,.31-1.94a36.39,36.39,0,0,0,.3-5.08,1,1,0,0,0-2,0,46.77,46.77,0,0,1-1,7.87c-.14.66-.61,4.62-2.56,2-1.47-2,1.73-3.15,2.91-3s1.27-1.86,0-2Z" transform="translate(-34.54 -24.69)"/><path class="cls-3" d="M192.23,80.28v8.5a1,1,0,0,0,2,0v-8.5a1,1,0,0,0-2,0Z" transform="translate(-34.54 -24.69)"/><path class="cls-3" d="M193.23,78a1,1,0,0,0,0-2,1,1,0,0,0,0,2Z" transform="translate(-34.54 -24.69)"/><path class="cls-3" d="M197.69,76.39c0,2.11,0,4.22-.07,6.33-.06,1.6-.51,3.51-.12,5.07s2.37,2.69,3.59,1.15c.79-1-.61-2.42-1.41-1.41a11.6,11.6,0,0,1-.18-2.1c.06-1.05.11-2.11.15-3.16.06-2,.07-3.92.05-5.88a1,1,0,0,0-2,0Z" transform="translate(-34.54 -24.69)"/><path class="cls-3" d="M203.89,76.14q.05,6.44,0,12.88a1,1,0,0,0,2,0q.08-6.44,0-12.88a1,1,0,0,0-2,0Z" transform="translate(-34.54 -24.69)"/><path class="cls-3" d="M206.05,85.35a11.05,11.05,0,0,0,4.09-4,1,1,0,0,0-1.73-1A9,9,0,0,1,205,83.63c-1.12.63-.12,2.36,1,1.73Z" transform="translate(-34.54 -24.69)"/><path class="cls-3" d="M204.78,85.49a10.49,10.49,0,0,0,2.29,1.79c.71.46,1.42.93,1.6,1.81.25,1.26,2.18.73,1.93-.53-.46-2.34-3-2.87-4.39-4.48-.84-1-2.25.44-1.41,1.41Z" transform="translate(-34.54 -24.69)"/><path class="cls-3" d="M149.49,98.29c-4.73.39-5.23,10.1-.18,10.12,4.58,0,6.33-11.13.74-10.24-1.27.2-.73,2.13.53,1.93s.93,2.55.79,3.16c-.21.93-1.13,3.6-2.61,3-1.68-.72-1.26-5.76.73-5.93,1.27-.11,1.28-2.11,0-2Z" transform="translate(-34.54 -24.69)"/><path class="cls-3" d="M156.21,104.23V107l2-.27c-.14-.78.71-2.52,1.63-2.72,1.49-.32,1.29,1.63,1.25,2.53h2a2.75,2.75,0,0,1,.34-1.54c.37-.54,1.12-1.2,1.49-.06a15.33,15.33,0,0,1,0,2.42c.16,1.26,2.16,1.28,2,0-.24-1.91.46-4.81-2.33-5-2.42-.2-3.44,2.2-3.49,4.23,0,1.29,1.94,1.28,2,0,.09-2-.66-5.12-3.39-4.58a4.81,4.81,0,0,0-3.42,5.3c.19,1.13,2,.84,2-.27v-2.75a1,1,0,0,0-2,0Z" transform="translate(-34.54 -24.69)"/><path class="cls-3" d="M168.27,99.34l-.21,4.41a10,10,0,0,0,0,3.36,1.54,1.54,0,0,0,1.29,1.13c.83.09,1-.55,1.71-.82,1.18-.47.66-2.41-.53-1.93a6.92,6.92,0,0,0-1,.61q.76.5.5-.47l.06-1.26.24-5c.06-1.29-1.94-1.28-2,0Z" transform="translate(-34.54 -24.69)"/><path class="cls-3" d="M132.67,98.89v9a1,1,0,0,0,2,0v-9a1,1,0,0,0-2,0Z" transform="translate(-34.54 -24.69)"/><path class="cls-3" d="M139.05,100.42c.53-1.44,2.37-.58,2.41.66a3,3,0,0,1-1.26,2.17,6.78,6.78,0,0,0-2.3,3.08c-.86,3.43,3.32,2.64,5.37,2.63a1,1,0,0,0,0-2H140q-.81.16,0-.59c.47-.93,1.48-1.52,2.17-2.27a4.12,4.12,0,0,0,1.09-4.16,3.23,3.23,0,0,0-6.14-.06c-.44,1.21,1.49,1.73,1.93.53Z" transform="translate(-34.54 -24.69)"/><path class="cls-2" d="M167.86,118.33a7.39,7.39,0,0,0,.91-3.3,6.39,6.39,0,0,0-.56-2.7,5.4,5.4,0,0,0-1.42-2.22,9.17,9.17,0,0,0-1.3-1,12.48,12.48,0,0,0-1.63-.71,4.54,4.54,0,0,0-2.39-.11,4.47,4.47,0,0,0-2.23.71,6,6,0,0,0-2.15,8.21l.94,1.21a6,6,0,0,0,2.65,1.54l.11,0-1.43-.6.1.06-1.21-.94a.77.77,0,0,1,.16.16l-.94-1.21a.86.86,0,0,1,.11.2l-.6-1.43a.86.86,0,0,1,.05.22l-.21-1.6a.77.77,0,0,1,0,.23l.21-1.6,0,.11.6-1.43-.05.1a6.41,6.41,0,0,0-.6,4.62,6.12,6.12,0,0,0,2.76,3.59,6.06,6.06,0,0,0,4.62.6,6,6,0,0,0,3.59-2.76Z" transform="translate(-34.54 -24.69)"/></svg>