<svg id="Слой_1" data-name="Слой 1" xmlns="http://www.w3.org/2000/svg" viewBox="0 0 229.37 29.94"><defs><style>.cls-1{fill:#f4f0ec;}.cls-2{fill:#333;}</style></defs><title>foamedmilk1</title><path class="cls-1" d="M40.94,128.54l-2,1.61-3.85-.5c.9.5,1.26,4.56,1.63,5.67.63,2,1.36,4.13,2.85,5.63a6,6,0,0,0,5,1.9A5.74,5.74,0,0,0,47,142.1c1.31-.87-.88.11-2.24-.24l-3.49-6.15v0l3.49-3.49,6,4.12q-.07.3.12-.47a11.18,11.18,0,0,1,.32-1.14q1-2.24-3.16-.62a13.66,13.66,0,0,0,1.19,2,18.18,18.18,0,0,1,1.12,4.37c.72,4.33,7.18,4.72,9.14,1.19,3.63-6.52,7.6-5.34,14.11-4.86,6.21.46,11.58-1.37,15.75-6.11l-8.36-2.21c1.44,4.69,4.37,10.09,10,10.1s8.58-5.37,10-10l-8.36,2.21c3.94,3.4,8.29,6.27,13.48,7.28a21.57,21.57,0,0,0,7.11.17,15.12,15.12,0,0,1,2.77-.5c2.1.2-.1-.75,1.52,1.45,2.62,3.55,5.23,6.52,10.09,4.33,5.2-2.35,8.89-6.27,14.83-7.22,5.48-.88,10.94.83,16.41.85a23.61,23.61,0,0,0,7.85-1.25c2.81-1,1.42-1.37,4,.6,3,2.32,6.11,4.45,10.11,3.33s6.15-5.06,7.25-8.87l-9.82-1.33c.39,5,1.39,10.85,5.49,14.26a7.51,7.51,0,0,0,10.84-1,15.62,15.62,0,0,0,1.65-2.53q.58-1.26,1.26-2.47l-3,.9c0,1.36,5,2.24,6,2.16,5.48-.41,7.41-5.71,7.81-10.4L200.7,135a42.82,42.82,0,0,0,15.41,5.34,34.53,34.53,0,0,0,8.15.11c2.35-.26,5.62-1.83,7.86-1.59,1.81.19,4,2.28,5.95,2.79a17,17,0,0,0,7.35.07,28.81,28.81,0,0,0,7.51-2.46c2.35-1.16,3.08-3.22,5.12-4.52,5.42-3.44.41-12.1-5-8.63-3.46,2.2-4.93,5.28-9.44,5.84s-7.07-3.2-11.44-3.13-8.28,2-12.74,1.83a31,31,0,0,1-13.62-4.28c-3.52-1.95-7.2.57-7.52,4.32q-.94,2.22,1,.8,2.4-.38.19-1.19a6.26,6.26,0,0,0-2.91-1.1,7.08,7.08,0,0,0-6.25,1.85c-.64.6-3.78,4.87-3.38,5.59q4.3,1,3-.6a5,5,0,0,1-.75-1.45,15.86,15.86,0,0,1-.93-4.85c-.42-5.46-8.18-7-9.82-1.33-.89,3.08-.89,1.09.46,1.89a21.81,21.81,0,0,1-2.15-1.63c-1.83-1.42-3.61-2.85-5.93-3.36s-4,.07-6.16.79a20.33,20.33,0,0,1-9,.93c-5.62-.51-11-1.38-16.64-.13A35.79,35.79,0,0,0,131,129.8c-2.63,1.29-5.22,3.94-7.95,4.8l3.85.5c-1-.41-2.27-4.06-3.71-5.41a8.66,8.66,0,0,0-6.51-2.19c-2.7.15-5,1.34-7.81,1-3.51-.43-6.57-2.47-9.18-4.72A5.07,5.07,0,0,0,91.33,126a6,6,0,0,1-.79,2.1q-1,1.15,1,.68c0-.35-.78-2.32-.94-2.84-1-3.39-5.77-5.14-8.36-2.21-4.48,5.09-9.8,2.47-15.72,2.59-7.26.15-12.27,4.22-15.71,10.4l9.14,1.19c-.77-4.64-2.91-10.38-7.33-12.75-4.27-2.29-8.27.11-10.11,4.13-1.45,3.19-3.08,8.27-.24,11.21,2.59,2.67,7.72,1.79,8.61-2.13a5.09,5.09,0,0,0-3.49-6.15c-2.21-.56-3,.38-4.83.9l3.85.5c.76.34-.25-1.67-.43-2.27-.38-1.34-.66-2.71-1.12-4a11.78,11.78,0,0,0-3.58-5.57c-4.29-3.25-8.52-.34-10,4.13-2,6.14,7.68,8.77,9.64,2.66Z" transform="translate(-31 -119.96)"/><path class="cls-1" d="M57.48,134.52c.59.12-.59-.26-.61-.27-.29-.15-.7-.75-.34-.22a8.23,8.23,0,0,0,.61.68c.46.53-.46-.64,0,0,.82,1.13,1.57,2.31,2.33,3.48,1.46,2.28,2.93,5.25,5.3,6.71,4.06,2.51,8.33-.62,8.35-5.05,0-3.17-.85-6.2-.44-9.4.35-2.68-2.55-5-5-5-3,0-4.65,2.31-5,5a24.94,24.94,0,0,0,.09,5.95c.08.77.19,1.53.26,2.29a5.76,5.76,0,0,0,.08,1V140a4.15,4.15,0,0,1,.5-1.74l1.79-1.79-.11,0,2.52-.68-.14,0,2.52.68c-.64-.31.83.67.35.28-.2-.17-.68-.85.07.15-.38-.5-.72-1-1.07-1.54-.87-1.31-1.69-2.65-2.56-4-1.63-2.47-3.69-5.9-6.85-6.56A5.12,5.12,0,0,0,54,128.37c-.68,2.48.84,5.59,3.49,6.15Z" transform="translate(-31 -119.96)"/><path class="cls-1" d="M69.42,133.33c-.56-.2-.07,0,.2.31a8,8,0,0,1,1,1.54,22,22,0,0,1,2,5.65c1.17,4.93,8.29,4.58,9.64,0,.28-.93.63-1.85.91-2.78.46-1.54.85-.48-.6-.25H79.89c-2.79-.66-1.36-2.08-1.31-.51,0,.65.07,1.29,0,2-.19,2.7,2.43,5,5,5a5.09,5.09,0,0,0,5-5c.3-4.37-1.54-10.66-6.72-11.18-5.71-.57-8,5.68-9.29,10.1h9.64c-1.39-5.84-4.06-12.34-10.16-14.48-2.55-.89-5.47,1-6.15,3.49a5.1,5.1,0,0,0,3.49,6.15Z" transform="translate(-31 -119.96)"/><path class="cls-1" d="M83.07,128.24c1.31,4.88,3.49,12,8.07,14.85,5.35,3.37,8.58-1.48,11.33-5.32l.9-1.32q2.91-2.71-5.29-1.66A15.32,15.32,0,0,0,98.9,138c.74,2.76,1.86,5.69,4.87,6.62a5.88,5.88,0,0,0,6.13-1.82,12.46,12.46,0,0,0,1.92-3.24q.36-.84.75-1.66,1.23-1.91-1.31.62l-3.85-.5q-1.3-1.59-.41,0l.94,2.22a9.73,9.73,0,0,0,1.75,2.57,6.19,6.19,0,0,0,5.95,1.53,8.43,8.43,0,0,0,4.48-3.73,11.88,11.88,0,0,0,1.26-2.09c1.68-4.15,1,2.81-4.11-1.78,4.78,4.28,11.88-2.77,7.07-7.07-2.72-2.44-6.25-2.57-8.94,0a16.74,16.74,0,0,0-2.44,3.42,6.43,6.43,0,0,0-1,1.79q-1.51,1.75,2.16.55,3.63,1.07,2.16-1.13c-.24-3.6-4.88-6.3-8.07-5.34a7.36,7.36,0,0,0-4,3.55,14,14,0,0,0-.95,2c-.33.87-1.51,1.71-.16,1.07l3.85-.5c1.94.47,1.75,2.37,1.54-.29a10.67,10.67,0,0,0-.54-2.16,10.09,10.09,0,0,0-2.17-4.25c-2.5-2.47-6.13-2.05-8.61.18a19.53,19.53,0,0,0-2.68,3.32,13.47,13.47,0,0,0-1.12,1.68c-.79,1.6-2.46,1.68,1.15,1.35,4.13-.38,1.85.29,1.58-1.18a14.38,14.38,0,0,0-1.38-2.62,35.58,35.58,0,0,1-1.93-5.55c-1.67-6.21-11.32-3.57-9.64,2.66Z" transform="translate(-31 -119.96)"/><path class="cls-1" d="M119.29,138.21c7.06,3,9.53-2,12.52-7.43l-4.32,2.48.74-.06-4.32-2.48c1.7,2.57.92,6.7,2.11,9.62a9,9,0,0,0,4.73,5.24,7,7,0,0,0,6.52-.61,9.38,9.38,0,0,0,2.43-2.45,18.69,18.69,0,0,0,1.39-2.31q2.75-3.53-4.8-1.51c1.29,4.52,8.62,5,9.64,0,1.64-8.05-2.37-14.56-10.32-16.89-4-1.17-7.42-.06-10.52,2.55-1.91,1.61-3.46,3.28-6,3.73a13,13,0,0,1-3.15.07,15.15,15.15,0,0,1-1.63-.16q-2-.37.53.48L110,134.79c8.31-.77,13.46,2.83,20.34,6.76a15.48,15.48,0,0,0,8.09,2.45c.82,0,2.34-.73,3.09-.45a5.46,5.46,0,0,0,.71,2.17,5.14,5.14,0,0,0,5.65,2.3,6,6,0,0,0,4.11-3.55c.54-1.12,2.13-5.56,1.76-5.55,6.43-.05,6.45-10.05,0-10-7.08.06-8.41,6.39-10.91,11.58l3-2.3-.6.18,5.65,2.3c-1.86-2.79-2.7-5.59-6.28-6.72-3.28-1-6,.62-9.21-1.05-3.92-2.08-7.25-4.78-11.48-6.35A31.57,31.57,0,0,0,110,124.79a5.1,5.1,0,0,0-4.82,6.33c1.29,6.89,8.68,7.58,14.56,7a17.7,17.7,0,0,0,9.49-4.05c1.61-1.31,2.27-2.92,4.83-2.07,2,.66,2.61,2.14,2.21,4.08h9.64c-1.45-5.06-6.86-8.39-11.27-4.06a11.1,11.1,0,0,0-2.2,3.19q-2.21,2.7,2.75,1.35l-.34-1.42c.47-2.74-.88-7.23-2.32-9.42a5,5,0,0,0-4.32-2.48c-1.92.16-3.35.48-4.67,2a8.43,8.43,0,0,0-1.13,2c-1.25,2.67-.77,1.23,1.91,2.36-5.86-2.48-11,6.13-5,8.63Z" transform="translate(-31 -119.96)"/><path class="cls-1" d="M150.46,134.49c-.28,3.39,1.3,7.47,5,8.24a5.55,5.55,0,0,0,4.91-1.29,8.6,8.6,0,0,0,1.79-2.13c.15-.24,1.17-2.18.71-1.93l-3.85.5.56.21-3-2.3c1.8,2.42,1.75,5.67,5.28,6.57s5.93-1.58,7.4-4.39a5.65,5.65,0,0,0,.65-1.29c.49-2.65-6.59,1.31-6.32-.17-.24,1.31,2.17,3.61,3,4.14a5.61,5.61,0,0,0,5.68,0,7.5,7.5,0,0,0,2.22-2.31l.4-.72q1-1.61-.47.13l-3.85.5.45.14-3-2.3.34.7c2.79,5.8,11.41.73,8.63-5a5.61,5.61,0,0,0-6.44-3.13,7,7,0,0,0-2.7,1.59q-.63.79-1.22,1.62-1.21,1.82,1.3-.18l3.85.5c1.31.87,1.45,2,.6-.12a6.83,6.83,0,0,0-1.35-2.2,5.7,5.7,0,0,0-4.3-2c-3,0-5.36,2.64-6.32,5.35l-.26.5q-2.25,3.42,6.61.73a7.56,7.56,0,0,0-.76-2,6.54,6.54,0,0,0-3.85-3.94,5.82,5.82,0,0,0-6,1.39,10.91,10.91,0,0,0-1.8,2.56c-.42.73-1.93,2.45-.18,1.19l3.85-.5q2.27,3.82,2.37,1.4c.54-6.41-9.47-6.38-10,0Z" transform="translate(-31 -119.96)"/><path class="cls-1" d="M171.67,130.82c.7,5,4.27,10.76,10.14,9.26,4.87-1.25,7.74-7.07,9.15-11.35h-9.64c.88,5,3.11,11,8.52,12.59,5,1.49,9.13-1.77,11.7-5.75,3.51-5.42-5.15-10.44-8.63-5-1.47,2.27-.69.32-.12,1.2a14.37,14.37,0,0,1-1.83-5.66c-.91-5.2-8.23-4.29-9.64,0-.46,1.39-1.62,2.61-2,3.86l-.59.58,3.37.66a22.62,22.62,0,0,1-.74-3c-.38-2.69-3.78-4.12-6.15-3.49-2.89.76-3.87,3.49-3.49,6.15Z" transform="translate(-31 -119.96)"/><path class="cls-1" d="M193.19,132.62c-1.12,1.29-3.86-1.53-2.92.65.17.4.93.92,1.26,1.21a10.66,10.66,0,0,0,3.79,2.36,6.75,6.75,0,0,0,3.92.06,6.16,6.16,0,0,0,2-1c.94-.72,2-.93.31-1.07L198,133.36c1.69,1.73,1.51,4.35,4,5.69,2.87,1.56,5.52.3,7.64-1.79l-3.54,1.46.64,0-3.54-1.46q-.67-1.33,0,1c.52,3.69,6.07,4.84,8.36,2.21l5.49-6.3h-7.07c2.21,2.43,4.49,6,8.2,5.94a5.73,5.73,0,0,0,4.13-2c.3-.33,2.85-3.91,1.15-2.78h-5c.84.39,1.63,1.69,2.36,2.33,1.31,1.15,2.77,2.17,4.14,3.24,2.91,2.28,7.18,1.71,8.36-2.21.34-1.12.62-2.25.94-3.38q.32-1.19.7-2.37l-5.29.53c-1.29,1.72,2.17,6.11,3.33,6.8a5.87,5.87,0,0,0,6.55-.33c2.19-1.49,2.32-4.14,4.15-5.73l-3.54,1.46.66,0c6.44.25,6.43-9.76,0-10a6.06,6.06,0,0,0-4.82,2,11,11,0,0,0-1.38,1.94q-.44.84-.84,1.7-.79,1.24.72,0l3.85.5-.6-.43,2.3,3c-1.6-4.39-1.76-11.61-8.7-10.47-5.57.92-6.35,7.67-7.67,12.09l8.36-2.21a56.51,56.51,0,0,1-5.08-4.06c-1.35-1.34-2.16-2.66-4-3.33a5.27,5.27,0,0,0-5.08.67c-1.69,1.18-1.77,3.23-3.13,4.45l4.86-1.29q2,1.28-.23-.73L217,127.1a5,5,0,0,0-7.07,0l-5.49,6.3,8.36,2.21c-.93-6.6-6.42-8.66-11.33-4.41l3.54-1.46h-.48l3.54,1.46c-1.74-1.56-1.56-4.37-4-5.69a6.73,6.73,0,0,0-4.69-.57c-.65.18-4,1.94-3.87,2.78q4.63.7,2.44-.91-.61-.61-1.25-1.19a10.12,10.12,0,0,0-3.43-2.15,6.59,6.59,0,0,0-7.17,2.09c-4.2,4.84,2.85,11.95,7.07,7.07Z" transform="translate(-31 -119.96)"/><path class="cls-1" d="M239.84,138.21c4.26,1,6.85-1.94,8.15-5.62l-9.82-1.33c.34,3.87-.24,10.16,2.67,13.14a5.06,5.06,0,0,0,7.07,0c.19-.2,1.29-1.64.89-1.23l-2.21,1.29c-1.31.35-2.07,0-.7.42a6.66,6.66,0,0,0,1.73.27,5.77,5.77,0,0,0,4.59-2.19,7.61,7.61,0,0,0,1.47-4.07,21,21,0,0,0,.19-2.23c0-.43.32-1.18,0-.65l-4.32,2.48.24,0L245.45,136c-.24-.44.37,1.91.11-.38l9.82-1.33q-.1-.37,0,.08a1.76,1.76,0,0,1-.53,1.73l-2.21,1.29.38-.16L248.16,136c-.67-.53-.86-1.39-.14.08a6.61,6.61,0,0,0,1.39,2,5,5,0,0,0,4.86,1.29c4.5-1.42,7-7.77,2.25-10.63a5.93,5.93,0,0,0-9,5c-.1,6.44,9.9,6.44,10,0v-.43l-.68,2.52.19-.28-1.79,1.79.3-.16-2.52.68-1.54-.54-1.79-1.79.14.2-.5-3.85.47-1,2.21-1.29-.38.12,4.86,1.29-.35-.34,1.29,2.21c-.57-1.42-.91-2.9-2.18-3.89s-3.14-2-4.86-1.29a7.65,7.65,0,0,0-4.63,9.37c1.44,5.24,10.48,4.43,9.82-1.33-.43-3.69-2.07-6.68-6-7.18-1.77-.22-3.41,1.13-4.32,2.48a8.85,8.85,0,0,0-1.21,4.13c0,.39-.28,2.77,0,2.32l1.79-1.79-.31.19,2.52-.68c1.09-.08.21-.07-.27-.21a7,7,0,0,0-2.78-.27c-2.16.24-3.09,1.65-4.1,2.7h7.07l-.2-.2,1.29,2.21c-.75-2.39-.6-5.51-.83-8.07a5,5,0,0,0-9.82-1.33q-.15.4,0-.1l2.21-1.29-.37.1h2.66l-.37-.08c-6.26-1.45-8.94,8.19-2.66,9.64Z" transform="translate(-31 -119.96)"/><path class="cls-1" d="M196,140.33c1.7,3.41,4.6,6.25,8.67,5.92a7.84,7.84,0,0,0,4.48-1.89,9.93,9.93,0,0,0,1.54-1.69c.06-.08,2.28-3,.68-2l-3.85.5q-2.17-1.79-1.21-.59.5.71,1,1.37a7.74,7.74,0,0,0,1.82,1.57,6,6,0,0,0,5.89.14,9,9,0,0,0,3.31-3.74c1-1.79.57-3.23,2.52-2.75,6.25,1.54,8.91-8.1,2.66-9.64-2.93-.72-5.94-.94-8.65.65a10.28,10.28,0,0,0-3.37,3.32c-.35.54-2.49,3.75-2.27,4.25l5.44-.58-.51-.69a4.87,4.87,0,0,0-1.29-1.51,6.29,6.29,0,0,0-4-1.62,6,6,0,0,0-4.42,2.3c-.36.44-1.37,1.8-1.34,2.38q-1,1.19.93.55,2.23.46.62-1.32c-2.88-5.76-11.5-.7-8.63,5Z" transform="translate(-31 -119.96)"/><path class="cls-1" d="M157.84,138.51q-5.21-1.74-3.1.07a4.22,4.22,0,0,1,.69.9,18.78,18.78,0,0,0,1.93,2.75c1.28,1.69,2.75,3.38,4.88,4a6.53,6.53,0,0,0,6.25-1.58,10.33,10.33,0,0,0,2.35-3.84,29.92,29.92,0,0,0,1-2.92q1.22-2.55.18-1.2h-5q-1.42-2.05-.62,0,.24,1,.52,2a8.82,8.82,0,0,0,1.93,3.65,5.67,5.67,0,0,0,7.88.17c1.93-1.83,2.19-4.59,2.65-7q.17-1,.42-2-5.34-.7-3.47,2a9.46,9.46,0,0,1,.51,3.39q1.32-1.18.43-.55c1.93,1.33,3.5,1.31,1.19-1.31a7.58,7.58,0,0,0-3.7-2.62c-3.3-.85-4.9,1.31-7.55,2.48q3.24-.12.61-1.09-1.18-.53-2.38-1a10.1,10.1,0,0,0-5-.34c-3.43.7-5,3.72-8,5l3.85-.5c-.26-.07-2-2.17-2.47-2.47a5.74,5.74,0,0,0-3.25-1.18c-2.4,0-3.74,1.77-4.93,3.11l6.06-.78c1,.62-.68-.6-.91-.7l2.3,3a71,71,0,0,1-2.63-9.32l-4.82,6.33a14.31,14.31,0,0,0,8.65-2.8q1-.72,1.85-1.51,2.35-1.29-.25-1.61c-2.77-2.16-.16,1.59.31,2.16,1.69,2,4.14,3.23,6.81,2.46a8.16,8.16,0,0,0,3-1.87l.81-.89q1.68-1.36,0-.7c2.57.67,5,4.17,7.27,5.47,4.07,2.3,7.93,1.88,11.53-1,5-4-2.1-11.08-7.07-7.07,1.25-1,.76.23-.12-1a11.56,11.56,0,0,0-1.81-1.43,31,31,0,0,0-5.22-3.78,9.54,9.54,0,0,0-6.6-.92,9.1,9.1,0,0,0-2.54,1.12c-.84.53-3.75,2.21-1.41,2.24l3.54,1.46c-2.77-2.54-3.19-6.07-7.84-6s-6.62,5.6-10.91,5.64a5.06,5.06,0,0,0-4.82,6.33c1.14,5,2.6,11,5.84,13a5,5,0,0,0,6.06-.78,23.44,23.44,0,0,0,1.81-2.52l-3,2.3.36-.14-3.85-.5c3.34,2.27,4.84,5.33,9.44,3.47,1.66-.67,3-2.49,4.52-3.06,1.24-.47,1.13-.32,2.51.43a9.5,9.5,0,0,0,2.43,1.09,7.38,7.38,0,0,0,5.3-1c.41-.24,1.82-1,1.9-1.36q1.26-.71-1.2-.12-2.66-.46-.85,1.15c1.6,4.15,6.92,3.81,9.9,2,6.78-4.16,6.11-15,.58-20.08-2.86-2.65-7.22-3.32-10.16-.42A9.38,9.38,0,0,0,170,131.3c-.22.86-.33,1.74-.49,2.6-.52,2.82-1,1.11,1.92.38l3.85.5c1.81,1.14,1.32,1.4.71-.77a16.94,16.94,0,0,0-.84-2.51,6.73,6.73,0,0,0-4.33-4,6.19,6.19,0,0,0-5.59,1.68c-1.24,1.16-3.54,5-3.27,6.77q-1,1.79,2,1,3.35,1.09,1.75-.24c0-.32-.68-1-.9-1.25a38.52,38.52,0,0,0-3-4c-2.46-2.56-5.84-3.44-9-1.63-5.59,3.18-.56,11.82,5,8.63Z" transform="translate(-31 -119.96)"/><path class="cls-1" d="M176.54,145.76l10.17,1.39c2.67.36,5.37-.64,6.15-3.49.64-2.33-.8-5.78-3.49-6.15l-10.17-1.39c-2.67-.36-5.37.64-6.15,3.49-.64,2.33.8,5.78,3.49,6.15Z" transform="translate(-31 -119.96)"/><path class="cls-1" d="M138.88,131.33c-7.87-3.06-15.61.29-21.27,6-4.55,4.57,2.52,11.64,7.07,7.07,3.4-3.41,6.87-5.21,11.54-3.4,2.54,1,5.46-1.09,6.15-3.49.81-2.82-1-5.18-3.49-6.15Z" transform="translate(-31 -119.96)"/><path class="cls-2" d="M51.7,130.86a43,43,0,0,1,.82,9.51,1,1,0,0,0,2,0,45.42,45.42,0,0,0-.89-10c-.25-1.26-2.18-.73-1.93.53Z" transform="translate(-31 -119.96)"/><path class="cls-2" d="M53.22,130.69c2.55-1.25,7-1.4,7.78,2.18s-4.2,5-6.82,4.74c-1.28-.14-1.27,1.86,0,2,4.07.44,9.94-2.39,8.75-7.27s-7-5.2-10.72-3.37c-1.16.57-.14,2.29,1,1.73Z" transform="translate(-31 -119.96)"/><path class="cls-2" d="M67.48,128.59a6.45,6.45,0,0,0-2.11,7.34c.82,2.13,3.13,4.33,5.62,3.55s3.27-4.87,3.15-7a4.28,4.28,0,0,0-4.88-4.23c-1.27.21-.73,2.14.53,1.93,4-.67,2.4,8.86-.84,7.17-3-1.54-2.25-5.55,0-7.31,1-.8-.42-2.21-1.41-1.41Z" transform="translate(-31 -119.96)"/><path class="cls-2" d="M104,128.59a6.45,6.45,0,0,0-2.11,7.34c.82,2.13,3.13,4.33,5.62,3.55s3.27-4.87,3.15-7a4.28,4.28,0,0,0-4.88-4.23c-1.27.21-.73,2.14.53,1.93,4-.67,2.4,8.86-.84,7.17-3-1.54-2.25-5.55,0-7.31,1-.8-.42-2.21-1.41-1.41Z" transform="translate(-31 -119.96)"/><path class="cls-2" d="M79.51,129.21a28.27,28.27,0,0,0,.12,6c.17,1.3.24,3.25,1.11,4.32,1.53,1.87,3.85-.18,4.81-1.59.73-1.07-1-2.07-1.73-1a3.25,3.25,0,0,1-1.1,1.1q-.85,0-.73-.89a9.65,9.65,0,0,1-.45-2.68,27.7,27.7,0,0,1,0-5.22c.1-1.28-1.9-1.28-2,0Z" transform="translate(-31 -119.96)"/><path class="cls-2" d="M76.54,134l6.86-.88c1.26-.16,1.28-2.16,0-2l-6.86.88c-1.26.16-1.28,2.16,0,2Z" transform="translate(-31 -119.96)"/><path class="cls-2" d="M115,138.79a40,40,0,0,1,0-5,23.82,23.82,0,0,1,.35-3.06l.12-.66q.15-2,1.86-.26c-.77,1,1,2,1.73,1,1.84-2.45-1-5.34-3.63-4-1.58.79-1.9,2.66-2.13,4.24a38.75,38.75,0,0,0-.31,7.79c.07,1.28,2.07,1.29,2,0Z" transform="translate(-31 -119.96)"/><path class="cls-2" d="M112,134.45l4.44-.41c1.27-.12,1.28-2.12,0-2l-4.44.41c-1.27.12-1.28,2.12,0,2Z" transform="translate(-31 -119.96)"/><path class="cls-2" d="M144.74,128.54a6.45,6.45,0,0,0-2.11,7.34c.82,2.13,3.13,4.33,5.62,3.55s3.27-4.87,3.15-7a4.28,4.28,0,0,0-4.88-4.23c-1.27.21-.73,2.14.53,1.93,4-.67,2.4,8.86-.84,7.17-3-1.54-2.25-5.55,0-7.31,1-.8-.42-2.21-1.41-1.41Z" transform="translate(-31 -119.96)"/><path class="cls-2" d="M136.19,138.74a40,40,0,0,1,0-5,23.82,23.82,0,0,1,.35-3.06l.12-.66q.15-2,1.86-.26c-.77,1,1,2,1.73,1,1.84-2.45-1-5.34-3.63-4-1.58.79-1.9,2.66-2.13,4.24a38.75,38.75,0,0,0-.31,7.79c.07,1.28,2.07,1.29,2,0Z" transform="translate(-31 -119.96)"/><path class="cls-2" d="M133.26,134.4l4.44-.41c1.27-.12,1.28-2.12,0-2l-4.44.41c-1.27.12-1.28,2.12,0,2Z" transform="translate(-31 -119.96)"/><path class="cls-2" d="M159.93,132.06c-2.6-1.69-6,.63-6.44,3.44-.59,4.2,4.67,3.85,7.07,2.36,1.09-.68.09-2.41-1-1.73s-4.72,1.79-4-.67c.38-1.34,2.08-2.52,3.38-1.67,1.08.7,2.09-1,1-1.73Z" transform="translate(-31 -119.96)"/><path class="cls-2" d="M155.24,130.36a1.55,1.55,0,0,1,2-1.1,2.74,2.74,0,0,1,1.78,2.27c.41,1.83-.44,3.7.07,5.5.59,2.09,3.7,3.26,4.89,1,.6-1.14-1.12-2.15-1.73-1q-.61.48-.91-.18a1.13,1.13,0,0,1-.42-1.27,11.39,11.39,0,0,1,.1-1.22,11.29,11.29,0,0,0,0-2.75,5.37,5.37,0,0,0-2-3.7c-2-1.39-5.22-.63-5.71,1.91-.24,1.26,1.68,1.8,1.93.53Z" transform="translate(-31 -119.96)"/><path class="cls-2" d="M166.89,128.86l-.23,8.69,2-.27c-.27-1.57-.07-4.56,1.47-5.62,2-1.34,2,.46,2,1.34a12.86,12.86,0,0,1-.58,3.69h1.93c-.3-1.77-.66-6.23,2.58-5.64,2,.37,1.23,4.57,1.11,5.93s1.89,1.27,2,0c.29-3.17.79-8.43-3.8-7.86-4.2.51-4.4,4.7-3.82,8.1.17,1,1.69.9,1.93,0,.62-2.29,1.7-8.84-2.67-8.14-3.68.59-4.58,5.77-4.08,8.73.19,1.14,1.94.82,2-.27l.23-8.69a1,1,0,0,0-2,0Z" transform="translate(-31 -119.96)"/><path class="cls-2" d="M211.73,129.28,211.5,138l2-.27c-.27-1.57-.07-4.56,1.47-5.62,2-1.34,2,.46,2,1.34a12.86,12.86,0,0,1-.58,3.69h1.93c-.3-1.77-.66-6.23,2.58-5.64,2,.37,1.23,4.57,1.11,5.93s1.89,1.27,2,0c.29-3.17.79-8.43-3.8-7.86-4.2.51-4.4,4.7-3.82,8.1.17,1,1.69.9,1.93,0,.62-2.29,1.7-8.84-2.67-8.14-3.68.59-4.58,5.77-4.08,8.73.19,1.14,1.94.82,2-.27l.23-8.69a1,1,0,0,0-2,0Z" transform="translate(-31 -119.96)"/><path class="cls-2" d="M183.51,134.63c2.24.3,6.48-.52,6.11-3.64-.27-2.21-3.86-3-5.46-1.81-2.12,1.57-2.57,5.55-1.12,7.65a3.62,3.62,0,0,0,6,.11c.73-1.06-1-2.06-1.73-1-.84,1.22-2.4.44-2.89-.64a4.44,4.44,0,0,1,.47-3.87c.3-.56.4-.68,1-.72a2.42,2.42,0,0,1,1.16.13c.76.43.25,1-.31,1.4a4.19,4.19,0,0,1-2.76.46c-1.26-.17-1.8,1.76-.53,1.93Z" transform="translate(-31 -119.96)"/><path class="cls-2" d="M195.47,131.12c-4.14-.47-6.6,5.83-2.28,7.32,4.58,1.58,4.6-9.08,4.7-11.47h-2a30,30,0,0,1-.47,5.66c-.24,1.31-.76,2.78-.2,4.09a2.46,2.46,0,0,0,4,.92c.94-.89-.48-2.3-1.41-1.41a1.82,1.82,0,0,1-.66-2q.12-.54.23-1.09.16-.86.28-1.73a32,32,0,0,0,.26-4.45,1,1,0,0,0-2,0,40.8,40.8,0,0,1-.84,6.87c-.12.57-.44,3.74-2,1.77-1.29-1.63,1.5-2.59,2.43-2.48,1.28.15,1.27-1.86,0-2Z" transform="translate(-31 -119.96)"/><path class="cls-2" d="M226.83,130.48v7.46a1,1,0,0,0,2,0v-7.46a1,1,0,0,0-2,0Z" transform="translate(-31 -119.96)"/><path class="cls-2" d="M227.83,128.6a1,1,0,0,0,0-2,1,1,0,0,0,0,2Z" transform="translate(-31 -119.96)"/><path class="cls-2" d="M231.62,127.07c0,1.85,0,3.7-.06,5.55-.05,1.41-.44,3.09-.11,4.46.37,1.54,2.22,2.51,3.36,1.08.79-1-.61-2.42-1.41-1.41a7,7,0,0,0,0-1.75c0-.92.1-1.85.13-2.77.06-1.72.07-3.44,0-5.15a1,1,0,0,0-2,0Z" transform="translate(-31 -119.96)"/><path class="cls-2" d="M237,126.86q0,5.65,0,11.29a1,1,0,0,0,2,0q.07-5.65,0-11.29a1,1,0,0,0-2,0Z" transform="translate(-31 -119.96)"/><path class="cls-2" d="M239.13,135a9.82,9.82,0,0,0,3.63-3.52,1,1,0,0,0-1.73-1,7.77,7.77,0,0,1-2.91,2.8c-1.12.63-.12,2.36,1,1.73Z" transform="translate(-31 -119.96)"/><path class="cls-2" d="M237.86,135.14a9.32,9.32,0,0,0,2,1.59c.59.39,1.2.77,1.34,1.51.25,1.26,2.18.73,1.93-.53-.41-2.09-2.65-2.55-3.88-4-.84-1-2.25.44-1.41,1.41Z" transform="translate(-31 -119.96)"/><path class="cls-1" d="M34,137.6c-.58,2.55.21,4.8,2.68,5.91a2.54,2.54,0,0,0,3.67-2.82c-.17-1.27-3.52-7.79-5.46-4.13-1,1.92,3.53,3.94,3.33,5.42l1.24-2.16c-2.53,1.52-6.71,3.52-3.21,7.1a5,5,0,0,0,4.88,1.12c1.36-.32,2.51-1.34,3.85-1.67,2.11-.53,1.55-.08,3.37.22,1.25.21,3.57-.35,4.77-.46a17,17,0,0,1,3.33-.35c1.17.12,1.87.75,3,1,2.15.4,2.26-1.08,3.84-1.31,2.36-.34,4.1,1.68,6.88,1,3.12-.78,1.8-5.6-1.33-4.82-2.17.54-4.33-1.75-6.68-1.25A5.71,5.71,0,0,0,58.6,143l2.16-1.24c-1.06,0-2.16-1-3.25-1.13-1.58-.25-2.62.33-4.15.4-.93,0-2.2-.05-3.2,0a8.17,8.17,0,0,1-1.12.43l-.92-.53c-1.35,0-1.76-.41-3.3.07-1.09.34-5.89,4.68-3.73,3.71a3.89,3.89,0,0,0,2.09-4.89c-.33-1.07-1.16-1.55-1.77-2.34-1.44-1.85-1.49-3.18-2.66-4.93A4.12,4.12,0,0,0,31,134.84c.08,3.44,4.13,4.17,4.55,7.18l3.67-2.82-.38-.27c.72-3.13-4.1-4.47-4.82-1.33Z" transform="translate(-31 -119.96)"/><path class="cls-1" d="M41.83,129.13l3.83,0a2.64,2.64,0,0,0,3,.39c3.35-1.62,5.61-3,9.36-2.31a24.64,24.64,0,0,0,7.37.68c2.56-.28,4.69-1.33,7.23-1,3.39.4,6.2,1,9.67.69,3.18-.28,3.21-5.28,0-5-3.77.33-7-.77-10.65-.94s-6.75,1.94-10.74,1.19c-2.34-.44-4.45-1.66-6.9-1.17-2.73.54-5.41,2.39-7.87,3.58l3,.39a8,8,0,0,0-10.9,0c-2.5,2,1.05,5.54,3.54,3.54Z" transform="translate(-31 -119.96)"/><path class="cls-1" d="M93.95,127.47c3.62-2,4.13,2,7.27,1.28.92-.22,1.29-1.28,2-1.56,1.79-.69,3.1.08,4.86.07a11.71,11.71,0,0,0,3.48-.7c1.59-.47,1.5-.44,3.15.06a17.19,17.19,0,0,0,9.91.29c3.11-.81,1.79-5.64-1.33-4.82-3.73,1-5.72-.38-9.22-1.13-2.25-.48-3.73.55-5.9.84-2,.27-4.06-.4-6,.24-1.58.52-2.13,1.55-3.39,2.53l2.43-.64c-1.35-.53-2-2-3.67-2.39-2.21-.45-4.26.6-6.13,1.61-2.83,1.53-.31,5.85,2.52,4.32Z" transform="translate(-31 -119.96)"/><path class="cls-1" d="M132.89,127.08c.71-1.11,6.62-1.71,7.93-1.77,3.13-.15,6.69.94,9.79,1.44s4.5-4.31,1.33-4.82c-4.71-.75-9.45-2.06-14.18-1.13-3.59.71-7,.35-9.19,3.77-1.74,2.72,2.58,5.23,4.32,2.52Z" transform="translate(-31 -119.96)"/><path class="cls-1" d="M214.16,145.81c9.38-.56,18.77-1.26,28.16-1.59,3.21-.11,3.22-5.11,0-5-9.39.33-18.78,1-28.16,1.59-3.2.19-3.22,5.19,0,5Z" transform="translate(-31 -119.96)"/><path class="cls-1" d="M221,145.63c1.56,1.09,2.19.84,4,.65.89-.1,1.72-.1,2.66-.25,1.26-.2,2-1.19,3-1.44,1.65-.39,2.92.84,4.65.72a20.43,20.43,0,0,0,2.8-.75c1.74-.37,2.71,0,4.46.45a13.18,13.18,0,0,0,5.38.65,22.68,22.68,0,0,0,3.57-1.44l-2.43-.64.51.52c1.9,2,4.53-.14,4.18-2.43a4.24,4.24,0,0,0-1.31-2.59c-1.52-1.69-4.18-.28-4.27,1.77V141a2.53,2.53,0,0,0,3.16,2.41c2.88-.53,4.35.29,6.37-2.41s-2.41-5.07-4.32-2.52a32.4,32.4,0,0,0-3.39.11l3.16,2.41v-.21L249,142.61l0,.38,4.18-2.43c-2.61-2.68-4.84.39-7.91,0-2-.25-3.48-1.56-5.51-1.5-1.35,0-2.46.78-3.76.93-2.44.27-4.22-1.6-6.93-.33-.58.27-1,.75-1.5,1-1.45.72,1.17-.11-.31.2a34.81,34.81,0,0,1-3.7.43c-2.64-1.85-5.14,2.49-2.52,4.32Z" transform="translate(-31 -119.96)"/><path class="cls-1" d="M247.64,131.8a4.73,4.73,0,0,1,2.34-.47c.83,0,1.63.53,2.56.45,1.72-.15,3.34-2.07,2.16-3.76a3.56,3.56,0,0,0-1.47-1.21l-.67-.33c-.81-.41-.18-.39.23.49l-.9,3.42,0,0-1.26.34a4.09,4.09,0,0,1,1.38.12c3.11.83,4.44-4,1.33-4.82a6,6,0,0,0-4,.06c-1.32.57-1.41,2.32-.9,3.42s1.88,1.32,2.8,1.92l-.9-.9,0,0,2.16-3.76c.61-.05-.05-.09-.32-.16a8.33,8.33,0,0,0-.9-.17,9.66,9.66,0,0,0-2.05-.1,9.39,9.39,0,0,0-4.14,1.13c-2.78,1.63-.26,5.95,2.52,4.32Z" transform="translate(-31 -119.96)"/><path class="cls-1" d="M200.91,128.52a25.68,25.68,0,0,0,12.57-.73c3.87-1.27,7.51.33,11.45-1.31,2.93-1.22,1.64-6.06-1.33-4.82-3.31,1.38-6.15-.27-9.43.58-4.14,1.07-7.51,2.21-11.93,1.47-3.15-.53-4.5,4.28-1.33,4.82Z" transform="translate(-31 -119.96)"/><path class="cls-1" d="M72,147.62l.86.09a2.52,2.52,0,0,0,2.52,0c6.14-3.3,12.07-1.31,18.63-1.25,2.08,0,4.32-.78,6.31-.63,1,.07,5.46,1.23,5.77,1.76,1,1.77,3.22,1.44,4.32,0,.86-1.13,1.93.09,3.12,0,1.7-.17,2.16-1,4-.85a102.53,102.53,0,0,0,15.05-.56c3.18-.27,3.21-5.28,0-5-3.5.3-7,.73-10.56.81-2.73.06-5.24-.45-7.94-.25a3.53,3.53,0,0,0-1.12.4c-.84,0-1.57-.54-2.57-.39-2,.31-3.15,1.82-4.3,3.33h4.32c-1.23-2.11-2.64-2.57-4.91-3.18-1.5-.4-3.27-1.25-4.84-1.28-1.91,0-3.83.78-5.76.85-8.13.31-14.44-2.14-22,1.94h2.52c-2.44-1.57-4.8-1.19-6.91.69-2.41,2.14,1.14,5.67,3.54,3.54Z" transform="translate(-31 -119.96)"/><path class="cls-1" d="M77.81,147c1.51-.39,2.6,1.28,3.95,1.47s1.63-.53,2.69-1c2.36-.95,3.11.14,5.22.36,1.29.13,4.87-2.08,5.63-.85,1.68,2.74,6,.23,4.32-2.52a6.27,6.27,0,0,0-4.09-3.14c-2.45-.54-3.17.92-5.2,1.21-1.42.2-3.07-1.09-4.73-.95a6.91,6.91,0,0,0-2.29.6c-.22.1-3,1.64-1.88,1.38l2.43.64c-2.31-1.93-4.33-2.86-7.38-2.07s-1.79,5.62,1.33,4.82Z" transform="translate(-31 -119.96)"/><path class="cls-1" d="M102.07,147.45c3.22,0,3.22-5,0-5s-3.22,5,0,5Z" transform="translate(-31 -119.96)"/><path class="cls-1" d="M37.1,148.56c3,1.5,4.46,1.27,7.53.44,1.1-.3-1-.25.36-.35.23,0,1,.51,1.34.57,1.6.25,2.7-.38,4.22-.63.8-.13,1.8-.2,2.61-.3,1.07-.13-.1-.19-.34-.24.68.15,1.51,1.06,2.22,1.34a5.94,5.94,0,0,0,3.67.29c2.38-.5,3.5-.91,6.15-.68,3.21.28,3.19-4.72,0-5a23.14,23.14,0,0,0-5.8-.12l-.6.25a2.2,2.2,0,0,1-3.12-.39,6.35,6.35,0,0,0-4-.3,25.47,25.47,0,0,1-5.1.24c-.68,0-1.18-.37-1.93-.25-2,.33-2.07,2.14-4.72.82-2.87-1.43-5.41,2.89-2.52,4.32Z" transform="translate(-31 -119.96)"/><path class="cls-1" d="M46.69,144.37a4.67,4.67,0,0,0,6-3.27,2.5,2.5,0,1,0-4.82-1.33c0,.07-.16.52,0,.11q.14-.31,0,0l.22-.28s-.45.38-.06.1-.11,0-.11,0,.56-.16.2-.09c-.07,0-.55.13-.09,0q.36,0,0,0l.38.06c-.07-.06-.32-.09-.41-.13a2.51,2.51,0,0,0-3.08,1.75,2.58,2.58,0,0,0,1.75,3.08Z" transform="translate(-31 -119.96)"/><path class="cls-1" d="M60.87,143.47c3.22,0,3.22-5,0-5s-3.22,5,0,5Z" transform="translate(-31 -119.96)"/><path class="cls-1" d="M72,145.06c3.22,0,3.22-5,0-5s-3.22,5,0,5Z" transform="translate(-31 -119.96)"/><path class="cls-1" d="M116.92,146.94c1.55.23,2.36,1.66,4.09,1.28,1.57-.34,1.49-1.7,2.46-2.51l-1.77.73a33.76,33.76,0,0,1,2.49,2.74,2.52,2.52,0,0,0,3.54,0,5.75,5.75,0,0,0,1.09-1.6c.75-1.66-.27-1.28.31-.32,1,1.68,3.47,0,4.68.31,3.09.9,4.42-3.92,1.33-4.82a5.91,5.91,0,0,0-2.05-.33c-.55,0-1.58.55-2,.47.59.11-.58-.69-.86-.82a4.69,4.69,0,0,0-1.86-.44,4,4,0,0,0-2.83,1.24c-.76.8-.69,2.09-1.32,2.79h3.54c-1.47-1.53-3.42-4.14-5.75-4.18-2.06,0-2.56,1.4-3.41,2.92l1.49-1.15c.55-.23,2.22.66.24-.47a5.88,5.88,0,0,0-2-.65c-3.15-.47-4.51,4.34-1.33,4.82Z" transform="translate(-31 -119.96)"/><path class="cls-1" d="M138.64,146.12q-.61.06-.31.06t-.31,0l-.33-.15q.34.2-.15-.15a2.68,2.68,0,0,0,1.77.73,2.5,2.5,0,0,0,1.77-4.27,4.36,4.36,0,0,0-3.77-1,2.5,2.5,0,0,0-1.49,1.15,2.5,2.5,0,0,0,2.82,3.67Z" transform="translate(-31 -119.96)"/><path class="cls-1" d="M141.9,127.31l5.12.76a2.58,2.58,0,0,0,3.08-1.75,2.52,2.52,0,0,0-1.75-3.08l-5.12-.76a2.58,2.58,0,0,0-3.08,1.75,2.52,2.52,0,0,0,1.75,3.08Z" transform="translate(-31 -119.96)"/><path class="cls-1" d="M226.12,126.8a27.42,27.42,0,0,1,3.48.08,2.51,2.51,0,0,0,2.5-2.5,2.56,2.56,0,0,0-2.5-2.5,27.42,27.42,0,0,0-3.48-.08,2.5,2.5,0,0,0,0,5Z" transform="translate(-31 -119.96)"/><path class="cls-1" d="M222,127.31l.52.88a2.5,2.5,0,0,0,4.32-2.52l-.52-.88a2.5,2.5,0,0,0-4.32,2.52Z" transform="translate(-31 -119.96)"/><path class="cls-1" d="M218.7,143.29c3.22,0,3.22-5,0-5s-3.22,5,0,5Z" transform="translate(-31 -119.96)"/><path class="cls-1" d="M220.26,143.2c3.22,0,3.22-5,0-5s-3.22,5,0,5Z" transform="translate(-31 -119.96)"/><path class="cls-1" d="M244.8,126.26l-.09-.24-.64,2.43c-.18.22,2.74.64,3.25.5a5.53,5.53,0,0,0,1.48-.65c1.43-1,0,.3-.61-.77l.9-3.42-.12.06,1.93-.25.15,0,1.15,1.49,0-.14-1.75,3.08c1.26-.31,2.24.58,3.4.79a3.58,3.58,0,0,0,3.11-1c2.5-2-1.06-5.54-3.54-3.54l-.43.34,1.77-.73a18.19,18.19,0,0,0-2.35-.76,8.81,8.81,0,0,0-3.3.11,2.56,2.56,0,0,0-1.75,3.08c.35,1.92,2.71,2.6,4.26,1.8a2.53,2.53,0,0,0,.9-3.42,3.82,3.82,0,0,0-3.22-2.13,5,5,0,0,0-2.09.6,3.21,3.21,0,0,0-.91.5c-.47.59,1.17.76.7.11-1.9-2.67-8.24.23-7,3.5,1.13,3,6,1.69,4.82-1.33Z" transform="translate(-31 -119.96)"/><path class="cls-1" d="M230.74,126.1l5.81.54a2.52,2.52,0,0,0,2.5-2.5,2.55,2.55,0,0,0-2.5-2.5l-5.81-.54a2.52,2.52,0,0,0-2.5,2.5,2.55,2.55,0,0,0,2.5,2.5Z" transform="translate(-31 -119.96)"/><path class="cls-1" d="M240.28,127c3.22,0,3.22-5,0-5s-3.22,5,0,5Z" transform="translate(-31 -119.96)"/><path class="cls-1" d="M191.87,145.75c2-.11,4.49-.61,6.47-.07,3.11.84,4.44-4,1.33-4.82-2.5-.68-5.26-.24-7.8-.1-3.2.17-3.22,5.17,0,5Z" transform="translate(-31 -119.96)"/><path class="cls-1" d="M175.92,128c-.53.24-1.3-.54-.55.38a2.46,2.46,0,0,0,1.1.64,3,3,0,0,0,2.39-.3c.33-.19.55-.54.85-.73.73-.49-.82.05.14.08a5,5,0,0,0,2.33-.63l-1.93.25c-.86-.35.52.44.61.49a2.81,2.81,0,0,0,1.59.3c1-.12,1.43-.92,2.24-1.31l-1.93.25c2.05.48,3.11-.14,4.32-1.75l-2.16,1.24.39,0-1.77-.73c1.18.93,1.58,2.22,3.38,2,3.17-.33,3.2-5.33,0-5q1.72,1.27.89.21l-.39-.51a3.19,3.19,0,0,0-1.79-1c-1.43-.23-2.21.46-3.09,1.46l1.77-.73a3.5,3.5,0,0,0-2.15.2c-.28.14-1.84,1.21-.72.77l1.93.25c-1.78-.87-2.54-1.31-4.46-.4l1.93-.25a4.73,4.73,0,0,0-3-.06,3.78,3.78,0,0,0-1.1.64s-1.24,1.12-.57.71l1.93-.25-.32,0,1.49,1.15c-1.53-2.08-3.48-2.77-5.9-1.67-2.92,1.34-.38,5.65,2.52,4.32Z" transform="translate(-31 -119.96)"/><path class="cls-1" d="M188.72,127.7a9,9,0,0,0,3.11.2,10.65,10.65,0,0,0,2.46-1.11c-.43.19-.6,0,.07.17a4.25,4.25,0,0,0,1.54.06,10.73,10.73,0,0,1,3.14-.37c3.2.3,3.18-4.7,0-5-1.65-.15-3.18.31-4.79.23s-2.72,1.25-4.21,1c-3.15-.53-4.5,4.29-1.33,4.82Z" transform="translate(-31 -119.96)"/><path class="cls-1" d="M201.93,126.94q-.52.06-.23,0H202l-.32,0,.34.08a2.5,2.5,0,1,0,1.33-4.82,6.48,6.48,0,0,0-2.72-.09,2.49,2.49,0,0,0-1.49,1.15,2.5,2.5,0,0,0,.9,3.42,3,3,0,0,0,1.93.25Z" transform="translate(-31 -119.96)"/><path class="cls-1" d="M247,131.23c4.39.86,9.83,1.1,12.19-3.57,1.44-2.87-2.87-5.4-4.32-2.52-1.21,2.41-4.39,1.7-6.54,1.28-3.14-.61-4.49,4.2-1.33,4.82Z" transform="translate(-31 -119.96)"/><path class="cls-1" d="M254.46,122.63a9.53,9.53,0,0,1-5.69-.72l-1.93,4.57c3.72,1,11.64,2,12.65-3.34a2.53,2.53,0,0,0-3.67-2.82,10,10,0,0,0-2.46,2.11c-.35.39-.76.76-1.08,1.17s-.79-.08-.21.43l-.51,3.93a5.54,5.54,0,0,1,2.17-.72c3-.42,2-4.71-.66-4.91l-3.07-.24c-3.21-.25-3.19,4.75,0,5l3.07.24-.66-4.91a9.11,9.11,0,0,0-3.37,1.22,2.52,2.52,0,0,0-.51,3.93,4.89,4.89,0,0,0,5.55.73c1.8-.84,2.61-2.71,4.26-3.66l-3.67-2.82c-.22,1.19-5.6.08-6.49-.15-2.64-.68-4.58,3.34-1.93,4.57a15.37,15.37,0,0,0,9.54,1.23c3.16-.57,1.82-5.39-1.33-4.82Z" transform="translate(-31 -119.96)"/><path class="cls-1" d="M245.59,130.39l.36-.1q-.53.05-.1,0H246q.43,0-.1,0c0,.17.84,0,.12,0l.33.19q-.37-.31-.06,0a2.5,2.5,0,0,0,3.54-3.54,5.71,5.71,0,0,0-5.6-1.33,2.5,2.5,0,0,0,1.33,4.82Z" transform="translate(-31 -119.96)"/><path class="cls-1" d="M249.25,132.84a18.28,18.28,0,0,1,2.35,7.69c.23,3.19,5.23,3.22,5,0a24.14,24.14,0,0,0-3-10.21c-1.57-2.81-5.9-.29-4.32,2.52Z" transform="translate(-31 -119.96)"/><path class="cls-1" d="M251.3,137.55a9,9,0,0,0,2,8.44c1.86,2.2,5.33-.63,3.93-3-3.25-5.56-8.93-.17-13.54-.91L243,147a17.24,17.24,0,0,1,8.63,1.31c2.92,1.29,5.46-3,2.52-4.32A22.26,22.26,0,0,0,243,142c-2.58.22-3.66,4.43-.66,4.91a15.35,15.35,0,0,0,5.62,0c.69-.14,4.58-2,4.94-1.37l3.93-3a3.78,3.78,0,0,1-.74-3.58c.8-3.12-4-4.45-4.82-1.33Z" transform="translate(-31 -119.96)"/></svg>