<svg id="Слой_1" data-name="Слой 1" xmlns="http://www.w3.org/2000/svg" viewBox="0 0 225.9 89.96"><defs><style>.cls-1{fill:#a6e6ff;}.cls-2{fill:#333;}</style></defs><title>hotwater</title><path class="cls-1" d="M27.72,165.19q91.87-1.06,183.73,1.23c9.66.24,9.65-14.76,0-15q-91.84-2.29-183.73-1.23c-9.65.11-9.67,15.11,0,15Z" transform="translate(-15.74 -78.96)"/><path class="cls-1" d="M211.78,166.65h17.14c9.65,0,9.67-15,0-15H211.78c-9.65,0-9.67,15,0,15Z" transform="translate(-15.74 -78.96)"/><path class="cls-1" d="M58.9,150.13A75.75,75.75,0,0,1,68.35,105l-13.71-1.79c1.33,5-1.4,10.47-3,15.16-1.86,5.43-4.23,10.95-5.44,16.57-2.06,9.58,1.83,21.64,13.14,22.55,11.56.93,13.88-11.82,13.53-20.9-.28-7.31-4-18.62,1.82-24.6l-12.54-7.3a132.18,132.18,0,0,0-7.55,34.45c-.55,6.24,8.77,10.23,12.8,5.3L85,122.91l-12.54-7.3-6.89,27.8c-1.85,7.48,7,12.23,12.54,7.3A35.22,35.22,0,0,0,88,135.59c2.45-7-7.66-12.83-12.54-7.3a42.61,42.61,0,0,0-9.17,16.38c-1.53,5.15,3.8,11.25,9.23,9.23a61.88,61.88,0,0,0,31.25-25.17c3.54-5.59-2.31-12.73-8.47-11a40.91,40.91,0,0,0-25.48,20.47c-2.56,4.92.56,11.36,6.48,11.29a64.66,64.66,0,0,0,35.56-11c6.93-4.69,2.74-15.79-5.78-13.71a28,28,0,0,0-18.41,14.44c-2.55,5,.55,11.29,6.48,11.29a56.19,56.19,0,0,0,35.78-13c6-4.86-.51-14.49-7.3-12.54a94.82,94.82,0,0,0-36.79,20.3c-4.43,3.91-1.75,10.93,3.31,12.54,5.77,1.83,11.24.23,15.68-3.71,5.38-4.76.57-12.15-5.3-12.8a46.31,46.31,0,0,0-12.79.53l4,14.46c22-4.33,43.81-9,64.45-18,8.19-3.59,2.05-15.29-5.78-13.71a167,167,0,0,0-43.83,15.58c-6.29,3.26-3.71,14.88,3.79,14A607.32,607.32,0,0,0,188.72,140a7.61,7.61,0,0,0,5.24-9.23c-1.21-4.33-5.18-5.79-9.23-5.24a153.11,153.11,0,0,0-45.54,13.79c-5.9,2.82-4.17,12.21,1.79,13.71a71.79,71.79,0,0,0,39.54-1.11c7.73-2.47,6.81-15.21-2-14.73-22.21,1.21-43.18,9.92-65.36,11l3.79,14,19.71-10.91c6.78-3.75,3.37-13.65-3.79-14a75.18,75.18,0,0,0-29.5,4.54c-7.47,2.76-7,15.07,2,14.73q23.49-.87,46.91-2.91,11.71-1,23.38-2.36c6.45-.74,12.84-1.39,18.4-5.06a7.57,7.57,0,0,0-3.79-14c-10.62-.77-20.16,4.51-26.09,13.13-2.91,4.23.23,9.57,4.48,11,12.36,4.21,22.16-3.89,34-4.83,6.47-.51,12.87,3,18.06-2.87,4.64-5.22,3.27-11.9-2-15.91-3.31-2.54-8.29-.37-10.26,2.69a12.9,12.9,0,0,0,6.58,18.82c7.86,2.73,16-3,17.68-10.81l-14.73-2a18,18,0,0,0,8.8,15.79c8.23,5.1,15.77-7.87,7.57-13-1.33-.83-1.39-1.39-1.37-2.84.1-8.29-12.93-10.41-14.73-2-.52,2.42,4.89.86,3.16,3.56l-10.26,2.69-1.59-1.34-1-3.79q4.47-3.64.34-3.58-1.7-.24-3.41-.44a25.44,25.44,0,0,0-4.26.11A51.41,51.41,0,0,0,190.79,139c-5.85,1.88-12,5-18.14,2.9l4.48,11c3-4.42,8-6.08,13.14-5.7l-3.79-14c-4.77,3.15-11.15,3.07-16.67,3.66q-10.71,1.15-21.45,2.05-21.47,1.8-43,2.58l2,14.73a63.67,63.67,0,0,1,25.52-4l-3.79-14-19.71,10.91c-6.38,3.53-3.69,14.33,3.79,14,22.24-1,43.2-9.76,65.36-11l-2-14.73A56.67,56.67,0,0,1,145,138.54l1.79,13.71a141.13,141.13,0,0,1,42-12.28l-4-14.46a576.29,576.29,0,0,1-72.38,13.6l3.79,14A152.72,152.72,0,0,1,156.39,139l-5.78-13.71c-19.32,8.46-40.28,12.48-60.87,16.53-9.57,1.88-5.38,16,4,14.46a32.56,32.56,0,0,1,8.81,0l-5.3-12.8c-.34.3-.64,0-1.09-.15l3.31,12.54a77.69,77.69,0,0,1,30.17-16.44l-7.3-12.54a39.87,39.87,0,0,1-25.17,8.58l6.48,11.29a13.54,13.54,0,0,1,9.44-7.55l-5.78-13.71a50.27,50.27,0,0,1-28,8.95l6.48,11.29a26,26,0,0,1,16.51-13.58l-8.47-11a45.1,45.1,0,0,1-22.29,18.28l9.23,9.23a25.09,25.09,0,0,1,5.31-9.76l-12.54-7.3a19.79,19.79,0,0,1-6,8.5l12.54,7.3L87,119.6c1.67-6.73-7.52-13.42-12.54-7.3L56.81,133.85l12.8,5.3a117.42,117.42,0,0,1,7-30.47c2.66-7.21-7.55-12.41-12.54-7.3-5.63,5.77-7.53,13.43-7.36,21.33.16,7.35,3.22,16.22-.34,23.11l4.48-3.45s-.38.64-.3-.35a23.93,23.93,0,0,1,.54-4.87c1.13-4.36,2.88-8.65,4.34-12.91,2.81-8.23,6-16.25,3.64-25C67.45,93,58.58,91.84,55.4,97.44a89.63,89.63,0,0,0-11.5,52.69c.9,9.53,15.91,9.62,15,0Z" transform="translate(-15.74 -78.96)"/><path class="cls-1" d="M215,137.38l-2.1-24.69c-.58-6.8-7.64-9.48-12.8-5.3-9.46,7.65-16.22,17.42-20.89,28.58l14.46,4a150.92,150.92,0,0,1,9.53-25.7l-14-3.79a135.56,135.56,0,0,1,1,24.61c-.43,8.32,13.19,10.38,14.73,2a125.39,125.39,0,0,0,2.15-26c-.08-3.1-2.25-6.59-5.51-7.23-10.35-2-17.59,8.54-23.19,15.79-6.14,8-11.27,16.56-16.34,25.22l13.71,5.78A178.13,178.13,0,0,1,183,120.85c2.3-6.82-7.82-13.19-12.54-7.3l-11.28,14.09L171,136.73a93.38,93.38,0,0,0,11.92-23.06,7.42,7.42,0,0,0-1.93-7.3c-6.31-6.32-13.53-1.17-19.11,3.12a122.5,122.5,0,0,0-17.72,16.62c-6.35,7.27,3.35,17,10.61,10.61a60.71,60.71,0,0,0,16.44-24.35c1.76-4.64-2.73-9.49-7.23-9.49-9.34,0-16.91,5.78-24.23,10.92-7.87,5.53-15.46,11.47-22.78,17.72s3.3,16.85,10.61,10.61c5.9-5,12-9.84,18.28-14.34,5-3.53,11.72-9.91,18.12-9.91l-7.23-9.49a45,45,0,0,1-12.59,17.73l10.61,10.61a119.63,119.63,0,0,1,10.9-11c2.69-2.37,6.94-7.11,10.5-7.61h-4L170.38,117l-1.93-7.3A79.6,79.6,0,0,1,158,129.16c-4.91,6.85,6.45,15.75,11.78,9.09l11.28-14.09-12.54-7.3a178.13,178.13,0,0,0-7.26,29.73c-1.23,7.93,9.1,13.65,13.71,5.78,3.75-6.41,7.51-12.83,11.74-18.94a99.12,99.12,0,0,1,6.06-8c1.68-2,5-6.82,7.48-7.46h-4l1.31.26L192.11,111a106,106,0,0,1-1.62,22l14.73,2a135.56,135.56,0,0,0-1-24.61c-.44-3.37-2-6.24-5.51-7.23-3-.86-7.06.51-8.47,3.45a172.68,172.68,0,0,0-11,29.29c-2.63,9.6,10.86,12.61,14.46,4a56.56,56.56,0,0,1,17-22l-12.8-5.3,2.1,24.69c.81,9.55,15.82,9.63,15,0Z" transform="translate(-15.74 -78.96)"/><path class="cls-1" d="M45.49,138.47c-1.89.47-3.75,1.37-4.33.06l1,3.79c-.35-2.68-.26-4.94-1.82-7.28-2.47-3.69-8.48-5.44-11.78-1.52A22.75,22.75,0,0,0,24,141.8c-.63,2-.74,4.91-2.24,6.46l12.8,5.3Q35,137.09,34,120.65c-.58-9.59-15.58-9.66-15,0q1,16.44.64,32.91c-.14,6.48,8.31,9.91,12.8,5.3a19.93,19.93,0,0,0,4.73-8.07c.61-1.87.74-5.11,2-6.67l-11.78-1.52.61.91-1-3.79c.1,5.28,2.19,9.77,6.89,12.47,4.85,2.79,10.42,2,15.6.73,9.37-2.31,5.4-16.78-4-14.46Z" transform="translate(-15.74 -78.96)"/><path class="cls-1" d="M86.81,120.93a211.61,211.61,0,0,0,33.74,5.31l-2-14.73a188,188,0,0,1-32.3,1.43c-8.37-.31-10.3,12.87-2,14.73,12.06,2.71,23.54,7.3,35.42,10.63,11.52,3.22,24.69,6.23,36,1.06,4.28-2,4.88-8.79,1.52-11.78-6.29-5.59-14.48-4.82-22.4-5.1l-28-1c-9.72-.35-9.54,14.32,0,15a95.26,95.26,0,0,0,37.36-4.81c9.06-3.07,5.36-17.22-4-14.46A86,86,0,0,0,129,121.44c-3.72,1.68-4.54,7-2.69,10.26,2.17,3.82,6.59,4.35,10.26,2.69a58.07,58.07,0,0,1,7.57-2.72l-4-14.46a83.84,83.84,0,0,1-33.37,4.27v15l22.22.79,10.63.38c1.67.06,5.82-.47,7,.54l1.52-11.78c-4,1.84-9.79.64-14-.11a133.14,133.14,0,0,1-15.64-4c-10.07-3.12-19.94-6.78-30.24-9.09l-2,14.73a210.39,210.39,0,0,0,36.29-2c3.68-.5,5.81-5,5.37-8.23-.52-3.85-3.59-6.21-7.37-6.5a186.25,186.25,0,0,1-29.76-4.78c-9.38-2.28-13.38,12.18-4,14.46Z" transform="translate(-15.74 -78.96)"/><path class="cls-1" d="M72.07,93.67c-2.19,4.6-2.06,9.57,1.37,13.58s8.36,5,13.47,5.34v-15a261.73,261.73,0,0,1-30.25.73l7.23,5.51-.14-1L63,108.59c-1.67,2.27-1.13,1.43,1.49,1l4.87-.83,9.74-1.66c4.71-.8,6.92-7.24,4.48-11a15.07,15.07,0,0,0-6-5.52A35.16,35.16,0,0,0,73.95,89l-1.29-.43q-1.5-.9.07,1l-1,3.79.58-1c2.51-4.56.07-9.29-4.48-11-9.24-3.51-16,7.82-18.91,14.83-3.27,8-4.26,16.62-7.35,24.65H56a99.32,99.32,0,0,1-2.67-21.91c-.1-8.46-12.37-10.18-14.73-2a67.19,67.19,0,0,0-2.28,26.72l14-3.79-3.62-7.9c-3.25-7.1-13.84-3.13-14,3.79l-.48,24.87,14-3.79a56.85,56.85,0,0,1-5.36-30.32c.77-9-12-9.38-14.73-2a78.08,78.08,0,0,0-4.83,26.74c-.08,9.65,14.92,9.66,15,0a65.75,65.75,0,0,1,4.3-22.76l-14.73-2a71.57,71.57,0,0,0,7.41,37.89c3.41,7,13.84,3.24,14-3.79l.48-24.87-14,3.79,3.62,7.9c3,6.57,14.85,3.52,14-3.79a56.2,56.2,0,0,1,1.74-22.73l-14.73-2a118.37,118.37,0,0,0,3.21,25.9c1.85,7.81,12,6.4,14.46,0,2.11-5.5,3.24-11.25,4.76-16.92a43.08,43.08,0,0,1,2.6-7.62,21.63,21.63,0,0,1,1.75-3,6.52,6.52,0,0,1,1-1.26q1.53-1.84.74-.57h-4l1,.37-4.48-11a11.35,11.35,0,0,0,1.54,13.52,16.17,16.17,0,0,0,4.76,3.62c.92.46,4.67,1.27,5,1.76l4.48-11c-9.69,1.65-27.62,1.18-25.68,15.2.46,3.28,4.25,5.41,7.23,5.51a261.73,261.73,0,0,0,30.25-.73c9.6-.79,9.69-14.33,0-15-3.15-.22-1.2-.46-1.34.87l-1,3.79.48-1c4.13-8.67-8.8-16.29-13-7.57Z" transform="translate(-15.74 -78.96)"/><path class="cls-1" d="M37.19,143.7h6.67c3.92,0,7.68-3.45,7.5-7.5a7.63,7.63,0,0,0-7.5-7.5H37.19c-3.92,0-7.68,3.45-7.5,7.5a7.63,7.63,0,0,0,7.5,7.5Z" transform="translate(-15.74 -78.96)"/><path class="cls-1" d="M20.41,151.79c-.18,1.53-.12,3-.3,4.57-.4,3.34,2.63,6.29,5.51,7.23a32.19,32.19,0,0,0,9.46,1.12,7.8,7.8,0,0,0,4.83-1.62A7.14,7.14,0,0,0,41.17,162q3-3.47-1.67.55l-5.78-.76c-2.22-1.54-1.65-1.78-.84-.55a12.89,12.89,0,0,0,1.76,2.15,8.55,8.55,0,0,0,5.88,2.25c1.63,0,3-1,4.37-1,1.81-.08,3.69.71,5.44,1.05,4.5.88,8,.49,12.52-.27s8.64.14,12.93.83c4.5.73,8.77-.62,13.29-.49,5,.14,9.94.58,14.9.88,10.2.62,20.43,1.49,30.64,1.84a60,60,0,0,0,13.75-1.35c5.14-1,9.8.35,14.9,1a88.32,88.32,0,0,0,13.82.76c5-.14,10.07-1.64,15-1.58,4.17.05,8.23,1.32,12.43,1.12,4.82-.22,9.16.14,14,.32,8.76.33,16.34-4.8,18.21-13.54,1-4.67.5-9.37.26-14.08q-.4-8-.13-16a186.29,186.29,0,0,1,4.52-34.25c2.1-9.4-12.36-13.42-14.46-4A202.46,202.46,0,0,0,222,141.14c.16,3.23.86,6.87.27,10.09-.56,3.07-2.54,2.65-5.34,2.4a66.4,66.4,0,0,0-11.67-.22c-3.84.31-8-.65-11.8-1-4.17-.34-8.46,1-12.64,1.26a81.67,81.67,0,0,1-13.84-.15c-4.19-.41-8.28-1.54-12.48-1.9-4.66-.4-9,1.07-13.6,1.65-8.81,1.12-18.4-.55-27.24-1.09s-17.5-1.54-26.21-1.5c-2.36,0-4.6.43-6.93.64a29.8,29.8,0,0,1-6.67-.54,44.93,44.93,0,0,0-14.09,0c-3.86.69-6.36,0-10.18-.64a19.84,19.84,0,0,0-12.8,1.5l3.79-1-.58-.06,5.3,2.2c-2.31-2.48-3.91-5-7.74-5-3.43,0-6.13,2.78-7.45,4.08l5.3-2.2a25.94,25.94,0,0,1-5.76-.57l5.51,7.23c.18-1.53.12-3,.3-4.57.48-4-3.79-7.5-7.5-7.5-4.45,0-7,3.46-7.5,7.5Z" transform="translate(-15.74 -78.96)"/><path class="cls-1" d="M78.06,99.12l40.17,4.35v-15L92.67,91.12c-7.25.75-14.56.33-19.16,6.84C70,102.89,74.78,109,80,109.24l47.8,2.28-2-14.73-26.17,6.13c-8.74,2-6,14,2,14.73q21.1,2,42.31,1.94l-2-14.73-22.07,8.34c-7.4,2.8-7.06,15.12,2,14.73a92.56,92.56,0,0,0,41.53-11.75c6.65-3.73,3.48-13.79-3.79-14l-39.19-1,2,14.73c10.07-3.5,20.46-3.45,31-3.31,9.76.13,9.51-14.27,0-15l-40.94-3.15,2,14.73c13.6-2.79,27.53.91,41.11-2.86,6.11-1.7,7.49-10.55,1.79-13.71a31.55,31.55,0,0,0-7.82-3.12c-9.37-2.31-13.37,12.15-4,14.46a15.25,15.25,0,0,1,4.24,1.61l1.79-13.71c-13.34,3.7-27.52.07-41.11,2.86-8.75,1.8-6,14.12,2,14.73l40.94,3.15v-15c-11.78-.16-23.73-.06-35,3.84-7.85,2.73-6.74,14.51,2,14.73l39.19,1-3.79-14a75.76,75.76,0,0,1-34,9.71l2,14.73,22.07-8.34c7.55-2.85,7-14.74-2-14.73q-21.2,0-42.31-1.94l2,14.73,26.17-6.13c8.51-2,6.21-14.34-2-14.73L80,94.24l6.48,11.29c-1.12,1.59-2.93,1-.68,1.3a18.61,18.61,0,0,0,3.93-.41l9.83-1,18.68-1.93c9.65-1,9.63-14,0-15L78.06,84.12c-4-.44-7.5,3.76-7.5,7.5,0,4.42,3.46,7.06,7.5,7.5Z" transform="translate(-15.74 -78.96)"/><path class="cls-1" d="M143.37,103.37q25.66-.73,51.28.93l-3.79-14a198.58,198.58,0,0,1-28.62,10.58c-8.18,2.35-6.49,14.52,2,14.73a235.9,235.9,0,0,0,32.88-1.46l-6.48-11.29a78.45,78.45,0,0,1-9.37,10.4l10.61,10.61,9.23-9c1.72-1.69,5.53-6.38,7.06-6.25l-3.79-1c-1-.44-.42-1.6-.49.4a25.66,25.66,0,0,0,.42,4.22,42.74,42.74,0,0,0,1.55,7.31,45.32,45.32,0,0,0,6.73,13.22c3.67,5,11.85,4.9,13.71-1.79l2.53-9.11H214.37L218,134.89c2.61,9.28,17.09,5.34,14.46-4l-3.68-13.07c-2-7.11-12.48-7.16-14.46,0l-2.53,9.11,13.71-1.79A32.18,32.18,0,0,1,219,109.58c-.67-6-.81-12-7-15-6-2.84-11.73.44-16.18,4.45-5,4.52-9.69,9.49-14.51,14.22-6.92,6.78,3.59,17.23,10.61,10.61a99.53,99.53,0,0,0,11.72-13.43c3.21-4.35-1.06-11.91-6.48-11.29a235.9,235.9,0,0,1-32.88,1.46l2,14.73a223.89,223.89,0,0,0,32.2-12.09c7.29-3.38,2.94-13.54-3.79-14q-25.61-1.66-51.28-.93c-9.63.27-9.67,15.28,0,15Z" transform="translate(-15.74 -78.96)"/><path class="cls-1" d="M226.89,167.89l.58.09a8,8,0,0,0,8.47-3.45c2.43-3.41,1.4-7.59,1-11.44l-14.73,2,1,3.67c2.25,8.33,14.38,6.36,14.73-2,.65-15.58,1.2-31.17-.53-46.71l-14.73,2c2.19,14.56,4.22,29.5.15,43.91l14.73,2c-1.21-21.36,5.32-42.34,3.35-63.71-.68-7.34-9.72-10.29-14-3.79l-16.39,25.07,14,3.79c.19-5.93,2-11.5,3.83-17.11S224.4,91.78,219.1,93l-16.6,3.79c-9.41,2.15-5.43,16.61,4,14.46l16.6-3.79-9.23-9.23c-2.24,6.91-4.13,13.78-4.37,21.1-.25,7.79,10.09,9.73,14,3.79L239.87,98l-14-3.79c2,21.37-4.56,42.34-3.35,63.71.47,8.25,12.36,10.41,14.73,2,4.83-17.12,2.45-34.61-.15-51.89-1.25-8.27-15.67-6.42-14.73,2,1.73,15.53,1.18,31.12.53,46.71l14.73-2-1-3.67c-2.13-7.89-15.68-6.64-14.73,2,.1,1-.11,5.53,1.07,3.87l8.47-3.45-.58-.09c-4-.65-8,1-9.23,5.24-1,3.57,1.24,8.59,5.24,9.23Z" transform="translate(-15.74 -78.96)"/><path class="cls-1" d="M202.64,111.51c4.18-1,8.21-.83,12.29-2.48a30.79,30.79,0,0,0,10.58-7.19c5.64-5.8-.26-13.6-7.3-12.54s-15.6,2.9-22.35.15l-2,14.73a281.22,281.22,0,0,0,30.88-1.77c7.53-.85,10-9.44,3.79-14-6.81-4.94-18.51-2.68-26.4-2.34-9.86.42-19.7,1.15-29.52,2.13-4,.4-7.5,3.16-7.5,7.5,0,3.74,3.44,7.9,7.5,7.5,8.51-.85,17-1.51,25.58-1.94q5.91-.3,11.83-.46c2.94-.08,8.53-1.18,10.94.57l3.79-14a281.22,281.22,0,0,1-30.88,1.77c-9,0-9.43,11.7-2,14.73,9.28,3.78,20.75,1.3,30.33-.15l-7.3-12.54c-4.84,5-9.94,4.36-16.25,5.81-9.4,2.17-5.42,16.63,4,14.46Z" transform="translate(-15.74 -78.96)"/><path class="cls-1" d="M112,99.32c9.14-1.7,18.55,1.93,27.87.6,4.6-.66,9.08-2,13.68-2.61,4.84-.65,8.26.65,12.87,1.73,5,1.19,9.09.18,13.69-1.88,4.3-1.93,7.21-1.12,11.7,0a68.06,68.06,0,0,0,29.83.79c9.47-1.82,5.46-16.28-4-14.46a48.85,48.85,0,0,1-14.82.62c-4.64-.54-9-2.19-13.63-2.91a23.57,23.57,0,0,0-13.78,1.63c-1.7.75-3.12,1.79-5,1.75-2.13,0-4.62-1.51-6.75-1.94-9.5-1.9-18.19,1.87-27.5,2.73-9.52.88-18.57-2.29-28.15-.51s-5.46,16.22,4,14.46Z" transform="translate(-15.74 -78.96)"/><path class="cls-1" d="M226.73,81.49c-14,1.21-28.51,3.61-42.6,3.1-6.76-.24-13.46-1.46-20.22-1.85-7-.41-14-.42-21-.43-9.65,0-9.67,15,0,15,7,0,14,0,21,.43,6.76.39,13.46,1.59,20.22,1.85,14.07.54,28.58-1.89,42.6-3.1,9.54-.82,9.63-15.83,0-15Z" transform="translate(-15.74 -78.96)"/><path class="cls-1" d="M67.93,97.31c11.41-1.49,22.85-3,34.37-3.3,10.95-.3,21.72,2.09,32.59,1.78s21.32-1.65,32.25-.88c11.84.83,23.66,1.89,35.49,2.84,9.62.78,9.57-14.23,0-15-11.51-.93-23-1.92-34.52-2.77-11.28-.83-22,.49-33.22.81-10.54.3-21-2-31.6-1.81-11.85.25-23.62,1.8-35.36,3.33-4,.52-7.5,3.07-7.5,7.5,0,3.65,3.45,8,7.5,7.5Z" transform="translate(-15.74 -78.96)"/><path class="cls-1" d="M193.88,97.45c6.51-.26,13-.52,19.54-.28,5.55.2,11.83.27,16.76,3.11,8.38,4.82,15.94-8.13,7.57-13-12.63-7.27-29.88-5.43-43.87-4.88-9.62.38-9.67,15.38,0,15Z" transform="translate(-15.74 -78.96)"/><path class="cls-1" d="M36.15,142.15l-2.58-5.33c-3.55-7.34-13.36-2.88-14,3.79l-.74,7.92h15a465.47,465.47,0,0,1-2.32-58.73l-12.8,5.3,7,8.84c3.48,4.37,11.45,1.86,12.54-3.31a45.42,45.42,0,0,0,1.05-10.4L25.38,94c2.33,3.33,6.46,7.38,6.85,11.43.46,4.84-.25,10-.25,14.85,0,9.9.82,19.94,4.44,29.23,3.54,9.08,15.89,5.56,14.46-4a104.94,104.94,0,0,1,.32-33c.72-4.2,1.67-8.36,1-12.62A15.43,15.43,0,0,0,50,93.73a13.66,13.66,0,0,0-2.49-2.82c-1.25-1.09-1.4-2.26-.54.22v4q-6.39,4.22-2.47,3.36a3.51,3.51,0,0,1,2.07.76c4.45,2.51,12-.56,11.29-6.48Q52,96.5,56.2,96.17q1.09.14,2.18.2a15.94,15.94,0,0,0,5.44-.75c9.16-2.92,5.25-17.41-4-14.46-1.66.53-3.36-.1-5.08-.06a13.72,13.72,0,0,0-6.18,1.61c-3.6,2-6.26,5.86-5.73,10.06l11.29-6.48c-5.51-3.11-14.53-4.65-19.4.61a9.27,9.27,0,0,0-1.16,10.94c1.26,2.16,3.56,3.18,3.93,4.93.57,2.71-1,6.75-1.34,9.4-.58,4-1,8.09-1.23,12.17a127.44,127.44,0,0,0,1.49,25.17l14.46-4C47,135.67,46.84,125.45,47,115c.1-4.82.84-10.1-.4-14.82-1.35-5.15-5.32-9.48-8.31-13.76-4-5.76-14.15-4.15-14,3.79a27.36,27.36,0,0,1-.52,6.42l12.54-3.31-7-8.84c-4.28-5.38-12.66-.63-12.8,5.3a465.47,465.47,0,0,0,2.32,58.73c1,9.59,14.1,9.69,15,0l.74-7.92-14,3.79,2.58,5.33c4.2,8.69,17.14,1.09,13-7.57Z" transform="translate(-15.74 -78.96)"/><path class="cls-1" d="M30.16,81.35A11.51,11.51,0,0,0,25,81.26c-.5.08-4.2.56-1.62.38l6.48,11.29.06-.13L25.4,96.24c2.52-1,6-.58,8.74-.66L44,95.29c5.66-.17,11.33-.41,17-.24a111.78,111.78,0,0,1,35.67,7.29c9.06,3.38,13-11.11,4-14.46A124.92,124.92,0,0,0,57.42,80c-7.1,0-14.22.32-21.32.53-5.33.16-16.51-1.4-19.24,4.83-2.06,4.74.2,11.71,6.48,11.29a19.1,19.1,0,0,0,3-.42c1.59-.37,2.75.37-.17-.4,9.34,2.46,13.33-12,4-14.46Z" transform="translate(-15.74 -78.96)"/><path class="cls-1" d="M27.14,128.66h5.42a4.5,4.5,0,1,0,0-9H27.14a4.5,4.5,0,0,0,0,9Z" transform="translate(-15.74 -78.96)"/><path class="cls-1" d="M26.62,162.14a18.92,18.92,0,0,1-4.09,0l.9.69a7.81,7.81,0,0,1-.2-2.09L23,158.36l-.44-4.67c-.18-1.91-3.18-1.92-3,0l.51,5.45a23.75,23.75,0,0,0,.44,4.43c.72,2.38,4.21,1.58,6.1,1.57a1.5,1.5,0,0,0,0-3Z" transform="translate(-15.74 -78.96)"/><path class="cls-1" d="M22.76,153.68a16.74,16.74,0,0,1-.5-5.38c.13-1.93-2.87-1.92-3,0a19.41,19.41,0,0,0,.6,6.18,1.5,1.5,0,0,0,2.89-.8Z" transform="translate(-15.74 -78.96)"/><path class="cls-1" d="M19.15,94V83.58h-3V86l2.95-.4s-.41-1.33-.39-1.37c.2-.33,1.82-.15,2.14-.16q2.59-.06,5.18.06a73.39,73.39,0,0,1,10.8,1.34c1.89.37,2.69-2.52.8-2.89a77.36,77.36,0,0,0-16.3-1.52c-1.57,0-3.53-.11-4.77,1-1.4,1.3-.61,2.72-.35,4.3s2.95,1.25,2.95-.4V83.58a1.5,1.5,0,0,0-3,0V94a1.5,1.5,0,0,0,3,0Z" transform="translate(-15.74 -78.96)"/><path class="cls-1" d="M234.72,120a38,38,0,0,0,1.58,9.26c.4,1.33,2.59,1.52,2.89,0a34.11,34.11,0,0,0,.56-9.85,1.51,1.51,0,0,0-2.95-.4c-.91,3.16.06,6.15,0,9.35,0,3.66-.9,7.4-1.43,11-.27,1.89,2.62,2.7,2.89.8.49-3.38,1.1-6.76,1.43-10.16s-1-6.89,0-10.2l-2.95-.4a31.3,31.3,0,0,1-.46,9.05h2.89a34.73,34.73,0,0,1-1.47-8.46c-.09-1.92-3.09-1.93-3,0Z" transform="translate(-15.74 -78.96)"/><path class="cls-1" d="M233.1,84.48a14.31,14.31,0,0,1,5.25.48q.69.27.17-.26l0,.94a24.49,24.49,0,0,0-.07,2.81l-.24,10.31c0,1.93,3,1.93,3,0l.18-7.5c.05-2.21.5-4.81.14-7-.52-3.14-6-3-8.4-2.79-1.91.17-1.93,3.18,0,3Z" transform="translate(-15.74 -78.96)"/><path class="cls-1" d="M230.27,166a13.85,13.85,0,0,1,3.44.5l-.9-2.2c.18-.31-2.15-.06-2.38,0a1.5,1.5,0,0,0,0,3l3,.33v-3l-1.88.2c-1.53.16-2.21,2.63-.4,2.95,1.12.2,2.64.77,3.68.06s1.34-2.7,1.55-3.9l-2.95-.4-.7,1.62a1.52,1.52,0,0,0,0,2.12c5,3.92,5.18-10.58,5-12.86-.13-1.92-3.13-1.93-3,0a29.56,29.56,0,0,1-.28,6.28c-.09.59-.62,4.33-.72,4.36l1.46.39-.36-.28v2.12a6.17,6.17,0,0,0,1.57-3.74c.17-1.67-2.66-2.06-2.95-.4a6.45,6.45,0,0,1-.86,2.76l1.3-.74a10.14,10.14,0,0,1-2-.27l-.4,2.95,1.88-.2a1.5,1.5,0,0,0,0-3l-3-.33v3c1.64-.13,4,.21,5-1.44a1.52,1.52,0,0,0-.9-2.2,17.21,17.21,0,0,0-4.24-.6c-1.93,0-1.93,3,0,3Z" transform="translate(-15.74 -78.96)"/><path class="cls-1" d="M235,155.2a5.44,5.44,0,0,1-.64,4.33l2.8.76a15.4,15.4,0,0,1,.91-3.84l-2.95-.4a17.36,17.36,0,0,1-1.31,7.05c-.62,1.83,2.27,2.62,2.89.8a19.45,19.45,0,0,0,1.42-7.85,1.51,1.51,0,0,0-2.95-.4,18.45,18.45,0,0,0-1,4.64c-.1,1.53,2.07,2,2.8.76a8.58,8.58,0,0,0,.94-6.64c-.47-1.87-3.37-1.08-2.89.8Z" transform="translate(-15.74 -78.96)"/><path class="cls-2" d="M125.72,143.51c-4.73.39-5.23,10.1-.18,10.12,4.58,0,6.33-11.13.74-10.24-1.27.2-.73,2.13.53,1.93s.93,2.55.79,3.16c-.21.93-1.13,3.6-2.61,3-1.68-.72-1.26-5.76.73-5.93,1.27-.11,1.28-2.11,0-2Z" transform="translate(-15.74 -78.96)"/><path class="cls-2" d="M132.43,149.45v2.75l2-.27c-.14-.78.71-2.52,1.63-2.72,1.49-.32,1.29,1.63,1.25,2.53h2a2.75,2.75,0,0,1,.34-1.54c.37-.54,1.12-1.2,1.49-.06a15.33,15.33,0,0,1,0,2.42c.16,1.26,2.16,1.28,2,0-.24-1.91.46-4.81-2.33-5-2.42-.2-3.44,2.2-3.49,4.23,0,1.29,1.94,1.28,2,0,.09-2-.66-5.12-3.39-4.58a4.81,4.81,0,0,0-3.42,5.3c.19,1.13,2,.84,2-.27v-2.75a1,1,0,0,0-2,0Z" transform="translate(-15.74 -78.96)"/><path class="cls-2" d="M144.49,144.56l-.21,4.41a10,10,0,0,0,0,3.36,1.54,1.54,0,0,0,1.29,1.13c.83.09,1-.55,1.71-.82,1.18-.47.66-2.41-.53-1.93a6.92,6.92,0,0,0-1,.61q.76.5.5-.47l.06-1.26.24-5c.06-1.29-1.94-1.28-2,0Z" transform="translate(-15.74 -78.96)"/><path class="cls-2" d="M119.83,144.64c0-3.85-6.63-1.28-6,2.33a2.94,2.94,0,0,0,3.59,2.25c2-.4,3-2.33,3.34-4.16l-2-.27c0,1.42-.1,2.84-.19,4.26-.06.94,0,1.52-.67,2.21-.48.5-2.88,1.48-2.86-.4a1,1,0,0,0-2,0c0,2.85,3.28,3.68,5.49,2.58,2.86-1.42,2.17-6,2.24-8.65,0-1.11-1.74-1.39-2-.27-.18.89-.57,2.64-1.73,2.65q-.72.42-.79-.62-.79-.67,0-1.13c.07-.1,1.51-1,1.51-.79a1,1,0,0,0,2,0Z" transform="translate(-15.74 -78.96)"/><path class="cls-2" d="M178.51,122.4l0,9.51c0,1.09,1.78,1.41,2,.27a13.25,13.25,0,0,0,.07-3.3c-.09-1.05-.58-3.34.29-4.17,1.29-1.22,2.09.32,3.36.44a1.93,1.93,0,0,0,1.81-.77c.79-1-.62-2.42-1.41-1.41-.08.1-2.54-1-3.17-.95a3.26,3.26,0,0,0-2.16,1.48c-1.66,2.45-.28,5.46-.71,8.15l2,.27,0-9.51a1,1,0,0,0-2,0Z" transform="translate(-15.74 -78.96)"/><path class="cls-2" d="M149.84,126c-2.6-1.69-6,.63-6.44,3.44-.59,4.2,4.67,3.85,7.07,2.36,1.09-.68.09-2.41-1-1.73s-4.72,1.79-4-.67c.38-1.34,2.08-2.52,3.38-1.67,1.08.7,2.09-1,1-1.73Z" transform="translate(-15.74 -78.96)"/><path class="cls-2" d="M145.14,124.27a1.55,1.55,0,0,1,2-1.1,2.74,2.74,0,0,1,1.78,2.27c.41,1.83-.44,3.7.07,5.5.59,2.09,3.7,3.26,4.89,1,.6-1.14-1.12-2.15-1.73-1q-.61.48-.91-.18a1.13,1.13,0,0,1-.42-1.27,11.39,11.39,0,0,1,.1-1.22,11.29,11.29,0,0,0,0-2.75,5.37,5.37,0,0,0-2-3.7c-2-1.39-5.22-.63-5.71,1.91-.24,1.26,1.68,1.8,1.93.53Z" transform="translate(-15.74 -78.96)"/><path class="cls-2" d="M168.33,128.4c2.38.32,7-.54,6.57-3.87-.27-2.36-4.12-3.19-5.82-1.94-2.29,1.68-2.78,6-1.21,8.26a3.87,3.87,0,0,0,6.44.12c.73-1.06-1-2.06-1.73-1-1,1.39-2.76.55-3.33-.7a4.94,4.94,0,0,1,.52-4.34,1.87,1.87,0,0,1,2.5-.68c.91.48.35,1.26-.31,1.71a4.69,4.69,0,0,1-3.09.51c-1.26-.17-1.8,1.76-.53,1.93Z" transform="translate(-15.74 -78.96)"/><path class="cls-2" d="M90.32,121a6.45,6.45,0,0,0-2.11,7.34c.82,2.13,3.13,4.33,5.62,3.55s3.27-4.87,3.15-7a4.28,4.28,0,0,0-4.88-4.23c-1.27.21-.73,2.14.53,1.93,4-.67,2.4,8.86-.84,7.17-3-1.54-2.25-5.55,0-7.31,1-.8-.42-2.21-1.41-1.41Z" transform="translate(-15.74 -78.96)"/><path class="cls-2" d="M102.53,121.11a28.27,28.27,0,0,0,.12,6c.17,1.3.24,3.25,1.11,4.32,1.53,1.87,3.85-.18,4.81-1.59.73-1.07-1-2.07-1.73-1a3.25,3.25,0,0,1-1.1,1.1q-.85,0-.73-.89a9.65,9.65,0,0,1-.45-2.68,27.7,27.7,0,0,1,0-5.22c.1-1.28-1.9-1.28-2,0Z" transform="translate(-15.74 -78.96)"/><path class="cls-2" d="M99.56,125.86l6.86-.88c1.26-.16,1.28-2.16,0-2l-6.86.88c-1.26.16-1.28,2.16,0,2Z" transform="translate(-15.74 -78.96)"/><path class="cls-2" d="M157.88,122.13a28.27,28.27,0,0,0,.12,6c.17,1.3.24,3.25,1.11,4.32,1.53,1.87,3.85-.18,4.81-1.59.73-1.07-1-2.07-1.73-1a3.25,3.25,0,0,1-1.1,1.1q-.85,0-.73-.89a9.65,9.65,0,0,1-.45-2.68,27.7,27.7,0,0,1,0-5.22c.1-1.28-1.9-1.28-2,0Z" transform="translate(-15.74 -78.96)"/><path class="cls-2" d="M154.91,126.88l6.86-.88c1.26-.16,1.28-2.16,0-2l-6.86.88c-1.26.16-1.28,2.16,0,2Z" transform="translate(-15.74 -78.96)"/><path class="cls-2" d="M123.76,122.84c.35,2.91,1.52,7.4,4.25,9.07,3.13,1.91,4.2-3,4.83-4.93h-1.93c.53,1.67,2.43,6.25,4.89,5.42,1.17-.4,1.87-2.16,2.35-3.14a21,21,0,0,0,1.88-6c.21-1.26-1.72-1.8-1.93-.53a19.1,19.1,0,0,1-1.88,5.88c-1.47,2.8-2.84-.49-3.38-2.19a1,1,0,0,0-1.93,0,11.94,11.94,0,0,1-.87,2.69c-1.31,1.61-1.9,0-2.51-1a13.15,13.15,0,0,1-1.77-5.33c-.15-1.26-2.15-1.28-2,0Z" transform="translate(-15.74 -78.96)"/><path class="cls-2" d="M77.8,113.59q-.08,8.77.14,17.53h2c-.11-1.75-.65-5.7,1.75-6.27,3.33-.79,2.58,5.08,2.43,6.53-.14,1.28,1.87,1.27,2,0,.32-3,.36-8.59-4-8.58s-4.32,5.37-4.13,8.33c.08,1.27,2,1.3,2,0q-.22-8.76-.14-17.53a1,1,0,0,0-2,0Z" transform="translate(-15.74 -78.96)"/></svg>