<svg id="Слой_1" data-name="Слой 1" xmlns="http://www.w3.org/2000/svg" viewBox="0 0 214.96 166.39"><defs><style>.cls-1{fill:#fffaf0;}.cls-2{fill:#333;}</style></defs><title>icecream</title><path class="cls-1" d="M65.1,189.68c-3.27-18.92,1.55-38.07,10.67-54.71,8.1-14.79,21-33.93,39-36.66,3.17-.48,1.82-5.3-1.33-4.82-19.29,2.93-33.29,23.09-42,39C61.64,150.36,56.76,170.7,60.28,191c.55,3.16,5.37,1.82,4.82-1.33Z" transform="translate(-49.54 -84.51)"/><path class="cls-1" d="M102.78,104A96.55,96.55,0,0,1,150,89.56a107.41,107.41,0,0,1,26,2.59c8.05,1.71,16.53,3.54,24,7s13.34,9.62,19,15.65a156.31,156.31,0,0,1,16,19.41c9.49,14,15.48,30.23,13.44,47.28-.38,3.19,4.62,3.16,5,0,2.13-17.82-4.2-35.21-14.13-49.81a164.68,164.68,0,0,0-16.8-20.42c-6-6.33-12.07-12.66-20.06-16.43s-16.69-5.74-25.21-7.55A113.11,113.11,0,0,0,150,84.56a101.76,101.76,0,0,0-49.76,15.08c-2.74,1.68-.23,6,2.52,4.32Z" transform="translate(-49.54 -84.51)"/><path class="cls-1" d="M249.5,186.16a5.87,5.87,0,0,1,0-1.07c0,.36.11-.42.14-.52a4.44,4.44,0,0,1,.79-1.42,2.52,2.52,0,0,0-.9-3.42,2.56,2.56,0,0,0-3.42.9,8.3,8.3,0,0,0-1.6,5.53,2.56,2.56,0,0,0,2.5,2.5,2.52,2.52,0,0,0,2.5-2.5Z" transform="translate(-49.54 -84.51)"/><path class="cls-1" d="M249.74,188.92l3.33-9.25c1.09-3-3.74-4.34-4.82-1.33l-3.33,9.25c-1.09,3,3.74,4.34,4.82,1.33Z" transform="translate(-49.54 -84.51)"/><path class="cls-1" d="M248.22,175.51l-2.08,2,3.76,2.16c-.78-6.87,1.76-13.5,1.37-20.37-.15-2.75-4.13-3.47-4.91-.66l-3.25,11.65L248,171l-1.78-18.1c-.31-3.17-5.32-3.21-5,0L243,171c.26,2.68,4.11,3.55,4.91.66L251.19,160l-4.91-.66c.38,6.88-2.16,13.48-1.37,20.37.21,1.82,2,3.19,3.76,2.16a10,10,0,0,0,3.87-3.82c1.67-2.76-2.65-5.28-4.32-2.52Z" transform="translate(-49.54 -84.51)"/><path class="cls-1" d="M186.91,102.12c13.65-.59,25,8,34.21,17.18s16.9,20.05,20,32.92c.76,3.13,5.58,1.8,4.82-1.33-3.44-14.21-12.13-26.21-22.48-36.29-9.9-9.64-22.18-18.11-36.57-17.49-3.21.14-3.22,5.14,0,5Z" transform="translate(-49.54 -84.51)"/><path class="cls-1" d="M191.85,97.73c12.69,2.47,22.72,10.52,31.21,19.9,8.67,9.58,18.07,21.22,17.45,34.85-.15,3.22,4.85,3.21,5,0,.66-14.53-8.7-26.83-17.85-37.2s-20.46-19.65-34.47-22.37c-3.14-.61-4.49,4.21-1.33,4.82Z" transform="translate(-49.54 -84.51)"/><path class="cls-1" d="M156.05,90.63a73,73,0,0,1,75.36,38.74c1.49,2.86,5.8.33,4.32-2.52a78.07,78.07,0,0,0-81-41c-3.17.47-1.82,5.29,1.33,4.82Z" transform="translate(-49.54 -84.51)"/><path class="cls-1" d="M211.1,108.58c7.27-1.58,13,7.81,16.81,12.64a116.13,116.13,0,0,1,11.33,16.54c7.42,13.67,7.13,28.21,6,43.29-.24,3.21,4.76,3.19,5,0,.66-8.93,1.28-17.95-.1-26.85A61.9,61.9,0,0,0,241.06,131a164.81,164.81,0,0,0-14.29-19c-4.4-5.18-9.85-9.73-17-8.18-3.14.68-1.81,5.5,1.33,4.82Z" transform="translate(-49.54 -84.51)"/><path class="cls-1" d="M189.31,96.2c-8.52-3.46-16.4-5.3-25.37-2.32a73.93,73.93,0,0,0-21.13,11.47c-6.62,5.1-10.94,11.8-15.12,18.91q-7.63,13-14.51,26.34c-1.47,2.85,2.84,5.39,4.32,2.52q5.61-10.85,11.67-21.46c3.86-6.72,7.58-14,13.22-19.41,5.8-5.57,13.73-10.06,21.22-12.94,8.74-3.36,16-1.69,24.38,1.72,3,1.21,4.28-3.62,1.33-4.82Z" transform="translate(-49.54 -84.51)"/><path class="cls-1" d="M60,188.52C43.3,193.33,49.85,216,57.33,225.73c4.12,5.37,10.19,10.64,17.45,9.7,2.15-.28,4.18-1.38,6.35-1.45s4.61.93,6.72,1.79c3.57,1.45,6.88,2.83,10.8,2.76l-2.5-2.5c-1.3,9.72,10,10.07,16.58,10,3.71,0,5.3,1,8.37,3.11a8.66,8.66,0,0,0,3.56,1.69c3.68.59,6.48-2,9.25-4,4.32-3.07,8.89-2.29,13.85-2.3,5.41,0,10.28-2.2,15.6-2.54a9.47,9.47,0,0,1,7.34,2.18c1.44,1.31,2.11,2.48,4,3.15,3.38,1.22,10.29,1.79,13.77.78a5.3,5.3,0,0,0,2.81-1.78c1.64-2.13.66-4.13,4.14-4.44,3.86-.34,8,3,11.88,3.38a9.58,9.58,0,0,0,8-2.65,10.65,10.65,0,0,1,7.51-3.27c2.07-.19,3.78-.12,5.69-1,2.75-1.31,3.4-3,4.14-5.75.57-2.13-.53-.79,1.13-1.8.88-.53,2.58-.5,3.59-.64a50.45,50.45,0,0,0,6.15-1,11.55,11.55,0,0,0,6.92-4.66c1.68-2.56,1.7-3.74,4.46-5.54,1.24-.81,2.53-1.41,3.35-2.73s.49-2.69.74-4.19c.39-2.39,2.36-2.33,3.68-4,2.3-3,2-8.45,1.47-11.89-1.21-8.29-8.74-15.64-17.45-12.45-3,1.1-1.7,5.93,1.33,4.82,5.19-1.91,9.6,1.86,10.89,6.77a19,19,0,0,1,.42,6.34c-.24,2.9-1.32,3-3.3,4.7s-1.81,2.83-2.09,5.34c-.37,3.3-3.25,3.37-5.19,5.64-2.69,3.15-2.47,6-7.15,7.21-3.19.83-6.59.66-9.75,1.67a5.81,5.81,0,0,0-4.15,3.52c-1,2.19-.18,4.22-3.27,4.67-1.8.26-3.66-.12-5.47.18-3.56.59-4.48,2.58-7.18,4.58-3.55,2.64-7.61.12-11.22-1.08-4.61-1.53-10.2-2-12.8,2.83-1.08,2-.58,2.54-3.2,2.41-2.2-.1-4.77.11-6.89-.42-3.32-.83-5.17-4.28-8.67-5.28-7.15-2-14.1,2-21.23,2-3.78,0-7.64-.52-11.35.48-3.52.95-5.67,4.18-8.92,5.29-3,1-4.91-1.88-7.19-3a13.85,13.85,0,0,0-4.55-1.18c-4.2-.47-15.57,2-14.61-5.1a2.52,2.52,0,0,0-2.5-2.5c-5.55.1-10.09-3.65-15.49-4.39a16.62,16.62,0,0,0-6.56.71,11.29,11.29,0,0,1-11-2.55,32.87,32.87,0,0,1-10.35-16.57c-1.52-6-1.11-15.29,6.13-17.38,3.09-.89,1.77-5.71-1.33-4.82Z" transform="translate(-49.54 -84.51)"/><path class="cls-1" d="M111.2,156.16c-4.31,17.64,22.59,26.36,31.62,11.92,8.67-13.87-6.39-34.8-22.3-31.72-8.32,1.61-13.08,9-15.3,16.63-2.09,7.19-2.66,16.94,6.05,19.87,7.63,2.57,15.32-2.77,20.1-8.25A40.51,40.51,0,0,0,141,142c.73-6.39-8.22-7.49-11.18-3a60.2,60.2,0,0,0-8.65,20.37h11.57c-2.47-10.79-17.52-10.78-20,0-1.32,5.67,5.71,10.28,10,5.84a67.55,67.55,0,0,0,17.16-30.56c1.73-6.8-7.18-10.14-11-4.62a131.92,131.92,0,0,0-14.22,27.23c-2.55,6.59,7.44,10.07,11,4.62,6.35-9.82,12.12-20,12.45-32,.16-5.74-6.43-7.19-10.24-4.24a66.94,66.94,0,0,0-23.63,36.12c-.78,3,1,6.68,4.19,7.38,17.24,3.74,24.65-30.52,5.46-29.18-8.2.57-15.05,8.42-19.48,14.66a49.69,49.69,0,0,0-8.65,24.67c-.42,4.83,5.33,7.07,9,5.18a27.78,27.78,0,0,0,13.29-14.75c2-5.31,3.46-13.84-2.45-17.33-6.39-3.77-12.43,2.16-15.66,7.17-4,6.13-5.35,13.56-6.52,20.64-1.24,7.5,10.07,10.84,11.57,3.19.76-3.86.89-8-2.11-11a8.3,8.3,0,0,0-11.13-.61c-2.89,2.38-4.68,6.41-5.78,9.91-.66,2.11-1.45,2.67,1.61.93s2.2-1,.62-2.48-3.79-1.74-5.77-1.88a6,6,0,0,0-5.79,4.4L65.54,189l8.81-3.59c-2.16-1.64-1.86-6-1.86-8.38A53.88,53.88,0,0,1,74,164.58,59.47,59.47,0,0,1,84.38,142.8c4.61-6.2-5.8-12.19-10.36-6.06a68.16,68.16,0,0,0-12.8,31.17c-1.4,10-1.7,21.22,7.08,27.85,3,2.23,8.17-.05,8.81-3.59l1.17-6.44-5.79,4.4q-1.9-.92-.72,0a13.62,13.62,0,0,0,4.07,2.69,8.09,8.09,0,0,0,7.32-.34,8.36,8.36,0,0,0,3.76-5.12c.35-1.1.48-2.26.9-3.34l.59-1.31q2.9-3.66-4.93-2.62l11.57,3.19a89.28,89.28,0,0,1,2.24-10.77,30.53,30.53,0,0,1,1.58-4.35c.71-1.51,2.33-3,2.89-4.47q2.51-2.19-3.86-2.6a10.46,10.46,0,0,1-.44,2.63,15.17,15.17,0,0,1-1.57,3.83A16.38,16.38,0,0,1,88.76,174l9,5.18a37.08,37.08,0,0,1,8.37-20.37,35.87,35.87,0,0,1,4.21-4.28c1.09-.93,2.77-1.58,3.7-2.54q-.6-2.07-.6-.18a19.43,19.43,0,0,1-.77,2.47c-.39.93-2.33,2.9-1.06,3.18l4.19,7.38A56.55,56.55,0,0,1,136.38,134l-10.24-4.24c-.26,9.71-5.69,18-10.81,25.94l11,4.62a119,119,0,0,1,13-24.37l-11-4.62a55.28,55.28,0,0,1-14.08,25.27l10,5.84-3.11,0c1.3,5.69,10.3,5.75,11.57,0a50.8,50.8,0,0,1,7.44-17.5L129,142a26.5,26.5,0,0,1-9.44,17.46c-.92.72-3,2.44-4.34,2.08,1,.26.6-1.26.8-2.33.6-3.14,1.53-6.77,3.74-9.15,4.84-5.23,13.33,2.56,13.73,8,.55,7.66-11.85,5.85-10.74,1.29,1.83-7.5-9.74-10.7-11.57-3.19Z" transform="translate(-49.54 -84.51)"/><path class="cls-1" d="M84.76,140.25c5.83-19.9,21.63-32.74,41.3-37.68,11.3-2.84,23-5.36,34.67-4.44a62.34,62.34,0,0,1,31.39,12l4.62-11c-7.61-1.65-13.89-7.35-21.42-9.63a58.68,58.68,0,0,0-23-2c-16.71,1.75-31.76,9.5-45.48,18.8-5.25,3.56-2.13,13.53,4.62,11a90.61,90.61,0,0,1,38.76-5.8l-1.6-11.79a396.68,396.68,0,0,0-50,24.59l7.27,9.42,10.25-12c4.08-4.79-1.41-13.76-7.27-9.42l-24.36,18,8.21,8.21a103.28,103.28,0,0,1,15.51-21c5.37-5.61-2.77-13.65-8.49-8.49a296.82,296.82,0,0,0-30.22,31.66c-4.07,4.95,1.07,13.25,7.27,9.42L93,140.1l-9-5.18c.52,5.05-3.38,10.28-5.58,14.64l-7.5,14.87c-2.88,5.71,4.82,12.81,9.42,7.27q13.5-16.24,25.53-33.62L95.53,132,83.89,155.76c-2.8,5.7,4.79,12.85,9.42,7.27l29.32-35.3-9.42-7.27L94.94,152.54c-3.34,5.86,4.59,12.22,9.42,7.27L130,133.58l-8.49-8.49L91.12,164.23l10,5.84,2.52-7.27c1.68-4.86-4.54-9.62-8.81-6.78-11.16,7.42-17.94,19.6-25.33,30.45l11,1.43A19.77,19.77,0,0,1,79,177.45H67.44a29,29,0,0,1,1,7.36c.07,7.72,12,7.74,12,0V169.18c0-7.73-11.87-7.73-12,0a91.41,91.41,0,0,0,2.37,22.1,6,6,0,0,0,5.79,4.4c7.48-.44,10.55-6.5,14.11-12.26l12.85-20.81-11-1.43a68.43,68.43,0,0,1-.07,27.65c-1.57,7.54,9.19,10.58,11.57,3.19l6.73-20.9,3.06-9.5c.61-1.9,1.23-3.8,1.83-5.7l.61-1.9q1.62-3.4-2.2-.11l-5.79-4.4a204.18,204.18,0,0,1,3.89,24,6,6,0,0,0,12,0q1.24-13.34,1.47-26.73c.13-7.77-11.57-7.67-12,0L112.3,171c-.44,7.85,11.14,7.49,12,0a141.11,141.11,0,0,1,10.2-38.81l-6.78,2.76c2.45.83,3.3,4.57,4.2,6.7a28.84,28.84,0,0,0,4.47,7.49c3.09,3.76,8.68,1.2,10-2.65a107.66,107.66,0,0,0,5.2-23.17h-12a187.8,187.8,0,0,1-5,31.58l11-1.43c-5.34-12.33-3.91-26.29-10.78-38.2a6.08,6.08,0,0,0-6.78-2.76c-8.56,2.92-13,9.12-15.8,17.48-3.28,9.8-6.14,19.77-9.21,29.64-2,6.5,7.64,10.54,11,4.62a319.24,319.24,0,0,1,19.37-30.4c3.39-4.7,6.92-9.32,10.61-13.79,1.87-2.27,3.18-3.92,6.2-4.27s5.77-.34,8.67-1.32l-4.62-11a117.65,117.65,0,0,1-12.47,6.15l5.84,10a19.16,19.16,0,0,1,23.71-3.23l4.62-11a47.05,47.05,0,0,1-15.67-7.56l-1.43,11,9.26-1.28c7.62-1.05,4.37-12.62-3.19-11.57l-9.26,1.28c-5.7.79-5,8.35-1.43,11A56.29,56.29,0,0,0,172.7,117c6.57,1.77,10.5-7.47,4.62-11a31.31,31.31,0,0,0-38.25,5.11c-3.81,4,0,12.46,5.84,10a143.56,143.56,0,0,0,15.34-7.36c5.82-3.26,1.93-13.19-4.62-11-6,2-11.78.53-17,5.17-4.79,4.3-8.64,10.24-12.48,15.37a317.63,317.63,0,0,0-22.58,34.76l11,4.62,7-22.41c1.85-6,2.93-14,9.67-16.33l-6.78-2.76c6.66,11.56,5.49,26,10.78,38.2,2.1,4.84,9.82,3.24,11-1.43a207.08,207.08,0,0,0,5.45-34.77c.56-7.82-11.12-7.5-12,0a93.65,93.65,0,0,1-4.77,20l10-2.65c-2.4-2.92-3-7-5-10.2a16.3,16.3,0,0,0-9-7.07c-2.23-.76-5.8.45-6.78,2.76A161.08,161.08,0,0,0,112.3,171h12l1.36-24.18h-12q-.22,13.4-1.47,26.73h12a231.35,231.35,0,0,0-4.32-27.19,6.1,6.1,0,0,0-5.79-4.4c-8.88-.32-10.39,12.11-12.43,18.42l-9.17,28.5L104.06,192a83.72,83.72,0,0,0,.07-34c-1.07-5.27-8.41-5.57-11-1.43L84.27,171l-4,6.4c-.39.63-3.2,6.29-3.75,6.32l5.79,4.4a77.62,77.62,0,0,1-1.94-18.91h-12v15.63h12A42.68,42.68,0,0,0,79,174.26c-1.41-5.37-10.63-6.06-11.57,0a31.65,31.65,0,0,0,1.48,16.83c1.89,4.89,7.92,5.9,11,1.43,6.1-8.95,11.8-20,21-26.14l-8.81-6.78-2.52,7.27c-1.88,5.43,6.33,10.6,10,5.84L130,133.58c4.59-5.91-2.92-14.18-8.49-8.49L95.88,151.32l9.42,7.27,18.28-32.08c3.25-5.71-4.94-12.67-9.42-7.27l-29.32,35.3,9.42,7.27,11.64-23.75A6,6,0,0,0,95.53,132Q84.39,148.13,71.88,163.2l9.42,7.27,9.26-18.36c2.73-5.42,6.1-10.9,5.45-17.19-.44-4.3-4.82-7.77-9-5.18l-16.24,10L78,149.17a296.82,296.82,0,0,1,30.22-31.66L99.75,109a116.25,116.25,0,0,0-17.39,23.42c-2.72,4.84,3.13,12,8.21,8.21l24.36-18-7.27-9.42-10.25,12c-4.24,5,1.08,13,7.27,9.42a375,375,0,0,1,47.14-23.38c6.14-2.51,5.5-11.31-1.6-11.79a99.14,99.14,0,0,0-42,6.23l4.62,11c12.29-8.32,26-16.07,41.09-17.32a46.41,46.41,0,0,1,21.25,2.8c6.32,2.56,11.51,7.08,18.3,8.55s10.11-7,4.62-11a73.88,73.88,0,0,0-35.76-13.47c-13.81-1.41-28,1.66-41.32,5.17-22.94,6.06-41.17,22.62-47.9,45.61-2.18,7.43,9.4,10.6,11.57,3.19Z" transform="translate(-49.54 -84.51)"/><path class="cls-1" d="M168.61,107.53c5.8-.43,12.9-1.28,17.33,3.26l4.24-10.24-20.15.09c-6.9,0-8,9.73-1.6,11.79,11.1,3.58,25-.2,35.05,6.12,4.9,3.07,8.52,8.26,12.12,12.67A176.4,176.4,0,0,1,228,147.88c4.14,6.49,14.53.48,10.36-6.06a196.81,196.81,0,0,0-13.63-18.37c-4.21-5.16-8.33-10.58-13.87-14.41-11.82-8.2-26.26-4-39.19-8.19L170,112.64l20.15-.09a6.07,6.07,0,0,0,4.24-10.24c-6.85-7-16.59-7.47-25.82-6.78-7.65.57-7.72,12.58,0,12Z" transform="translate(-49.54 -84.51)"/><path class="cls-1" d="M217.16,127.78c-1.25,22,10.34,42.16,9.79,64-.16,6.25,8,7.76,11.18,3,3.41-5.12,6.33-11.5,6.37-17.77,0-6.75-4.33-12.39-6.06-18.71a29.93,29.93,0,0,0-1-4.21q.49-2.39-1-1.27l.81.65c2.08,3.45.79,6.47,0,10.21A157.46,157.46,0,0,0,234.93,186l11.79-1.6-6.19-36.51L229,151.11A105.08,105.08,0,0,1,233,190l11.18-3c-2.82-4.66-3.49-11.23-4.41-16.54a137.28,137.28,0,0,1-1.91-18.33c-.37-9.66,2-21.31-4.35-29.56-2-2.59-5.14-3.9-8.21-2.15-2.54,1.45-4.12,5.65-2.15,8.21,3,3.93,2.76,8.46,2.67,13.21a161.33,161.33,0,0,0,.54,17.92c1,10.58,1.86,24,7.47,33.31,3.24,5.35,10.71,2.73,11.18-3a114.63,114.63,0,0,0-4.42-42.07c-2.24-7.53-12.84-4.3-11.57,3.19l6.19,36.51c1.18,7,11.42,4.81,11.79-1.6a158.79,158.79,0,0,1,1.45-16.29c.77-4.78,2.56-9.55,2.12-14.44-.73-8.14-8.45-16.36-17.17-14.22-10,2.45-8.48,13.73-6.25,21.32,1.29,4.38,4.33,8.55,5.21,13,.92,4.62-2.08,9.73-4.54,13.43l11.18,3c.55-21.93-11-42.14-9.79-64,.44-7.72-11.56-7.69-12,0Z" transform="translate(-49.54 -84.51)"/><path class="cls-1" d="M197.55,107.92c-15.73-.73-31.86-1.17-46.79,4.61l4.62,11a143.9,143.9,0,0,1,32.29-14.69l-4.62-11c-16.58,11.62-33.3,23.45-46.25,39.2-3.45,4.19-.37,12.16,5.84,10a143.1,143.1,0,0,0,37.56-19.33c4.29-3.1,3.51-11.77-3-11.18-7.23.65-12.73,4.37-18.68,8.23q-9.26,6-18.35,12.28l7.27,9.42a107.43,107.43,0,0,1,28.2-19.69l-7.27-9.42L137,154.1c-4.22,5,1.11,13.14,7.27,9.42l19-11.47-7.27-9.42c-11.46,11-22.78,22.12-31.24,35.65-3.48,5.57,3.16,10.45,8.21,8.21a78.18,78.18,0,0,0,20.49-13.38c5.85-5.23-2.6-13.24-8.49-8.49a322.34,322.34,0,0,0-29.31,26.82c-4.54,4.7,1.55,13.54,7.27,9.42s11.54-8.54,17.11-13.07c4.71-3.84,10.55-7.87,8.54-14.76-1.14-3.91-5.34-5.31-8.81-3.59A173.45,173.45,0,0,0,114,185.22l8.21,8.21a100.2,100.2,0,0,1,8-12.5c3.54-4.72-3.48-11.7-8.21-8.21a194.44,194.44,0,0,0-26.95,23.94l9.42,7.27q8.51-11.53,16.19-23.63c3.33-5.25-3.14-11-8.21-8.21a25.46,25.46,0,0,0-7.23,5.81c-5.08,5.91,2.55,13.39,8.49,8.49a39.39,39.39,0,0,0,8.65-10.14c2.94-4.86-3.22-11.86-8.21-8.21a107.52,107.52,0,0,0-26.41,27.56l11,4.62,1.26-3.88c1.43-4.42-3.12-8.54-7.38-7.38a87.06,87.06,0,0,0-20.68,8.61l8.21,8.21L86,198.08c2.61-3.41-.45-7.55-3.59-8.81a9.29,9.29,0,0,0-10.58,2.79c-4.17,5.22.9,12.63,7.27,9.42a131.47,131.47,0,0,0,22-14.16c5.36-4.2-1.6-13.1-7.27-9.42a181.32,181.32,0,0,0-21.58,16.4c-5.8,5.13,2.72,13.59,8.49,8.49A160.4,160.4,0,0,1,100,188.26l-7.27-9.42a116.87,116.87,0,0,1-19.61,12.28l7.27,9.42-1.1.3L75.66,192l-5.89,7.69c-3.83,5,3.41,11,8.21,8.21a74.23,74.23,0,0,1,17.82-7.4l-7.38-7.38L87.16,197c-2.18,6.73,7.35,10.08,11,4.62a91.23,91.23,0,0,1,22.1-23.26L112,170.18a29.73,29.73,0,0,1-6.77,7.71l8.49,8.49a16.18,16.18,0,0,1,4.8-3.93l-8.21-8.21q-7.68,12.1-16.19,23.63c-4.06,5.5,4.84,12.21,9.42,7.27a178.26,178.26,0,0,1,24.52-22.07l-8.21-8.21a100.2,100.2,0,0,0-8,12.5c-2.61,4.84,3.07,12,8.21,8.21a173.45,173.45,0,0,1,25.8-15.77l-8.81-3.59q-.12-2.49-1.78.05l-2.93,2.43q-2.21,1.81-4.45,3.58c-3.59,2.83-7.26,5.55-11,8.22l7.27,9.42a322.34,322.34,0,0,1,29.31-26.82L145,164.62A68.39,68.39,0,0,1,127,176.12l8.21,8.21c7.91-12.65,18.65-23,29.36-33.22,4.92-4.7-1.42-13-7.27-9.42l-19,11.47,7.27,9.42,31.31-36.72a6,6,0,0,0-7.27-9.42A117.64,117.64,0,0,0,138.92,138c-4.77,4.64,1.55,13.36,7.27,9.42q7.58-5.22,15.27-10.27c4.48-2.94,10.2-8.11,15.71-8.6l-3-11.18a132.5,132.5,0,0,1-34.69,18.12l5.84,10c12.33-15,28-26.26,43.82-37.32,5.26-3.68,2.28-13.12-4.62-11a157.13,157.13,0,0,0-35.16,15.9c-5.55,3.39-2,13.51,4.62,11,14-5.42,28.85-4.87,43.6-4.18,7.72.36,7.7-11.64,0-12Z" transform="translate(-49.54 -84.51)"/><path class="cls-1" d="M76.78,197.2l-4.85-2.12-1.62-.71q-3.62-2.35-.7,3.12l-2.76,3.59.63-.38c5.77-3.49,2-12.78-4.62-11-20.13,5.49-8.61,34.12,4.58,40.82,6.71,3.41,16.67.8,18.48-7.26,1-4.32-.9-8.6-3.95-11.61a99.64,99.64,0,0,0-10.12-6.48l-11.18-3c1,15.13,14,25.05,28.88,22l-7.38-7.38c.09-.22-2.91.65-2.67.58-6.09,1.71-5.28,9.54,0,11.57a50.56,50.56,0,0,0,10.87,2.89c1.7.25,3.4.42,5.12.56q1.32.08,2.64.21,2.12,1.53,1.89-.62l8.21-2.15a107.76,107.76,0,0,1-21.51-17.73q-2.3-2.47-4.44-5.07-1.1-1.33-2.14-2.7-.54-.7-1-1.41-.64-1.49-.87.27-.87,1.66.16.43a6.39,6.39,0,0,1,1.11-1A13.86,13.86,0,0,1,82,201.14a15.07,15.07,0,0,1,6.37-1.4l-5.18-9c-3.38,4.62-6.35,9.78-5.51,15.71a13.18,13.18,0,0,0,9.19,11c3.2,1.06,6.39-1.24,7.38-4.19a33.29,33.29,0,0,0,1.55-8.08L84,206.77a73,73,0,0,0,7.18,15.7l9.42-7.27a71,71,0,0,1-6.44-9.74l-10.36,6.06a112.62,112.62,0,0,0,12.89,17.33c2.92,3.23,9.15,1.7,10-2.65a36.74,36.74,0,0,0-.54-17.69l-10,5.84a107.65,107.65,0,0,1,9.65,14.85c3.31,6.06,12.62,1.89,11-4.62a98.75,98.75,0,0,0-8.46-21.87c-2.55-4.82-9.41-3.2-11,1.43-1.72,5.12-.31,10,3.15,13.95,2.91,3.35,9.09,1.61,10-2.65l8.25-37.36H107.22l6.11,27.36c1.52,6.8,11.53,5,11.79-1.6l.46-12h-12a82.88,82.88,0,0,1-.6,13.48c-1,7.48,10.31,10.89,11.57,3.19a51.46,51.46,0,0,1,18.39-32l-10-2.65a11.63,11.63,0,0,1-.33,7.57c-1.92,5.57,6.14,10.32,10,5.84q10.93-12.61,21.6-25.45c4.89-5.88-3.46-14.4-8.49-8.49l-17.24,20.28,9.42,7.27L176.68,139c3.28-4.78-3.4-11.81-8.21-8.21a179.81,179.81,0,0,0-17.14,14.47l8.49,8.49,17.4-19.44c5.26-5.88-2.53-13.2-8.49-8.49a88,88,0,0,0-13,12.68c-4.89,5.86,3.35,14.35,8.49,8.49,6-6.83,12.12-14,19.85-18.88,5.14-3.27,20.2-10.14,23.24-.84l7.38-7.38a50,50,0,0,0-46.39,10c-5.67,4.75,1.57,11.91,7.27,9.42C185,135.15,215,125,217.88,141.71l8.81-6.78c-17.85-10.08-40.58-9.41-57.56,2.24a6,6,0,0,0,6.06,10.36c10.06-5,28.23-13.26,36-.14l.94-7.27c-2.66,2.64-8.06,1.84-11.44,1.8-4.95-.06-9.89-.38-14.84-.22-8.66.3-17.32,2-24.5,7.13-6.2,4.39-.56,14.57,6.06,10.36,7.89-5,42.95-22.82,45.86-4.48l4.19-7.38c-22.18,3.68-44.23-6-65.72,3.77-4.81,2.19-3.25,9.76,1.43,11,12.87,3.32,24.76-1.28,37-4.79,9.66-2.76,23.32-4.54,28.23,6.67l5.18-9c-24.59-1.31-49.62-1.7-73.38,5.71-6.77,2.11-5,11.09,1.6,11.79,23.77,2.51,48.25-4,71.56,2.78L225,163.4a372.39,372.39,0,0,0-86.85,2.23c-5.94.84-5.5,10.37,0,11.57,32.42,7.1,65.7,1.65,98.3,6.65l1.6-11.79c-31.92.18-64.78-5.58-95.71,5-6.24,2.14-5.43,11.74,1.6,11.79l47.41.31c15.17.1,30.81-.8,45.47,3.73l1.6-11.79c-19.47-.8-39-1.25-58.45-.74-9.48.25-19,.67-28.42,1.49-8.53.74-16.8,2.08-24.39,6.27-4.51,2.49-3.5,9.68,1.43,11,34.74,9.06,70.68-.49,105.64,6l1.6-11.79c-38-4.62-75.33,9.61-113.33,8.1l1.6,11.79,24.76-3.51c7-1,4.77-11.41-1.6-11.79l-13.63-.81c-3.73-.22-7.92-.93-11.62,0-6.39,1.57-10.09,7.88-11.76,13.83-5.34,19,22.69,16.25,33.6,14.71,7.07-1,4.71-11.33-1.6-11.79a109,109,0,0,0-33.4,2.81c-4.48,1.07-5.7,6.89-2.65,10a17.33,17.33,0,0,0,13,5.4c7.72-.09,7.74-12.09,0-12a5.22,5.22,0,0,1-4.52-1.89l-2.65,10a98,98,0,0,1,30.21-2.38l-1.6-11.79a65.79,65.79,0,0,1-14.84.36,25.19,25.19,0,0,1-5.15-.71q1.22,2.37,1.37-.31a18.87,18.87,0,0,1,1-2.37c1.87-3.45,5.11-2.24,8.61-2l15.57.93-1.6-11.79-24.76,3.51c-6.94,1-4.86,11.53,1.6,11.79,38,1.51,75.37-12.72,113.33-8.1,6.67.81,8.22-10.55,1.6-11.79-34.94-6.53-71.09,3-105.64-6l1.43,11c7.35-4.05,15.8-4.5,24-5.06,8.89-.61,17.8-1,26.72-1.16,18.17-.36,36.34.08,54.49.83,6.93.29,7.91-9.83,1.6-11.79-15.09-4.66-31.08-4-46.69-4.15l-49.38-.32,1.6,11.79c29.84-10.25,61.71-4.45,92.52-4.62,6.51,0,8.48-10.73,1.6-11.79-32.57-5-66,.42-98.3-6.65V177.2A359.58,359.58,0,0,1,225,175.4c6.9.64,7.9-10,1.6-11.79-24.5-7.12-49.83-.58-74.75-3.21l1.6,11.79c22.77-7.1,46.63-6.53,70.19-5.28,5,.27,6.86-5.19,5.18-9-5-11.31-18.23-15.79-29.79-14.59-14.1,1.46-28.31,10.9-42.63,7.2l1.43,11c9.68-4.4,20.67-3.5,31-2.61,10.72.92,21.19,1.83,31.87.06,3.44-.57,4.65-4.47,4.19-7.38-2-12.7-15.6-17.48-26.93-16.21-13,1.46-25.59,6.54-36.56,13.52l6.06,10.36c8.42-6,18.44-5.69,28.34-5.4,8.43.24,18.37,1.29,24.87-5.18a6.12,6.12,0,0,0,.94-7.27c-4.69-7.95-13.07-12.13-22.1-12.85-10.74-.85-20.94,4.07-30.3,8.68l6.06,10.36a42.94,42.94,0,0,1,45.44-2.24c4.87,2.75,9.68-1.77,8.81-6.78-2-11.61-13.46-17.27-24.28-17.7-12.19-.48-24.65,3.3-35.69,8.11l7.27,9.42a37.56,37.56,0,0,1,34.72-6.93c4.26,1.25,8.8-3,7.38-7.38-4.62-14.14-20.66-15.3-32.69-10.48-12.48,5-21.78,15-30.45,24.9L164.2,147a88,88,0,0,1,13-12.68l-8.49-8.49-17.4,19.44c-5.13,5.73,2.88,13.88,8.49,8.49a155.4,155.4,0,0,1,14.71-12.6l-8.21-8.21-28.77,41.92c-3.82,5.57,5,12.48,9.42,7.27l17.24-20.28-8.49-8.49q-10.67,12.83-21.6,25.45l10,5.84a23.08,23.08,0,0,0,.33-14c-1.29-4.66-6.64-5.44-10-2.65A61.42,61.42,0,0,0,113,205.31l11.57,3.19a102,102,0,0,0,1-16.67c-.21-7.73-11.7-7.72-12,0l-.46,12,11.79-1.6-6.11-27.36c-1.28-5.71-10.31-5.73-11.57,0L99,212.24l10-2.65c-.71-.81-.4-1.28-.07-2.27l-11,1.43a85.1,85.1,0,0,1,7.25,19l11-4.62a125.66,125.66,0,0,0-11.53-17.28c-3.84-4.9-11.54.46-10,5.84A23.25,23.25,0,0,1,95.17,223l10-2.65a96.12,96.12,0,0,1-11-14.9c-4-6.61-14.15-.7-10.36,6.06a89.4,89.4,0,0,0,8.32,12.17c4.29,5.36,12.93-1.55,9.42-7.27a59.33,59.33,0,0,1-6-12.84c-2.14-6.61-11.24-5.11-11.79,1.6a19.76,19.76,0,0,1-1.12,4.89l7.38-4.19c-2.69-.89,2.69-8,3.49-9.1,2.73-3.73-1-9.12-5.18-9a26.73,26.73,0,0,0-17.92,6.91c-5.95,5.6-4.23,11.13.27,17a119.85,119.85,0,0,0,31.47,28.57,6.05,6.05,0,0,0,8.21-2.15c3.08-6,.68-12.58-5.24-15.65-3.31-1.72-6.89-1.69-10.5-2.06a46,46,0,0,1-12-3V229c5.26-1.48,9-3.81,11.06-9,1.88-4.6-3.42-8.18-7.38-7.38a11.29,11.29,0,0,1-13.69-10.47c-.37-5.51-8.29-8.71-11.18-3a12.05,12.05,0,0,0,.92,13,17.73,17.73,0,0,0,5.41,4.76c1.25.76,2.63,1.32,3.88,2.09.44.27,2.73,2.14,2.62,1.34-.17-1.2.23.76-1-.15-.66-.48-1.38-.85-2-1.4a27.1,27.1,0,0,1-4.42-5.92c-1.54-2.44-5.92-10.11-.86-11.49l-4.62-11a7.49,7.49,0,0,0-2.88,10.14c2.31,4,8.22,5.36,12.16,7.09,7,3.06,13.12-7.28,6.06-10.36Z" transform="translate(-49.54 -84.51)"/><path class="cls-1" d="M122.14,220.59l-9.93.22a6.13,6.13,0,0,0-6,6,21.81,21.81,0,0,0,1.65,9.85l2.76-6.78-2.82,1.42c-5.21,2.63-2.87,11.62,3,11.18a21.41,21.41,0,0,1,12.94,2.82c3.08,1.77,6.22.43,8.21-2.15,3.87-5,.76-11-3-14.9-.75-.77-1.35-2.26-1.41-1,.06-1.17,2.36-3.4,3-4.27l6.17-8.69-11-4.62c-1.37,8.69.13,17.16,5.46,24.31l2.15-8.21a19.28,19.28,0,0,0-8.74,9.25c-2.48,5.62,2.55,10.76,8.21,8.21A49.53,49.53,0,0,1,166,240.73l1.6-11.79-13.7.2c-2.61,0-5.22.13-7.83.12-1.61,0-2.5.39-1.9-2.12.46-1.92,6.26-3.09,8-4.16a13,13,0,0,0,6.2-8.18c.72-3-.93-6.7-4.19-7.38a54.74,54.74,0,0,0-15.29-1.14c-3,.22-6.29,2.58-6,6a17.81,17.81,0,0,0,2.74,8.33,21.28,21.28,0,0,0,2.55,3.67c1,1-.44,1.6,1.17.66l7.27,9.42a236.28,236.28,0,0,1,24.72-22.62l-8.49-8.49c-3.37,4.3-6.78,8.59-10.12,12.91-2.84,3.67-5,8-2.64,12.52a12,12,0,0,0,10.44,6.47c5.12.05,9.14-2.91,13-6,4.46-3.56.35-9.87-4.24-10.24a29.09,29.09,0,0,1-10.11-2.66l-1.43,11a43.08,43.08,0,0,0,18.89-12.48c3.72-4.27.25-11.88-5.84-10-9.72,3-23.86,8.73-24,21-.07,7,5.7,9.47,11.78,9.47a35.58,35.58,0,0,0,10-1.46,47.94,47.94,0,0,0,4.65-1.78q.91-.41,1.86-.76-5.08-1.41,2.09-.87c-4-4.35-11.84.16-10,5.84,2.35,7.37,9.9,10.54,17.17,8.64,3.94-1,7.34-3.4,11.14-4.77a32.66,32.66,0,0,1,13.84-1.58l-4.24-10.24L203,230.59h8.49a43.2,43.2,0,0,0-32-13.85l5.18,9-7.09-2.27c-6.15,3.7-1.84,12,4.62,11a17.77,17.77,0,0,0,7.91-3.36c3.43-2.57,4.29-8,0-10.36-3.25-1.81-7.37-5.14-11-6.12q-2.48-2-1.08.35.16,2.18,1.65.56c1.57-.33,3.33-2.19,4.49-3.19,4.64-4-.31-11.58-5.84-10a120.81,120.81,0,0,0-19.17,7.24c-7,3.3-.89,13.65,6.06,10.36a102.34,102.34,0,0,1,16.3-6l-5.84-10c-2.5,2.16-5.49,3-7.47,5.81a10,10,0,0,0-1.54,9c1.07,3.23,3.59,4.73,6.38,6.31,3.64,2.07,7.32,4.08,11,6.12V220.74a10.22,10.22,0,0,1-5,2.15l4.62,11c5.16-3.11,8.91-9.85,4.31-15.18a8.44,8.44,0,0,0-13.64,1c-2.45,3.89.75,9,5.18,9A31.29,31.29,0,0,1,203,239.07a6,6,0,0,0,8.49,0l2.12-2.37a6.08,6.08,0,0,0-4.24-10.24,42.28,42.28,0,0,0-17,2c-1.53.53-12.9,6.56-13.55,4.51l-10,5.84c4.66,5,12.88,3.2,15.54-2.91,2.5-5.73-.07-14.69-6.65-16.46-3.48-.93-6.48.58-9.62,1.82a29.11,29.11,0,0,1-5.06,1.55,18,18,0,0,1-3.51.39q-3.38-.75-.51,2.19a27.08,27.08,0,0,1,2-2.79,16.7,16.7,0,0,1,4.19-2.92,48.57,48.57,0,0,1,8.9-3.37l-5.84-10a31.2,31.2,0,0,1-13.6,9.4c-4.42,1.52-6.46,8.61-1.43,11a45.61,45.61,0,0,0,16.16,4.3L165,220.72c-1.05.84-3,1.48-3.91,2.41q-.06,2.79,1.24.09l1.69-2.15,7.31-9.32c4.78-6.1-2.38-13.32-8.49-8.49a236.28,236.28,0,0,0-24.72,22.62c-4.63,4.88,1.27,12.94,7.27,9.42a10.66,10.66,0,0,0,5.2-10.75,15.35,15.35,0,0,0-1.8-5.82c-1-1.88-3.73-4.27-3.92-6.45l-6,6A42.78,42.78,0,0,1,151,219l-4.19-7.38c-.45,1.87-4.15,2.55-5.7,3.21a16.57,16.57,0,0,0-6.26,4.31c-3.88,4.55-3,10.42-.85,15.52,2.34,5.51,6.51,6.67,12.09,6.6,7.18-.08,14.36-.21,21.53-.32,6.69-.1,8.24-10,1.6-11.79a62.72,62.72,0,0,0-42.49,3.68l8.21,8.21a9,9,0,0,1,4.44-4.94c2.63-1.41,4-5.67,2.15-8.21-3.29-4.42-5.13-9.5-4.25-15.07,1.06-6.71-6.89-10.36-11-4.62-3.52,5-9.17,10.66-10.6,16.66a10.55,10.55,0,0,0,1.19,7.75c.65,1.14,4,5.38,4.72,4.48l8.21-2.15a32.69,32.69,0,0,0-19-4.46l3,11.18,2.82-1.42c2.11-1.06,3.72-4.47,2.76-6.78a13.88,13.88,0,0,1-1.22-6.66l-6,6,9.93-.22c7.71-.17,7.74-12.17,0-12Z" transform="translate(-49.54 -84.51)"/><path class="cls-1" d="M176.26,218.15l19.16,0-3-11.18a78.62,78.62,0,0,0-11.63,7.28c-3.34,2.52-4.39,8.06,0,10.36l13.64,7.14c3.46,1.81,8.56,3.39,10.35,7.1a6,6,0,0,0,6.78,2.76c5.06-1.77,12.65-3,16.58-6.79,1.92-1.87,2.49-3.65,5-4.86s4.93-1.87,7.28-3.09c9.75-5,18.57-15.11,19.71-26.33.51-5-.66-11.55-5.35-14.32-4.86-2.88-10.13.21-13.76,3.53-6.28,5.74-9.88,17-18.22,20.1l4.62,11a198.77,198.77,0,0,0,20.52-13.62c6-4.54.9-14.2-6.06-10.36-6.24,3.44-12.54,6.92-19.34,9.15a46.68,46.68,0,0,1-9.36,2.17c-1.14.13-3.94.78-4.92.18-.44-.27.09-.74.08-2.2,0-5.68-4.78-10.7-10.74-9.11-6.22,1.66-8.83,9-9,14.67-.11,4.23,3.9,6.4,7.6,5.79,3.17-.52,5.82,4.24,7.23,6.39a45.43,45.43,0,0,0,6.42,8.26c3.43,3.27,8.52,1.6,10-2.65,2-5.67,5.18-17.27-.42-21.9-7.11-5.88-11.53,4.91-18.46,2.45l-3.19,11.57.38.06,3.59-8.81a15.48,15.48,0,0,1-9.14-1.3l-3,11.18,13.66,1.68,5.86.72,3.9.48q3,1,.47-1c.85,5.6,8.36,5.17,11,1.43,5.16-7.4,9.42-19,6.79-28.16-3.18-11-17.18-5.27-23.93-1.86-3.36,1.69-4,6.93-1.21,9.42a49.38,49.38,0,0,0,12.47,8.4l1.43-11a167.19,167.19,0,0,1-23.75,1.94,6.12,6.12,0,0,0-6,6c-.25,7.2-1.51,15.57,6.74,18.54,3.08,1.11,6.53-1.26,7.38-4.19a28.31,28.31,0,0,0-.62-18.27,29.67,29.67,0,0,0-4.29-7.42c-1.14-1.49-4.73-4.9-3.61-7,3.57-6.84-6.79-12.91-10.36-6.06-3.16,6.06-1.68,12.16,2.28,17.47,4.31,5.76,7.17,10.73,5,18.13l7.38-4.19q2.06,2.9,1.82,1,0-1.21.06-2.41c.05-1.84.13-3.68.19-5.51l-6,6a189.57,189.57,0,0,0,26.94-2.37c5-.78,5.94-8.88,1.43-11a38.84,38.84,0,0,1-10-6.52l-1.21,9.42c2.3-1.16,4.76-1.66,7.09-2.67l1.79-.39-2.5-.74c-.3.18-.16,3.78-.22,4.22a29.73,29.73,0,0,1-5.43,13.19l11,1.43c-1-6.42-7.78-7.29-13-7.93l-22.45-2.76c-5.87-.72-8.24,8.74-3,11.18A29.8,29.8,0,0,0,205,224.48c3.77-.62,5.53-5.81,3.59-8.81a11.81,11.81,0,0,0-7.55-5.58c-7.58-1.83-10.41,9-3.19,11.57a17.49,17.49,0,0,0,10.22.56,19.06,19.06,0,0,0,4.11-1.61c1.4-.76,2.76-2.63,4.3-3l-4.62-.6q-2-5.56-1.48-1.27a26.29,26.29,0,0,1-2,10.6l10-2.65c-4-3.82-6-9.19-10.07-13A17.08,17.08,0,0,0,193,206l7.6,5.79a3.72,3.72,0,0,1,.35-2.17q1.54-3-4.62-2.79c-.37.53-.32,2.46-.31,3.12a10.21,10.21,0,0,0,3.09,7.17c3.89,3.75,9.86,3.59,14.85,3.06,12.25-1.31,23.32-7,34-12.89l-6.06-10.36a198.77,198.77,0,0,1-20.52,13.62c-5.71,3.3-1.92,13.38,4.62,11,6.9-2.55,11.37-7.37,15.6-13.22a87.25,87.25,0,0,1,6.12-8.16c.48-.52,1.5-1.19,1.8-1.82l1-.84-2.51-1.13c-.06.06.32,2.5.31,2.79a12.22,12.22,0,0,1-.83,3.58c-2.91,8-10.09,12.78-17.6,15.78a21.87,21.87,0,0,0-9,6.13c-2.76,3.14-8.47,4.07-12.51,5.48l6.78,2.76c-2.29-4.76-6.74-7.26-11.24-9.62l-17-8.93v10.36a78.62,78.62,0,0,1,11.63-7.28c5.43-2.77,2.7-11.17-3-11.18l-19.16,0c-7.72,0-7.73,12,0,12Z" transform="translate(-49.54 -84.51)"/><path class="cls-2" d="M197,164.51l0,7c0,1.09,1.78,1.41,2,.27a10,10,0,0,0,.06-2.5c-.07-.77-.41-2.29.18-2.93s1.48.38,2.24.46a1.66,1.66,0,0,0,1.52-.65c.79-1-.62-2.42-1.41-1.41.19-.24-1.83-.82-2.15-.78a2.66,2.66,0,0,0-1.82,1.22c-1.24,1.87-.22,4-.55,6.06l2,.27,0-7a1,1,0,0,0-2,0Z" transform="translate(-49.54 -84.51)"/><path class="cls-2" d="M205.78,170c2.42.48,6.05-.69,6.26-3.61s-4.05-3.49-5.89-2a5.18,5.18,0,0,0-.51,7,4,4,0,0,0,6.13.07c.78-1-.62-2.43-1.41-1.41a2,2,0,0,1-2.65.53,2.93,2.93,0,0,1-1-3.32,2,2,0,0,1,1.38-1.56c.66-.19,1.65-.15,1.8.57.33,1.59-2.46,2.08-3.55,1.87-1.26-.25-1.8,1.68-.53,1.93Z" transform="translate(-49.54 -84.51)"/><path class="cls-2" d="M167.73,170.1c2.42.48,6.05-.69,6.26-3.61s-4.05-3.49-5.89-2a5.18,5.18,0,0,0-.51,7,4,4,0,0,0,6.13.07c.78-1-.62-2.43-1.41-1.41a2,2,0,0,1-2.65.53,2.93,2.93,0,0,1-1-3.32,2,2,0,0,1,1.38-1.56c.66-.19,1.65-.15,1.8.57.33,1.59-2.46,2.08-3.55,1.87-1.26-.25-1.8,1.68-.53,1.93Z" transform="translate(-49.54 -84.51)"/><path class="cls-2" d="M219,167.11c-2.06-1.34-4.79.46-5.13,2.69a2.39,2.39,0,0,0,1.75,2.78,5.09,5.09,0,0,0,3.85-.75c1.09-.68.09-2.41-1-1.73-.56.34-3,1.26-2.57-.2.24-.83,1.29-1.6,2.11-1.08,1.08.7,2.09-1,1-1.73Z" transform="translate(-49.54 -84.51)"/><path class="cls-2" d="M215.63,166.16a.87.87,0,0,1,1.12-.63c.67.15,1,.88,1.13,1.49.3,1.34-.33,2.72,0,4.05.49,1.75,3.1,2.67,4.08.81.6-1.14-1.12-2.15-1.73-1-.25.47-.49-1.25-.48-.94a8.27,8.27,0,0,1,.08-.9,8.46,8.46,0,0,0,0-2.06,4.2,4.2,0,0,0-1.6-2.92c-1.59-1.1-4.2-.48-4.59,1.56-.24,1.26,1.68,1.8,1.93.53Z" transform="translate(-49.54 -84.51)"/><path class="cls-2" d="M93.74,168.73c-2.06-1.34-4.79.46-5.13,2.69a2.39,2.39,0,0,0,1.75,2.78,5.09,5.09,0,0,0,3.85-.75c1.09-.68.09-2.41-1-1.73-.56.34-3,1.26-2.57-.2.24-.83,1.29-1.6,2.11-1.08,1.08.7,2.09-1,1-1.73Z" transform="translate(-49.54 -84.51)"/><path class="cls-2" d="M90.4,167.77a.87.87,0,0,1,1.12-.63c.67.15,1,.88,1.13,1.49.3,1.34-.33,2.72,0,4.05.49,1.75,3.1,2.67,4.08.81.6-1.14-1.12-2.15-1.73-1-.25.47-.49-1.25-.48-.94a8.27,8.27,0,0,1,.08-.9,8.46,8.46,0,0,0,0-2.06,4.2,4.2,0,0,0-1.6-2.92c-1.59-1.1-4.2-.48-4.59,1.56-.24,1.26,1.68,1.8,1.93.53Z" transform="translate(-49.54 -84.51)"/><path class="cls-2" d="M137,168.47c-2.06-1.34-4.79.46-5.13,2.69a2.39,2.39,0,0,0,1.75,2.78,5.09,5.09,0,0,0,3.85-.75c1.09-.68.09-2.41-1-1.73-.56.34-3,1.26-2.57-.2.24-.83,1.29-1.6,2.11-1.08,1.08.7,2.09-1,1-1.73Z" transform="translate(-49.54 -84.51)"/><path class="cls-2" d="M133.69,167.52a.87.87,0,0,1,1.12-.63c.67.15,1,.88,1.13,1.49.3,1.34-.33,2.72,0,4.05.49,1.75,3.1,2.67,4.08.81.6-1.14-1.12-2.15-1.73-1-.25.47-.49-1.25-.48-.94a8.27,8.27,0,0,1,.08-.9,8.46,8.46,0,0,0,0-2.06,4.2,4.2,0,0,0-1.6-2.92c-1.59-1.1-4.2-.48-4.59,1.56-.24,1.26,1.68,1.8,1.93.53Z" transform="translate(-49.54 -84.51)"/><path class="cls-2" d="M223.79,164.59l-.2,7.65,2-.27c-.23-1.33-.07-3.94,1.26-4.83,2.48-1.65,1.2,3.75,1,4.3h1.93c-.25-1.45-.59-5.36,2.16-4.81,1.63.32,1,4,.86,5.1-.12,1.28,1.89,1.27,2,0,.26-2.88.66-7.55-3.48-7-3.78.46-4,4.22-3.46,7.28.17,1,1.69.9,1.93,0,.57-2.11,1.48-7.92-2.46-7.31-3.33.51-4.16,5.15-3.7,7.84.19,1.14,1.94.82,2-.27l.2-7.65a1,1,0,0,0-2,0Z" transform="translate(-49.54 -84.51)"/><path class="cls-2" d="M193.16,164.52c-1.14-1.61-3.27-1.41-4.69-.24a5.29,5.29,0,0,0-1.78,4.8c.62,4.05,5.8,5.17,8.58,2.55.94-.88-.48-2.3-1.41-1.41-1.4,1.32-4.16,1.17-5-.74a3.25,3.25,0,0,1,.06-2.56c.24-.53,1.8-2.4,2.52-1.39s2.47,0,1.73-1Z" transform="translate(-49.54 -84.51)"/><path class="cls-2" d="M162.32,164.87c-1.14-1.61-3.27-1.41-4.69-.24a5.29,5.29,0,0,0-1.78,4.8c.62,4.05,5.8,5.17,8.58,2.55.94-.88-.48-2.3-1.41-1.41-1.4,1.32-4.16,1.17-5-.74a3.25,3.25,0,0,1,.06-2.56c.24-.53,1.8-2.4,2.52-1.39s2.47,0,1.73-1Z" transform="translate(-49.54 -84.51)"/><path class="cls-2" d="M151.41,164.38v7.46a1,1,0,0,0,2,0v-7.46a1,1,0,0,0-2,0Z" transform="translate(-49.54 -84.51)"/><path class="cls-2" d="M152.41,162.51a1,1,0,0,0,0-2,1,1,0,0,0,0,2Z" transform="translate(-49.54 -84.51)"/><path class="cls-2" d="M113,166v7.46a1,1,0,0,0,2,0V166a1,1,0,0,0-2,0Z" transform="translate(-49.54 -84.51)"/><path class="cls-2" d="M114,164.1a1,1,0,0,0,0-2,1,1,0,0,0,0,2Z" transform="translate(-49.54 -84.51)"/><path class="cls-2" d="M78.85,165.13c-.21,3,1.57,6.28,2.27,9.22a1,1,0,0,0,1.23.7c1.33-.47,1.52-1.91,1.93-3.13q1.07-3.19,2.09-6.4c.39-1.23-1.54-1.76-1.93-.53q-.7,2.2-1.42,4.38c-.12.38-.93,3.65-1.2,3.75l1.23.7c-.33-1.4-.71-2.78-1.16-4.14a11.67,11.67,0,0,1-1-4.54c.09-1.28-1.91-1.28-2,0Z" transform="translate(-49.54 -84.51)"/><path class="cls-2" d="M99.18,164.88l0,5.23a7,7,0,0,0,.62,3.89,1,1,0,0,0,1.83-.77,7.74,7.74,0,0,1,.11-3.89,7.12,7.12,0,0,1,.69-1.58c.57-1,.86-1.4,2-1.24s1,.29,1.23,1.17a13,13,0,0,1,.25,2,27.16,27.16,0,0,1,0,3.64c-.07,1.29,1.93,1.28,2,0,.15-2.75.56-9.77-4-9.13-4.05.57-4.93,6.39-4.24,9.57l1.83-.77c-.69-1.15-.35-2.9-.35-4.18v-3.92a1,1,0,0,0-2,0Z" transform="translate(-49.54 -84.51)"/><path class="cls-2" d="M119.42,162.15c0,1.9,0,3.81-.06,5.71-.06,1.45-.47,3.18-.12,4.58.41,1.61,2.32,2.51,3.52,1.09.83-1-.58-2.4-1.41-1.41a15.88,15.88,0,0,1-.11-1.82c.05-1,.11-1.9.14-2.85.06-1.77.07-3.53,0-5.3a1,1,0,0,0-2,0Z" transform="translate(-49.54 -84.51)"/><path class="cls-2" d="M126,161.65c0,1.9,0,3.81-.06,5.71-.06,1.45-.47,3.18-.12,4.58.41,1.61,2.32,2.51,3.52,1.09.83-1-.58-2.4-1.41-1.41a15.88,15.88,0,0,1-.11-1.82c.05-1,.11-1.9.14-2.85.06-1.77.07-3.53,0-5.3a1,1,0,0,0-2,0Z" transform="translate(-49.54 -84.51)"/></svg>