<svg id="Слой_1" data-name="Слой 1" xmlns="http://www.w3.org/2000/svg" viewBox="0 0 96.38 29.25"><defs><style>.cls-1{fill:#fffcfc;}</style></defs><title>p</title><path class="cls-1" d="M132.69,146.28a7.82,7.82,0,0,0-2.57,8.93c1,2.54,3.75,5.2,6.72,4.26s3.9-6,3.75-8.55c-.18-3.07-2.67-5.57-5.79-5-1.27.21-.73,2.14.53,1.93,3.19-.54,3.48,3.5,3,5.52s-1.31,5.38-4.11,3.91c-3.83-2-3-7.23-.11-9.54,1-.8-.42-2.21-1.41-1.41Z" transform="translate(-94.32 -136.32)"/><path class="cls-1" d="M176.77,144.28a37.46,37.46,0,0,0,.09,7.39c.21,1.83.31,4.4,1.36,6,1.77,2.61,4.81-.07,6-1.86.73-1.07-1-2.07-1.73-1a4.71,4.71,0,0,1-1.6,1.6q-1.53.07-1.47-1.32a12.86,12.86,0,0,1-.64-3.84,36.83,36.83,0,0,1,0-6.93c.1-1.28-1.9-1.28-2,0Z" transform="translate(-94.32 -136.32)"/><path class="cls-1" d="M172.43,150.31l9.21-1.18c1.26-.16,1.28-2.16,0-2l-9.21,1.18c-1.26.16-1.28,2.16,0,2Z" transform="translate(-94.32 -136.32)"/><path class="cls-1" d="M168.89,147.35v10a1,1,0,0,0,2,0v-10a1,1,0,0,0-2,0Z" transform="translate(-94.32 -136.32)"/><path class="cls-1" d="M169.89,144.49a1,1,0,0,0,0-2,1,1,0,0,0,0,2Z" transform="translate(-94.32 -136.32)"/><path class="cls-1" d="M107.67,147.3l0,6.54c0,1.69-.14,3.25.75,4.73a1,1,0,0,0,1.83-.77,10,10,0,0,1,.13-5,9.13,9.13,0,0,1,.89-2c.8-1.37,1.17-1.84,2.78-1.6,1.4.21,1.44.34,1.74,1.57a16.71,16.71,0,0,1,.32,2.56,34,34,0,0,1,0,4.56c-.07,1.29,1.93,1.28,2,0,.18-3.24.75-11.95-4.7-11.18-4.91.7-5.93,7.84-5.1,11.66l1.83-.77c-.89-1.48-.47-3.71-.47-5.36l0-4.9a1,1,0,0,0-2,0Z" transform="translate(-94.32 -136.32)"/><path class="cls-1" d="M95.85,153.71c2.78.38,8.34-.6,7.92-4.53-.3-2.77-4.86-3.74-6.86-2.32-2.81,2-3.36,7.33-1.47,10a4.59,4.59,0,0,0,7.62.15c.73-1.06-1-2.06-1.73-1-1.31,1.9-3.78.86-4.6-.87s-.28-4,.65-5.68a2.58,2.58,0,0,1,3.41-1c1.28.62.7,2-.33,2.6a6.41,6.41,0,0,1-4.06.67c-1.26-.17-1.8,1.76-.53,1.93Z" transform="translate(-94.32 -136.32)"/><path class="cls-1" d="M123.63,147.07v7.71c0,1.22.07,2.46,0,3.68a3.62,3.62,0,0,1-1.1,2.82q-1.46,1.82-3.77.32c-.25-1.26-2.18-.73-1.93.53.84,4.18,5.82,2.27,7.64,0,1.24-1.57,1.17-3.5,1.17-5.39q0-4.82,0-9.64a1,1,0,0,0-2,0Z" transform="translate(-94.32 -136.32)"/><path class="cls-1" d="M124.37,145a1,1,0,0,0,0-2,1,1,0,0,0,0,2Z" transform="translate(-94.32 -136.32)"/><path class="cls-1" d="M144.36,147.47c0,2.46-1.06,9.29,3.35,8.56,3.61-.6,5.65-4.86,5.6-8.14h-2a41.06,41.06,0,0,1-.69,9.08,15.6,15.6,0,0,1-1.15,3.92A4.49,4.49,0,0,1,147.9,163c-1,.51-3.06.51-2.82-1.21.17-1.26-1.76-1.8-1.93-.53-.56,4.17,3.91,5.65,6.63,2.77,3.59-3.78,3.73-11.33,3.54-16.18a1,1,0,0,0-2,0c0,1.92-1,5.42-3.25,5.89-1.68.34-1.65-1.11-1.67-2.4s0-2.6,0-3.91a1,1,0,0,0-2,0Z" transform="translate(-94.32 -136.32)"/><path class="cls-1" d="M188.34,137.29l.36,17.06a1,1,0,0,0,2,0l-.36-17.06a1,1,0,0,0-2,0Z" transform="translate(-94.32 -136.32)"/><path class="cls-1" d="M189.64,159.2a1,1,0,0,0,0-2,1,1,0,0,0,0,2Z" transform="translate(-94.32 -136.32)"/></svg>