<svg id="Слой_1" data-name="Слой 1" xmlns="http://www.w3.org/2000/svg" viewBox="0 0 226.59 72.17"><defs><style>.cls-1{fill:#f7e7ce;}.cls-2{fill:#333;}</style></defs><title>steamedmilk</title><path class="cls-1" d="M21.72,160.19q97.4-1.06,194.79,1.23c3.22.08,3.22-4.92,0-5q-97.38-2.29-194.79-1.23c-3.22,0-3.22,5,0,5Z" transform="translate(-15.87 -92.79)"/><path class="cls-1" d="M216.87,161.65H235c3.22,0,3.22-5,0-5H216.87c-3.22,0-3.22,5,0,5Z" transform="translate(-15.87 -92.79)"/><path class="cls-1" d="M24.78,156.39c-1.65-5.05-1.35-10.09-1.17-15.32.2-5.7.15-11.39-.23-17.08-.3-4.64-.82-9.27-1.5-13.88-.45-3-1.93-7.05.35-9.7,1.92-2.22,5.44-2.2,8-1.82,4.61.67,9,2.48,13.61,3.22a78.23,78.23,0,0,0,14.68.9c9.49-.26,18.87-1.86,28.25-3.21,10.55-1.52,21-2.52,31.68-1.65,10.23.84,20.36,2.17,30.62,2.59,21.35.87,42.78.55,64.14.54,5.94,0,12.27,0,17.55,3.15,5.92,3.49,7,8.92,6.65,15.36a159.9,159.9,0,0,1-6.23,35.63c-.89,3.1,3.93,4.42,4.82,1.33a170.14,170.14,0,0,0,6.29-35.12c.64-9.14-.94-17.22-9.64-21.89-9.76-5.24-22.39-3.4-33-3.42-12.11,0-24.21-.07-36.32-.22-24-.31-47.9-5.07-71.82-2-11.54,1.5-23,3.79-34.72,3.9a66.55,66.55,0,0,1-17.64-2c-4.47-1.18-9-2.94-13.7-2.15-3.71.63-7.35,2.82-8.81,6.41-2.13,5.21.73,13.06,1.26,18.35a163.12,163.12,0,0,1,.78,19.91c-.14,6.62-.83,13.1,1.26,19.5,1,3,5.83,1.74,4.82-1.33Z" transform="translate(-15.87 -92.79)"/><path class="cls-1" d="M233.81,159.44c2.89-.93,4.21-3.18,4.49-6.13.38-4,.05-8.23,0-12.28,0-3.22-5-3.22-5,0,0,1.79,1.06,13-.86,13.59-3.05,1-1.75,5.81,1.33,4.82Z" transform="translate(-15.87 -92.79)"/><path class="cls-1" d="M236.57,158.64a170,170,0,0,0,2.16-30.18c-.06-3.21-5.06-3.22-5,0a162.42,162.42,0,0,1-2,28.85c-.5,3.15,4.31,4.5,4.82,1.33Z" transform="translate(-15.87 -92.79)"/><path class="cls-1" d="M17.87,156.76c1,3.66,4.14,5.29,7.83,4.88,3.39-.37,6.57-1.52,10-1.7a58,58,0,0,1,9,.39c6.34.66,12.61,1.94,19,2.11,6.2.16,12.12-1.2,18.19-2.25,13-2.25,25,3.24,38,3.83a87.84,87.84,0,0,0,36.62-6.31c3-1.18,1.66-6-1.33-4.82a84.37,84.37,0,0,1-32.61,6.22A81.35,81.35,0,0,1,105.38,157c-5.26-1.21-10.39-2.78-15.84-2.69-5.25.08-10.36,1.37-15.5,2.25a60.23,60.23,0,0,1-17.61.27c-5.41-.65-10.79-1.63-16.24-1.89-2.08-.1-17.06,2.06-17.49.45-.84-3.1-5.66-1.79-4.82,1.33Z" transform="translate(-15.87 -92.79)"/><path class="cls-1" d="M151,158.94c7.37-.51,13.81,1,20.82,3a78.74,78.74,0,0,0,20,3c13.84.3,27.55-2.51,41-5.3,3.15-.65,1.82-5.47-1.33-4.82-13.67,2.83-27.54,5.67-41.57,5.06-13.37-.57-25.49-6.87-39-5.94-3.19.22-3.22,5.22,0,5Z" transform="translate(-15.87 -92.79)"/><path class="cls-1" d="M22.93,153.54c-.78-.54,0-6.18,0-7.37l0-8.82L23,119.72c0-3.22-5-3.22-5,0l-.09,23.51c0,4.45-1.77,11.66,2.47,14.63,2.64,1.85,5.15-2.49,2.52-4.32Z" transform="translate(-15.87 -92.79)"/><path class="cls-1" d="M47.26,123.11c2.89,6.32,11.51,8.78,17.91,8,7-.86,7.72-8.78,1-11-6.23-2-12.48,1.72-15.13,7.38-2.92,6.23-.21,13,7.48,12.27,5.37-.53,14-4.44,15.33-10.35,1.74-7.84-8.63-9.85-14.15-9.13-6,.78-12.59,5.37-12.77,12-.19,7.38,7.45,9.95,13.65,9S76,134,72.23,126.66a6.41,6.41,0,0,0-8.13-3.06c-3.51,1.48-4.06,5.69-7.32,7.49l6,3.45a10.68,10.68,0,0,1,.23-4.31c1.27-5-6.44-7.12-7.71-2.13a17.54,17.54,0,0,0-.52,6.44c.33,3,3.15,5,6,3.45a14.84,14.84,0,0,0,5.33-4.83c.94-1.39,1.86-1.85-.12-2.35s-2,.73-3.62,1.62c-1,.56-6.61,2.34-7.5.45-.68-1.46,2.27-3.54,3.21-4a9.26,9.26,0,0,1,4-.82c.55,0,3.46.85,4,.68q.4-2.18-.47-1A13.08,13.08,0,0,1,64.43,129a13.88,13.88,0,0,1-3,1.85,10.51,10.51,0,0,1-3.4,1q-.66,1.64,0-.26l.46-1c.84-1.55,3.85-4.52,5.79-2.53L63,125.22c-.08-2.06,1.89-1.78-1.06-2a12.89,12.89,0,0,1-3.32-.66c-1.92-.66-3.63-1.62-4.49-3.51-2.14-4.68-9-.61-6.91,4Z" transform="translate(-15.87 -92.79)"/><path class="cls-1" d="M75.08,137.76c-4.63.1-9.26.19-13.89.13-1.2,0-12.22-.6-12.18-.18l-1.17,2.83c-1,1-.1.22,1,.1,1.39-.15,2.77-.34,4.16-.49,2.5-.26,5-.47,7.5-.83,3.35-.49,8.4-1,9.74-4.69,2.91-8.1-8.95-10.61-14.3-10.75-5.15-.13-5.15,7.87,0,8,2.52.07,6-.12,7.19,2.6l-.4-3.08-.19,1.11,1.84-2.39c-4,2.27-29.95.48-22.14,11.37,2.81,3.92,8.16,4,12.5,4.2,6.78.37,13.58.23,20.36.08,5.14-.11,5.16-8.11,0-8Z" transform="translate(-15.87 -92.79)"/><path class="cls-1" d="M38.43,120.35a102.85,102.85,0,0,0,0,11.36,4,4,0,0,0,7.86,1.06,39.94,39.94,0,0,0,2.47-16.24c-.19-3.57-5.73-5.94-7.45-2-3.4,7.73-4.36,19.89.88,27,1.85,2.52,6.54,2.73,7.31-1,1.33-6.3.28-12.25-1.2-18.43l-5.88,4.52c3.05,1.7,7.38,3.34,10.62,1.24,2.94-1.91,3.16-6.13,1.5-9-1.5-2.56-4.87-4.15-7.63-2.54-3.63,2.12-3.77,8.35-3.39,11.92.55,5.06,8.55,5.12,8,0-.24-2.18-.44-4.52.86-6.45l-3.45,2-1.14-1.91,2.83-1.17a6.29,6.29,0,0,1-4.15-1,4,4,0,0,0-5.88,4.52c1.12,4.7,2.21,9.36,1.2,14.18l7.31-1c-3.42-4.66-3.16-13.76-.88-18.95l-7.45-2a34.22,34.22,0,0,1-2.18,14.12l7.86,1.06a102.85,102.85,0,0,1,0-11.36c.28-5.14-7.72-5.13-8,0Z" transform="translate(-15.87 -92.79)"/><path class="cls-1" d="M33.93,130.22l-10.1,18.07c-2,3.56.44,9.64,5.18,9l31.32-4c6.16-.79,8.78-10.06,1.6-11.79a94.46,94.46,0,0,1-10.63-3c-3.19-1.17-5.89-3.35-9.06-4.47a13.18,13.18,0,0,0-8.08-.25c-2,.57-5.79,3.49-7.82,3.1l4.19,7.38a49.25,49.25,0,0,0,3-19.46c-.1-3.25-.42-6.49-.81-9.72-.29-2.45-1.92-7.35-1-9.67L29,109.07c1.28-.79,7.45,2.27,9.14,2.73a74.63,74.63,0,0,0,9.48,1.9,76.81,76.81,0,0,0,20.25.16l-1.6-11.79a78.72,78.72,0,0,1-14.47,4.09c-5.32.93-10.47.64-15.81.88-12.31.56-6.93,14.37-3.39,20.91A6,6,0,0,0,42,129.17l6.73-7.38-9.42-7.27a55.85,55.85,0,0,1-9.36,11L38.45,134c13.48-13.43,32.38-20.35,50.71-12.9V109.48c-7.95,1.4-17.13,1.82-24.71,4.58a15.62,15.62,0,0,0-9.76,14.07c.13,14.79,29.09,7.69,37.22,6.32l-4.62-11-28.22,17c-6.17,3.71-1.82,12,4.62,11l16.81-2.67-4.62-11c-8.09,5.82-17.77,6.92-27.44,7.8-7.57.68-7.82,12.32,0,12l30.23-1.24c7.69-.32,7.73-12.32,0-12l-30.23,1.24v12c11.67-1.05,23.72-2.4,33.5-9.43,5.65-4.06,2.17-12-4.62-11L60.5,139.83l4.62,11,28.22-17c6.13-3.68,1.85-12.06-4.62-11-4.45.75-8.89,1.52-13.4,1.85a61.33,61.33,0,0,1-7.52.14,28.2,28.2,0,0,1-3.2-.27q1.63,5.84,2.37,2.89a5.77,5.77,0,0,1,.87-1.81,9.8,9.8,0,0,1,3.11-.86c2.23-.52,4.55-.8,6.81-1.2l14.59-2.57c6.52-1.15,4.8-9.62,0-11.57-22.14-9-46.16-.17-62.39,16-5.5,5.48,2.8,13.68,8.49,8.49a68.17,68.17,0,0,0,11.24-13.38c3.68-5.69-4.82-12.32-9.42-7.27l-6.73,7.38L43,121.89a35.64,35.64,0,0,1-2.09-4.41L40.35,116q-.72-2.73-.29-.75L37.3,118.8c-1.41.74,1.28.28,2,.29,1.48,0,3,0,4.43-.07,2.9-.13,5.78-.45,8.65-.87a80.45,80.45,0,0,0,17.09-4.51c5.75-2.19,5.66-12.69-1.6-11.79a68,68,0,0,1-23.09-.78c-6.37-1.4-15.12-6.39-21.47-2.59S20.4,112,21,117.81c.84,8,.9,15.73-2.06,23.33-1.11,2.86,1.24,6.82,4.19,7.38a14.83,14.83,0,0,0,8.8-.76c2.21-.87,4.52-2.77,6.78-2.09,2.89.88,5.68,3.09,8.59,4.18a95.79,95.79,0,0,0,11.42,3.24l1.6-11.79-31.32,4,5.18,9,10.1-18.07c3.77-6.75-6.59-12.81-10.36-6.06Z" transform="translate(-15.87 -92.79)"/><path class="cls-1" d="M82.64,156.45a239.18,239.18,0,0,0,49.82-5.23c6.5-1.37,5.18-12.62-1.6-11.79a94.85,94.85,0,0,1-51.31-7.62l-1.43,11A367.61,367.61,0,0,1,119,132.25c5.55-1.1,5.23-8.23,1.43-11-3.63-2.61-8.39-2.12-12.65-2.2Q101.09,119,94.4,119t-13.38.2c-1.79,0-8.61,1.06-9.3-.45l-5.18,9A76.13,76.13,0,0,1,78.92,127a41.13,41.13,0,0,1,7.16.81c1,.21,4.45,1.75,5.09,1.42q2.76-5.18,0-3.2a15.14,15.14,0,0,0-2.08,1.49,8.15,8.15,0,0,0-2.15,3.32c-1,3.06.12,6.07,2.17,8.37,11.26,12.62,28.58,4.67,42.24,2.52,7.61-1.2,4.38-12.76-3.19-11.57s-15.35,4.93-23.1,4.06a14.22,14.22,0,0,1-4.08-1,10.78,10.78,0,0,1-2.36-1.46l-1.39,4.61c.56.36,3.52-2.4,3.84-2.78a8.71,8.71,0,0,0,2-3.92c3.26-16.59-27.24-15.16-36.48-13.93-4.69.62-7.23,4.57-5.18,9,3.74,8.14,14.34,6.51,21.57,6.35q7.64-.18,15.29-.15,4.3,0,8.6.09c2,0,5.89-.61,7.55.58l1.43-11a367.61,367.61,0,0,0-40.87,10.53c-4.47,1.43-6.42,8.68-1.43,11a106.13,106.13,0,0,0,57.36,9.26l-1.6-11.79a223.38,223.38,0,0,1-46.63,4.8c-7.72,0-7.73,12,0,12Z" transform="translate(-15.87 -92.79)"/><path class="cls-1" d="M126.61,128.19c-11.83-.8-27.24,2.65-37.06-5.84L85.31,132.6c14.4-1.33,29.44-1.71,43.1-6.88,5.17-2,6.2-10,0-11.57a203.81,203.81,0,0,0-51.31-5.91c-7.72.1-7.74,12.1,0,12a190.48,190.48,0,0,1,48.12,5.48V114.14c-12.71,4.81-26.51,5.22-39.91,6.45-4.69.43-8.53,6.53-4.24,10.24,13.1,11.32,29.6,8.28,45.55,9.35,7.71.52,7.68-11.48,0-12Z" transform="translate(-15.87 -92.79)"/><path class="cls-1" d="M63.4,112c26.25-2.08,53.33-7.95,79,.54l1.6-11.79c-18.34,2.26-36.43-2.95-54.77-2.44-5.52.15-8.72,8.53-3,11.18,27.86,13,58.63,13.42,88.59,17.16l-1.6-11.79q-32,6.7-64.55,10.91l1.6,11.79a463.16,463.16,0,0,1,47.49-8.62c7.52-1,7.89-11.46,0-12q-17.37-1.19-34.78-1.49c-7.72-.13-7.73,11.87,0,12q17.41.3,34.78,1.49v-12a493.68,493.68,0,0,0-50.68,9c-6.43,1.51-5.21,12.66,1.6,11.79q34.08-4.36,67.74-11.34c7.2-1.51,4.56-11-1.6-11.79-27.66-3.45-56.8-3.53-82.53-15.52l-3,11.18c18.34-.51,36.43,4.7,54.77,2.44,6.5-.8,8.41-9.54,1.6-11.79-26.86-8.87-54.82-3.13-82.23-1-7.65.6-7.71,12.61,0,12Z" transform="translate(-15.87 -92.79)"/><path class="cls-1" d="M117.78,144.61a303.47,303.47,0,0,1,51.45-1.72l-1.6-11.79q-20.44,6.34-41.41,10.63c-7.13,1.46-4.64,11.13,1.6,11.79L141,154.91l5.65.6,3.77.4q2.62.75.5-.83l5.18-9a201.57,201.57,0,0,1-25.25,1.43c-7.46-.06-15.08-.29-21.73-4S96.34,150,103.07,153.8c15.3,8.63,36.33,6.22,53,4.25,4.1-.48,8-4.86,5.18-9-3.33-4.88-8.24-4.84-13.68-5.41l-19.78-2.09,1.6,11.79q21-4.28,41.41-10.63c6.55-2,5.18-11.44-1.6-11.79a303.47,303.47,0,0,0-51.45,1.72c-7.58.9-7.67,12.91,0,12Z" transform="translate(-15.87 -92.79)"/><path class="cls-1" d="M154.79,153.34q26.44.84,52.89.92c6.53,0,8.46-10.83,1.6-11.79-13.18-1.83-26.34,2-39.48-.35-5.06-.92-10.83-3.53-14.36,1.91-2.87,4.42-.76,10.28,2.92,13.42,4.28,3.64,10.26,3.42,15.54,3.42,6.86,0,13.73-.31,20.58-.62,12.56-.57,24.84-1.68,36.41-7l-7.27-9.42-4,4.32c-2.48,2.68-2.37,7.6,1.21,9.42a9.91,9.91,0,0,0,14.42-6.69c.86-3.56-.39-7-.11-10.56.27-3.35,3.08-4.92,4.17-8,1.26-3.54.43-7.46.07-11.11-.34-3.43-.52-7-1.62-10.29-2.07-6.21-7.34-11.11-14.17-10.74-7.68.42-7.73,12.42,0,12,3.21-.18,3.34,4.8,3.6,7.1.44,3.84,1.57,7.64-.79,10.8a16.75,16.75,0,0,0-3.17,8.79,27.83,27.83,0,0,0,0,4.29q.14,1.49.31,3-.64,3.36,3.34,1l1.21,9.42,4-4.32c4.82-5.21-1.19-12.2-7.27-9.42-9.22,4.21-19.5,4.82-29.47,5.28-5.18.24-10.36.47-15.55.59-3,.07-5.91.1-8.87.05-1,0-2-.15-3-.11a3.38,3.38,0,0,1-1.19-.21q-1.73-.78-1.32,2.28l-4.24,1.76c2.28-.25,6.4,1.32,9.1,1.69a70.56,70.56,0,0,0,11.88.67c7.93-.25,16-2,23.9-.89l1.6-11.79q-26.45-.09-52.89-.92c-7.72-.24-7.72,11.76,0,12Z" transform="translate(-15.87 -92.79)"/><path class="cls-1" d="M214.82,117.36c.71,7.7,1.57,15.81-2.95,22.54-3.68,5.47,3.27,10.45,8.21,8.21,5.78-2.63,8.73-8.5,9.43-14.58.85-7.33-2.5-14.08-2.82-21.3l-9,5.18c2.86,1.24-4.47,7.09-5.5,8q-6.1,5.69-12.33,11.24c-3.4,3-1.55,8.92,2.65,10a25.91,25.91,0,0,0,13.14.11c6.48-1.57,5.23-12.17-1.6-11.79l-49.71,2.79,3,11.18c2.67-1.78,7-1.69,10.11-2.19l12.79-2.08c4.8-.78,5.32-7,2.65-10-3.63-4.13-9-5.5-14.07-7.23q-9.34-3.22-18.7-6.39l-1.6,11.79c18,1.28,35.77,2.22,53.65-.44,7.13-1.06,4.64-11.24-1.6-11.79-7.13-.63-30.94-.67-28.18,11.75,1.28,5.73,8.27,6.7,13,7.63,6.26,1.22,11.08.76,15.69-4,7.18-7.47,13.26-21.8,0-26.65-11.25-4.12-26.3-1.24-37.32,2.33-5.26,1.71-5.51,7.9-1.43,11,9.55,7.18,21.55,4.58,31.85.7,6.12-2.31,5.52-11.65-1.6-11.79a43.27,43.27,0,0,0-18.56,3.91c-4.95,2.16-3.13,9.67,1.43,11,9.16,2.6,19.56,3.54,28-1.8,5.72-3.63,13.7-13.45,8.59-20.32l-.94,7.27,2.45-2.48c3.44-3.48,1.11-10.65-4.24-10.24-8,.61-16,1.43-24,1.57-8.56.15-16.74-1.5-25.21-2.39-3.87-.41-7.61-.17-11.47-.22-3.59,0-7.07-1.2-10.66-1-7.45.33-12,6.17-11,13.32.26,1.93,2.38,3.78,4.19,4.19a263.51,263.51,0,0,0,41.17,6l-3-11.18-14,8.06c-6.69,3.86-.65,14.23,6.06,10.36l14-8.06c5.4-3.12,2.7-10.8-3-11.18a242.69,242.69,0,0,1-38-5.55l4.19,4.19c.33,2.39.66,1.83,2.71,2.13,1.34.2,2.68.49,4,.62,2.82.28,5.6,0,8.42,0,6.16,0,12.19,1.25,18.27,2,12.43,1.59,24.95.1,37.38-.85l-4.24-10.24-2.45,2.48c-1.7,1.72-2.5,5.16-.94,7.27-.91-1.22.38-1.21-.69,0-.58.64-.91,1.52-1.52,2.18a12.44,12.44,0,0,1-5.17,3.26c-5.09,1.74-10.64.51-15.64-.91l1.43,11a29.15,29.15,0,0,1,12.5-2.27l-1.6-11.79c-7.42,2.8-15.59,5.79-22.61.51l-1.43,11c9.1-3,19-4.5,28.55-3.07,2.33.35,1.71.2.65,2.25a20.93,20.93,0,0,1-3.6,5.08c-1.69,1.73-2.53,1.25-4.85.76-1.94-.41-4.65-.64-6.23-1.8l2.76,3.59q-3,5.14-.08,3.9,1.24-.37,2.51-.64a37.58,37.58,0,0,1,4.37-.73,49.19,49.19,0,0,1,9.47,0L209,120.86c-16.7,2.48-33.71,1.2-50.46,0-7.06-.5-7.71,9.71-1.6,11.79q7.58,2.57,15.14,5.17c3.89,1.34,9.53,2.18,12.33,5.37l2.65-10-14.75,2.4c-3.81.62-7.72.89-11,3.08-4.62,3.08-3.3,11.54,3,11.18L214,147l-1.6-11.79a12.81,12.81,0,0,1-6.76-.11l2.65,10q5.86-5.23,11.61-10.57c3.05-2.84,6.39-5.65,8.46-9.33,3.46-6.14,2.39-15.17-4.68-18.23-3.87-1.68-9.25.18-9,5.18.24,5.39,1.93,10.36,2.76,15.64.59,3.77.44,8.11-3.43,9.87l8.21,8.21c5.72-8.51,5.5-18.78,4.59-28.59-.71-7.63-12.71-7.7-12,0Z" transform="translate(-15.87 -92.79)"/><path class="cls-2" d="M101.81,118.82c-2.6-1.69-6,.63-6.44,3.44-.59,4.2,4.67,3.85,7.07,2.36,1.09-.68.09-2.41-1-1.73s-4.72,1.79-4-.67c.38-1.34,2.08-2.52,3.38-1.67,1.08.7,2.09-1,1-1.73Z" transform="translate(-15.87 -92.79)"/><path class="cls-2" d="M97.12,117.12a1.55,1.55,0,0,1,2-1.1,2.74,2.74,0,0,1,1.78,2.27c.41,1.83-.44,3.7.07,5.5.59,2.09,3.7,3.26,4.89,1,.6-1.14-1.12-2.15-1.73-1q-.61.48-.91-.18a1.13,1.13,0,0,1-.42-1.27,11.39,11.39,0,0,1,.1-1.22,11.29,11.29,0,0,0,0-2.75,5.37,5.37,0,0,0-2-3.7c-2-1.39-5.22-.63-5.71,1.91-.24,1.26,1.68,1.8,1.93.53Z" transform="translate(-15.87 -92.79)"/><path class="cls-2" d="M108.8,115.81l-.25,9.52,2-.27c-.3-1.77-.08-5.05,1.63-6.24,3.58-2.49,1.9,4.9,1.71,5.6h1.93c-.34-2-.71-6.92,2.92-6.3,2.31.4,1.45,5,1.31,6.59-.12,1.28,1.89,1.27,2,0,.31-3.41.9-9.12-4.06-8.52-4.53.55-4.73,5.09-4.1,8.76.17,1,1.69.9,1.93,0,.66-2.43,1.87-9.57-2.83-8.79-4,.66-4.91,6.25-4.37,9.44.19,1.14,1.94.82,2-.27l.25-9.52a1,1,0,0,0-2,0Z" transform="translate(-15.87 -92.79)"/><path class="cls-2" d="M157.93,116.27l-.25,9.52,2-.27c-.3-1.77-.08-5.05,1.63-6.24,3.58-2.49,1.9,4.9,1.71,5.6h1.93c-.34-2-.71-6.92,2.92-6.3,2.31.4,1.45,5,1.31,6.59-.12,1.28,1.89,1.27,2,0,.31-3.41.9-9.12-4.06-8.52-4.53.55-4.73,5.09-4.1,8.76.17,1,1.69.9,1.93,0,.66-2.43,1.87-9.57-2.83-8.79-4,.66-4.91,6.25-4.37,9.44.19,1.14,1.94.82,2-.27l.25-9.52a1,1,0,0,0-2,0Z" transform="translate(-15.87 -92.79)"/><path class="cls-2" d="M126.94,122c2.38.32,7-.54,6.57-3.87-.27-2.36-4.12-3.19-5.82-1.94-2.29,1.68-2.78,6-1.21,8.26a3.87,3.87,0,0,0,6.44.12c.73-1.06-1-2.06-1.73-1-1,1.39-2.76.55-3.33-.7a4.94,4.94,0,0,1,.52-4.34,1.87,1.87,0,0,1,2.5-.68c.91.48.35,1.26-.31,1.71a4.69,4.69,0,0,1-3.09.51c-1.26-.17-1.8,1.76-.53,1.93Z" transform="translate(-15.87 -92.79)"/><path class="cls-2" d="M140,118.38c-4.43-.51-7.11,6.29-2.45,7.84,1.73.58,2.89-.65,3.45-2.16,1.18-3.16,1.41-7,1.55-10.32h-2a33,33,0,0,1-.51,6.22c-.26,1.42-.82,3-.22,4.43a2.6,2.6,0,0,0,4.2,1c.94-.89-.48-2.3-1.41-1.41a2,2,0,0,1-.89-2.26q.13-.59.25-1.19.18-.93.3-1.87a35,35,0,0,0,.28-4.88,1,1,0,0,0-2,0,44.84,44.84,0,0,1-.92,7.55c-.14.63-.56,4.34-2.38,1.93-1.41-1.86,1.66-3,2.75-2.84,1.28.15,1.27-1.86,0-2Z" transform="translate(-15.87 -92.79)"/><path class="cls-2" d="M174.46,117.58v8.17a1,1,0,0,0,2,0v-8.17a1,1,0,0,0-2,0Z" transform="translate(-15.87 -92.79)"/><path class="cls-2" d="M175.46,115.44a1,1,0,0,0,0-2,1,1,0,0,0,0,2Z" transform="translate(-15.87 -92.79)"/><path class="cls-2" d="M179.7,113.85c0,2,0,4.05-.06,6.08-.06,1.54-.49,3.38-.12,4.87s2.33,2.63,3.52,1.13c.79-1-.61-2.42-1.41-1.41,0,0-.12-1.72-.11-2,.05-1,.11-2,.14-3,.06-1.88.07-3.76,0-5.65a1,1,0,0,0-2,0Z" transform="translate(-15.87 -92.79)"/><path class="cls-2" d="M185.65,113.62q.05,6.18,0,12.37a1,1,0,0,0,2,0q.08-6.18,0-12.37a1,1,0,0,0-2,0Z" transform="translate(-15.87 -92.79)"/><path class="cls-2" d="M187.79,122.49a10.65,10.65,0,0,0,3.94-3.82,1,1,0,0,0-1.73-1,8.61,8.61,0,0,1-3.22,3.1c-1.12.63-.12,2.36,1,1.73Z" transform="translate(-15.87 -92.79)"/><path class="cls-2" d="M186.52,122.62a10.11,10.11,0,0,0,2.2,1.72c.67.44,1.35.88,1.51,1.71.25,1.26,2.18.73,1.93-.53-.45-2.26-2.89-2.76-4.23-4.32-.84-1-2.25.44-1.41,1.41Z" transform="translate(-15.87 -92.79)"/><path class="cls-2" d="M68.94,116.07c-1.78-2.7-6.15-2.57-7,.88a3.82,3.82,0,0,0,1.48,4,12,12,0,0,0,3,1.2q1.48.2.5,1.62.21,1.75-1.5,1.48c-.36,0-2.68.27-2.3-.7.47-1.2-1.46-1.72-1.93-.53-1.73,4.39,6.75,3.86,8.36,1.17a3.07,3.07,0,0,0-1.1-4.26c-1-.68-2.22-.73-3.26-1.31-3.23-1.81.39-5,2-2.59.7,1.07,2.44.07,1.73-1Z" transform="translate(-15.87 -92.79)"/><path class="cls-2" d="M75.52,113.68v8.45c0,1.48-.32,3.46.59,4.76,1.84,2.64,3.71-.12,4.76-1.77.69-1.09-1-2.1-1.73-1s-1,1.67-1.62.13c-.35-.91,0-2.7,0-3.7v-6.87a1,1,0,0,0-2,0Z" transform="translate(-15.87 -92.79)"/><path class="cls-2" d="M73.19,119.21a16.49,16.49,0,0,0,5.74-.87c1.21-.41.69-2.34-.53-1.93a14.84,14.84,0,0,1-5.21.79,1,1,0,0,0,0,2Z" transform="translate(-15.87 -92.79)"/><path class="cls-2" d="M85.13,120.86c2.51.39,6.72-.09,6.3-3.66-.37-3.14-4.35-3.06-6-1.1s-2.11,6.48-.44,8.72a3.71,3.71,0,0,0,6.2-.56c.62-1.13-1.11-2.14-1.73-1a1.71,1.71,0,0,1-3.07.08,5.44,5.44,0,0,1-.37-3.08c.1-1.27.6-3.67,2.34-3.62s.9,2-.31,2.36a5.82,5.82,0,0,1-2.36-.05c-1.26-.2-1.8,1.73-.53,1.93Z" transform="translate(-15.87 -92.79)"/><path class="cls-2" d="M125.78,134c-4.73.39-5.23,10.1-.18,10.12,4.58,0,6.33-11.13.74-10.24-1.27.2-.73,2.13.53,1.93s.93,2.55.79,3.16c-.21.93-1.13,3.6-2.61,3-1.68-.72-1.26-5.76.73-5.93,1.27-.11,1.28-2.11,0-2Z" transform="translate(-15.87 -92.79)"/><path class="cls-2" d="M132.5,140v2.75l2-.27c-.14-.78.71-2.52,1.63-2.72,1.49-.32,1.29,1.63,1.25,2.53h2a2.75,2.75,0,0,1,.34-1.54c.37-.54,1.12-1.2,1.49-.06a15.33,15.33,0,0,1,0,2.42c.16,1.26,2.16,1.28,2,0-.24-1.91.46-4.81-2.33-5-2.42-.2-3.44,2.2-3.49,4.23,0,1.29,1.94,1.28,2,0,.09-2-.66-5.12-3.39-4.58a4.81,4.81,0,0,0-3.42,5.3c.19,1.13,2,.84,2-.27V140a1,1,0,0,0-2,0Z" transform="translate(-15.87 -92.79)"/><path class="cls-2" d="M144.56,135.1l-.21,4.41a10,10,0,0,0,0,3.36,1.54,1.54,0,0,0,1.29,1.13c.83.09,1-.55,1.71-.82,1.18-.47.66-2.41-.53-1.93a6.92,6.92,0,0,0-1,.61q.76.5.5-.47l.06-1.26.24-5c.06-1.29-1.94-1.28-2,0Z" transform="translate(-15.87 -92.79)"/><path class="cls-2" d="M119.12,133.65c-3.29-.4-5.25,3.49-5.29,6.32,0,2.65,2.28,5.49,5.14,4.3,2.43-1,2.71-5.09.33-6.33-2.16-1.13-4.7,1-5.29,3.07a1,1,0,0,0,1.93.53,3.44,3.44,0,0,1,1.65-1.84c2.14-.66,1.5,4.59-1,2.32-1.89-1.71-.09-6.68,2.54-6.36,1.27.16,1.26-1.85,0-2Z" transform="translate(-15.87 -92.79)"/></svg>