<svg id="Слой_1" data-name="Слой 1" xmlns="http://www.w3.org/2000/svg" viewBox="0 0 222.38 41.37"><defs><style>.cls-1{fill:#f7e7ce;}.cls-2{fill:#333;}</style></defs><title>steamedmilk3</title><path class="cls-1" d="M52.47,167.83q97.4-.57,194.79.66c3.22,0,3.22-5,0-5q-97.39-1.24-194.79-.66c-3.22,0-3.22,5,0,5Z" transform="translate(-48.47 -129.04)"/><path class="cls-1" d="M247.62,168.62h18.17c3.22,0,3.22-5,0-5H247.62c-3.22,0-3.22,5,0,5Z" transform="translate(-48.47 -129.04)"/><path class="cls-1" d="M55.28,163.73c-1.37-2.44-1.12-4.72-.92-7.37a2.54,2.54,0,0,0-2.5-2.5h0l2.5,2.5c-.2-3.24-.16-6.51-.21-9.75,0-2.12-.07-4.24-.08-6.36a11.57,11.57,0,0,0,0-2.72c0-.14.1-1.82,0-.9l-3.08,1.75h0A2.54,2.54,0,0,0,54,136.63c-.15.43,2.15-2,2.71-2.16,3.64-1.39,9.91.85,13.66,1.34a135.89,135.89,0,0,0,21.82.91c16-.48,31.87-2.75,47.87-2.77,16.83,0,33.65,1.62,50.49,1.78q24.84.24,49.69.14c4.21,0,8.45-.11,12.65.19,2.82.2,9.24.2,11.51,2.47,1.54,1.54-.39,8-.4,10.31,0,4.91.39,9.61-1.79,14.2-1.37,2.89,2.94,5.43,4.32,2.52,3.49-7.34,1-14.81,3.2-22.2,1.56-5.13-.19-8.43-5.39-10.35-7.78-2.87-17-2.16-25.09-2.14-9.72,0-19.43,0-29.15-.05-19.79-.06-39.47-.59-59.23-1.58-19.36-1-38.45,1.79-57.76,2.45-10.32.35-20.11-.87-30.32-2-5.59-.61-11.45-.56-13.61,5.59l3.08-1.75h0a2.51,2.51,0,0,0-3.08,1.75c-1,6.67-.26,14.33.16,21.06a2.57,2.57,0,0,0,2.5,2.5h0l-2.5-2.5c-.28,3.64-.22,6.66,1.6,9.9,1.57,2.81,5.89.29,4.32-2.52Z" transform="translate(-48.47 -129.04)"/><path class="cls-1" d="M264.56,167.39a5.07,5.07,0,0,0,4.42-3.75c.53-2.26.12-5,.12-7.3,0-3.22-5-3.22-5,0l0,4.46a6.34,6.34,0,0,1,0,1.72c.18-.33-.54,0-.88,0-1.35.19-2.06,1.89-1.75,3.08a2.56,2.56,0,0,0,3.08,1.75Z" transform="translate(-48.47 -129.04)"/><path class="cls-1" d="M267.33,166.15a52.16,52.16,0,0,0,2.16-16.6c-.11-3.21-5.11-3.22-5,0a47.71,47.71,0,0,1-2,15.27c-.91,3.09,3.91,4.41,4.82,1.33Z" transform="translate(-48.47 -129.04)"/><path class="cls-1" d="M48.88,165.73c2.15,3.3,6,3.07,9.57,2.64a104.07,104.07,0,0,1,19.65-.3c6.31.42,12.62,1.06,19,1s12.39-1.07,18.6-1.49c11.86-.81,23.6,2.1,35.46,2.35a155.39,155.39,0,0,0,36.08-3.46c3.14-.68,1.81-5.5-1.33-4.82A149.1,149.1,0,0,1,153,164.94c-11-.1-21.76-2.66-32.67-2.57s-21.67,2.07-32.73,1.39c-5.36-.33-10.7-.87-16.07-1a82.74,82.74,0,0,0-8.39.12c-1.59.11-9,1.74-9.91.35-1.75-2.69-6.08-.18-4.32,2.52Z" transform="translate(-48.47 -129.04)"/><path class="cls-1" d="M181.73,167.16c13.43-.5,26.5,3,39.92,3.23,13.82.25,27.59-1.27,41.3-2.8,3.16-.35,3.2-5.36,0-5-13.71,1.53-27.48,3-41.3,2.8-13.42-.23-26.47-3.73-39.92-3.23-3.21.12-3.22,5.12,0,5Z" transform="translate(-48.47 -129.04)"/><path class="cls-1" d="M53.08,161.84c.51.19,1.59-8.65,1.75-9.76a79.81,79.81,0,0,0,.94-9.26c.09-3.22-4.91-3.22-5,0-.14,5.22-1.24,10.33-1.81,15.51-.39,3.5-1,6.89,2.79,8.33,3,1.14,4.32-3.69,1.33-4.82Z" transform="translate(-48.47 -129.04)"/><path class="cls-1" d="M78.64,148.39c3.87,4.29,11.91,4.87,17.28,4.41,2.23-.19,4.59-.81,5.56-3.07,1.06-2.48-.37-4.86-2.67-5.89-5.14-2.3-12.64-.75-16.36,3.44-3.91,4.41-1.44,9.52,4.2,10.15,5,.57,14-1,17.16-5.41,4.73-6.55-6-8.73-10.2-8.84-5.34-.14-14.18,1.08-15.73,7.36-1.62,6.59,6.85,8,11.47,7.89,4.82-.13,16-2.15,14.29-9.31-.61-2.63-3.43-4.22-6-4.3-4-.13-5.71,3.07-9.18,4.14l4.92,2.79,0,.18c2-4.68-4.87-8.76-6.91-4a9.51,9.51,0,0,0-.78,6c.35,2.09,3,3.38,4.92,2.79A17.67,17.67,0,0,0,95,154.83l1.63-1.27q1.44-.77-.27-1.34l-.4-3.08q.73-.72-.1-.15a5.47,5.47,0,0,1-1.5.65,16.08,16.08,0,0,1-3.71.74,18.35,18.35,0,0,1-3.81,0l-1.08-.16q-1.43-.38-.6-.14l.4,3.08c.44-3.13,11.37-2.13,13-1l-1.84-2.39.2.75.4-3.08c.84-1.11-.81.18-1.31.39a19.8,19.8,0,0,1-3.16,1c-.94.23-4.85,1.4-5.59.6l1.17,2.83c0,.08,2.18-1.05,3-1.23,1.23-.28,3.22-.47,4.38.17l-2-3.45,0,.4,2-3.45c-1.68,1.28-9.87-.19-11.51-2-3.46-3.83-9.1,1.84-5.66,5.66Z" transform="translate(-48.47 -129.04)"/><path class="cls-1" d="M105.83,152.73c-4.94.06-9.88.11-14.81.06-2.47,0-4.93-.07-7.4-.17q-1.64,0-3.27-.17-2.91-1.15-.74,1L77.78,158c1.34-.72,5.09-.24,6.67-.33,2.55-.14,5.11-.24,7.65-.5,3.17-.32,7.63-.22,8.89-3.8,2.64-7.53-10-8.07-14.3-8.13-5.15-.08-5.15,7.92,0,8,2,0,6.36-.49,7.81,1.3l-1-3.89-.19.6,2.79-2.79c-4.25,1.3-9.12,1.05-13.54,1.32-2.85.17-6.22-.06-8.79,1.32a4.11,4.11,0,0,0-1.84,4.52c.88,4.9,8,4.87,11.72,5,7.4.3,14.81.19,22.21.11,5.14-.06,5.16-8.06,0-8Z" transform="translate(-48.47 -129.04)"/><path class="cls-1" d="M69.19,145.16a29.86,29.86,0,0,0,0,6.13c.41,4,5.1,5.41,7.45,2a15.19,15.19,0,0,0,2.87-10.22c-.31-3.06-4.38-5.77-6.83-2.83a14.69,14.69,0,0,0-3.17,9.82A10.52,10.52,0,0,0,74.37,159c2.31,1.65,5-.22,5.88-2.39,1.63-4.11.08-8.08-1.6-11.89l-4.52,5.88c2.76.87,6.59,1.78,9.32.42A5,5,0,0,0,85,143a6.15,6.15,0,0,0-7.71-1.36c-2.89,1.84-3.52,5.79-2.85,8.86,1.09,5,8.8,2.9,7.71-2.13-.1-.48.11-.36-.43-.05l-2,.55a3.16,3.16,0,0,0-.81-.62l-.55-2,0-.3,1-1.77-.32.31,1.77-1c-1.28.52-3.31-.22-4.59-.62-3.66-1.15-5.82,2.92-4.52,5.88.86,1.94,1.61,3.67.79,5.72l5.88-2.39c-1.5-1.07-1.13-4.86-.07-6.13l-6.83-2.83a8.46,8.46,0,0,1-1.78,6.18l7.45,2a29.86,29.86,0,0,1,0-6.13c.22-2.15-2-4-4-4a4.09,4.09,0,0,0-4,4Z" transform="translate(-48.47 -129.04)"/><path class="cls-1" d="M65.63,147.89l-10.1,9.76c-3.57,3.45-1,10.61,4.24,10.24l31.32-2.17c7.88-.54,7.53-11,0-12-6.34-.82-12.21-2.44-18.4-3.84-6-1.37-11.3,1.85-17.19,1.37l5.18,9c5.21-7.47,4.41-15.83,2.42-24.26l-.6,4.62-.73.82a6.14,6.14,0,0,0,2.76-6.78,6.36,6.36,0,0,0-4.66-4.48l2.65,10,.06-.05-4.24,1.76c6.56-.09,13.17,1.8,19.72,2.37a134.81,134.81,0,0,0,20.58.12L97,132.63c-10.16,2.09-20,2.08-30.28,2.58-3.79.18-7.41,2-8,6.13s2.9,7.85,5.51,10.53a6.11,6.11,0,0,0,7.27.94l6.73-4L71,139.4A46.41,46.41,0,0,1,61.94,145L68,155.4a76.9,76.9,0,0,1,51.92-7.2l1.6-11.79c-7.68.73-15.42,1.26-23.08,2.21-5.49.68-11.94,3.43-12.9,9.66-1.11,7.22,6.86,8.35,12.08,8.53a187.87,187.87,0,0,0,23.45-1.16l-1.6-11.79L91.26,153c-6.1,2-5.48,12.39,1.6,11.79l16.81-1.44-1.6-11.79c-9.21,3.56-19.12,4-28.87,4.44-7.67.37-7.77,12.17,0,12l30.23-.67c7.71-.17,7.74-12.17,0-12L79.19,156v12c10.74-.52,21.93-1,32.06-4.87,5.78-2.23,5.7-12.41-1.6-11.79l-16.81,1.44,1.6,11.79,28.22-9.15c6.09-2,5.48-12.43-1.6-11.79-4.68.43-9.36.86-14.05,1.07-2.19.1-4.39.16-6.58.15-1.39,0-4.82.45-5.94-.4l3,5.18q-1.27,3-.17,1.33a10.26,10.26,0,0,1,2.81-.53c2.25-.33,4.55-.43,6.81-.65l14.59-1.39c6.26-.6,8.7-10.23,1.6-11.79A89.94,89.94,0,0,0,61.94,145c-6.85,3.67-.81,13.78,6.06,10.36a59.27,59.27,0,0,0,11.52-7.51c5.32-4.4-1.52-12.83-7.27-9.42l-6.73,4,7.27.94c-.64-.66-2-1.85-2.32-2.84l-.6,4.62.36-.61-3.59,2.76c2.13-.6,5.09-.05,7.33-.1q4.67-.1,9.32-.51a150.51,150.51,0,0,0,16.93-2.5c6.57-1.35,5.18-12.24-1.6-11.79a132.34,132.34,0,0,1-24.28-.49c-5.74-.67-15.41-4.51-20.33-.18-3.4,3-1.55,9,2.65,10l.42.11-4.19-4.19.06.18,2.76-6.78c-4.2,2.68-4.65,5.74-3.65,10.4s1.11,8.65-1.74,12.73,1.05,8.69,5.18,9a26,26,0,0,0,8.12-.84c3.54-.82,5.66-1,9.19,0,5.95,1.79,12.15,2.5,18.29,3.29v-12l-31.32,2.17L64,166.13l10.1-9.76c5.56-5.38-2.93-13.86-8.49-8.49Z" transform="translate(-48.47 -129.04)"/><path class="cls-1" d="M113.4,167.42a422.21,422.21,0,0,0,48.23-2.71c7.49-.86,7.83-12.52,0-12a172,172,0,0,1-52.74-4.34v11.57q19.55-3.38,39.27-5.47c6.81-.73,8.05-9.28,1.6-11.79-3.47-1.35-7.56-.92-11.22-1q-7.17-.08-14.34-.06-6.69,0-13.38.12c-2,0-4.06.13-6.09.09q-1.35,0-2.69-.13-1.42-.41-.51-.06l-4.24,10.24a133.62,133.62,0,0,1,14.21-.36c2.61.09,10.4-.46,12.21,1.65l-1.54-5.84-.41,1.06,2.76-3.59c-3.37,1.81-7.28,2.41-7.28,7.32,0,4.76,5,7.07,8.87,8.27,11.21,3.47,23.06.12,34.36-.85,7.64-.66,7.71-12.66,0-12-6.53.56-13,1.89-19.52,2.26a41.76,41.76,0,0,1-8-.19,18.82,18.82,0,0,1-3.62-.79c-1.84-.65-2.34-2.29-.88.27v6.06c-.45,1.06-3.12,1.56-.94,1.33a7.58,7.58,0,0,0,2.73-1.12c2-1.2,2.72-2.74,3.54-4.84s-.24-4.31-1.54-5.84c-3.55-4.14-10-4.3-15.07-4.8a117.31,117.31,0,0,0-19.84,0A6.08,6.08,0,0,0,93,150.17c5.17,5.82,16.73,3.61,23.5,3.55q7.65-.07,15.29,0c4.41,0,10.6-1,14.72.58l1.6-11.79q-21.32,2.27-42.46,5.9c-6,1-5.48,10.22,0,11.57a183,183,0,0,0,55.93,4.77v-12a422.21,422.21,0,0,1-48.23,2.71c-7.72,0-7.73,12,0,12Z" transform="translate(-48.47 -129.04)"/><path class="cls-1" d="M157.37,146.64c-12.26-.45-26.77,2-38.28-3.28l-3,11.18c14.39-.72,28.94-.93,43.1-3.81,7.25-1.48,4.5-11-1.6-11.79a358.5,358.5,0,0,0-49.72-3.08c-7.72.05-7.74,12.05,0,12a358.5,358.5,0,0,1,49.72,3.08L156,139.15c-13.08,2.67-26.62,2.72-39.91,3.39-5.43.27-8.82,8.51-3,11.18,13.9,6.41,29.49,4.38,44.33,4.92,7.72.28,7.71-11.72,0-12Z" transform="translate(-48.47 -129.04)"/><path class="cls-1" d="M94.16,143.39c26.24-1.12,53-4.46,79,.19l1.6-11.79c-18.28,1.21-36.49-1.59-54.77-1.32-6.65.1-8.29,10.1-1.6,11.79,28.45,7.15,58.06,7.08,87.16,9v-12q-33,3.73-66.14,6v12q24.47-3.1,49.08-4.77c7.66-.52,7.78-11.71,0-12q-17.39-.64-34.78-.8c-7.72-.07-7.73,11.93,0,12q17.4.16,34.78.8v-12q-24.61,1.68-49.08,4.77c-7.44.94-7.86,12.54,0,12q33.13-2.29,66.14-6c7.57-.86,7.85-11.47,0-12-28-1.89-56.57-1.72-84-8.61L120,142.48c18.28-.27,36.49,2.53,54.77,1.32,6.31-.42,8.66-10.53,1.6-11.79-27.27-4.86-54.79-1.79-82.23-.62-7.69.33-7.73,12.33,0,12Z" transform="translate(-48.47 -129.04)"/><path class="cls-1" d="M148.54,161q25.7-1.65,51.45-.93l-1.6-11.79q-19.83,3.32-39.81,5.52c-7.56.83-7.86,11.55,0,12l13.19.75,5.65.32c1.62.09,5-.37,6.42.55l3-11.18c-8.41.53-16.83.81-25.25.77-7.81,0-15.64-.13-23.17-2.41s-10.57,9.34-3.19,11.57c16.18,4.9,35,3.12,51.61,2.07a6.05,6.05,0,0,0,3-11.18c-3.91-2.64-9.83-2-14.36-2.3l-17-1v12q21.58-2.38,43-6c6.88-1.15,4.92-11.6-1.6-11.79q-25.74-.71-51.45.93c-7.67.49-7.72,12.49,0,12Z" transform="translate(-48.47 -129.04)"/><path class="cls-1" d="M185.54,165.74q26.45.45,52.89.5c7.81,0,7.62-11.43,0-12-12.23-.92-24.46,1-36.71.05-4.79-.36-11.12-2.6-14.94,1.44-3.64,3.86-1.49,9.58,2.68,12,4.68,2.69,11,2.11,16.18,2.1,6.24,0,12.48-.16,18.72-.31,12-.29,24.12-.67,35.85-3.55l-4.62-11-4,2.33a6.07,6.07,0,0,0,1.43,11c4.58,1.26,10.31-.08,12.46-4.71a8.84,8.84,0,0,0,.86-4.15c0-.57-.44-2.56-.42-2.59a17,17,0,0,0,2.21-1.44,8.09,8.09,0,0,0,2.25-3.37c1.31-3.79-.4-10.74-2.43-14.07-2.83-4.65-8.4-6.49-13.58-6.39-7.71.15-7.74,12.15,0,12,2.61-.05,3.28.24,3.81,2.67l.37,2.08q.21,2.32,1.31-1.7c-.24-.22-2.57,1.9-2.77,2.1A10.26,10.26,0,0,0,254,155a8.22,8.22,0,0,0,.13,3.63c1.24,3.07.1-2.49,2.06-2l1.43,11,4-2.33c5.94-3.46,2-12.58-4.62-11-10.1,2.48-20.47,2.82-30.81,3.08-5.21.13-10.43.26-15.64.32-3,0-5.91.06-8.87,0-1.2,0-2.42,0-3.62-.09s-2.73-1-2,.14l.6,4.62.13-.91-2.76,3.59c-.9.63,2.43.63,3.06.7q2.76.32,5.53.51c4.06.27,8.12.32,12.18.2,7.88-.23,15.72-.91,23.6-.32v-12q-26.45,0-52.89-.5c-7.72-.13-7.73,11.87,0,12Z" transform="translate(-48.47 -129.04)"/><path class="cls-1" d="M245.79,145.14c.58,3.45.57,5.64-2.23,8-4.8,4,.4,11.45,5.84,10,4.61-1.2,8.83-3.87,10.41-8.6a11.7,11.7,0,0,0,.46-5.63c-.44-2.85-2.47-5.33-2.82-8.14l-7.6,5.79q.89-5.5-1.51-3.72-1,.59-2.06,1.1c-1.58.82-3.19,1.61-4.78,2.41q-4.83,2.41-9.69,4.75c-4.38,2.11-3.65,10.24,1.43,11a41.36,41.36,0,0,0,11.55.27c7.4-1,8-12.24,0-12l-49.71,1.51,1.6,11.79c6.86-2.28,15.54-1.79,22.74-2.42,5.69-.5,8.46-8,3-11.18-4.27-2.53-9.38-3-14.19-3.93l-17.37-3.2-1.6,11.79c17.35.67,34.72,1.27,52.06-.12,7.64-.61,7.8-11.64,0-12a94.09,94.09,0,0,0-15,.43c-4.07.46-8.58.56-11.66,3.57a6.06,6.06,0,0,0,0,8.49c3.19,2.89,7.3,2.94,11.41,3.43,3.47.41,7,.89,10.42-.11,5.93-1.72,14.45-7.79,13.37-14.76-1.21-7.76-11.87-7.84-17.79-8a139.91,139.91,0,0,0-27.49,2.19c-6.5,1.14-4.83,9.64,0,11.57,9.69,3.88,20.53,2.06,30.42,0,6.76-1.38,5-11.72-1.6-11.79a71.3,71.3,0,0,0-17.13,1.88c-5.47,1.29-6,10.66,0,11.57,9.54,1.46,19.74,2.35,28.83-1.56,6.59-2.84,13.43-10.87,5.58-16.59v10.36l2.45-1.34c5.15-2.81,2.91-11.43-3-11.18-8,.33-16,.77-24,.85s-16.18-.74-24.3-1.24c-3.57-.22-7.13-.23-10.7-.19-3.86,0-7.69-.62-11.54-.57-6.52.08-13.15,3.29-11.82,10.72.5,2.81,3.31,4.1,5.79,4.4q19.72,2.42,39.57,3.11l-1.6-11.79-14,4.35c-7.35,2.29-4.21,13.88,3.19,11.57l14-4.35c6.48-2,5.24-11.54-1.6-11.79q-19.85-.71-39.57-3.11l5.79,4.4-.15-.83-.6,4.62c-1,1.49.59.69,1.81.71s2.7.23,4.06.34c2.79.23,5.56.2,8.36.17,6.38-.07,12.69.53,19,1,12.76,1,25.53.14,38.29-.39l-3-11.18L244.68,133c-4.28,2.34-3.45,7.85,0,10.36l.64.46-3-5.18q1.08-2.34.06-1.1a15.32,15.32,0,0,1-2,1.11,22.13,22.13,0,0,1-6.14,1.53,54,54,0,0,1-14.76-.61v11.57a57.4,57.4,0,0,1,13.94-1.45l-1.6-11.79c-7.95,1.62-16.27,3.06-24,0V149.4c9.35-1.63,19.31-2.5,28.79-1.57a11.24,11.24,0,0,1,2.07.28q4.08,1.66-.64-4.49c-1,0-3.34,2.8-4.69,3.18-1.74.5-3.78.06-5.54-.13q-1.73-.18-3.44-.41-2.59-.92-1.17.31v8.49c-1.33,1.3,2.32,0,3.17-.06,1.54-.19,3.09-.31,4.64-.4a95.79,95.79,0,0,1,10.33,0v-12c-17.33,1.39-34.7.79-52.06.12-6.64-.26-8.33,10.55-1.6,11.79l15.44,2.85c4.14.77,9.58.9,13.25,3.08l3-11.18c-8.25.73-18,.23-25.93,2.85-6.18,2.05-5.46,12,1.6,11.79l49.71-1.51v-12a30.89,30.89,0,0,1-8.36.16l1.43,11q5.67-2.73,11.29-5.55c3.42-1.72,7.27-3.3,9.78-6.31,4.95-5.95.79-12.86-5.89-14.62-3.38-.89-8.09,1.79-7.6,5.79a38.07,38.07,0,0,0,2.4,8.27c.74,2.12.9,1.87-1.63,2.53l5.84,10c6.22-5.18,6.57-12.19,5.31-19.64s-12.85-4.38-11.57,3.19Z" transform="translate(-48.47 -129.04)"/><path class="cls-2" d="M138.11,140.1c-2.31-1.5-5.38.54-5.74,3a2.62,2.62,0,0,0,1.92,3,5.78,5.78,0,0,0,4.36-.86c1.09-.68.09-2.41-1-1.73-.77.48-3.8,1.51-3.25-.42.31-1.07,1.66-2,2.7-1.36s2.09-1,1-1.73Z" transform="translate(-48.47 -129.04)"/><path class="cls-2" d="M134.14,138.8a1.19,1.19,0,0,1,1.52-.85,2.22,2.22,0,0,1,1.43,1.85c.35,1.57-.38,3.18.06,4.73.54,1.91,3.38,2.95,4.46.91.6-1.14-1.12-2.15-1.73-1-.44.84-.88-1.28-.87-1.18a9.72,9.72,0,0,1,.09-1.05,9.78,9.78,0,0,0,0-2.38,4.75,4.75,0,0,0-1.78-3.28c-1.76-1.23-4.68-.55-5.12,1.73-.24,1.26,1.68,1.8,1.93.53Z" transform="translate(-48.47 -129.04)"/><path class="cls-2" d="M143.91,137.63l-.22,8.19,2-.27c-.25-1.46-.07-4.26,1.37-5.23,2.8-1.89,1.4,4.08,1.24,4.67h1.93c-.27-1.61-.62-5.8,2.38-5.24,1.82.35,1.1,4.28,1,5.53s1.89,1.27,2,0c.27-3,.73-8-3.65-7.46-4,.49-4.2,4.47-3.65,7.7.17,1,1.69.9,1.93,0,.6-2.2,1.59-8.4-2.57-7.74-3.51.55-4.38,5.47-3.9,8.3.19,1.14,1.94.82,2-.27l.22-8.19a1,1,0,0,0-2,0Z" transform="translate(-48.47 -129.04)"/><path class="cls-2" d="M186.14,138l-.22,8.19,2-.27c-.25-1.46-.07-4.26,1.37-5.23,2.8-1.89,1.4,4.08,1.24,4.67h1.93c-.27-1.61-.62-5.8,2.38-5.24,1.82.35,1.1,4.28,1,5.53s1.89,1.27,2,0c.27-3,.73-8-3.65-7.46-4,.49-4.2,4.47-3.65,7.7.17,1,1.69.9,1.93,0,.6-2.2,1.59-8.4-2.57-7.74-3.51.55-4.38,5.47-3.9,8.3.19,1.14,1.94.82,2-.27l.22-8.19a1,1,0,0,0-2,0Z" transform="translate(-48.47 -129.04)"/><path class="cls-2" d="M159.61,143.12c2.15.29,6.19-.51,5.83-3.5-.26-2.12-3.7-2.88-5.24-1.73-2,1.5-2.45,5.27-1.06,7.27a3.47,3.47,0,0,0,5.78.11c.73-1.06-1-2.06-1.73-1s-2.18.37-2.63-.6a4.13,4.13,0,0,1,.44-3.59c.28-.51.35-.62.92-.65a2.23,2.23,0,0,1,1.07.12c.67.39.19.88-.3,1.21a3.89,3.89,0,0,1-2.55.43c-1.26-.17-1.8,1.76-.53,1.93Z" transform="translate(-48.47 -129.04)"/><path class="cls-2" d="M170.88,139.7c-4-.45-6.29,5.56-2.18,7,4.4,1.54,4.42-8.56,4.51-10.85h-2a28.15,28.15,0,0,1-.44,5.31c-.23,1.25-.72,2.64-.19,3.88a2.38,2.38,0,0,0,3.85.9c.94-.89-.48-2.3-1.41-1.41s-.31-2.84-.32-2.83q.15-.82.26-1.65a30.2,30.2,0,0,0,.24-4.19,1,1,0,0,0-2,0,38.33,38.33,0,0,1-.79,6.45c-.11.53-.38,3.38-1.78,1.66-1.21-1.49,1.4-2.36,2.23-2.27,1.28.15,1.27-1.86,0-2Z" transform="translate(-48.47 -129.04)"/><path class="cls-2" d="M200.36,139.16v7a1,1,0,0,0,2,0v-7a1,1,0,0,0-2,0Z" transform="translate(-48.47 -129.04)"/><path class="cls-2" d="M201.36,137.45a1,1,0,0,0,0-2,1,1,0,0,0,0,2Z" transform="translate(-48.47 -129.04)"/><path class="cls-2" d="M204.87,136c0,1.74,0,3.49-.05,5.23a16.41,16.41,0,0,0-.1,4.21c.36,1.49,2.16,2.44,3.26,1.05.79-1-.61-2.42-1.41-1.41.57-.71.24-3.38.27-4.22.05-1.62.06-3.24,0-4.85a1,1,0,0,0-2,0Z" transform="translate(-48.47 -129.04)"/><path class="cls-2" d="M210,135.75q0,5.32,0,10.63a1,1,0,0,0,2,0q.07-5.32,0-10.63a1,1,0,0,0-2,0Z" transform="translate(-48.47 -129.04)"/><path class="cls-2" d="M212,143.5a9.3,9.3,0,0,0,3.44-3.33,1,1,0,0,0-1.73-1,7.26,7.26,0,0,1-2.72,2.62c-1.12.63-.12,2.36,1,1.73Z" transform="translate(-48.47 -129.04)"/><path class="cls-2" d="M210.77,143.59a8.84,8.84,0,0,0,1.92,1.5c.55.36,1.1.71,1.24,1.39.25,1.26,2.18.73,1.93-.53-.39-2-2.5-2.41-3.67-3.77-.84-1-2.25.44-1.41,1.41Z" transform="translate(-48.47 -129.04)"/><path class="cls-2" d="M109.89,137.79c-1.59-2.42-5.51-2.29-6.25.79a3.43,3.43,0,0,0,1.33,3.63,19.89,19.89,0,0,0,2.6,1q1.18.15.42,1.25.14,1.37-1.24,1.14c-.25,0-2.09.2-1.84-.42.47-1.2-1.46-1.72-1.93-.53-1.56,3.95,6,3.56,7.45,1.12a2.78,2.78,0,0,0-1-3.85c-.87-.58-1.93-.63-2.82-1.13-2.54-1.45.29-3.95,1.55-2,.7,1.07,2.44.07,1.73-1Z" transform="translate(-48.47 -129.04)"/><path class="cls-2" d="M115.29,135.8v7.27c0,1.31-.27,3,.52,4.17,1.64,2.39,3.37,0,4.33-1.52.69-1.09-1-2.1-1.73-1-.49.78-.76,1.47-1.13.19a13,13,0,0,1,0-3.18V135.8a1,1,0,0,0-2,0Z" transform="translate(-48.47 -129.04)"/><path class="cls-2" d="M113.42,140.69a14.3,14.3,0,0,0,5-.75c1.21-.41.69-2.34-.53-1.93a12.64,12.64,0,0,1-4.45.68,1,1,0,0,0,0,2Z" transform="translate(-48.47 -129.04)"/><path class="cls-2" d="M123.65,142.11c2.26.36,6-.13,5.59-3.32-.36-2.81-3.91-2.77-5.43-1s-1.86,5.69-.38,7.67A3.33,3.33,0,0,0,129,145c.62-1.13-1.11-2.14-1.73-1a1.33,1.33,0,0,1-2.4.06,4.57,4.57,0,0,1-.3-2.58c.08-1,.47-3,1.87-3s.58,1.5-.31,1.75a4.84,4.84,0,0,1-2,0c-1.26-.2-1.8,1.73-.53,1.93Z" transform="translate(-48.47 -129.04)"/><path class="cls-2" d="M158.64,154c-4.24.35-4.68,9-.16,9,4.13,0,5.64-9.88.6-9.08-1.27.2-.73,2.13.53,1.93.9-.14.6,2.15.51,2.54-.16.71-.9,2.93-2,2.47-1.33-.54-1-4.71.56-4.84,1.27-.11,1.28-2.11,0-2Z" transform="translate(-48.47 -129.04)"/><path class="cls-2" d="M164.28,159.28v2.36l2-.27c-.11-.61.61-2.05,1.34-2.18,1.1-.2.89,1.4.87,2.06h2c0-.49.72-2.74,1.29-1.37.22.53-.07,1.48,0,2.08.16,1.26,2.16,1.28,2,0-.22-1.73.37-4.28-2.15-4.48-2.16-.17-3.09,1.95-3.14,3.77,0,1.29,1.94,1.28,2,0,.08-1.86-.64-4.57-3.09-4.07a4.28,4.28,0,0,0-3,4.73c.19,1.13,2,.84,2-.27v-2.36a1,1,0,0,0-2,0Z" transform="translate(-48.47 -129.04)"/><path class="cls-2" d="M174.65,155.08l-.18,3.79a8.75,8.75,0,0,0,0,2.93,1.47,1.47,0,0,0,1.24,1.08c.75.07.91-.47,1.51-.71,1.18-.47.66-2.41-.53-1.93-.18.07-.89.63-1,.64l.71.29c-.34-.28.06-2.34.09-2.84l.15-3.25c.06-1.29-1.94-1.28-2,0Z" transform="translate(-48.47 -129.04)"/><path class="cls-1" d="M262.94,167.93c4.3-.32,5.55-.95,6-5.45a182.08,182.08,0,0,0,.9-19.85c0-3.22-5-3.22-5,0,0,3.92,0,7.83-.26,11.75q-.15,2.71-.38,5.41c-.15,1.79.53,3-1.27,3.15-3.19.24-3.22,5.24,0,5Z" transform="translate(-48.47 -129.04)"/><path class="cls-1" d="M262,164.35c5.44-.29,8.26-4.64,8.56-9.79.21-3.68-.11-7.34.13-11,.19-2.9,0-5.38-1.58-7.89-1.71-2.71-6-.21-4.32,2.52,2,3.1.51,6.9.53,10.33,0,3.07,1.75,10.59-3.32,10.86-3.2.17-3.22,5.17,0,5Z" transform="translate(-48.47 -129.04)"/><path class="cls-1" d="M257.79,136.5h3.89c.79,0,2.84-.25,3.15.12.43.52.11,2.54.09,3.12a15.7,15.7,0,0,1-.62,4.27c-.93,3.09,3.9,4.41,4.82,1.33s1.74-8.52-.12-11.58c-2.08-3.43-7.87-2.27-11.21-2.27s-3.22,5,0,5Z" transform="translate(-48.47 -129.04)"/><path class="cls-2" d="M149.87,155.39l.61.18a.57.57,0,0,1-.2.67,2.39,2.39,0,0,1-1.19.9c-1,.48-.3,2.12.77,1.83a1.1,1.1,0,0,1,1,1.89c-.33.31-3,1.67-3.08.21,0-1.28-2-1.29-2,0,.13,3.69,5.06,2.91,6.8.88,2-2.36-.49-5.66-3.3-4.91l.77,1.83c1.47-.68,3-2.24,2.25-4a2.37,2.37,0,0,0-3.49-1.22c-1,.73,0,2.47,1,1.73Z" transform="translate(-48.47 -129.04)"/></svg>