<svg id="Слой_1" data-name="Слой 1" xmlns="http://www.w3.org/2000/svg" viewBox="0 0 228.33 192.72"><defs><style>.cls-1{fill:#faebd7;}.cls-2{fill:#333;}</style></defs><title>whippedcream</title><path class="cls-1" d="M98.65,80.8c-11.71,1.09-24.35,2.33-33.93,9.86-8.28,6.5-13.15,16.83-10.51,27.29l2.07-5.08c-12.46,5.28-20,19.29-17.79,32.6,1.38,8.39,5.9,17.16,9.46,24.86a45.32,45.32,0,0,0,15.55,18.31c6.75,4.75,14.43,8.21,21.88,11.69,8.17,3.81,16.56,7.37,25.36,9.45a66.33,66.33,0,0,0,26,1.19c8.59-1.41,15.93-6.89,24.59-7.57,5.32-.42,10.72-.36,16.05-.5,5-.14,10.73-1,15.65.41,4.5,1.29,8.22,3.57,13.07,3.49a21,21,0,0,0,12.22-4.28c4.58-3.43.1-11.25-4.54-7.77-2.71,2-5.75,3.36-9.22,3-4-.41-7.55-3-11.55-3.71-7.26-1.27-15.21-.16-22.54,0s-14.39.27-21.31,3.23c-7.37,3.14-14.18,5.52-22.33,5.47-16-.09-30.9-7.2-45-14.12-6.21-3.06-12.59-6.27-17.74-11-5.76-5.28-8.57-12.2-11.46-19.29-3-7.36-7-14.71-4.87-22.84a22.12,22.12,0,0,1,13.08-14.91c1.83-.77,2.51-3.33,2.07-5.08-2-7.93,3.14-15.47,9.74-19.48,7.72-4.69,17.25-5.46,26-6.28,5.72-.53,5.77-9.54,0-9Z" transform="translate(-38.11 -19.02)"/><path class="cls-1" d="M215.26,203.5c17.36-4.23,36.11-14.36,45.84-29.88,5.08-8.1,5.47-17.57,5.3-26.87-.15-8.25-2.35-16.94-11.25-19.44-5.59-1.57-8,7.11-2.39,8.68,6.45,1.81,4.83,13.44,4.6,18.5A29.35,29.35,0,0,1,249,174.54c-9.71,10.21-22.52,17-36.12,20.28-5.62,1.37-3.24,10.05,2.39,8.68Z" transform="translate(-38.11 -19.02)"/><path class="cls-1" d="M258.12,131.68c-7.66-14.29-28.46-13.28-42.38-14.35-17.32-1.33-34.95-1-51.51,4.75-5.43,1.9-3.1,10.6,2.39,8.68,14.09-4.92,28.82-5.63,43.62-4.8,7.33.41,14.64,1.13,21.93,1.94,6.81.76,14.61,1.65,18.19,8.32,2.74,5.11,10.51.57,7.77-4.54Z" transform="translate(-38.11 -19.02)"/><path class="cls-1" d="M106.35,86.28C104.57,73,111.08,63.44,119.6,53.93c8-8.89,17.28-18,30-18.17,5.79-.08,5.8-9.08,0-9-15.21.22-26.68,10-36.33,20.81-10,11.13-18,23.08-15.88,38.72.76,5.66,9.77,5.73,9,0Z" transform="translate(-38.11 -19.02)"/><path class="cls-1" d="M118.41,54.86c16.08-15.68,37.11-31.58,61-25.6V20.58C169.18,22,160.06,32.23,164.16,42.73c3.93,10.09,16.86,17,25.84,21.8,10.48,5.65,22.78,9.18,32.49,16.09,11.53,8.2,11.94,23.78,9.58,36.38-1.06,5.66,7.61,8.09,8.68,2.39,2.09-11.19,2.46-22.76-2.47-33.29-4.47-9.53-12.6-14.64-21.86-18.87C206.2,62.56,195.84,58.05,186.36,52c-4.48-2.88-10.66-6.51-13.27-11.36-3.29-6.12,3.29-10.6,8.69-11.35,4.54-.63,4-7.67,0-8.68-27.23-6.82-51.19,9.83-69.73,27.92-4.15,4.05,2.21,10.41,6.36,6.36Z" transform="translate(-38.11 -19.02)"/><path class="cls-1" d="M133.26,77l.33,35.78h15a230.66,230.66,0,0,1,3-73.37c1.6-7.78-10-14-13.71-5.78-6.25,13.68-9.07,28-10.66,42.9-.93,8.68,12.34,9.76,14.73,2,2.6-8.43,5.23-17.76,11.37-24.39,3.25-3.51,7.66-5.64,10.77-9.26a15.77,15.77,0,0,0,3.6-14.38c-1.14-4.93-6.91-6.62-11-4.48-9.44,4.91-9.36,15.23-8.49,24.43a177.1,177.1,0,0,1,0,32.35l14.73-2a54.15,54.15,0,0,1,2.2-23.33c2.83-9.25-11.64-13.21-14.46-4a71.74,71.74,0,0,0-2.2,31.3c.51,3.68,5,5.81,8.23,5.37,3.88-.52,6.17-3.59,6.5-7.37A177.34,177.34,0,0,0,163.74,58c-.2-3.78-.62-7.54-.95-11.31-.21-2.43-1.14-6.43,1.44-7.78l-11-4.48c.3,1.3-6.88,5.62-7.85,6.46a43.5,43.5,0,0,0-8.29,10c-4.47,7.22-7.11,15.5-9.6,23.57l14.73,2c1.29-12,3.55-24.25,8.61-35.33l-13.71-5.78a243.22,243.22,0,0,0-3.53,77.36c1.09,9.32,15.09,9.91,15,0L148.26,77c-.09-9.65-15.09-9.67-15,0Z" transform="translate(-38.11 -19.02)"/><path class="cls-1" d="M136.36,51.94a104,104,0,0,0-23.46,30l17.36,7.32c1.87-10.21,7.57-18.71,11.76-28,2.46-5.47,5.2-11.48,1.83-17.24-3.68-6.3-11.44-5.87-17-2.56C107.82,52.88,104.16,82.35,106,102.34c.46,5.11,4,9.5,9.5,9.5,4.78,0,10-4.36,9.5-9.5a80.53,80.53,0,0,1,2.56-29.26c1.35-4.82,4.14-14.31,9.87-15.61l-7.32-1,.78.46-4.37-5.68q.43-3.73-.54-.44l-.34.77c-.66,1.52-1.41,3-2.14,4.49-1.48,3-3.05,5.9-4.53,8.88-3,6.13-5.77,12.45-7,19.2-.85,4.64.88,9.35,5.5,11.21,4.18,1.68,9.64.38,11.86-3.89a89.29,89.29,0,0,1,20.49-26.15c9.19-8.1-4.29-21.49-13.44-13.44Z" transform="translate(-38.11 -19.02)"/><path class="cls-1" d="M126.1,103c0-6.31.19-12.7-.16-19s-2.72-13.28-9.52-15.25c-7.07-2.05-13.28,3.34-13.59,10.36-.27,6.21.11,12.47-.16,18.7-.54,12.23,18.46,12.2,19,0,.28-6.36-.1-12.75.18-19.1l-1.3,4.79.33-.69-5.68,4.37.79-.27h-5.05l.86.33-4.19-2.44c-1.29-1.23-.27-1.39-.64.61-.31,1.69,0,4.14,0,5.87L107.1,103c.09,12.22,19.09,12.25,19,0Z" transform="translate(-38.11 -19.02)"/><path class="cls-1" d="M111.69,88.57,89.82,87.7c-12.23-.49-12.21,18.52,0,19l21.87.87c12.23.49,12.21-18.52,0-19Z" transform="translate(-38.11 -19.02)"/><path class="cls-1" d="M91.54,88.62c-8.86-2.1-18-.42-25.12,5.46a20.53,20.53,0,0,0-6.79,9.82,17,17,0,0,0-.42,6.63c.08.66.78,6.74,1.57,7.06-1.78-.72,3.31-5.18-1.66-1.42a30.14,30.14,0,0,0-4.2,3.69,38.79,38.79,0,0,0-6.78,10.76c-3.52,8-6.15,16.84-4.91,25.69,2.33,16.65,20,30,33.36,38.25,8.25,5.13,16.15,5.9,25.58,6.66,4.13.33,7.73,2.14,11.58,3.53a31.51,31.51,0,0,0,12.81,1.88c9.63-.68,17.92-5.51,27.22-7.43,3.65-.76,7.45-.66,11.09-1.55a20,20,0,0,0,11.77-8.22c3-4.15.7-10.59-3.41-13-4.81-2.81-10-.75-13,3.41,1.4-1.92-.12-.52-1.7-.26-1.35.23-2.75.25-4.11.41a59.14,59.14,0,0,0-11.93,2.67c-6.6,2.2-14.15,6.42-21.28,4.57-3.85-1-7.34-3-11.22-4-5-1.2-10-.65-15-1.42-7.36-1.14-14-6.88-19.49-11.57-4.78-4.09-12.08-9.44-13.46-16-1.29-6.18,2.14-15.59,6-20.55,1.87-2.41,4.62-3.64,6.81-5.7a15.32,15.32,0,0,0,4.46-14,24.79,24.79,0,0,0-1-4.29q-.47-2.57-.38-.7-.82,1.4.74-.47c2.56-1.57,4.83-2.25,7.8-1.55,11.89,2.81,17-15.5,5.05-18.32Z" transform="translate(-38.11 -19.02)"/><path class="cls-1" d="M168.3,174.22l-45.88-.32c-12.41-.09-27.91,2-39.33-3.88-12.27-6.37-8.68-18.11-4.72-28.89s8.39-21.77,17.17-29.66l-15.88-9.24a89.17,89.17,0,0,1-6.11,20.6c-2.64,6.45-6.18,12.95-7.55,19.82-2.89,14.5,7.69,28.87,16,39.8,2.87,3.77,7.18,5.95,11.86,3.89,4-1.78,7.12-6.68,5.5-11.21-3.44-9.61-7-19.32-3.86-29.47,2.89-9.3,8.48-17.57,11.72-26.77,1.7-4.84-1.93-10.39-6.64-11.69-5.25-1.44-10,1.78-11.69,6.64-3.6,10.22-10.17,19.27-12.58,29.95-2.84,12.57.49,24.58,4.72,36.4l17.36-7.32a131.91,131.91,0,0,1-10.53-16c-2.9-5.24-4.22-8.22-2.16-14,4.23-11.9,10.38-22.89,12.26-35.54,1.37-9.18-8.35-16-15.88-9.24-11.64,10.46-17.51,25.32-22.67,39.71-5.52,15.43-6.38,32.42,7.21,43.92,12.9,10.92,29.76,11,45.79,11.16l55.86.39c12.23.09,12.24-18.91,0-19Z" transform="translate(-38.11 -19.02)"/><path class="cls-1" d="M116.13,77.34a161.29,161.29,0,0,0-13.66,37.92c-2.66,12,14.18,16.49,18.32,5.05a115.33,115.33,0,0,1,11.5-23c4.45-6.94-2.93-16.34-10.73-14-18,5.51-24.22,23.25-28.4,39.83-4.38,17.38-5.09,36.25,7.88,50.24l9.24-15.88a6.42,6.42,0,0,1-4.78-2.67c-2.67-3.18-8.11-3.48-11.51-1.49-3.95,2.31-5,6.49-4.37,10.73,1.43,10.26,6.9,28.85,19.87,28.85,15.26,0,13.23-23.56,12.17-33.52-.62-5.87-2-11.89-.82-17.77,1.26-6.05,4.17-11.62,6.59-17.26,5.31-12.38,9.46-25.27,8.83-38.92h-19c2.58,31.74-9.45,65.4,8.5,94.59,4.13,6.72,15.4,5.9,17.36-2.27,3.34-13.89,1.62-28,3.45-42,1.7-13,9.45-24.42,8.54-37.89-.32-4.7-3.37-8.75-8.24-9.33-4.31-.51-9.58,2.09-10.42,6.8-2.44,13.72-4.82,27.45-6.59,41.28-1.63,12.83-3.59,26.69-2.28,39.63.62,6.09,3.64,12.17,9.92,14.06A14.78,14.78,0,0,0,154,183.9c3.35-5.42,3-11.95,3.21-18.09l.65-20.94h-19c.54,8.56,1,17.14,1.63,25.69.29,4,.61,8.12,3.5,11.26a12,12,0,0,0,11.84,3.41c14.54-3.51,20.84-21.88,26.06-34l-17.7-4.79.33,12.07c.09,3.44.91,7.86.43,11.23l2.44-4.19c1.88-1.71.74-.13-.42-1.38s-2.21-2.1-3.23-3.26a61,61,0,0,1-6.14-8.14c-4.2-6.78-3.36-13.39-1.86-20.95a134.34,134.34,0,0,0,3-26.64c0-5.84-3.06-15.52,2.09-19.71,8.62-7-2.39-19.93-11.51-14.92-3.9,2.14-9.21,1.09-13.52,1.28-6.34.29-12.56,1.71-17.43,6-10.24,9-11,26.72-2.85,37.08,3.82,4.86,12.19,2.92,14.92-1.92l17.85-31.65c2-3.53,3.87-8.07,7.15-10.62s7.42,0,10.7,1.6c10.92,5.41,20.56-11,9.59-16.41-7.08-3.51-14.86-6.79-22.91-4.74-7,1.78-12,6.7-16,12.42S129.58,75.85,126.11,82L114,103.38,129,101.46c.37.47,0-2.74.07-3.41.1-1.49.26-3.65,1.07-4.93,1.2-1.88,2.93-2.09,5-2.29,8.4-.83,16,.36,23.81-3.91L147.42,72c-12.13,9.84-7,27.54-7.92,40.95C138.41,128.49,132,143,139,158.15c2.72,5.9,7.09,11.3,11.37,16.15,4.67,5.29,11,9.48,18.28,9.52,8.8,0,15-5.46,15.24-14.22.19-7.7-.43-15.51-.64-23.2-.24-8.59-13.75-14-17.7-4.79-2.35,5.47-4.69,11-7.53,16.19-1.71,3.15-3.81,8.53-7.76,9.22h5.05l-1.13-.22,4.19,2.44-.88-.86,2.44,4.19c-1.23-3.48-.82-8.92-1.07-12.89l-.94-14.82c-.77-12.13-18.62-12.32-19,0l-.44,14.28c-.13,4.1-1.4,9.88-.44,13.84a5.51,5.51,0,0,1,0,.6q-.38,4.52,8.53,1.49c.43-1.08-.09-3.9-.08-5.16,0-4.57.22-9.13.52-13.69,1.24-18.75,4.55-37.25,7.84-55.72L136.16,98c.4,6-1.47,11.32-3.45,16.9a90.86,90.86,0,0,0-4.87,19.2c-1.62,12.86,0,26.06-3,38.73l17.36-2.27c-15.5-25.21-3.67-57.43-5.91-85-.42-5.11-4.07-9.5-9.5-9.5-5,0-9.74,4.35-9.5,9.5.79,16.9-7.93,30.5-13.23,45.9-2.78,8.08-2.91,15.93-1.84,24.31.92,7.24,2.57,17-.09,24l2.44-4.19-.69.79,4.19-2.44-1.09.39H112q2.55,2.7,1.23.74-.67-1.08-1.25-2.2a29.68,29.68,0,0,1-1.75-3.92,48.48,48.48,0,0,1-2.31-9.85l-15.88,9.24a22.08,22.08,0,0,0,13.16,7.56c9.12,1.51,16.08-8.5,9.24-15.88-7.93-8.55-5.57-21.54-3-31.76,2.28-9.06,4.7-23.38,15.12-26.56l-10.73-14a137.65,137.65,0,0,0-13.42,27.49l18.32,5.05a141.26,141.26,0,0,1,11.74-33.38C138,76,121.65,66.41,116.13,77.34Z" transform="translate(-38.11 -19.02)"/><path class="cls-1" d="M155.06,45.71c-1.69,13.45,7.31,22,18.79,26.66,9.54,3.88,17,11.3,27,14.25,11.75,3.46,16.77-14.87,5.05-18.32-7-2.07-12.49-7.72-19-10.91-3.23-1.57-6.78-2.54-9.92-4.29s-3.35-3.85-2.91-7.38c.64-5.1-4.82-9.5-9.5-9.5-5.67,0-8.86,4.39-9.5,9.5Z" transform="translate(-38.11 -19.02)"/><path class="cls-1" d="M206.75,87.68a12.48,12.48,0,0,1,12.76,5c2.84,3.85,5.18,11.21,2.27,15.5l17.36,2.27a144.64,144.64,0,0,0-8.94-24.86c-4-8.72-18-4.2-17.7,4.79a142.63,142.63,0,0,1-.49,20.65l18.66-2.53c-2.93-7.06-6-14-9.35-20.92-4.15-8.55-18-4.33-17.7,4.79l.66,19.21,17.7-4.79L208.6,83c-3.65-6.51-16.2-6.11-17.36,2.27-1.5,10.75-1.14,21.24-.3,32l17.7-4.79L193,79.28c-4.11-8.71-17.86-4.2-17.7,4.79.17,9.69,2.75,18.82,5.73,28l17.36-7.32a259.29,259.29,0,0,0-20.72-36.45c-2.65-3.9-7.35-5.87-11.86-3.89-3.89,1.71-7.33,6.77-5.5,11.21l12.4,30,15.88-9.24q-9.41-8.69-18-18.13c-6.26-6.85-19,.28-15.88,9.24,3.78,10.86,8,21.54,12.5,32.11L183.53,110a116.22,116.22,0,0,0-11.39-18.6l-14.92,11.51a236.63,236.63,0,0,0,20.18,20.61l13.44-13.44c-10.16-8-20.31-15.7-32.86-19.49-6.3-1.9-11.57,3.22-12,9.16a87.6,87.6,0,0,0,9.11,45.48c4.1,8.35,18.34,4.47,17.7-4.79C172,128.73,171,117,168.6,105.5c-1.95-9.25-16.13-8.86-18.32,0a204.2,204.2,0,0,0-5.9,43.83c-.23,9.19,13.38,13.25,17.7,4.79l10.69-20.89L155.41,131a119.5,119.5,0,0,0,14.51,27.49c5.75,8,16.53,4.66,17.7-4.79a114.64,114.64,0,0,0,.33-25.3l-17.7,4.79,16.31,37.33L201.48,159a141.81,141.81,0,0,0-13.89-9.67c-6.77-4.06-16.76,2.75-14,10.73,1.49,4.24,3.24,11.17,2.13,14.51l2.44-4.19q1.57-.67.12-.27a17.41,17.41,0,0,0-1.78.43,17.86,17.86,0,0,0-3.78,1.71A13.05,13.05,0,0,0,167,180c-3.44,11.76,14.89,16.78,18.32,5.05l.29-1-2.44,4.19q-2.91,1-.47.31l1.38-.29a19.28,19.28,0,0,0,4.79-2c3.64-2.26,5.48-6.11,5.91-10.24A49.33,49.33,0,0,0,192,155l-14,10.73a101.82,101.82,0,0,1,10,6.7c8.62,6.68,19.37-1.33,14.92-11.51l-16.31-37.33c-3.72-8.52-18.59-4.34-17.7,4.79a114.64,114.64,0,0,1-.33,25.3l17.7-4.79a101.12,101.12,0,0,1-12.6-23c-2.67-7-13.32-10.17-17.36-2.27l-10.69,20.89,17.7,4.79a179.65,179.65,0,0,1,5.22-38.78H150.28c2.07,9.86,2.8,19.86,3.49,29.89l17.7-4.79A68.64,68.64,0,0,1,165,99.76l-12,9.16c9.22,2.78,17,8.72,24.48,14.6,4,3.17,9.51,3.93,13.44,0,3.49-3.49,3.82-10,0-13.44a236.63,236.63,0,0,1-20.18-20.61c-7-8-21.43,2.83-14.92,11.51a116.22,116.22,0,0,1,11.39,18.6c2.26,4.61,8.8,5.86,13,3.41,4.88-2.86,5.43-8.26,3.41-13-3.87-9.06-7.35-18.27-10.59-27.57l-15.88,9.24q8.64,9.45,18,18.13a9.76,9.76,0,0,0,11.51,1.49c3.32-1.94,5.95-6.91,4.37-10.73l-12.4-30-17.36,7.32a259.29,259.29,0,0,1,20.72,36.45c4.54,9.74,20.68,2.86,17.36-7.32-2.44-7.5-4.91-15-5-22.92l-17.7,4.79,15.67,33.21c4,8.42,18.42,4.42,17.7-4.79-.69-8.88-1.61-18.11-.38-27l-17.36,2.27,13.38,23.84c4.54,8.09,18,4.66,17.7-4.79l-.66-19.21-17.7,4.79c2.62,5.4,5.14,10.85,7.44,16.39,4.16,10,17.39,8.44,18.66-2.53a142.65,142.65,0,0,0,.49-20.65l-17.7,4.79a118,118,0,0,1,7,20.32c2.13,8.38,13,8.75,17.36,2.27,7-10.38,3.8-26.39-3.2-36a31.85,31.85,0,0,0-33.29-12.5c-11.89,2.81-6.86,21.13,5.05,18.32Z" transform="translate(-38.11 -19.02)"/><path class="cls-1" d="M173,173.42a22.79,22.79,0,0,0-12.77,10.15c-3.32,5.58,0,11.95,5.68,14,7.25,2.56,15.64,2.59,23.24,3.47,8.23,1,16.42,2.3,24.69,1.08,15.21-2.26,29-13,39.63-23.6,6.76-6.72-.11-18.33-9.24-15.88-10,2.68-19.06,7.7-28.88,10.8-7.42,2.34-15.53,3.49-22.45-.78-10.43-6.45-20,10-9.59,16.41,9.83,6.08,21.56,6.47,32.58,3.94,11.57-2.66,21.93-9,33.39-12L240,165c-7.85,7.81-18.61,17.26-30.12,18.5-6.52.7-13.38-.69-19.84-1.44-6.29-.73-13.1-.78-19.11-2.9l5.68,14c.68-1.15.49-1.09,1.41-1.41,11.48-4,6.54-22.35-5.05-18.32Z" transform="translate(-38.11 -19.02)"/><path class="cls-1" d="M198.16,179.92l26.48-.46c12.31-.21,12.14-18.26,0-19-5.91-.36-12.38-1.22-17.15-5.06C203.28,152,203,147,202.84,142l-17.7,4.79q4.54,7.39,9.61,14.42l14.92-11.51c-4.35-5.31-9.16-11.67-11.62-18.14a9.19,9.19,0,0,1-.49-1.59q-.1-1-.28,0a21.91,21.91,0,0,1-7.1-.67s-.06,0-.07-.09c-1.31,2.5-1.1,8.13-.87,10.81,1.41,16.29,15.8,23.28,25.12,34.63l13.44-13.44a39.85,39.85,0,0,1-8-10.25,18.13,18.13,0,0,1-2.23-5.19c-.35-2.18-.37.34-.22-.37a11.78,11.78,0,0,1,1.84-2.67c5.67-8,6.47-18.67-2.53-24.62-7.33-4.85-15.62,3.13-14,10.73,2.72,12.4,5.5,26,12.91,36.64,7.72,11.05,21.16,15.31,33.23,8.26,11-6.41,16.49-21.44,13.75-33.7-3-13.58-22.72-17.46-34.4-18-8.47-.37-12.21,10.52-6.72,16.22q8.81,9.14,16.89,18.92l1.92-14.92a15.44,15.44,0,0,1-10,2.61l4.79,1.3v.09l2.44,4.19c-.58-1.64.38-2.95,1.41-4.45l-17.36-7.32c-.49,1.19-2.79,1.37-3.67,1.51-5.07.83-7.89,7.12-6.64,11.69,1.48,5.38,6.6,7.46,11.69,6.64,8.33-1.36,13.83-7.31,16.94-14.78,1.79-4.3-1.59-9.63-5.5-11.21-4.57-1.84-9.13-.12-11.86,3.89-4.75,7-6.81,19,.73,24.85s19.55,1.83,26.67-2.6c5.57-3.46,5.85-10.16,1.92-14.92q-8.09-9.78-16.89-18.92l-6.72,16.22a37.62,37.62,0,0,1,11.13,2.15c.53.19,5.77,2.42,5.63,2.68h.15q-1.45-3.88-1-.41c-.8,3.21-.2,6.15-2.14,9.13-1.2,1.85-3.25,3.69-5.61,3.77-4.75.14-7.49-7.52-8.9-11-3-7.56-4.72-15.64-6.45-23.57l-14,10.73c-5.56-3.67-.62-4.92-3.38-2.6-1.34,1.13-2.54,3.44-3.31,5a18.89,18.89,0,0,0-.89,14.65,55.46,55.46,0,0,0,14.88,23.08c9.06,8.55,21.08-4.12,13.44-13.44-5.59-6.81-16.28-12-19.21-20.63-1.62-4.76,1.08-10.1.11-15.13-1-5.19-4.22-9.93-9.26-11.91-12.8-5-22.88,8.36-20.5,20.18,2.16,10.73,10.51,21.11,17.28,29.37s21.24-2.74,14.92-11.51q-5.07-7-9.61-14.42c-4.79-7.8-18-4.88-17.7,4.79.27,10.45,2.65,20.44,11,27.44s19,9.37,29.81,10v-19l-26.48.46c-12.21.21-12.25,19.21,0,19Z" transform="translate(-38.11 -19.02)"/><path class="cls-2" d="M184.21,129l0,7c0,1.09,1.78,1.41,2,.27a10,10,0,0,0,.06-2.5c-.07-.77-.41-2.29.18-2.93s1.48.38,2.24.46a1.66,1.66,0,0,0,1.52-.65c.79-1-.62-2.42-1.41-1.41.19-.24-1.83-.82-2.15-.78a2.66,2.66,0,0,0-1.82,1.22c-1.24,1.87-.22,4-.55,6.06l2,.27,0-7a1,1,0,0,0-2,0Z" transform="translate(-38.11 -19.02)"/><path class="cls-2" d="M193,134.55c2.42.48,6.05-.69,6.26-3.61s-4.05-3.49-5.89-2a5.18,5.18,0,0,0-.51,7,4,4,0,0,0,6.13.07c.78-1-.62-2.43-1.41-1.41a2,2,0,0,1-2.65.53,2.93,2.93,0,0,1-1-3.32,2,2,0,0,1,1.38-1.56c.66-.19,1.65-.15,1.8.57.33,1.59-2.46,2.08-3.55,1.87-1.26-.25-1.8,1.68-.53,1.93Z" transform="translate(-38.11 -19.02)"/><path class="cls-2" d="M206.16,131.62c-2.06-1.34-4.79.46-5.13,2.69a2.39,2.39,0,0,0,1.75,2.78,5.09,5.09,0,0,0,3.85-.75c1.09-.68.09-2.41-1-1.73-.56.34-3,1.26-2.57-.2.24-.83,1.29-1.6,2.11-1.08,1.08.7,2.09-1,1-1.73Z" transform="translate(-38.11 -19.02)"/><path class="cls-2" d="M202.82,130.67a.87.87,0,0,1,1.12-.63c.67.15,1,.88,1.13,1.49.3,1.34-.33,2.72,0,4.05.49,1.75,3.1,2.67,4.08.81.6-1.14-1.12-2.15-1.73-1-.25.47-.49-1.25-.48-.94a8.27,8.27,0,0,1,.08-.9,8.46,8.46,0,0,0,0-2.06,4.2,4.2,0,0,0-1.6-2.92c-1.59-1.1-4.2-.48-4.59,1.56-.24,1.26,1.68,1.8,1.93.53Z" transform="translate(-38.11 -19.02)"/><path class="cls-2" d="M211,129.11l-.2,7.65,2-.27c-.23-1.33-.07-3.94,1.26-4.83,2.48-1.65,1.2,3.75,1,4.3H217c-.25-1.45-.59-5.36,2.16-4.81,1.63.32,1,4,.86,5.1-.12,1.28,1.89,1.27,2,0,.26-2.88.66-7.55-3.48-7-3.78.46-4,4.22-3.46,7.28.17,1,1.69.9,1.93,0,.57-2.11,1.48-7.92-2.46-7.31-3.33.51-4.16,5.15-3.7,7.84.19,1.14,1.94.82,2-.27l.2-7.65a1,1,0,0,0-2,0Z" transform="translate(-38.11 -19.02)"/><path class="cls-2" d="M180.35,129c-1.14-1.61-3.27-1.41-4.69-.24a5.29,5.29,0,0,0-1.78,4.8c.62,4.05,5.8,5.17,8.58,2.55.94-.88-.48-2.3-1.41-1.41-1.4,1.32-4.16,1.17-5-.74a3.25,3.25,0,0,1,.06-2.56c.24-.53,1.8-2.4,2.52-1.39s2.47,0,1.73-1Z" transform="translate(-38.11 -19.02)"/><path class="cls-2" d="M142.65,133.45c2.38.32,7-.54,6.57-3.87-.27-2.36-4.12-3.19-5.82-1.94-2.29,1.68-2.78,6-1.21,8.26a3.87,3.87,0,0,0,6.44.12c.73-1.06-1-2.06-1.73-1-1,1.39-2.76.55-3.33-.7a4.94,4.94,0,0,1,.52-4.34,1.87,1.87,0,0,1,2.5-.68c.91.48.35,1.26-.31,1.71a4.69,4.69,0,0,1-3.09.51c-1.26-.17-1.8,1.76-.53,1.93Z" transform="translate(-38.11 -19.02)"/><path class="cls-2" d="M156.73,129.79c-4.43-.51-7.11,6.29-2.45,7.84,1.73.58,2.89-.65,3.45-2.16,1.18-3.16,1.41-7,1.55-10.32h-2a33,33,0,0,1-.51,6.22c-.26,1.42-.82,3-.22,4.43a2.6,2.6,0,0,0,4.2,1c.94-.89-.48-2.3-1.41-1.41a2,2,0,0,1-.89-2.26q.13-.59.25-1.19.18-.93.3-1.87a35,35,0,0,0,.28-4.88,1,1,0,0,0-2,0,44.84,44.84,0,0,1-.92,7.55c-.14.63-.56,4.34-2.38,1.93-1.41-1.86,1.66-3,2.75-2.84,1.28.15,1.27-1.86,0-2Z" transform="translate(-38.11 -19.02)"/><path class="cls-2" d="M114.49,128.47v8.17a1,1,0,0,0,2,0v-8.17a1,1,0,0,0-2,0Z" transform="translate(-38.11 -19.02)"/><path class="cls-2" d="M115.49,126.32a1,1,0,0,0,0-2,1,1,0,0,0,0,2Z" transform="translate(-38.11 -19.02)"/><path class="cls-2" d="M82.74,127.34c.35,2.91,1.52,7.4,4.25,9.07,3.13,1.91,4.2-3,4.83-4.93H89.89c.53,1.67,2.43,6.25,4.89,5.42,1.17-.4,1.87-2.16,2.35-3.14a21,21,0,0,0,1.88-6c.21-1.26-1.72-1.8-1.93-.53a19.1,19.1,0,0,1-1.88,5.88c-1.47,2.8-2.84-.49-3.38-2.19a1,1,0,0,0-1.93,0,11.94,11.94,0,0,1-.87,2.69c-1.31,1.61-1.9,0-2.51-1a13.15,13.15,0,0,1-1.77-5.33c-.15-1.26-2.15-1.28-2,0Z" transform="translate(-38.11 -19.02)"/><path class="cls-2" d="M102.55,119.1q-.08,8.77.14,17.53h2c-.11-1.75-.65-5.7,1.75-6.27,3.33-.79,2.58,5.08,2.43,6.53-.14,1.28,1.87,1.27,2,0,.32-3,.36-8.59-4-8.58s-4.32,5.37-4.13,8.33c.08,1.27,2,1.3,2,0q-.22-8.76-.14-17.53a1,1,0,0,0-2,0Z" transform="translate(-38.11 -19.02)"/><path class="cls-2" d="M120.19,127.91q.08,8.91-.64,17.78c-.1,1.28,1.9,1.28,2,0q.72-8.88.64-17.78a1,1,0,0,0-2,0Z" transform="translate(-38.11 -19.02)"/><path class="cls-2" d="M121.81,130.8c1-.68,2.46-1.69,3.61-.66a3.25,3.25,0,0,1,1,2.59c-.13,1.86-2.38,3.09-3.82,1.66-.92-.91-2.33.51-1.41,1.41,2.57,2.54,6.81.7,7.2-2.74a5.21,5.21,0,0,0-1.94-4.67c-1.84-1.38-3.95-.45-5.64.67-1.07.7-.07,2.44,1,1.73Z" transform="translate(-38.11 -19.02)"/><path class="cls-2" d="M130.57,127.91q.08,8.91-.64,17.78c-.1,1.28,1.9,1.28,2,0q.72-8.88.64-17.78a1,1,0,0,0-2,0Z" transform="translate(-38.11 -19.02)"/><path class="cls-2" d="M132.19,130.8c1-.68,2.46-1.69,3.61-.66a3.25,3.25,0,0,1,1,2.59c-.13,1.86-2.38,3.09-3.82,1.66-.92-.91-2.33.51-1.41,1.41,2.57,2.54,6.81.7,7.2-2.74a5.21,5.21,0,0,0-1.94-4.67c-1.84-1.38-3.95-.45-5.64.67-1.07.7-.07,2.44,1,1.73Z" transform="translate(-38.11 -19.02)"/></svg>